
<svg width="300" height="279" viewBox="0 0 300 279" fill="none" xmlns="http://www.w3.org/2000/svg">
<g clip-path="url(#clip0_5171_8862)">
<mask id="mask0_5171_8862" style="mask-type:luminance" maskUnits="userSpaceOnUse" x="0" y="0" width="300" height="279">
<path d="M300 0H0V278.1H300V0Z" fill="white"/>
</mask>
<g mask="url(#mask0_5171_8862)">
<path d="M141.7 278.1H4.1C1.9 278.1 0 276.3 0 274V4.1C0 1.8 1.8 0 4.1 0H141.8C144 0 145.9 1.8 145.9 4.1V274.1C145.8 276.3 144 278.1 141.7 278.1ZM4.1 0.2C2 0.2 0.2 1.9 0.2 4.1V274.1C0.2 276.2 1.9 278 4.1 278H141.8C143.9 278 145.7 276.3 145.7 274.1V4.1C145.7 2 144 0.2 141.8 0.2H4.1Z" fill="#EBEBEB"/>
<path d="M295.9 278.1H158.3C156.1 278.1 154.2 276.3 154.2 274V4.1C154.2 1.9 156 0 158.3 0H296C298.2 0 300.1 1.8 300.1 4.1V274.1C300 276.3 298.2 278.1 295.9 278.1ZM158.3 0.2C156.2 0.2 154.4 1.9 154.4 4.1V274.1C154.4 276.2 156.1 278 158.3 278H296C298.1 278 299.9 276.3 299.9 274.1V4.1C299.9 2 298.2 0.2 296 0.2H158.3Z" fill="#EBEBEB"/>
<path d="M52.3996 80.8008L53.5996 83.1008L56.1996 83.5008L54.2996 85.3008L54.6996 87.9008L52.3996 86.7008L50.0996 87.9008L50.4996 85.3008L48.5996 83.5008L51.1996 83.1008L52.3996 80.8008Z" fill="#EBEBEB"/>
<path d="M283.1 190.699L284.3 192.999L286.9 193.399L285 195.199L285.4 197.799L283.1 196.599L280.8 197.799L281.2 195.199L279.3 193.399L281.9 192.999L283.1 190.699Z" fill="#F5F5F5"/>
<path d="M237.4 258.5L238.6 260.8L241.2 261.2L239.3 263L239.7 265.6L237.4 264.4L235.1 265.6L235.5 263L233.6 261.2L236.2 260.8L237.4 258.5Z" fill="#F5F5F5"/>
<path d="M132.9 39.4008L133.3 40.3008L134.3 40.4008C134.5 40.4008 134.6 40.7008 134.5 40.9008L133.8 41.6008L134 42.6008C134 42.8008 133.8 43.0008 133.6 42.9008L132.7 42.5008L131.8 42.9008C131.6 43.0008 131.3 42.8008 131.4 42.6008L131.6 41.6008L130.9 40.9008C130.7 40.7008 130.8 40.4008 131.1 40.4008L132.1 40.3008L132.5 39.4008C132.4 39.1008 132.8 39.1008 132.9 39.4008Z" fill="#EBEBEB"/>
<path d="M15.1001 247.4L15.5001 248.3L16.5001 248.4C16.7001 248.4 16.8001 248.7 16.7001 248.9L16.0001 249.6L16.2001 250.6C16.2001 250.8 16.0001 251 15.8001 250.9L14.9001 250.5L14.0001 250.9C13.8001 251 13.5001 250.8 13.6001 250.6L13.8001 249.6L13.1001 248.9C12.9001 248.7 13.0001 248.4 13.3001 248.4L14.3001 248.3L14.7001 247.4C14.7001 247.2 15.0001 247.2 15.1001 247.4Z" fill="#F5F5F5"/>
<path d="M34.3003 30.2008L34.7003 31.1008L35.7003 31.2008C35.9003 31.2008 36.0003 31.5008 35.9003 31.7008L35.2003 32.4008L35.4003 33.4008C35.4003 33.6008 35.2003 33.8008 35.0003 33.7008L34.1003 33.3008L33.2003 33.7008C33.0003 33.8008 32.7003 33.6008 32.8003 33.4008L33.0003 32.4008L32.3003 31.7008C32.1003 31.5008 32.2003 31.2008 32.5003 31.2008L33.5003 31.1008L33.9003 30.2008C33.9003 30.0008 34.2003 30.0008 34.3003 30.2008Z" fill="#EBEBEB"/>
<path d="M33.2004 202.002C33.2004 202.502 32.8004 202.902 32.3004 202.902C31.8004 202.902 31.4004 202.502 31.4004 202.002C31.4004 201.502 31.8004 201.102 32.3004 201.102C32.8004 201.102 33.2004 201.502 33.2004 202.002Z" fill="#EBEBEB"/>
<path d="M168.3 83.3997C168.3 83.8997 167.9 84.2997 167.4 84.2997C166.9 84.2997 166.5 83.8997 166.5 83.3997C166.5 82.8997 166.9 82.4997 167.4 82.4997C167.9 82.3997 168.3 82.7997 168.3 83.3997Z" fill="#EBEBEB"/>
<path d="M119.1 31.0013C119.1 31.5013 118.7 31.9013 118.2 31.9013C117.7 31.9013 117.3 31.5013 117.3 31.0013C117.3 30.5013 117.7 30.1013 118.2 30.1013C118.7 30.0013 119.1 30.4013 119.1 31.0013Z" fill="#F5F5F5"/>
<path d="M120.6 262.101C123.4 261.401 125.2 258.601 124.5 255.801C123.8 253.001 121 251.201 118.2 251.901C115.4 252.601 113.6 255.401 114.3 258.201C115 261.001 117.8 262.701 120.6 262.101Z" fill="#F0F0F0"/>
<path d="M117.6 253.898C116.5 253.898 115.5 254.298 114.6 254.898C114.3 255.498 114.2 256.198 114.2 256.998C114.2 259.898 116.5 262.198 119.4 262.198C120.4 262.198 121.3 261.898 122.1 261.498C122.5 260.798 122.7 259.898 122.7 259.098C122.7 256.198 120.5 253.898 117.6 253.898Z" fill="#E6E6E6"/>
<path d="M39 165.702V146.602L75.4 95.1016H100.9V145.702H110V165.702H100.9V179.802H77.4V165.702H39ZM79.2 121.202L62.8 145.802H79.2V121.202Z" fill="#353988"/>
<path d="M119.5 135.602C119.5 122.102 122.3 111.502 127.8 103.702C133.3 95.9016 142 92.1016 153.9 92.1016C165.7 92.1016 174.4 96.0016 180 103.702C185.6 111.502 188.4 122.102 188.4 135.602C188.4 149.202 185.6 159.902 180.1 167.702C174.6 175.502 165.8 179.302 153.9 179.302C142 179.302 133.2 175.402 127.7 167.702C122.2 160.002 119.5 149.302 119.5 135.602ZM165.4 135.602C165.4 128.502 164.6 123.202 163.1 119.502C161.6 115.702 158.5 113.902 153.9 113.902C149.2 113.902 146.2 115.802 144.7 119.502C143.2 123.202 142.4 128.602 142.4 135.602C142.4 142.802 143.1 148.302 144.5 152.102C146 155.802 149.1 157.602 153.9 157.602C158.6 157.602 161.7 155.802 163.1 152.102C164.6 148.302 165.4 142.802 165.4 135.602Z" fill="#353988"/>
<path d="M198.4 119.5C198.7 110.6 201.5 103.9 206.7 99.2C211.9 94.4 219.2 92 228.5 92C234.6 92 239.8 93.1 244 95.2C248.3 97.2 251.6 100.1 253.8 103.7C256 107.2 257.1 111.2 257.1 115.7C257.1 121 255.8 125.3 253.2 128.5C250.6 131.6 247.6 133.8 244.3 134.9V135.4C253.9 138.9 258.6 145.7 258.6 155.6C258.6 160.5 257.5 164.9 255.2 168.7C252.9 172.5 249.6 175.4 245.2 177.5C240.9 179.6 235.7 180.7 229.7 180.7C219.8 180.7 212 178.3 206.2 173.6C200.5 168.8 197.5 161.5 197.3 151.7H219.9C219.7 154.8 220.4 157.3 221.9 159C223.4 160.7 225.7 161.6 228.7 161.6C231 161.6 232.8 160.9 234 159.5C235.3 158.1 236 156.2 236 153.9C236 150.9 235 148.7 233 147.3C231.1 145.9 228 145.2 223.6 145.2H219.5V126.5H223.5C226.5 126.6 229 126.1 231.1 125.1C233.2 124 234.3 121.8 234.3 118.6C234.3 116.2 233.7 114.4 232.5 113.2C231.3 111.9 229.7 111.3 227.6 111.3C225.3 111.3 223.6 112.1 222.5 113.8C221.5 115.4 220.9 117.3 220.7 119.7H198.4V119.5Z" fill="#353988"/>
<g opacity="0.3">
<path d="M114.999 64.6008C114.999 65.3008 114.399 65.9008 113.699 65.9008C112.999 65.9008 112.399 65.3008 112.399 64.6008C112.399 63.9008 112.999 63.3008 113.699 63.3008C114.399 63.3008 114.999 63.9008 114.999 64.6008Z" fill="#407BFF"/>
<path d="M23.7996 115.8C24.2996 115.8 24.6996 115.4 24.6996 114.9C24.6996 114.4 24.2996 114 23.7996 114C23.2996 114 22.8996 114.4 22.8996 114.9C22.7996 115.4 23.2996 115.8 23.7996 115.8Z" fill="#407BFF"/>
<path d="M179.299 253.299C179.999 253.299 180.599 252.699 180.599 251.999C180.599 251.299 179.999 250.699 179.299 250.699C178.599 250.699 177.999 251.299 177.999 251.999C177.899 252.699 178.499 253.299 179.299 253.299Z" fill="#407BFF"/>
<path d="M211.699 198.499C212.199 198.499 212.599 198.099 212.599 197.599C212.599 197.099 212.199 196.699 211.699 196.699C211.199 196.699 210.799 197.099 210.799 197.599C210.699 197.999 211.099 198.499 211.699 198.499Z" fill="#407BFF"/>
<path d="M274.199 29.0016C274.199 29.5016 273.799 29.9016 273.299 29.9016C272.799 29.9016 272.399 29.5016 272.399 29.0016C272.399 28.5016 272.799 28.1016 273.299 28.1016C273.799 28.1016 274.199 28.5016 274.199 29.0016Z" fill="#407BFF"/>
<path d="M94.8998 10C94.8998 10.5 94.4998 10.9 93.9998 10.9C93.4998 10.9 93.0998 10.5 93.0998 10C92.9998 9.5 93.4998 9 93.9998 9C94.4998 9 94.8998 9.5 94.8998 10Z" fill="#407BFF"/>
<path d="M169.7 59.4016C170.2 59.4016 170.6 59.0016 170.6 58.5016C170.6 58.0016 170.2 57.6016 169.7 57.6016C169.2 57.6016 168.8 58.0016 168.8 58.5016C168.8 59.0016 169.2 59.4016 169.7 59.4016Z" fill="#407BFF"/>
</g>
<path d="M72.5005 59.3992C81.1005 59.3992 88.1005 52.3992 88.1005 43.7992C88.1005 35.1992 81.1005 28.1992 72.5005 28.1992C63.9005 28.1992 56.9005 35.1992 56.9005 43.7992C56.8005 52.3992 63.8005 59.3992 72.5005 59.3992Z" fill="#407BFF"/>
<path opacity="0.7" d="M72.5005 59.3992C81.1005 59.3992 88.1005 52.3992 88.1005 43.7992C88.1005 35.1992 81.1005 28.1992 72.5005 28.1992C63.9005 28.1992 56.9005 35.1992 56.9005 43.7992C56.8005 52.3992 63.8005 59.3992 72.5005 59.3992Z" fill="white"/>
<path opacity="0.2" d="M67.0998 32C64.8998 32 62.7998 32.4 60.8998 33.3C58.3998 36.1 56.7998 39.8 56.7998 43.8C56.7998 52.4 63.7998 59.4 72.3998 59.4C74.5998 59.4 76.6998 59 78.5998 58.1C81.0998 55.3 82.5998 51.6 82.5998 47.6C82.6998 39 75.6998 32 67.0998 32Z" fill="#407BFF"/>
<path opacity="0.2" d="M65.5002 36.0992C65.5002 36.8992 64.9002 37.4992 64.1002 37.4992C63.3002 37.4992 62.7002 36.8992 62.7002 36.0992C62.7002 35.2992 63.3002 34.6992 64.1002 34.6992C64.9002 34.6992 65.5002 35.2992 65.5002 36.0992Z" fill="#407BFF"/>
<path opacity="0.2" d="M82.3 34.7008C82.3 35.5008 81.7 36.1008 80.9 36.1008C80.1 36.1008 79.5 35.5008 79.5 34.7008C79.5 33.9008 80.1 33.3008 80.9 33.3008C81.7 33.3008 82.3 33.9008 82.3 34.7008Z" fill="#407BFF"/>
<path opacity="0.2" d="M79.5004 44.9001C79.5004 46.2001 78.5004 47.2001 77.2004 47.2001C75.9004 47.2001 74.9004 46.2001 74.9004 44.9001C74.9004 43.6001 75.9004 42.6001 77.2004 42.6001C78.4004 42.5001 79.5004 43.6001 79.5004 44.9001Z" fill="#407BFF"/>
<path opacity="0.2" d="M71.9998 51.4984C71.9998 53.1984 70.5998 54.5984 68.8998 54.5984C67.1998 54.5984 65.7998 53.1984 65.7998 51.4984C65.7998 49.7984 67.1998 48.3984 68.8998 48.3984C70.5998 48.3984 71.9998 49.7984 71.9998 51.4984Z" fill="#407BFF"/>
<path d="M257.6 232.198C259.3 224.798 254.8 217.398 247.4 215.698C240 213.998 232.6 218.498 230.9 225.898C229.2 233.298 233.7 240.698 241.1 242.398C248.5 244.098 255.8 239.598 257.6 232.198Z" fill="#407BFF"/>
<path opacity="0.3" d="M257.6 232.198C259.3 224.798 254.8 217.398 247.4 215.698C240 213.998 232.6 218.498 230.9 225.898C229.2 233.298 233.7 240.698 241.1 242.398C248.5 244.098 255.8 239.598 257.6 232.198Z" fill="white"/>
<path opacity="0.4" d="M252.9 218.401C251.7 218.001 250.3 217.801 249 217.801C241.4 217.801 235.3 223.901 235.3 231.501C235.3 235.801 237.3 239.601 240.4 242.101C241.6 242.501 243 242.701 244.3 242.701C251.9 242.701 258 236.601 258 229.001C258 224.801 256 220.901 252.9 218.401Z" fill="#407BFF"/>
<path d="M231.2 233.099C216.6 239.999 227.5 245.299 248.1 237.899C267.2 230.999 274.5 222.399 257.4 225.099C258.2 228.699 234.3 237.999 231.2 233.099Z" fill="#407BFF"/>
<path opacity="0.2" d="M198.2 158.8C206.5 128 225.9 111.7 242.5 100.2C243.6 99.5 246.1 97.7 247.2 97L248.5 97.9L245.9 99.7L243.5 101.3C226.9 112.7 207.8 128.2 199.6 159L198.9 161.6L198.2 158.8Z" fill="black"/>
<path d="M153.6 223.402C141.5 223.402 129.5 217.902 123.7 209.002C120.1 203.502 115.9 191.902 128.4 176.502L129.5 177.402C120.7 188.302 119.1 199.302 124.9 208.202C132 219.102 148.9 224.602 163.2 220.702C177.9 216.702 186.8 203.902 187.7 185.602C190.6 123.002 223.9 103.702 248.2 89.6016C263.3 80.9016 274.2 74.5016 271.8 61.2016C271.5 59.4016 270.7 58.1016 269.5 57.3016C266.4 55.3016 260.3 56.7016 253.3 58.3016C239.5 61.5016 220.7 65.9016 209.5 46.8016L210.7 46.1016C221.4 64.3016 238.9 60.2016 253 56.9016C260.3 55.2016 266.7 53.7016 270.3 56.1016C271.8 57.1016 272.8 58.7016 273.2 60.9016C275.8 75.2016 263.9 82.1016 248.9 90.8016C224.9 104.702 192 123.802 189.1 185.602C188.2 204.602 178.9 217.802 163.6 222.002C160.3 223.002 156.9 223.402 153.6 223.402Z" fill="#407BFF"/>
<path opacity="0.2" d="M153.6 223.402C141.5 223.402 129.5 217.902 123.7 209.002C120.1 203.502 115.9 191.902 128.4 176.502L129.5 177.402C120.7 188.302 119.1 199.302 124.9 208.202C132 219.102 148.9 224.602 163.2 220.702C177.9 216.702 186.8 203.902 187.7 185.602C190.6 123.002 223.9 103.702 248.2 89.6016C263.3 80.9016 274.2 74.5016 271.8 61.2016C271.5 59.4016 270.7 58.1016 269.5 57.3016C266.4 55.3016 260.3 56.7016 253.3 58.3016C239.5 61.5016 220.7 65.9016 209.5 46.8016L210.7 46.1016C221.4 64.3016 238.9 60.2016 253 56.9016C260.3 55.2016 266.7 53.7016 270.3 56.1016C271.8 57.1016 272.8 58.7016 273.2 60.9016C275.8 75.2016 263.9 82.1016 248.9 90.8016C224.9 104.702 192 123.802 189.1 185.602C188.2 204.602 178.9 217.802 163.6 222.002C160.3 223.002 156.9 223.402 153.6 223.402Z" fill="white"/>
<path d="M194.7 29.899C199.6 29.799 204.4 31.399 204.4 31.399C204.4 31.399 212.2 44.799 213.2 47.799C212.9 50.799 207.8 55.799 207.8 55.799L194.7 29.899Z" fill="#407BFF"/>
<path opacity="0.3" d="M194.7 29.899C199.6 29.799 204.4 31.399 204.4 31.399C204.4 31.399 212.2 44.799 213.2 47.799C212.9 50.799 207.8 55.799 207.8 55.799L194.7 29.899Z" fill="#353988"/>
<path d="M218 94.8984C215 91.1984 212.2 87.3984 209.8 83.1984C209.2 82.1984 208.6 81.0984 208.1 79.9984C207.8 79.3984 207.5 78.7984 207.2 78.1984C207 77.6984 206.4 76.8984 206.3 76.2984C205.4 67.2984 208.5 60.5984 205.6 53.3984L193.8 57.9984C193.8 57.9984 194.8 70.8984 197.1 78.5984C198.5 83.3984 201.7 87.4984 204.8 91.3984C205.8 92.5984 206.7 93.7984 207.7 94.9984C208.6 96.0984 209.6 97.1984 210.5 98.2984C211.9 99.9984 212.3 101.698 211.3 103.698C211.2 103.798 211.2 103.898 211.1 103.998C210.8 104.498 212.2 105.098 213.1 103.998C214.6 102.198 214.3 102.298 215.6 100.698C216.4 99.6984 217.2 98.6984 218 97.7984C218.6 97.0984 218.7 95.7984 218 94.8984Z" fill="#407BFF"/>
<path opacity="0.7" d="M218 94.8984C215 91.1984 212.2 87.3984 209.8 83.1984C209.2 82.1984 208.6 81.0984 208.1 79.9984C207.8 79.3984 207.5 78.7984 207.2 78.1984C207 77.6984 206.4 76.8984 206.3 76.2984C205.4 67.2984 208.5 60.5984 205.6 53.3984L193.8 57.9984C193.8 57.9984 194.8 70.8984 197.1 78.5984C198.5 83.3984 201.7 87.4984 204.8 91.3984C205.8 92.5984 206.7 93.7984 207.7 94.9984C208.6 96.0984 209.6 97.1984 210.5 98.2984C211.9 99.9984 212.3 101.698 211.3 103.698C211.2 103.798 211.2 103.898 211.1 103.998C210.8 104.498 212.2 105.098 213.1 103.998C214.6 102.198 214.3 102.298 215.6 100.698C216.4 99.6984 217.2 98.6984 218 97.7984C218.6 97.0984 218.7 95.7984 218 94.8984Z" fill="white"/>
<path opacity="0.3" d="M215.1 91.1992C213.5 93.0992 210.3 95.5992 208.9 96.5992C209.2 96.8992 209.5 97.2992 209.8 97.5992C212.7 95.6992 215 93.2992 215.9 92.2992C215.6 91.8992 215.4 91.5992 215.1 91.1992Z" fill="#407BFF"/>
<path opacity="0.3" d="M218 94.9008L217.9 94.8008C217.4 95.3008 217.1 96.1008 217 97.1008C217 97.7008 217.1 98.3008 217.3 98.8008C217.5 98.5008 217.8 98.3008 218 98.0008C218.7 97.1008 218.7 95.8008 218 94.9008Z" fill="#407BFF"/>
<path d="M192 38.4998C190.8 40.2998 189.3 42.0998 187.5 43.5998C186.6 44.3998 185.5 45.0998 184.3 45.6998C183.7 45.9998 183.1 46.2998 182.5 46.4998L182 46.6998H181.8C181.7 46.6998 181.6 46.7998 181.5 46.7998C181.3 46.7998 181.1 46.8998 180.9 46.8998C180.1 46.9998 179.6 46.8998 179.1 46.6998C178.2 46.4998 177.6 46.0998 177 45.7998C176.4 45.4998 175.9 45.0998 175.5 44.7998C174.6 44.0998 173.7 43.3998 172.9 42.5998C171.3 41.0998 169.9 39.4998 168.6 37.7998C168 36.9998 168.2 35.8998 169 35.2998C169.6 34.7998 170.4 34.7998 171 35.1998H171.1C172.8 36.2998 174.5 37.3998 176.1 38.3998C176.9 38.8998 177.8 39.3998 178.6 39.7998C179 39.9998 179.4 40.1998 179.7 40.2998C180 40.3998 180.4 40.4998 180.5 40.4998C180.5 40.4998 180.5 40.4998 180.2 40.4998C180.1 40.4998 180 40.4998 180 40.4998C180 40.4998 179.9 40.4998 179.8 40.4998L180 40.3998C180.3 40.1998 180.6 39.9998 180.9 39.7998C181.5 39.3998 182.1 38.8998 182.7 38.2998C183.9 37.0998 185 35.6998 186.2 34.1998C187.4 32.6998 189.7 32.3998 191.2 33.5998C192.7 34.8998 193 36.9998 192 38.4998Z" fill="#407BFF"/>
<path opacity="0.7" d="M192 38.4998C190.8 40.2998 189.3 42.0998 187.5 43.5998C186.6 44.3998 185.5 45.0998 184.3 45.6998C183.7 45.9998 183.1 46.2998 182.5 46.4998L182 46.6998H181.8C181.7 46.6998 181.6 46.7998 181.5 46.7998C181.3 46.7998 181.1 46.8998 180.9 46.8998C180.1 46.9998 179.6 46.8998 179.1 46.6998C178.2 46.4998 177.6 46.0998 177 45.7998C176.4 45.4998 175.9 45.0998 175.5 44.7998C174.6 44.0998 173.7 43.3998 172.9 42.5998C171.3 41.0998 169.9 39.4998 168.6 37.7998C168 36.9998 168.2 35.8998 169 35.2998C169.6 34.7998 170.4 34.7998 171 35.1998H171.1C172.8 36.2998 174.5 37.3998 176.1 38.3998C176.9 38.8998 177.8 39.3998 178.6 39.7998C179 39.9998 179.4 40.1998 179.7 40.2998C180 40.3998 180.4 40.4998 180.5 40.4998C180.5 40.4998 180.5 40.4998 180.2 40.4998C180.1 40.4998 180 40.4998 180 40.4998C180 40.4998 179.9 40.4998 179.8 40.4998L180 40.3998C180.3 40.1998 180.6 39.9998 180.9 39.7998C181.5 39.3998 182.1 38.8998 182.7 38.2998C183.9 37.0998 185 35.6998 186.2 34.1998C187.4 32.6998 189.7 32.3998 191.2 33.5998C192.7 34.8998 193 36.9998 192 38.4998Z" fill="white"/>
<path d="M165.9 33.7984L166.7 35.1984C166.7 35.1984 167.3 37.0984 168.6 37.3984L172.1 36.2984L171.9 35.9984C171.5 35.2984 171.5 33.9984 171.7 32.8984C171.9 31.7984 171.3 31.7984 170.9 31.9984C170.7 32.1984 170.5 32.5984 170.3 33.1984C170.1 32.9984 170 32.6984 169.7 32.4984L168.6 31.3984C168.1 30.8984 167.4 30.8984 166.9 31.3984L166 32.1984C165.7 32.6984 165.6 33.2984 165.9 33.7984Z" fill="#407BFF"/>
<path opacity="0.7" d="M165.9 33.7984L166.7 35.1984C166.7 35.1984 167.3 37.0984 168.6 37.3984L172.1 36.2984L171.9 35.9984C171.5 35.2984 171.5 33.9984 171.7 32.8984C171.9 31.7984 171.3 31.7984 170.9 31.9984C170.7 32.1984 170.5 32.5984 170.3 33.1984C170.1 32.9984 170 32.6984 169.7 32.4984L168.6 31.3984C168.1 30.8984 167.4 30.8984 166.9 31.3984L166 32.1984C165.7 32.6984 165.6 33.2984 165.9 33.7984Z" fill="white"/>
<path d="M198.2 28.6988C194.9 29.4988 190.3 31.3988 187.3 33.2988C186.2 33.9988 185.7 35.2988 185.9 36.4988C187.3 43.1988 190.4 52.1988 193.8 57.9988L209.6 51.4988C209.7 48.6988 205.9 39.6988 202 30.9988C201.3 29.4988 199.9 28.2988 198.2 28.6988Z" fill="#407BFF"/>
<path opacity="0.8" d="M198.2 28.6988C194.9 29.4988 190.3 31.3988 187.3 33.2988C186.2 33.9988 185.7 35.2988 185.9 36.4988C187.3 43.1988 190.4 52.1988 193.8 57.9988L209.6 51.4988C209.7 48.6988 205.9 39.6988 202 30.9988C201.3 29.4988 199.9 28.2988 198.2 28.6988Z" fill="white"/>
<path opacity="0.3" d="M204.4 36.5L201.3 35.5C202 37.3 204.5 39.6 206.3 41C205.7 39.6 205.1 38.1 204.4 36.5Z" fill="#407BFF"/>
<path d="M197.2 21.7012C195.9 19.2012 193.1 18.0012 189.7 18.2012C186.8 18.4012 184.3 21.4012 184.6 22.9012C184.9 24.5012 187.3 25.1012 187.7 25.7012L185.7 27.1012C184.7 27.8012 184.5 29.2012 185.3 30.2012C186.1 31.3012 187.2 32.4012 187.9 33.1012C193.4 33.0012 197.4 30.9012 198.9 28.9012C198.4 26.4012 198.5 24.1012 197.2 21.7012Z" fill="#407BFF"/>
<path opacity="0.8" d="M197.2 21.7012C195.9 19.2012 193.1 18.0012 189.7 18.2012C186.8 18.4012 184.3 21.4012 184.6 22.9012C184.9 24.5012 187.3 25.1012 187.7 25.7012L185.7 27.1012C184.7 27.8012 184.5 29.2012 185.3 30.2012C186.1 31.3012 187.2 32.4012 187.9 33.1012C193.4 33.0012 197.4 30.9012 198.9 28.9012C198.4 26.4012 198.5 24.1012 197.2 21.7012Z" fill="white"/>
<path d="M194.5 23.1983C195.6 25.9983 194.2 29.0983 191.4 30.1983C188.6 31.2983 185.5 29.8983 184.4 27.0983C183.3 24.2983 184.7 21.1983 187.5 20.0983C190.3 18.9983 193.4 20.3983 194.5 23.1983Z" fill="#263238"/>
<path d="M240.8 87.4C240.7 85.1 240.6 85.3 240.6 83.3C240.6 82.1 240.5 80.7 240.5 79.6C240.5 78.5 239.7 77.5 238.6 77.3C237.7 77.1 236.7 76.9 235.8 76.7C234.6 76.4 233.4 76.2 232.1 75.8C231.2 75.5 230.2 75.2 229.3 74.9C228.3 74.5 227.3 74.2 226.4 73.7C225.3 73.2 224.2 72.7 223.1 72.2C221.9 71.6 220.6 71 219.4 70.4C214.7 62.6 214.6 57.5 209.6 51.5L198.8 56.4C198.8 56.4 206.7 70.5 212.1 76.5C215.2 79.9 220.1 81.5 224.5 82.6C227.6 83.4 230.8 84 234 84.6C235.2 84.8 236.6 84.9 237.7 85.7C238.5 86.3 239 87.2 239.2 88.2C239.2 88.4 239.3 88.6 239.3 88.8C239.4 89.3 240.9 88.8 240.8 87.4Z" fill="#407BFF"/>
<path opacity="0.8" d="M240.8 87.4C240.7 85.1 240.6 85.3 240.6 83.3C240.6 82.1 240.5 80.7 240.5 79.6C240.5 78.5 239.7 77.5 238.6 77.3C237.7 77.1 236.7 76.9 235.8 76.7C234.6 76.4 233.4 76.2 232.1 75.8C231.2 75.5 230.2 75.2 229.3 74.9C228.3 74.5 227.3 74.2 226.4 73.7C225.3 73.2 224.2 72.7 223.1 72.2C221.9 71.6 220.6 71 219.4 70.4C214.7 62.6 214.6 57.5 209.6 51.5L198.8 56.4C198.8 56.4 206.7 70.5 212.1 76.5C215.2 79.9 220.1 81.5 224.5 82.6C227.6 83.4 230.8 84 234 84.6C235.2 84.8 236.6 84.9 237.7 85.7C238.5 86.3 239 87.2 239.2 88.2C239.2 88.4 239.3 88.6 239.3 88.8C239.4 89.3 240.9 88.8 240.8 87.4Z" fill="white"/>
<path opacity="0.3" d="M235.3 76.6008C234.9 76.5008 234.4 76.4008 234 76.3008C234 78.8008 232.9 83.0008 232.5 84.3008C232.9 84.4008 233.4 84.5008 233.9 84.6008C235.1 81.2008 235.3 77.6008 235.3 76.6008Z" fill="#407BFF"/>
<path opacity="0.3" d="M240.5 79.5992C240.5 78.4992 239.7 77.4992 238.6 77.2992C238.4 77.2992 238.1 77.1992 237.9 77.1992C238 77.8992 238.4 78.5992 239.1 79.2992C239.6 79.6992 240.1 79.9992 240.5 80.0992C240.5 79.8992 240.5 79.6992 240.5 79.5992Z" fill="#407BFF"/>
<path d="M193.5 23.2011C193.8 24.3011 192.6 25.4011 191.6 24.5011C190.8 23.7011 189.6 22.5011 188.7 21.9011C187.7 21.3011 189 20.2011 190.6 20.6011C192 21.0011 193.2 22.2011 193.5 23.2011Z" fill="white"/>
<path d="M193.6 57.6992C193.1 57.8992 194 58.6992 194 58.6992C194 58.6992 204 55.2992 210 51.7992C210.1 51.0992 209.5 50.6992 209.5 50.6992C209.5 50.6992 202.2 54.4992 193.6 57.6992Z" fill="#407BFF"/>
<path opacity="0.5" d="M193.6 57.6992C193.1 57.8992 194 58.6992 194 58.6992C194 58.6992 204 55.2992 210 51.7992C210.1 51.0992 209.5 50.6992 209.5 50.6992C209.5 50.6992 202.2 54.4992 193.6 57.6992Z" fill="white"/>
<path d="M200.9 28.2005C202.9 29.2005 204.7 30.2005 206.6 31.4005C207.5 32.0005 208.4 32.6005 209.3 33.2005C210.2 33.8005 211.1 34.5005 212 35.2005L212.3 35.5005L212.7 35.9005C213 36.2005 213.2 36.4005 213.4 36.6005C213.6 36.8005 213.8 37.1005 214 37.3005C214.2 37.5005 214.4 37.8005 214.5 38.0005C215.2 38.9005 215.8 39.9005 216.3 40.9005C217.4 42.8005 218.3 44.8005 219.1 46.9005C219.4 47.8005 219 48.9005 218.1 49.2005C217.4 49.5005 216.6 49.3005 216.2 48.8005C214.8 47.3005 213.4 45.7005 212 44.2005C210.6 42.7005 209.2 41.2005 208.1 40.5005C206.5 39.5005 204.7 38.5005 202.9 37.5005L197.5 34.5005C195.8 33.5005 195.2 31.4005 196.1 29.6005C197.2 28.0005 199.2 27.4005 200.9 28.2005Z" fill="#407BFF"/>
<path opacity="0.8" d="M200.9 28.2005C202.9 29.2005 204.7 30.2005 206.6 31.4005C207.5 32.0005 208.4 32.6005 209.3 33.2005C210.2 33.8005 211.1 34.5005 212 35.2005L212.3 35.5005L212.7 35.9005C213 36.2005 213.2 36.4005 213.4 36.6005C213.6 36.8005 213.8 37.1005 214 37.3005C214.2 37.5005 214.4 37.8005 214.5 38.0005C215.2 38.9005 215.8 39.9005 216.3 40.9005C217.4 42.8005 218.3 44.8005 219.1 46.9005C219.4 47.8005 219 48.9005 218.1 49.2005C217.4 49.5005 216.6 49.3005 216.2 48.8005C214.8 47.3005 213.4 45.7005 212 44.2005C210.6 42.7005 209.2 41.2005 208.1 40.5005C206.5 39.5005 204.7 38.5005 202.9 37.5005L197.5 34.5005C195.8 33.5005 195.2 31.4005 196.1 29.6005C197.2 28.0005 199.2 27.4005 200.9 28.2005Z" fill="white"/>
<path d="M221.1 50.5L220.5 49C220.5 49 220.2 47.1 219 46.5L215.4 47.1L215.5 47.4C215.8 48.1 215.6 49.4 215.3 50.5C215 51.5 215.5 51.7 216 51.5C216.3 51.4 216.5 50.9 216.8 50.4C216.9 50.7 217.1 50.9 217.2 51.1L218.1 52.3C218.5 52.8 219.2 53 219.7 52.6L220.7 52C221.1 51.6 221.3 51 221.1 50.5Z" fill="#407BFF"/>
<path opacity="0.8" d="M221.1 50.5L220.5 49C220.5 49 220.2 47.1 219 46.5L215.4 47.1L215.5 47.4C215.8 48.1 215.6 49.4 215.3 50.5C215 51.5 215.5 51.7 216 51.5C216.3 51.4 216.5 50.9 216.8 50.4C216.9 50.7 217.1 50.9 217.2 51.1L218.1 52.3C218.5 52.8 219.2 53 219.7 52.6L220.7 52C221.1 51.6 221.3 51 221.1 50.5Z" fill="white"/>
<path opacity="0.3" d="M197.9 36.3984L197 36.4984L191.7 49.3984C192 49.3984 192.3 49.3984 192.6 49.2984C192.6 49.2984 199.6 46.6984 201.7 45.7984C200.2 42.7984 197.9 36.3984 197.9 36.3984Z" fill="#407BFF"/>
<path d="M188.2 39.8016C188.5 42.1016 190.2 47.1016 191.7 49.4016C194.3 48.5016 198.7 46.8016 200.8 45.9016C199.4 43.0016 197.9 38.9016 197.1 36.6016C194.8 36.7016 189.9 38.5016 188.2 39.8016Z" fill="white"/>
<path opacity="0.3" d="M193.5 42.6013C193.2 43.6013 192.2 44.1013 191.2 43.8013C190.2 43.5013 189.7 42.5013 190 41.5013C190.3 40.5013 191.3 40.0013 192.3 40.3013C193.2 40.6013 193.8 41.6013 193.5 42.6013Z" fill="#407BFF"/>
<path opacity="0.6" d="M194.9 40.1987C194.8 40.4987 194.5 40.6987 194.2 40.5987C193.9 40.4987 193.7 40.1987 193.8 39.8987C193.9 39.5987 194.2 39.3987 194.5 39.4987C194.8 39.4987 194.9 39.7987 194.9 40.1987Z" fill="#407BFF"/>
<path opacity="0.6" d="M196.4 39.4995C196.3 39.7995 196 39.9995 195.7 39.8995C195.4 39.7995 195.2 39.4995 195.3 39.1995C195.4 38.8995 195.7 38.6995 196 38.7995C196.4 38.8995 196.5 39.1995 196.4 39.4995Z" fill="#407BFF"/>
<path opacity="0.5" d="M198.7 45.1008L192.1 47.7008L191.7 46.4008L198.3 43.8008L198.7 45.1008Z" fill="#407BFF"/>
</g>
</g>
<defs>
<clipPath id="clip0_5171_8862">
<rect width="300" height="279" fill="white"/>
</clipPath>
</defs>
</svg>
