<svg width="300" height="279" viewBox="0 0 300 279" fill="none" xmlns="http://www.w3.org/2000/svg">
<g clip-path="url(#clip0_4306_5536)">
<path d="M141.734 278.099H4.07072C1.82505 278.099 0 276.274 0 274.029V4.07072C0 1.82505 1.82505 0 4.07072 0H141.734C143.979 0 145.805 1.82505 145.805 4.07072V274.036C145.805 276.281 143.979 278.107 141.734 278.107V278.099ZM4.07072 0.178228C1.92486 0.178228 0.178228 1.92486 0.178228 4.07072V274.036C0.178228 276.182 1.92486 277.928 4.07072 277.928H141.734C143.88 277.928 145.626 276.182 145.626 274.036V4.07072C145.626 1.92486 143.88 0.178228 141.734 0.178228H4.07072Z" fill="#EBEBEB"/>
<path d="M295.929 278.099H158.266C156.02 278.099 154.195 276.274 154.195 274.029V4.07072C154.195 1.82505 156.02 0 158.266 0H295.929C298.175 0 300 1.82505 300 4.07072V274.036C300 276.281 298.175 278.107 295.929 278.107V278.099ZM158.266 0.178228C156.12 0.178228 154.374 1.92486 154.374 4.07072V274.036C154.374 276.182 156.12 277.928 158.266 277.928H295.929C298.075 277.928 299.822 276.182 299.822 274.036V4.07072C299.822 1.92486 298.075 0.178228 295.929 0.178228H158.266Z" fill="#EBEBEB"/>
<path d="M52.3731 80.7656L53.528 83.104L56.1016 83.4818L54.2409 85.2997L54.6758 87.8662L52.3731 86.6543L50.0704 87.8662L50.5052 85.2997L48.6445 83.4818L51.2181 83.104L52.3731 80.7656Z" fill="#EBEBEB"/>
<path d="M283.107 190.725L284.262 193.063L286.836 193.434L284.975 195.252L285.41 197.819L283.107 196.607L280.805 197.819L281.24 195.252L279.379 193.434L281.953 193.063L283.107 190.725Z" fill="#F5F5F5"/>
<path d="M237.4 258.509L238.555 260.847L241.136 261.218L239.268 263.043L239.71 265.609L237.4 264.397L235.098 265.609L235.54 263.043L233.672 261.218L236.253 260.847L237.4 258.509Z" fill="#F5F5F5"/>
<path d="M132.851 39.3528L133.279 40.2225L134.234 40.358C134.476 40.3936 134.569 40.6859 134.398 40.857L133.707 41.5343L133.871 42.4896C133.913 42.7249 133.664 42.9102 133.45 42.7961L132.594 42.347L131.739 42.7961C131.525 42.9102 131.276 42.7249 131.318 42.4896L131.482 41.5343L130.791 40.857C130.62 40.6859 130.712 40.3936 130.955 40.358L131.91 40.2225L132.338 39.3528C132.445 39.1389 132.751 39.1389 132.858 39.3528H132.851Z" fill="#EBEBEB"/>
<path d="M15.101 247.416L15.5288 248.286L16.4841 248.421C16.7265 248.457 16.8192 248.749 16.6481 248.92L15.9565 249.597L16.1205 250.553C16.1633 250.788 15.9138 250.973 15.6999 250.859L14.8444 250.41L13.9889 250.859C13.775 250.973 13.5255 250.788 13.5683 250.553L13.7323 249.597L13.0407 248.92C12.8696 248.749 12.9623 248.457 13.2047 248.421L14.16 248.286L14.5877 247.416C14.6947 247.202 15.0012 247.202 15.1082 247.416H15.101Z" fill="#F5F5F5"/>
<path d="M34.3354 30.1919L34.7632 31.0617L35.7185 31.1971C35.9537 31.2327 36.0535 31.525 35.8824 31.6961L35.1909 32.3734L35.3549 33.3287C35.3977 33.564 35.1481 33.7493 34.9343 33.6353L34.0788 33.1861L33.2233 33.6353C33.0094 33.7493 32.7599 33.564 32.8027 33.3287L32.9666 32.3734L32.2751 31.6961C32.104 31.525 32.1967 31.2327 32.4391 31.1971L33.3944 31.0617L33.8221 30.1919C33.9291 29.978 34.2356 29.978 34.3425 30.1919H34.3354Z" fill="#EBEBEB"/>
<path d="M33.1815 202.017C33.1815 202.538 32.7609 202.966 32.2333 202.966C31.7058 202.966 31.2852 202.545 31.2852 202.017C31.2852 201.49 31.7058 201.069 32.2333 201.069C32.7609 201.069 33.1815 201.49 33.1815 202.017Z" fill="#EBEBEB"/>
<path d="M168.307 83.3679C168.307 83.8883 167.886 84.316 167.358 84.316C166.831 84.316 166.41 83.8954 166.41 83.3679C166.41 82.8403 166.831 82.4197 167.358 82.4197C167.886 82.4197 168.307 82.8403 168.307 83.3679Z" fill="#EBEBEB"/>
<path d="M119.135 30.976C119.135 31.4964 118.714 31.9242 118.186 31.9242C117.659 31.9242 117.238 31.5036 117.238 30.976C117.238 30.4485 117.659 30.0278 118.186 30.0278C118.714 30.0278 119.135 30.4485 119.135 30.976Z" fill="#F5F5F5"/>
<path d="M120.64 262.057C123.456 261.392 125.201 258.57 124.536 255.754C123.871 252.937 121.049 251.193 118.233 251.858C115.416 252.522 113.672 255.345 114.336 258.161C115.001 260.978 117.823 262.722 120.64 262.057Z" fill="#F0F0F0"/>
<path d="M117.633 253.896C116.521 253.896 115.487 254.252 114.646 254.866C114.368 255.507 114.211 256.213 114.211 256.954C114.211 259.849 116.556 262.187 119.451 262.187C120.428 262.187 121.347 261.916 122.131 261.446C122.131 261.446 122.131 261.443 122.131 261.439C122.523 260.711 122.744 259.884 122.744 259C122.744 256.184 120.456 253.896 117.633 253.896Z" fill="#E6E6E6"/>
<path d="M77.0596 165.887H33.6719V146.304L77.0525 94.7317H97.8125V147.416H108.57V165.894H97.8125V181.914H77.0525V165.894L77.0596 165.887ZM77.0596 147.409V120.432L54.1324 147.409H77.0596Z" fill="#353988"/>
<path d="M115.999 138.704C115.999 122.414 118.929 111.007 124.796 104.499C130.663 97.9897 139.596 94.7317 151.601 94.7317C157.369 94.7317 162.103 95.4446 165.81 96.8633C169.51 98.2891 172.532 100.136 174.871 102.417C177.209 104.698 179.048 107.094 180.396 109.61C181.743 112.127 182.82 115.057 183.64 118.407C185.237 124.802 186.035 131.468 186.035 138.405C186.035 153.96 183.404 165.338 178.143 172.553C172.882 179.768 163.821 183.368 150.953 183.368C143.738 183.368 137.914 182.22 133.472 179.917C129.031 177.615 125.381 174.25 122.536 169.801C120.469 166.643 118.865 162.33 117.71 156.848C116.562 151.372 115.984 145.32 115.984 138.69L115.999 138.704ZM139.617 138.761C139.617 149.676 140.58 157.133 142.512 161.125C144.444 165.117 147.238 167.121 150.903 167.121C153.32 167.121 155.415 166.272 157.191 164.576C158.966 162.879 160.27 160.198 161.112 156.534C161.953 152.87 162.366 147.159 162.366 139.403C162.366 128.025 161.404 120.375 159.472 116.454C157.54 112.533 154.646 110.58 150.789 110.58C146.932 110.58 144.009 112.576 142.255 116.575C140.501 120.575 139.624 127.968 139.624 138.761H139.617Z" fill="#353988"/>
<path d="M236.795 165.887H193.414V146.304L236.795 94.7317H257.555V147.416H268.312V165.894H257.555V181.914H236.795V165.894V165.887ZM236.795 147.409V120.432L213.867 147.409H236.795Z" fill="#353988"/>
<g opacity="0.3"> 
<path d="M115.033 64.6395C115.033 65.3738 114.435 65.9727 113.7 65.9727C112.966 65.9727 112.367 65.3738 112.367 64.6395C112.367 63.9052 112.966 63.3064 113.7 63.3064C114.435 63.3064 115.033 63.9052 115.033 64.6395Z" fill="#407BFF"/>
<path d="M23.7887 115.848C24.3084 115.848 24.7297 115.427 24.7297 114.907C24.7297 114.387 24.3084 113.966 23.7887 113.966C23.269 113.966 22.8477 114.387 22.8477 114.907C22.8477 115.427 23.269 115.848 23.7887 115.848Z" fill="#407BFF"/>
<path d="M179.269 253.276C180.013 253.276 180.617 252.673 180.617 251.928C180.617 251.184 180.013 250.581 179.269 250.581C178.525 250.581 177.922 251.184 177.922 251.928C177.922 252.673 178.525 253.276 179.269 253.276Z" fill="#407BFF"/>
<path d="M211.664 198.453C212.183 198.453 212.605 198.032 212.605 197.512C212.605 196.992 212.183 196.571 211.664 196.571C211.144 196.571 210.723 196.992 210.723 197.512C210.723 198.032 211.144 198.453 211.664 198.453Z" fill="#407BFF"/>
<path d="M274.171 28.994C274.171 29.5144 273.751 29.9351 273.23 29.9351C272.71 29.9351 272.289 29.5144 272.289 28.994C272.289 28.4736 272.71 28.053 273.23 28.053C273.751 28.053 274.171 28.4736 274.171 28.994Z" fill="#407BFF"/>
<path d="M94.929 9.98792C94.929 10.5083 94.5083 10.929 93.9879 10.929C93.4675 10.929 93.0469 10.5083 93.0469 9.98792C93.0469 9.46749 93.4675 9.04688 93.9879 9.04688C94.5083 9.04688 94.929 9.46749 94.929 9.98792Z" fill="#407BFF"/>
<path d="M169.742 59.3926C170.262 59.3926 170.683 58.9713 170.683 58.4515C170.683 57.9318 170.262 57.5105 169.742 57.5105C169.222 57.5105 168.801 57.9318 168.801 58.4515C168.801 58.9713 169.222 59.3926 169.742 59.3926Z" fill="#407BFF"/>
</g>
<path d="M72.4597 59.3997C81.0863 59.3997 88.0796 52.4064 88.0796 43.7798C88.0796 35.1532 81.0863 28.1599 72.4597 28.1599C63.8331 28.1599 56.8398 35.1532 56.8398 43.7798C56.8398 52.4064 63.8331 59.3997 72.4597 59.3997Z" fill="#407BFF"/>
<path opacity="0.7" d="M72.4597 59.3997C81.0863 59.3997 88.0796 52.4064 88.0796 43.7798C88.0796 35.1532 81.0863 28.1599 72.4597 28.1599C63.8331 28.1599 56.8398 35.1532 56.8398 43.7798C56.8398 52.4064 63.8331 59.3997 72.4597 59.3997Z" fill="white"/>
<path opacity="0.2" d="M67.0772 31.9954C64.8886 31.9954 62.8069 32.4445 60.9177 33.2572C58.3869 36.0304 56.8398 39.7304 56.8398 43.7798C56.8398 52.406 63.8335 59.3925 72.4526 59.3925C74.6483 59.3925 76.7443 58.9434 78.6407 58.1235C81.1572 55.3432 82.69 51.6574 82.69 47.6152C82.69 38.9819 75.6963 31.9954 67.0701 31.9954H67.0772Z" fill="#407BFF"/>
<path opacity="0.2" d="M65.5235 36.1231C65.5235 36.9144 64.8819 37.5489 64.0977 37.5489C63.3135 37.5489 62.6719 36.9073 62.6719 36.1231C62.6719 35.3389 63.3135 34.6973 64.0977 34.6973C64.8819 34.6973 65.5235 35.3389 65.5235 36.1231Z" fill="#407BFF"/>
<path opacity="0.2" d="M82.3204 34.6973C82.3204 35.4886 81.6788 36.1231 80.8946 36.1231C80.1104 36.1231 79.4688 35.4815 79.4688 34.6973C79.4688 33.9131 80.1104 33.2715 80.8946 33.2715C81.6788 33.2715 82.3204 33.9131 82.3204 34.6973Z" fill="#407BFF"/>
<path opacity="0.2" d="M79.4618 44.8777C79.4618 46.168 78.4139 47.216 77.1235 47.216C75.8331 47.216 74.7852 46.168 74.7852 44.8777C74.7852 43.5873 75.8331 42.5393 77.1235 42.5393C78.4139 42.5393 79.4618 43.5873 79.4618 44.8777Z" fill="#407BFF"/>
<path opacity="0.2" d="M72.0381 51.5364C72.0381 53.2616 70.6408 54.6589 68.9155 54.6589C67.1903 54.6589 65.793 53.2616 65.793 51.5364C65.793 49.8111 67.1903 48.4138 68.9155 48.4138C70.6408 48.4138 72.0381 49.8111 72.0381 51.5364Z" fill="#407BFF"/>
<path d="M257.585 232.198C259.324 224.829 254.76 217.446 247.391 215.706C240.022 213.967 232.638 218.531 230.899 225.9C229.16 233.269 233.724 240.653 241.093 242.392C248.462 244.131 255.845 239.567 257.585 232.198Z" fill="#407BFF"/>
<path opacity="0.3" d="M257.585 232.198C259.324 224.829 254.76 217.446 247.391 215.706C240.022 213.967 232.638 218.531 230.899 225.9C229.16 233.269 233.724 240.653 241.093 242.392C248.462 244.131 255.845 239.567 257.585 232.198Z" fill="white"/>
<path opacity="0.4" d="M252.897 218.429C251.649 218.051 250.323 217.851 248.948 217.851C241.376 217.851 235.238 223.989 235.238 231.561C235.238 235.852 237.206 239.674 240.293 242.19C241.54 242.568 242.866 242.768 244.242 242.768C251.813 242.768 257.952 236.629 257.952 229.058C257.952 224.767 255.984 220.938 252.897 218.429Z" fill="#407BFF"/>
<path d="M231.154 233.122C216.518 240.009 227.433 245.32 248.058 237.906C267.149 231.04 274.414 222.386 257.361 225.066C258.238 228.709 234.327 238.027 231.154 233.115V233.122Z" fill="#407BFF"/>
<path opacity="0.2" d="M252.725 94.7314C233.555 107.685 208.738 124.766 201.887 165.887H200.426C207.091 125.265 231.003 107.735 250.18 94.7314H252.725Z" fill="black"/>
<path d="M153.575 223.362C141.476 223.362 129.471 217.901 123.639 208.968C120.039 203.451 115.854 191.894 128.316 176.474L129.428 177.372C120.617 188.28 118.984 199.223 124.837 208.191C131.959 219.106 148.791 224.595 163.142 220.689C177.849 216.689 186.775 203.892 187.637 185.592C190.582 122.991 223.839 103.714 248.128 89.6343C263.213 80.8869 274.113 74.5634 271.718 61.2319C271.383 59.3855 270.649 58.1022 269.465 57.3252C266.364 55.2791 260.304 56.6907 253.289 58.3304C239.523 61.5385 220.674 65.93 209.445 46.8311L210.672 46.1111C221.372 64.3046 238.889 60.2267 252.961 56.9473C260.297 55.2363 266.635 53.7606 270.249 56.1417C271.775 57.1469 272.716 58.7367 273.123 60.9895C275.696 75.3048 263.848 82.1772 248.841 90.8748C224.844 104.791 191.972 123.847 189.063 185.671C188.172 204.634 178.861 217.901 163.52 222.072C160.283 222.949 156.925 223.369 153.582 223.369L153.575 223.362Z" fill="#407BFF"/>
<path opacity="0.2" d="M153.575 223.362C141.476 223.362 129.471 217.901 123.639 208.968C120.039 203.451 115.854 191.894 128.316 176.474L129.428 177.372C120.617 188.28 118.984 199.223 124.837 208.191C131.959 219.106 148.791 224.595 163.142 220.689C177.849 216.689 186.775 203.892 187.637 185.592C190.582 122.991 223.839 103.714 248.128 89.6343C263.213 80.8869 274.113 74.5634 271.718 61.2319C271.383 59.3855 270.649 58.1022 269.465 57.3252C266.364 55.2791 260.304 56.6907 253.289 58.3304C239.523 61.5385 220.674 65.93 209.445 46.8311L210.672 46.1111C221.372 64.3046 238.889 60.2267 252.961 56.9473C260.297 55.2363 266.635 53.7606 270.249 56.1417C271.775 57.1469 272.716 58.7367 273.123 60.9895C275.696 75.3048 263.848 82.1772 248.841 90.8748C224.844 104.791 191.972 123.847 189.063 185.671C188.172 204.634 178.861 217.901 163.52 222.072C160.283 222.949 156.925 223.369 153.582 223.369L153.575 223.362Z" fill="white"/>
<path d="M194.738 29.9423C199.628 29.8567 204.419 31.4608 204.419 31.4608C204.419 31.4608 212.232 44.8421 213.188 47.9076C212.86 50.9304 207.755 55.8851 207.755 55.8851L194.73 29.9423H194.738Z" fill="#407BFF"/>
<path opacity="0.3" d="M194.738 29.9423C199.628 29.8567 204.419 31.4608 204.419 31.4608C204.419 31.4608 212.232 44.8421 213.188 47.9076C212.86 50.9304 207.755 55.8851 207.755 55.8851L194.73 29.9423H194.738Z" fill="#353988"/>
<path d="M217.973 94.9454C215.022 91.2026 212.127 87.3956 209.732 83.2679C209.133 82.2342 208.563 81.1862 208.028 80.1168C207.721 79.5108 207.429 78.8977 207.144 78.2846C206.894 77.75 206.338 76.9586 206.288 76.374C205.433 67.3415 208.527 60.69 205.554 53.4397L193.812 58.0308C193.812 58.0308 194.811 70.9488 197.092 78.6767C198.503 83.4746 201.704 87.6238 204.791 91.4664C205.754 92.6712 206.688 93.8974 207.65 95.1022C208.563 96.2429 209.582 97.2837 210.495 98.4172C211.885 100.135 212.341 101.782 211.286 103.807C211.229 103.914 211.172 104.021 211.108 104.128C210.808 104.655 212.213 105.254 213.09 104.142C214.544 102.303 214.316 102.417 215.556 100.848C216.312 99.893 217.175 98.8664 217.923 97.9752C218.65 97.1055 218.672 95.8436 217.966 94.9454H217.973Z" fill="#407BFF"/>
<path opacity="0.7" d="M217.973 94.9454C215.022 91.2026 212.127 87.3956 209.732 83.2679C209.133 82.2342 208.563 81.1862 208.028 80.1168C207.721 79.5108 207.429 78.8977 207.144 78.2846C206.894 77.75 206.338 76.9586 206.288 76.374C205.433 67.3415 208.527 60.69 205.554 53.4397L193.812 58.0308C193.812 58.0308 194.811 70.9488 197.092 78.6767C198.503 83.4746 201.704 87.6238 204.791 91.4664C205.754 92.6712 206.688 93.8974 207.65 95.1022C208.563 96.2429 209.582 97.2837 210.495 98.4172C211.885 100.135 212.341 101.782 211.286 103.807C211.229 103.914 211.172 104.021 211.108 104.128C210.808 104.655 212.213 105.254 213.09 104.142C214.544 102.303 214.316 102.417 215.556 100.848C216.312 99.893 217.175 98.8664 217.923 97.9752C218.65 97.1055 218.672 95.8436 217.966 94.9454H217.973Z" fill="white"/>
<path opacity="0.3" d="M215.1 91.2312C213.524 93.1347 210.33 95.5942 208.926 96.5923C209.232 96.9345 209.539 97.2838 209.838 97.6331C212.74 95.7368 215.028 93.2844 215.898 92.2863C215.627 91.937 215.363 91.5877 215.1 91.2312Z" fill="#407BFF"/>
<path opacity="0.3" d="M217.965 94.9453C217.936 94.9097 217.908 94.8812 217.879 94.8384C217.387 95.3517 217.038 96.1786 216.981 97.0983C216.931 97.7328 217.038 98.3174 217.252 98.7736C217.487 98.4956 217.708 98.2247 217.929 97.9681C218.663 97.0983 218.67 95.8364 217.965 94.9453Z" fill="#407BFF"/>
<path d="M191.951 38.4971C190.724 40.2865 189.277 42.0474 187.402 43.6229C186.476 44.4142 185.413 45.1343 184.251 45.7474C183.667 46.0468 183.046 46.3035 182.412 46.5173L181.934 46.6742L181.777 46.7241C181.663 46.7597 181.549 46.7882 181.435 46.8168C181.221 46.8667 181 46.8952 180.815 46.9166C180.045 46.9736 179.482 46.8667 179.026 46.7526C178.113 46.5031 177.507 46.1751 176.93 45.8543C176.359 45.5264 175.867 45.1913 175.397 44.8491C174.47 44.1433 173.629 43.4304 172.845 42.6747C171.269 41.1705 169.872 39.6092 168.574 37.8697C167.983 37.0784 168.147 35.9591 168.938 35.3674C169.551 34.9111 170.357 34.904 170.963 35.289L171.02 35.3246C172.702 36.394 174.399 37.5204 176.053 38.5256C176.887 39.0175 177.707 39.5166 178.512 39.9015C178.904 40.1011 179.297 40.2865 179.646 40.4148C179.988 40.5503 180.323 40.6216 180.416 40.6073C180.451 40.6073 180.416 40.5574 180.145 40.5645C180.081 40.5645 179.988 40.5788 179.903 40.593C179.853 40.6002 179.796 40.6144 179.746 40.6358C179.696 40.6501 179.767 40.6216 179.767 40.6216L180.002 40.5004C180.316 40.3435 180.615 40.1439 180.922 39.9372C181.535 39.5237 182.113 39.0033 182.704 38.4258C183.881 37.2638 185.007 35.8094 186.198 34.298L186.212 34.2767C187.431 32.7296 189.677 32.4659 191.224 33.6921C192.706 34.8612 192.999 36.9786 191.951 38.5113V38.4971Z" fill="#407BFF"/>
<path opacity="0.7" d="M191.951 38.4971C190.724 40.2865 189.277 42.0474 187.402 43.6229C186.476 44.4142 185.413 45.1343 184.251 45.7474C183.667 46.0468 183.046 46.3035 182.412 46.5173L181.934 46.6742L181.777 46.7241C181.663 46.7597 181.549 46.7882 181.435 46.8168C181.221 46.8667 181 46.8952 180.815 46.9166C180.045 46.9736 179.482 46.8667 179.026 46.7526C178.113 46.5031 177.507 46.1751 176.93 45.8543C176.359 45.5264 175.867 45.1913 175.397 44.8491C174.47 44.1433 173.629 43.4304 172.845 42.6747C171.269 41.1705 169.872 39.6092 168.574 37.8697C167.983 37.0784 168.147 35.9591 168.938 35.3674C169.551 34.9111 170.357 34.904 170.963 35.289L171.02 35.3246C172.702 36.394 174.399 37.5204 176.053 38.5256C176.887 39.0175 177.707 39.5166 178.512 39.9015C178.904 40.1011 179.297 40.2865 179.646 40.4148C179.988 40.5503 180.323 40.6216 180.416 40.6073C180.451 40.6073 180.416 40.5574 180.145 40.5645C180.081 40.5645 179.988 40.5788 179.903 40.593C179.853 40.6002 179.796 40.6144 179.746 40.6358C179.696 40.6501 179.767 40.6216 179.767 40.6216L180.002 40.5004C180.316 40.3435 180.615 40.1439 180.922 39.9372C181.535 39.5237 182.113 39.0033 182.704 38.4258C183.881 37.2638 185.007 35.8094 186.198 34.298L186.212 34.2767C187.431 32.7296 189.677 32.4659 191.224 33.6921C192.706 34.8612 192.999 36.9786 191.951 38.5113V38.4971Z" fill="white"/>
<path d="M165.887 33.8346L166.721 35.239C166.721 35.239 167.363 37.1069 168.639 37.4491L172.096 36.3298L171.925 36.0375C171.483 35.3602 171.533 34.0627 171.683 32.9791C171.84 31.8955 171.276 31.8598 170.863 32.1236C170.621 32.2805 170.457 32.7724 170.257 33.307C170.086 33.0718 169.908 32.8437 169.701 32.644L168.646 31.5889C168.19 31.1327 167.455 31.1113 166.978 31.539L166.122 32.3018C165.687 32.6868 165.587 33.3356 165.887 33.8346Z" fill="#407BFF"/>
<path opacity="0.7" d="M165.887 33.8346L166.721 35.239C166.721 35.239 167.363 37.1069 168.639 37.4491L172.096 36.3298L171.925 36.0375C171.483 35.3602 171.533 34.0627 171.683 32.9791C171.84 31.8955 171.276 31.8598 170.863 32.1236C170.621 32.2805 170.457 32.7724 170.257 33.307C170.086 33.0718 169.908 32.8437 169.701 32.644L168.646 31.5889C168.19 31.1327 167.455 31.1113 166.978 31.539L166.122 32.3018C165.687 32.6868 165.587 33.3356 165.887 33.8346Z" fill="white"/>
<path d="M198.245 28.7089C194.93 29.5145 190.375 31.4037 187.302 33.3214C186.211 33.9987 185.67 35.289 185.926 36.5438C187.295 43.2736 190.425 52.2848 193.804 58.0238L209.566 51.5006C209.673 48.7203 205.845 39.7233 201.952 31.0258C201.254 29.4646 199.914 28.3025 198.245 28.7017V28.7089Z" fill="#407BFF"/>
<path opacity="0.8" d="M198.245 28.7089C194.93 29.5145 190.375 31.4037 187.302 33.3214C186.211 33.9987 185.67 35.289 185.926 36.5438C187.295 43.2736 190.425 52.2848 193.804 58.0238L209.566 51.5006C209.673 48.7203 205.845 39.7233 201.952 31.0258C201.254 29.4646 199.914 28.3025 198.245 28.7017V28.7089Z" fill="white"/>
<path opacity="0.3" d="M204.391 36.5438L201.262 35.4958C201.96 37.328 204.491 39.645 206.273 41.0066C205.689 39.5737 205.054 38.0837 204.391 36.5438Z" fill="#407BFF"/>
<path d="M197.205 21.6511C195.908 19.1701 193.092 17.9225 189.706 18.2006C186.854 18.4358 184.33 21.3516 184.63 22.9201C184.929 24.4956 187.324 25.1586 187.759 25.7075L185.785 27.1405C184.801 27.8534 184.608 29.2436 185.357 30.1989C186.191 31.254 187.282 32.359 187.923 33.1361C193.384 32.9935 197.426 30.9118 198.881 28.9014C198.36 26.3492 198.496 24.1177 197.198 21.6439L197.205 21.6511Z" fill="#407BFF"/>
<path opacity="0.8" d="M197.205 21.6511C195.908 19.1701 193.092 17.9225 189.706 18.2006C186.854 18.4358 184.33 21.3516 184.63 22.9201C184.929 24.4956 187.324 25.1586 187.759 25.7075L185.785 27.1405C184.801 27.8534 184.608 29.2436 185.357 30.1989C186.191 31.254 187.282 32.359 187.923 33.1361C193.384 32.9935 197.426 30.9118 198.881 28.9014C198.36 26.3492 198.496 24.1177 197.198 21.6439L197.205 21.6511Z" fill="white"/>
<path d="M194.532 23.1838C195.616 25.9641 194.247 29.0938 191.466 30.1774C188.686 31.2611 185.556 29.8923 184.473 27.1119C183.389 24.3316 184.758 21.2019 187.538 20.1183C190.319 19.0347 193.448 20.4034 194.532 23.1838Z" fill="#263238"/>
<path d="M240.816 87.4312C240.737 85.0858 240.637 85.321 240.566 83.3249C240.523 82.1129 240.516 80.7655 240.509 79.6035C240.502 78.47 239.696 77.4933 238.584 77.2651C237.636 77.0726 236.695 76.8944 235.747 76.6877C234.514 76.4239 233.302 76.1459 232.09 75.7894C231.156 75.5185 230.222 75.2191 229.309 74.884C228.325 74.5276 227.356 74.1426 226.393 73.7291C225.267 73.2443 224.162 72.731 223.057 72.2035C221.824 71.6117 220.605 71.0058 219.393 70.3855C214.702 62.6148 214.602 57.5032 209.562 51.4934L198.754 56.384C198.754 56.384 206.696 70.4711 212.1 76.4453C215.215 79.8815 220.098 81.4357 224.454 82.5549C227.598 83.3677 230.785 83.9879 233.972 84.5725C235.212 84.8006 236.56 84.8862 237.629 85.6276C238.47 86.2122 238.905 87.1247 239.155 88.0871C239.204 88.2867 239.247 88.4864 239.283 88.686C239.397 89.2848 240.851 88.8357 240.801 87.417L240.816 87.4312Z" fill="#407BFF"/>
<path opacity="0.8" d="M240.816 87.4312C240.737 85.0858 240.637 85.321 240.566 83.3249C240.523 82.1129 240.516 80.7655 240.509 79.6035C240.502 78.47 239.696 77.4933 238.584 77.2651C237.636 77.0726 236.695 76.8944 235.747 76.6877C234.514 76.4239 233.302 76.1459 232.09 75.7894C231.156 75.5185 230.222 75.2191 229.309 74.884C228.325 74.5276 227.356 74.1426 226.393 73.7291C225.267 73.2443 224.162 72.731 223.057 72.2035C221.824 71.6117 220.605 71.0058 219.393 70.3855C214.702 62.6148 214.602 57.5032 209.562 51.4934L198.754 56.384C198.754 56.384 206.696 70.4711 212.1 76.4453C215.215 79.8815 220.098 81.4357 224.454 82.5549C227.598 83.3677 230.785 83.9879 233.972 84.5725C235.212 84.8006 236.56 84.8862 237.629 85.6276C238.47 86.2122 238.905 87.1247 239.155 88.0871C239.204 88.2867 239.247 88.4864 239.283 88.686C239.397 89.2848 240.851 88.8357 240.801 87.417L240.816 87.4312Z" fill="white"/>
<path opacity="0.3" d="M235.341 76.6021C234.914 76.5094 234.486 76.4168 234.051 76.3098C234.087 78.7694 232.932 83.0254 232.504 84.3087C232.953 84.3942 233.409 84.4798 233.858 84.5653C235.113 81.179 235.306 77.6002 235.334 76.595L235.341 76.6021Z" fill="#407BFF"/>
<path opacity="0.3" d="M240.517 79.6034C240.51 78.4628 239.711 77.4932 238.599 77.2651C238.378 77.2223 238.143 77.1724 237.922 77.1296C237.972 77.7998 238.385 78.5768 239.084 79.1971C239.54 79.6106 240.061 79.8815 240.531 80.0098C240.531 79.8672 240.531 79.7318 240.524 79.6034H240.517Z" fill="#407BFF"/>
<path d="M193.521 23.2337C193.806 24.3173 192.601 25.4508 191.632 24.5169C190.847 23.7612 189.664 22.4851 188.694 21.8863C187.704 21.2661 189.022 20.1824 190.584 20.603C192.038 20.9951 193.229 22.1572 193.521 23.2337Z" fill="white"/>
<path d="M193.606 57.6815C193.107 57.8669 194.02 58.7224 194.02 58.7224C194.02 58.7224 203.979 55.3076 210.053 51.7929C210.103 51.0586 209.568 50.6665 209.568 50.6665C209.568 50.6665 202.175 54.5162 193.599 57.6815H193.606Z" fill="#407BFF"/>
<path opacity="0.5" d="M193.606 57.6815C193.107 57.8669 194.02 58.7224 194.02 58.7224C194.02 58.7224 203.979 55.3076 210.053 51.7929C210.103 51.0586 209.568 50.6665 209.568 50.6665C209.568 50.6665 202.175 54.5162 193.599 57.6815H193.606Z" fill="white"/>
<path d="M200.949 28.2385C202.916 29.2294 204.763 30.2845 206.616 31.4466C207.536 32.024 208.456 32.6229 209.354 33.2645C210.266 33.8919 211.157 34.5549 212.063 35.3034L212.398 35.5815L212.819 35.9593C213.118 36.2231 213.339 36.4655 213.56 36.7079C213.788 36.9574 213.981 37.1998 214.166 37.4421C214.358 37.6845 214.544 37.9269 214.715 38.1622C215.421 39.1104 215.998 40.0728 216.561 41.0281C217.659 42.9672 218.607 44.8992 219.392 46.9809C219.741 47.9077 219.27 48.9414 218.344 49.2907C217.645 49.5545 216.889 49.3549 216.404 48.8416L216.369 48.8059C214.936 47.2874 213.56 45.6905 212.177 44.2005C210.822 42.7177 209.389 41.1992 208.227 40.5362C206.609 39.5238 204.805 38.5258 203.016 37.5348L197.626 34.5406H197.612C195.887 33.5782 195.267 31.4109 196.222 29.6857C197.156 28.0103 199.245 27.3758 200.949 28.2313V28.2385Z" fill="#407BFF"/>
<path opacity="0.8" d="M200.949 28.2385C202.916 29.2294 204.763 30.2845 206.616 31.4466C207.536 32.024 208.456 32.6229 209.354 33.2645C210.266 33.8919 211.157 34.5549 212.063 35.3034L212.398 35.5815L212.819 35.9593C213.118 36.2231 213.339 36.4655 213.56 36.7079C213.788 36.9574 213.981 37.1998 214.166 37.4421C214.358 37.6845 214.544 37.9269 214.715 38.1622C215.421 39.1104 215.998 40.0728 216.561 41.0281C217.659 42.9672 218.607 44.8992 219.392 46.9809C219.741 47.9077 219.27 48.9414 218.344 49.2907C217.645 49.5545 216.889 49.3549 216.404 48.8416L216.369 48.8059C214.936 47.2874 213.56 45.6905 212.177 44.2005C210.822 42.7177 209.389 41.1992 208.227 40.5362C206.609 39.5238 204.805 38.5258 203.016 37.5348L197.626 34.5406H197.612C195.887 33.5782 195.267 31.4109 196.222 29.6857C197.156 28.0103 199.245 27.3758 200.949 28.2313V28.2385Z" fill="white"/>
<path d="M221.101 50.467L220.495 48.9485C220.495 48.9485 220.16 47.0093 218.948 46.4675L215.355 47.0307L215.483 47.3444C215.818 48.0787 215.561 49.3619 215.241 50.4028C214.92 51.4508 215.469 51.572 215.918 51.3724C216.182 51.2583 216.424 50.7949 216.702 50.2959C216.83 50.5525 216.98 50.8092 217.151 51.0444L218.028 52.2492C218.406 52.7697 219.126 52.9051 219.668 52.5558L220.63 51.9356C221.122 51.6219 221.322 51.0016 221.108 50.4598L221.101 50.467Z" fill="#407BFF"/>
<path opacity="0.8" d="M221.101 50.467L220.495 48.9485C220.495 48.9485 220.16 47.0093 218.948 46.4675L215.355 47.0307L215.483 47.3444C215.818 48.0787 215.561 49.3619 215.241 50.4028C214.92 51.4508 215.469 51.572 215.918 51.3724C216.182 51.2583 216.424 50.7949 216.702 50.2959C216.83 50.5525 216.98 50.8092 217.151 51.0444L218.028 52.2492C218.406 52.7697 219.126 52.9051 219.668 52.5558L220.63 51.9356C221.122 51.6219 221.322 51.0016 221.108 50.4598L221.101 50.467Z" fill="white"/>
<path opacity="0.3" d="M197.932 36.4297L197.062 36.501L191.723 49.3904C192.036 49.4118 192.322 49.3904 192.592 49.3191C192.592 49.3191 199.55 46.7241 201.653 45.7759C200.235 42.8388 197.925 36.4297 197.925 36.4297H197.932Z" fill="#407BFF"/>
<path d="M188.187 39.816C188.486 42.1401 190.226 47.0734 191.723 49.3975C194.332 48.4992 198.681 46.8025 200.784 45.8543C199.365 42.9171 197.875 38.8678 197.055 36.5081C194.81 36.6578 189.919 38.5042 188.18 39.8231L188.187 39.816Z" fill="white"/>
<path opacity="0.3" d="M193.49 42.6034C193.198 43.573 192.171 44.129 191.202 43.8368C190.232 43.5445 189.676 42.5179 189.969 41.5483C190.261 40.5788 191.287 40.0227 192.257 40.315C193.227 40.6073 193.783 41.6339 193.49 42.6034Z" fill="#407BFF"/>
<path opacity="0.6" d="M194.851 40.1512C194.759 40.472 194.423 40.6502 194.103 40.5576C193.782 40.4649 193.604 40.1298 193.696 39.809C193.789 39.4882 194.124 39.31 194.445 39.4026C194.766 39.4953 194.944 39.8304 194.851 40.1512Z" fill="#407BFF"/>
<path opacity="0.6" d="M196.441 39.5308C196.348 39.8516 196.013 40.0299 195.693 39.9372C195.372 39.8445 195.194 39.5094 195.286 39.1886C195.379 38.8678 195.721 38.6896 196.035 38.7823C196.356 38.875 196.534 39.21 196.441 39.5308Z" fill="#407BFF"/>
<path opacity="0.5" d="M198.689 45.0772L192.095 47.6865L191.695 46.389L198.29 43.7869L198.689 45.0772Z" fill="#407BFF"/>
</g>
<defs>
<clipPath id="clip0_4306_5536">
<rect width="300" height="278.099" fill="white"/>
</clipPath>
</defs>
</svg>
