<svg width="304" height="300" viewBox="0 0 304 300" fill="none" xmlns="http://www.w3.org/2000/svg">
<g clip-path="url(#clip0_3998_7036)">
<path d="M226.458 185.672H275.824V147.592H226.458V185.672Z" fill="#EBEBEB"/>
<path d="M229.987 182.351H235.938V175.629H229.987V182.351Z" fill="white"/>
<path d="M260.773 147.694H255.164V155.817H260.773V147.694Z" fill="#FAFAFA"/>
<path d="M260.773 177.433H255.164V185.555H260.773V177.433Z" fill="#FAFAFA"/>
<path d="M238.782 185.938C238.693 185.938 238.625 177.563 238.625 167.233C238.625 156.903 238.693 148.528 238.782 148.528C238.871 148.528 238.939 156.903 238.939 167.233C238.939 177.563 238.871 185.938 238.782 185.938Z" fill="#E0E0E0"/>
<path d="M206.33 251.249H291.508V185.549H206.33V251.249Z" fill="#EBEBEB"/>
<path d="M212.418 245.51H222.68V233.91H212.418V245.51Z" fill="white"/>
<path d="M265.521 185.72H255.848V199.738H265.521V185.72Z" fill="#FAFAFA"/>
<path d="M265.521 237.032H255.848V251.051H265.521V237.032Z" fill="#FAFAFA"/>
<path d="M227.586 251.7C227.435 251.7 227.312 237.251 227.312 219.427C227.312 201.603 227.435 187.154 227.586 187.154C227.736 187.154 227.859 201.603 227.859 219.427C227.859 237.251 227.736 251.7 227.586 251.7Z" fill="#E0E0E0"/>
<path d="M288.795 48.9012L293.358 58.1445L303.565 59.627L296.18 66.8276L297.922 76.9863L288.795 72.1905L279.674 76.9863L281.416 66.8276L274.031 59.627L284.238 58.1445L288.795 48.9012Z" fill="#EBEBEB"/>
<path d="M17.0938 168.285L19.97 174.112L26.4054 175.048L21.753 179.585L22.8461 185.986L17.0938 182.966L11.3484 185.986L12.4414 179.585L7.78906 175.048L14.2245 174.112L17.0938 168.285Z" fill="#EBEBEB"/>
<path d="M20.6659 117.526L27.0467 130.465L41.3317 132.535L30.9954 142.611L33.4343 156.828L20.6659 150.12L7.8906 156.828L10.3295 142.611L0 132.535L14.2782 130.465L20.6659 117.526Z" fill="#EBEBEB"/>
<path d="M284.737 90.6497L287.49 96.2243L293.638 97.1193L289.184 101.464L290.236 107.592L284.737 104.696L279.23 107.592L280.282 101.464L275.828 97.1193L281.983 96.2243L284.737 90.6497Z" fill="#EBEBEB"/>
<path d="M194.402 0.300537L197.155 5.8752L203.31 6.77015L198.856 11.1083L199.908 17.2363L194.402 14.3465L188.902 17.2363L189.954 11.1083L185.5 6.77015L191.655 5.8752L194.402 0.300537Z" fill="#EBEBEB"/>
<path d="M257.378 59.9686L259.182 63.6168L263.206 64.2043L260.295 67.0394L260.979 71.0565L257.378 69.1573L253.778 71.0565L254.461 67.0394L251.551 64.2043L255.575 63.6168L257.378 59.9686Z" fill="#EBEBEB"/>
<path d="M91.1629 244.219L94.6675 251.324L102.517 252.465L96.84 257.999L98.179 265.814L91.1629 262.125L84.1467 265.814L85.4857 257.999L79.8086 252.465L87.6514 251.324L91.1629 244.219Z" fill="#EBEBEB"/>
<path d="M100.428 237.148L101.876 240.086L105.114 240.557L102.771 242.846L103.324 246.071L100.428 244.547L97.5243 246.071L98.0776 242.846L95.7344 240.557L98.9726 240.086L100.428 237.148Z" fill="#EBEBEB"/>
<path d="M229.989 209.931L233.077 216.182L239.97 217.179L234.983 222.05L236.158 228.916L229.989 225.671L223.82 228.916L224.995 222.05L220.008 217.179L226.908 216.182L229.989 209.931Z" fill="#353988"/>
<path d="M244.704 204.391L246.159 207.335L249.411 207.806L247.061 210.102L247.614 213.34L244.704 211.81L241.801 213.34L242.354 210.102L240.004 207.806L243.256 207.335L244.704 204.391Z" fill="#353988"/>
<path d="M225.419 41.6939L227.83 34.138C225.952 30.3737 225.064 26.0561 225.467 21.5609C226.635 8.62848 238.085 -0.908557 251.031 0.266493C263.984 1.43471 273.534 12.871 272.359 25.8033C271.191 38.7357 259.741 48.2728 246.795 47.0977C241.384 46.6058 236.937 44.652 233.241 41.2225L225.412 41.6939H225.419Z" fill="#FAFAFA"/>
<path d="M225.417 41.6938C225.417 41.6938 225.602 41.6733 225.937 41.6528C226.285 41.6255 226.791 41.5914 227.44 41.5435C228.765 41.4547 230.712 41.3181 233.24 41.1473H233.274L233.301 41.1678C235.528 43.2241 238.924 45.4991 243.521 46.476C244.662 46.722 245.865 46.9132 247.115 46.9884C247.743 47.0089 248.379 47.0362 249.028 47.0635C249.677 47.0635 250.333 46.9884 251.002 46.9542C253.666 46.7083 256.454 45.991 259.132 44.6793C261.81 43.3744 264.365 41.482 266.503 39.0431C268.635 36.6042 270.37 33.6256 271.333 30.2849C272.297 26.951 272.536 23.2961 271.914 19.689C271.805 18.7803 271.518 17.899 271.292 17.0041C271.19 16.5532 270.999 16.1228 270.841 15.6856C270.677 15.2552 270.52 14.8111 270.343 14.3807C269.537 12.7001 268.655 11.0127 267.453 9.53023C266.906 8.74459 266.237 8.07508 265.601 7.37825C265.301 7.01617 264.918 6.72924 264.577 6.40815C264.221 6.10072 263.894 5.76597 263.525 5.48587L262.404 4.65924L261.844 4.24934L261.25 3.89409L260.061 3.18359C259.665 2.95815 259.234 2.78052 258.824 2.5824C255.518 1.03161 251.938 0.280124 248.468 0.355272C244.997 0.423589 241.67 1.27072 238.753 2.67805C235.836 4.08537 233.329 6.03924 231.361 8.26637C229.387 10.4935 227.952 12.9871 227.002 15.4875C226.886 15.8017 226.777 16.116 226.668 16.4234C226.552 16.7308 226.449 17.0383 226.381 17.3593C226.224 17.9879 226.073 18.6095 225.916 19.2176C225.752 20.4609 225.52 21.6565 225.499 22.8247C225.308 27.5044 226.545 31.3916 227.891 34.1175L227.904 34.1448V34.1721C227.098 36.6042 226.483 38.4761 226.06 39.7536C225.848 40.3821 225.691 40.8672 225.581 41.2019C225.472 41.5299 225.411 41.7007 225.411 41.7007C225.411 41.7007 225.452 41.5435 225.547 41.2224C225.65 40.8877 225.8 40.4095 225.991 39.781C226.394 38.4829 226.982 36.5837 227.747 34.1175V34.1721C226.374 31.4463 225.096 27.5317 225.26 22.8042C225.281 21.6223 225.499 20.4199 225.663 19.1629C225.814 18.5481 225.964 17.9195 226.121 17.2842C226.189 16.9631 226.292 16.6489 226.408 16.3346C226.517 16.0203 226.633 15.7061 226.743 15.385C227.686 12.8573 229.134 10.3227 231.129 8.06142C233.117 5.80013 235.645 3.81211 238.603 2.37745C241.554 0.942798 244.936 0.0820048 248.454 0.00685622C251.972 -0.075124 255.607 0.683193 258.968 2.25448C259.385 2.45943 259.815 2.63706 260.218 2.8625L261.42 3.57983L262.022 3.94191L262.589 4.35864L263.73 5.19894C264.105 5.48587 264.44 5.82746 264.802 6.13488C265.151 6.4628 265.533 6.74973 265.841 7.11864C266.483 7.82914 267.166 8.50548 267.719 9.29795C268.935 10.8009 269.837 12.5157 270.65 14.2236C270.835 14.6608 270.985 15.1117 271.156 15.549C271.313 15.993 271.511 16.4234 271.613 16.888C271.846 17.7966 272.139 18.6915 272.249 19.6138C272.877 23.2756 272.624 26.9852 271.648 30.3669C270.664 33.7554 268.901 36.775 266.729 39.2412C264.556 41.7143 261.96 43.6204 259.241 44.932C256.522 46.2506 253.694 46.9679 251.002 47.207C250.326 47.2412 249.663 47.3026 249.007 47.3095C248.351 47.2822 247.709 47.2548 247.074 47.2275C245.81 47.1455 244.601 46.9474 243.446 46.6946C238.808 45.6904 235.392 43.3608 233.178 41.2703L233.233 41.2908C230.678 41.4274 228.717 41.5299 227.378 41.5982C226.736 41.6323 226.237 41.6528 225.889 41.6733C225.561 41.687 225.397 41.6938 225.397 41.6938H225.417Z" fill="#263238"/>
<path d="M235.57 22.7905L239.444 19.4362L245.975 26.1381L260.602 13.9503L263.703 17.8034L244.957 33.0722L235.57 22.7905Z" fill="#353988"/>
<path d="M184.887 209.637L53.8826 238.836C50.7059 239.546 47.5496 237.538 46.8391 234.361L4.31869 43.5862C3.6082 40.4095 5.61671 37.2532 8.79345 36.5427L139.805 7.35092C142.981 6.64042 146.138 8.64894 146.848 11.8257L189.362 202.601C190.072 205.777 188.071 208.934 184.887 209.644V209.637Z" fill="#E0E0E0"/>
<path d="M184.886 209.637C184.886 209.637 185.03 209.589 185.324 209.507C185.61 209.425 186.034 209.262 186.553 208.975C187.059 208.674 187.66 208.223 188.206 207.533C188.746 206.85 189.231 205.914 189.402 204.766C189.498 204.199 189.491 203.578 189.388 202.942C189.279 202.307 189.108 201.644 188.958 200.947C188.644 199.554 188.302 198.023 187.933 196.37C187.189 193.064 186.335 189.245 185.371 184.941C181.525 167.745 175.964 142.857 169.098 112.115C165.669 96.7367 161.904 79.8966 157.874 61.82C155.858 52.7816 153.768 43.4291 151.623 33.8032C150.55 28.9869 149.457 24.1022 148.357 19.1492C147.804 16.6762 147.244 14.1826 146.683 11.6754C146.383 10.4525 145.645 9.35259 144.654 8.56012C143.65 7.78813 142.4 7.33041 141.122 7.33724C140.48 7.33724 139.859 7.46021 139.223 7.61051C138.588 7.75398 137.946 7.89744 137.31 8.04091C136.033 8.32784 134.749 8.61477 133.464 8.9017C130.889 9.47556 128.306 10.0494 125.703 10.6301C120.498 11.7915 115.237 12.9666 109.915 14.1484C99.2716 16.519 88.4092 18.9443 77.3487 21.4105C55.2277 26.343 32.321 31.4463 8.86098 36.6794C7.42633 36.9936 6.12831 37.8749 5.32217 39.0978C4.50236 40.307 4.17444 41.8373 4.43405 43.2788C5.0489 46.1891 5.72524 49.0994 6.36058 51.996C7.65177 57.7893 8.93613 63.5484 10.2068 69.2597C12.755 80.6891 15.2623 91.9477 17.7285 103.008C22.6542 125.136 27.409 146.478 31.9384 166.816C36.4678 187.147 40.765 206.467 44.7957 224.551C45.3012 226.812 45.7999 229.053 46.2918 231.273C46.5446 232.38 46.7769 233.5 47.0433 234.58C47.3234 235.652 47.9246 236.622 48.7376 237.36C49.5505 238.098 50.5684 238.59 51.6342 238.781C52.1671 238.87 52.7136 238.884 53.2533 238.829C53.7862 238.761 54.319 238.631 54.8587 238.508C56.9971 238.03 59.1217 237.558 61.2191 237.094C69.6152 235.229 77.6698 233.432 85.3554 231.724C116.112 224.892 141 219.359 158.195 215.54C166.796 213.634 173.471 212.158 178 211.154C180.261 210.655 181.99 210.273 183.151 210.02C184.312 209.767 184.907 209.644 184.907 209.644C184.907 209.644 184.312 209.788 183.158 210.047C181.996 210.307 180.275 210.696 178.014 211.209C173.484 212.226 166.81 213.723 158.215 215.649C141.02 219.495 116.139 225.056 85.3896 231.922C77.7039 233.637 69.6494 235.434 61.2532 237.312C59.1559 237.784 57.0381 238.255 54.8929 238.733C54.36 238.85 53.8272 238.986 53.267 239.055C52.7068 239.109 52.1397 239.095 51.5864 239.007C50.4728 238.809 49.4139 238.303 48.5736 237.531C47.7333 236.766 47.0979 235.755 46.811 234.641C46.5377 233.534 46.3123 232.435 46.0595 231.321C45.5608 229.101 45.0621 226.86 44.5566 224.599C40.5259 206.515 36.2151 187.195 31.6788 166.864C27.1426 146.533 22.3877 125.191 17.4484 103.063C14.9822 92.0024 12.4749 80.7369 9.92672 69.3143C8.65603 63.603 7.37167 57.8439 6.08048 52.0507C5.4383 49.1472 4.77563 46.2574 4.14712 43.3198C3.88068 41.8168 4.22226 40.2045 5.08306 38.9338C5.93019 37.6563 7.28969 36.7272 8.7995 36.3993C32.2595 31.173 55.1662 26.0697 77.2872 21.1373C88.3477 18.671 99.2169 16.2526 109.854 13.882C115.176 12.7001 120.436 11.5251 125.642 10.3637C128.245 9.78299 130.834 9.20913 133.403 8.63526C134.687 8.34833 135.971 8.0614 137.249 7.7813C137.891 7.63784 138.526 7.49437 139.162 7.35774C139.79 7.20744 140.453 7.07081 141.122 7.07764C142.455 7.07764 143.766 7.54902 144.812 8.35516C145.843 9.17497 146.615 10.3295 146.929 11.607C147.49 14.1143 148.05 16.6078 148.603 19.0877C149.703 24.0407 150.796 28.9254 151.869 33.7417C154.014 43.3744 156.091 52.7202 158.106 61.7653C162.13 79.8488 165.874 96.6889 169.296 112.067C176.128 142.823 181.662 167.711 185.487 184.913C186.444 189.21 187.291 193.036 188.022 196.343C188.391 197.996 188.726 199.526 189.033 200.927C189.183 201.63 189.354 202.286 189.457 202.929C189.559 203.571 189.566 204.199 189.464 204.773C189.286 205.928 188.787 206.87 188.241 207.56C187.687 208.25 187.079 208.701 186.567 209.002C186.041 209.282 185.617 209.446 185.33 209.528C185.037 209.603 184.893 209.644 184.893 209.644L184.886 209.637Z" fill="#263238"/>
<g opacity="0.3">
<path d="M60.523 232.079L179.886 204.794L176.108 181.395L169.345 168.285L55.1602 213.142L60.523 232.079Z" fill="black"/>
</g>
<g opacity="0.3">
<path d="M110.352 14.3466L114.867 21.7999L115.749 25.7486L112.681 26.4318L110.352 14.3466Z" fill="black"/>
</g>
<path d="M11.1211 44.6928L52.5348 230.515L182.344 201.583L174.938 168.36L140.93 15.7606L11.1211 44.6928Z" fill="white"/>
<path d="M11.1211 44.6929C12.0434 44.4879 62.0103 33.3044 140.903 15.6513L141.012 15.624L141.039 15.7402C152.558 67.3809 166.925 131.824 182.474 201.542V201.555L182.508 201.692L182.371 201.726C135.963 212.062 91.899 221.88 52.5621 230.645L52.4323 230.672L52.405 230.542C28.0295 120.812 11.3739 45.8201 11.1211 44.6929C11.3739 45.8269 28.132 120.791 52.6578 230.488L52.5006 230.392C91.8375 221.62 135.902 211.796 182.31 201.453L182.2 201.624V201.61C166.672 131.886 152.318 67.4424 140.814 15.7948L140.951 15.8836C62.0309 33.3932 12.0434 44.4879 11.1211 44.6929Z" fill="#263238"/>
<path d="M47.6756 22.5932L104.922 9.83909C107.249 9.3206 109.563 10.7858 110.083 13.1197L113.387 27.9497L47.6991 42.5847L44.3935 27.7479C43.875 25.4207 45.3402 23.1065 47.6741 22.5866L47.6756 22.5932Z" fill="#455A64"/>
<path d="M83.0609 7.18689L66.3438 10.9102L71.4948 24.8058L84.0856 21.998L83.0609 7.18689Z" fill="#263238"/>
<path d="M104.922 9.83081C104.936 9.90596 92.1403 12.8231 76.3318 16.3482C60.5233 19.8734 47.6934 22.6676 47.6797 22.5924C47.666 22.5173 60.4618 19.6001 76.2703 16.075C92.072 12.5498 104.902 9.75566 104.922 9.83764V9.83081Z" fill="#455A64"/>
<path d="M48.4897 39.1797C48.4146 39.1934 47.7519 36.5153 47.0141 33.1951C46.2762 29.8681 45.7365 27.1628 45.8117 27.1491C45.8868 27.1354 46.5495 29.8135 47.2942 33.1337C48.032 36.4539 48.5717 39.166 48.4965 39.1797H48.4897Z" fill="#455A64"/>
<path d="M110.256 23.9177C110.181 23.9314 109.573 21.4993 108.903 18.4865C108.234 15.4669 107.749 13.0075 107.824 12.9938C107.899 12.9802 108.507 15.4122 109.177 18.425C109.846 21.4446 110.331 23.904 110.256 23.9177Z" fill="#455A64"/>
<path d="M107.654 27.1559C107.668 27.231 94.5302 30.2233 78.305 33.8441C62.0729 37.4581 48.9082 40.3274 48.8945 40.2522C48.8809 40.1771 62.0182 37.1848 78.2435 33.564C94.4687 29.95 107.633 27.0807 107.654 27.1559Z" fill="#455A64"/>
<path d="M73.0769 81.2152C73.0974 81.2903 64.2299 83.333 53.2855 85.7719C42.3343 88.2108 33.4463 90.1305 33.4258 90.0486C33.4053 89.9734 42.266 87.9307 53.2172 85.4918C64.1616 83.0529 73.0564 81.1332 73.0701 81.2152H73.0769Z" fill="#263238"/>
<path d="M139.149 73.7755C139.169 73.8506 116.01 79.0769 87.4327 85.4508C58.842 91.8248 35.6621 96.9212 35.6485 96.8461C35.628 96.7709 58.7874 91.5447 87.3712 85.1707C115.948 78.8036 139.135 73.7003 139.149 73.7755Z" fill="#263238"/>
<path d="M140.57 80.1631C140.591 80.2382 117.431 85.4644 88.8545 91.8384C60.2639 98.2124 37.084 103.309 37.0703 103.234C37.0498 103.159 60.2093 97.9323 88.7931 91.5583C117.37 85.1912 140.557 80.0879 140.57 80.1631Z" fill="#263238"/>
<path d="M141.996 86.5507C142.017 86.6259 118.857 91.8521 90.2803 98.2261C61.6897 104.6 38.5098 109.697 38.4961 109.621C38.4756 109.546 61.635 104.32 90.2188 97.946C118.796 91.5789 141.983 86.4756 141.996 86.5507Z" fill="#263238"/>
<path d="M143.418 92.9315C143.439 93.0066 120.279 98.2329 91.7022 104.607C63.1116 110.981 39.9316 116.077 39.918 116.002C39.8975 115.927 63.0569 110.701 91.6407 104.327C120.218 97.9596 143.404 92.8563 143.418 92.9315Z" fill="#263238"/>
<path d="M144.84 99.3192C144.86 99.3943 121.701 104.621 93.1241 110.995C64.5334 117.369 41.3535 122.465 41.3399 122.39C41.3194 122.315 64.4788 117.088 93.0626 110.714C121.64 104.347 144.826 99.244 144.84 99.3192Z" fill="#263238"/>
<path d="M61.4116 144.272C61.4116 144.272 61.3843 144.197 61.3502 144.053C61.3092 143.896 61.2613 143.691 61.1999 143.445C61.0701 142.892 60.8856 142.127 60.6601 141.163C60.2024 139.189 59.5602 136.415 58.7951 133.095L58.9454 133.191C55.6867 133.922 51.8404 134.789 47.7483 135.705C47.7209 135.739 47.9532 135.384 47.8576 135.534V135.541V135.555L47.8644 135.582L47.8781 135.63L47.8986 135.725L47.9395 135.917L48.0215 136.299C48.0762 136.552 48.1377 136.805 48.1923 137.057C48.3016 137.563 48.4178 138.062 48.5271 138.554C48.7457 139.544 48.9575 140.507 49.1692 141.45C49.586 143.329 49.9754 145.105 50.3306 146.738L50.1803 146.642C53.5142 145.925 56.2947 145.331 58.2759 144.9C59.246 144.695 60.018 144.538 60.5713 144.422C60.8241 144.374 61.0222 144.333 61.1862 144.299C61.3297 144.272 61.4048 144.258 61.4116 144.265C61.4116 144.265 61.3501 144.285 61.2203 144.32C61.0701 144.361 60.8719 144.408 60.6328 144.463C60.0863 144.593 59.328 144.77 58.3784 144.996C56.3835 145.454 53.5825 146.103 50.2282 146.875L50.1052 146.902L50.0779 146.779C49.709 145.146 49.3127 143.377 48.8891 141.498C48.6774 140.555 48.4587 139.592 48.2401 138.601C48.1308 138.11 48.0147 137.611 47.9054 137.105C47.8507 136.853 47.7892 136.6 47.7346 136.347L47.6526 135.964L47.6116 135.773L47.5911 135.677L47.5775 135.63V135.602L47.5706 135.589V135.582C47.475 135.732 47.7004 135.37 47.6799 135.411C51.779 134.502 55.6252 133.655 58.8907 132.931L59.0137 132.904L59.041 133.027C59.7652 136.388 60.3664 139.203 60.7968 141.204C60.9949 142.161 61.152 142.926 61.2682 143.472C61.316 143.712 61.357 143.91 61.3843 144.067C61.4116 144.197 61.4185 144.265 61.4116 144.265V144.272Z" fill="#263238"/>
<path d="M144.688 116.657L66.5234 134.072L67.9764 140.593L146.141 123.178L144.688 116.657Z" fill="#E0E0E0"/>
<path d="M65.7398 163.708C65.7398 163.708 65.7124 163.633 65.6783 163.489C65.6373 163.332 65.5895 163.127 65.528 162.881C65.3982 162.328 65.2137 161.563 64.9883 160.599C64.5305 158.625 63.8884 155.851 63.1232 152.531L63.2735 152.627C60.0148 153.358 56.1686 154.225 52.0764 155.141C52.0491 155.175 52.2813 154.82 52.1857 154.97V154.977V154.991L52.1925 155.018L52.2062 155.066L52.2267 155.161L52.2677 155.353L52.3496 155.735C52.4043 155.988 52.4658 156.241 52.5204 156.494C52.6297 156.999 52.7459 157.498 52.8552 157.99C53.0738 158.98 53.2856 159.944 53.4974 160.886C53.9141 162.765 54.3035 164.541 54.6588 166.174L54.5085 166.078C57.8423 165.361 60.6228 164.767 62.604 164.336C63.5741 164.131 64.3461 163.974 64.8995 163.858C65.1522 163.81 65.3504 163.769 65.5143 163.735C65.6578 163.708 65.7329 163.694 65.7398 163.701C65.7398 163.701 65.6783 163.721 65.5485 163.756C65.3982 163.797 65.2001 163.844 64.9609 163.899C64.4144 164.029 63.6561 164.206 62.7065 164.432C60.7116 164.89 57.9106 165.539 54.5563 166.311L54.4333 166.338L54.406 166.215C54.0371 164.582 53.6408 162.813 53.2173 160.934C53.0055 159.991 52.7869 159.028 52.5683 158.037C52.4589 157.546 52.3428 157.047 52.2335 156.541C52.1789 156.289 52.1174 156.036 52.0627 155.783L51.9807 155.4L51.9397 155.209L51.9192 155.114L51.9056 155.066V155.038L51.8988 155.025V155.018C51.8031 155.168 52.0286 154.806 52.0081 154.847C56.1071 153.938 59.9533 153.091 63.2189 152.367L63.3418 152.34L63.3692 152.463C64.0933 155.824 64.6945 158.639 65.1249 160.64C65.323 161.597 65.4802 162.362 65.5963 162.908C65.6441 163.148 65.6851 163.346 65.7124 163.503C65.7398 163.633 65.7466 163.701 65.7398 163.701V163.708Z" fill="#263238"/>
<path d="M149.016 136.093L70.8516 153.508L72.3045 160.029L150.469 142.615L149.016 136.093Z" fill="#E0E0E0"/>
<path d="M70.0747 183.144C70.0747 183.144 70.0474 183.069 70.0132 182.925C69.9722 182.768 69.9244 182.563 69.8629 182.317C69.7331 181.764 69.5487 180.999 69.3232 180.036C68.8655 178.061 68.2233 175.288 67.4582 171.967L67.6085 172.063C64.3498 172.794 60.5035 173.662 56.4113 174.577C56.384 174.611 56.6163 174.256 56.5206 174.406V174.413V174.427L56.5275 174.454L56.5411 174.502L56.5616 174.598L56.6026 174.789L56.6846 175.171C56.7393 175.424 56.8007 175.677 56.8554 175.93C56.9647 176.435 57.0808 176.934 57.1901 177.426C57.4088 178.417 57.6205 179.38 57.8323 180.323C58.2491 182.201 58.6385 183.978 58.9937 185.61L58.8434 185.515C62.1773 184.797 64.9578 184.203 66.939 183.773C67.9091 183.568 68.681 183.41 69.2344 183.294C69.4872 183.247 69.6853 183.206 69.8493 183.171C69.9927 183.144 70.0679 183.13 70.0679 183.137C70.0679 183.137 70.0064 183.158 69.8766 183.192C69.7263 183.233 69.5282 183.281 69.2891 183.335C68.7425 183.465 67.9842 183.643 67.0346 183.868C65.0398 184.326 62.2388 184.975 58.8844 185.747L58.7614 185.774L58.7341 185.651C58.3652 184.019 57.969 182.249 57.5454 180.37C57.3336 179.428 57.115 178.464 56.8964 177.474C56.7871 176.982 56.6778 176.483 56.5616 175.978C56.507 175.725 56.4455 175.472 56.3908 175.219L56.3089 174.837L56.2679 174.645L56.2474 174.55L56.2337 174.502V174.475L56.2269 174.461V174.454C56.1312 174.604 56.3567 174.242 56.3362 174.283C60.4352 173.375 64.2814 172.528 67.547 171.803L67.67 171.776L67.6973 171.899C68.4214 175.26 69.0226 178.075 69.453 180.077C69.6511 181.033 69.8083 181.798 69.9244 182.345C69.9722 182.584 70.0132 182.782 70.0406 182.939C70.0679 183.069 70.0747 183.137 70.0679 183.137L70.0747 183.144Z" fill="#263238"/>
<path d="M153.344 155.53L75.1797 172.944L76.6326 179.466L154.797 162.051L153.344 155.53Z" fill="#E0E0E0"/>
<path d="M50.6445 140.255L51.8196 138.41L55.3106 140.35L59.799 133.573L61.5411 134.769L55.741 143.308L50.6445 140.255Z" fill="#353988"/>
<path d="M54.832 159.042L56.0071 157.197L59.4981 159.137L63.9865 152.36L65.7286 153.556L59.9285 162.096L54.832 159.042Z" fill="#353988"/>
<path d="M59.1211 178.307L60.2961 176.463L63.7871 178.396L68.2756 171.626L70.0176 172.821L64.2175 181.361L59.1211 178.307Z" fill="#353988"/>
<path d="M94.8997 202.478C94.9201 202.553 88.3207 204.09 80.1637 205.907C72.0067 207.724 65.3799 209.138 65.3594 209.056C65.3389 208.981 71.9383 207.444 80.1022 205.627C88.2592 203.81 94.886 202.396 94.8997 202.478Z" fill="#263238"/>
<path d="M109.621 198.959C109.642 199.034 107.21 199.642 104.197 200.312C101.184 200.981 98.7316 201.466 98.7111 201.384C98.6906 201.309 101.123 200.701 104.135 200.032C107.148 199.362 109.601 198.877 109.621 198.959Z" fill="#263238"/>
<path d="M158.36 183.622C158.38 183.697 152.436 185.091 145.099 186.724C137.755 188.363 131.791 189.627 131.777 189.545C131.757 189.47 137.694 188.076 145.038 186.444C152.375 184.811 158.346 183.547 158.36 183.622Z" fill="#263238"/>
<path d="M152.012 201.603C152.012 201.603 152.067 201.419 152.142 201.057C152.224 200.701 152.224 200.148 152.06 199.479C151.89 198.802 151.534 198.03 151.118 197.128C150.714 196.233 150.188 195.168 150.182 193.87C150.202 192.599 150.762 191.185 151.91 190.194C153.044 189.183 154.834 188.828 156.453 189.347C157.259 189.607 158.038 190.064 158.612 190.768C158.885 191.123 159.111 191.554 159.124 192.046C159.165 192.544 158.783 193.043 158.325 193.2C157.867 193.371 157.43 193.426 156.979 193.535C156.528 193.631 156.077 193.719 155.62 193.815C154.704 193.993 153.775 194.163 152.825 194.286C150.926 194.539 149.02 194.573 147.237 194.321C146.363 194.225 145.44 194.211 144.785 194.724C144.129 195.222 143.794 196.035 143.309 196.719C143.07 197.06 142.762 197.395 142.359 197.572C141.963 197.757 141.499 197.75 141.109 197.627C140.323 197.361 139.743 196.835 139.114 196.479C138.807 196.295 138.486 196.152 138.151 196.117C137.823 196.083 137.495 196.165 137.236 196.35C136.71 196.725 136.429 197.347 136.081 197.866C135.391 198.973 134.202 199.492 133.198 199.533C132.166 199.581 131.333 199.144 130.807 198.686C130.267 198.215 130.001 197.716 129.864 197.374C129.728 197.026 129.707 196.835 129.707 196.835C129.721 196.835 129.762 197.019 129.912 197.354C130.069 197.682 130.342 198.16 130.875 198.604C131.401 199.041 132.207 199.438 133.184 199.376C134.148 199.328 135.261 198.816 135.91 197.764C136.252 197.258 136.511 196.616 137.113 196.179C137.406 195.967 137.796 195.865 138.178 195.899C138.561 195.933 138.909 196.097 139.237 196.288C139.886 196.657 140.474 197.169 141.184 197.402C141.54 197.511 141.922 197.511 142.257 197.354C142.598 197.204 142.872 196.917 143.097 196.582C143.569 195.933 143.89 195.093 144.627 194.519C144.996 194.232 145.454 194.088 145.905 194.041C146.363 193.993 146.82 194.02 147.271 194.061C149.054 194.314 150.906 194.273 152.798 194.027C153.741 193.904 154.663 193.74 155.579 193.562C156.036 193.467 156.487 193.378 156.931 193.282C157.375 193.18 157.84 193.118 158.229 192.968C158.619 192.824 158.885 192.483 158.858 192.08C158.851 191.684 158.66 191.287 158.407 190.966C157.881 190.324 157.143 189.88 156.378 189.627C154.841 189.129 153.153 189.456 152.074 190.406C150.974 191.342 150.421 192.688 150.393 193.904C150.393 195.134 150.878 196.192 151.275 197.094C151.678 197.996 152.026 198.795 152.183 199.485C152.334 200.175 152.313 200.742 152.211 201.098C152.122 201.46 152.026 201.631 152.026 201.631L152.012 201.603Z" fill="#263238"/>
<path d="M166.133 192.859C166.133 192.859 166.01 192.907 165.778 192.968C165.512 193.029 165.17 193.111 164.746 193.214C163.811 193.433 162.519 193.733 160.934 194.095C157.717 194.84 153.276 195.892 148.398 197.128C143.514 198.365 139.107 199.561 135.924 200.435C134.359 200.865 133.075 201.221 132.152 201.473C131.729 201.583 131.387 201.678 131.128 201.747C130.889 201.808 130.766 201.836 130.766 201.822C130.766 201.815 130.882 201.767 131.114 201.692C131.374 201.61 131.708 201.501 132.125 201.364C133.006 201.084 134.284 200.701 135.869 200.237C139.039 199.308 143.438 198.085 148.323 196.848C153.208 195.612 157.655 194.587 160.887 193.89C162.499 193.542 163.811 193.269 164.719 193.098C165.15 193.016 165.498 192.954 165.764 192.9C166.003 192.859 166.133 192.838 166.133 192.852V192.859Z" fill="#263238"/>
<path d="M110.098 42.9546L57.0391 54.7758L59.2601 64.7447L112.319 52.9235L110.098 42.9546Z" fill="#E0E0E0"/>
<path d="M160.366 197.34C199.126 197.34 230.547 165.919 230.547 127.158C230.547 88.3978 199.126 56.9763 160.366 56.9763C121.605 56.9763 90.1836 88.3978 90.1836 127.158C90.1836 165.919 121.605 197.34 160.366 197.34Z" fill="#919CAF"/>
<path d="M162.131 189.702C196.383 189.702 224.149 161.936 224.149 127.684C224.149 93.4327 196.383 65.6663 162.131 65.6663C127.88 65.6663 100.113 93.4327 100.113 127.684C100.113 161.936 127.88 189.702 162.131 189.702Z" fill="white"/>
<path d="M123.95 106.199C123.096 107.053 118.389 115.606 117.965 122.656C117.535 129.713 118.553 169.33 118.553 169.33L118.737 171.954C129.9 185.009 170.481 204.438 207.03 171.885L209.08 147.517L203.047 95.9306L182.095 90.8L177.183 82.8342L144.438 90.4994L141.521 97.3994L123.95 106.185V106.199Z" fill="#CFDFFA"/>
<path d="M174.908 62.1001C176.35 56.7441 177.771 51.3402 178.27 45.8134C178.768 40.2865 178.304 34.5752 176.111 29.4788C175.776 28.7068 173.009 23.5489 172.176 23.6787C171.581 23.7675 173.371 28.618 173.098 29.1509C170.468 34.2541 169.99 40.2455 170.748 45.9363C171.499 51.6271 172.955 56.7031 174.915 62.1001" fill="#171A37"/>
<path d="M174.369 40.9287C174.103 27.0125 165.789 15.5694 151.88 16.2185L150.595 16.3551C137.704 17.7146 128.01 28.7478 128.324 41.7075C128.618 53.7654 129.103 67.0872 129.854 73.4953C131.419 86.7625 144.918 87.4252 144.918 87.4252C144.945 87.4252 145.54 96.1492 145.54 96.1492L151.244 102.346L177.69 85.9632L174.356 40.9287H174.369Z" fill="#FFBF9D"/>
<path d="M144.933 87.5277C144.933 87.5277 153.356 87.1383 161.684 80.5935C161.684 80.5935 158.897 92.6241 145.513 92.8222L144.926 87.5277H144.933Z" fill="#FF9A6C"/>
<path d="M135.969 52.522C136.037 53.5263 136.946 54.2983 137.998 54.2436C139.05 54.189 139.843 53.335 139.774 52.3239C139.706 51.3197 138.797 50.5477 137.745 50.6023C136.693 50.657 135.901 51.5178 135.969 52.522Z" fill="#263238"/>
<path d="M131.747 46.9201C132.007 47.1455 133.332 45.9295 135.375 45.7177C137.411 45.4786 139.023 46.3736 139.214 46.1003C139.31 45.9773 139.023 45.5537 138.319 45.1507C137.629 44.7476 136.481 44.3992 135.211 44.5427C133.94 44.6861 132.922 45.2668 132.355 45.8065C131.781 46.3531 131.61 46.8244 131.74 46.9201H131.747Z" fill="#263238"/>
<path d="M153.996 50.9918C154.065 51.996 154.973 52.768 156.025 52.7134C157.077 52.6587 157.87 51.8047 157.802 50.7937C157.733 49.7894 156.825 49.0174 155.773 49.0721C154.72 49.1267 153.928 49.9875 153.996 50.9918Z" fill="#263238"/>
<path d="M151.833 45.6358C152.093 45.8612 153.418 44.6452 155.461 44.4334C157.497 44.1943 159.102 45.0892 159.3 44.816C159.396 44.693 159.116 44.2694 158.405 43.8664C157.715 43.4633 156.567 43.1149 155.297 43.2584C154.026 43.4018 153.008 43.9825 152.441 44.5222C151.867 45.0688 151.696 45.5401 151.826 45.6358H151.833Z" fill="#263238"/>
<path d="M146.162 62.0932C146.162 61.9771 144.871 61.8883 142.787 61.8473C142.261 61.8473 141.755 61.7995 141.633 61.451C141.469 61.089 141.633 60.5014 141.817 59.8661C142.172 58.5544 142.548 57.1744 142.937 55.7329C144.481 49.8577 145.54 45.0482 145.308 44.9867C145.069 44.9252 143.627 49.6391 142.083 55.5143C141.714 56.9626 141.359 58.3426 141.031 59.6612C140.895 60.276 140.628 60.9797 140.977 61.738C141.161 62.1137 141.571 62.3528 141.913 62.4075C142.254 62.4758 142.548 62.4485 142.808 62.4348C144.891 62.3255 146.176 62.2025 146.169 62.0864L146.162 62.0932Z" fill="#263238"/>
<path d="M152.316 62.8721C151.981 62.8857 152.213 65.106 150.478 66.8754C148.75 68.6517 146.365 68.6517 146.379 68.9659C146.365 69.1094 146.953 69.3417 147.95 69.2665C148.934 69.1982 150.328 68.7337 151.387 67.6474C152.439 66.5612 152.801 65.2222 152.78 64.3067C152.767 63.3708 152.459 62.8516 152.309 62.8789L152.316 62.8721Z" fill="#263238"/>
<path d="M151.068 37.342C151.327 37.8749 153.336 37.3967 155.761 37.4308C158.186 37.4172 160.195 37.9159 160.454 37.383C160.57 37.1302 160.181 36.6452 159.341 36.1875C158.507 35.7297 157.223 35.354 155.768 35.3472C154.313 35.3472 153.021 35.7092 152.188 36.1533C151.348 36.5974 150.951 37.0824 151.061 37.3352L151.068 37.342Z" fill="#263238"/>
<path d="M131.877 40.0406C132.287 40.4641 133.639 39.8356 135.327 39.6375C137.007 39.3779 138.483 39.617 138.763 39.0978C138.879 38.845 138.606 38.4078 137.936 38.0321C137.274 37.6632 136.208 37.4104 135.047 37.5675C133.885 37.7246 132.929 38.2507 132.389 38.7904C131.843 39.3301 131.699 39.8288 131.877 40.0337V40.0406Z" fill="#263238"/>
<path d="M174.32 50.8756C174.539 50.7526 183.161 47.2138 183.83 56.3273C184.5 65.4407 175.215 64.2315 175.174 63.9651C175.14 63.7055 174.32 50.8756 174.32 50.8756Z" fill="#FFBF9D"/>
<path d="M177.704 60.3102C177.745 60.2761 177.868 60.4127 178.148 60.5152C178.421 60.6177 178.872 60.6655 179.337 60.4537C180.273 60.0301 180.969 58.4452 180.894 56.7988C180.853 55.9653 180.628 55.1933 180.286 54.558C179.958 53.909 179.494 53.4786 179.002 53.4239C178.51 53.3488 178.189 53.663 178.1 53.9295C177.998 54.1959 178.066 54.3735 178.018 54.3872C177.998 54.4145 177.813 54.2505 177.854 53.868C177.881 53.6835 177.97 53.4581 178.168 53.2736C178.373 53.0823 178.688 52.9662 179.029 52.9798C179.733 52.9798 180.416 53.5742 180.792 54.271C181.208 54.9679 181.489 55.8355 181.53 56.7714C181.605 58.6092 180.792 60.3991 179.501 60.8773C178.872 61.0891 178.325 60.9388 178.032 60.7406C177.731 60.5357 177.67 60.3376 177.704 60.3171V60.3102Z" fill="#FF9A6C"/>
<path d="M133.258 26.2201C131.728 25.5027 135.847 20.4405 139.372 18.5617C144.694 15.7198 152.961 13.6566 158.105 14.7633C164.301 16.0955 169.548 18.8009 172.957 24.1364C176.366 29.4788 177.931 35.8528 178.163 42.1857C178.231 44.1191 178.163 46.1413 177.241 47.8355C176.1 49.9329 173.736 51.3607 174.023 54.1344C174.125 55.1454 173.907 56.1907 173.258 56.9763C171.707 58.8551 169.555 57.3248 168.51 55.7125C166.276 52.2693 165.777 48.02 165.34 43.9415C165.025 41.0448 164.718 38.0799 165.36 35.2311C165.709 33.6803 166.33 32.1978 166.597 30.6333C166.856 29.0689 166.699 27.32 165.661 26.1244C165.49 25.9263 165.217 25.6872 164.875 25.4208C162.149 23.3234 158.488 22.8794 155.324 24.232C150.31 26.3772 141.716 29.6564 139.311 28.0578C135.854 25.7623 134.959 24.1774 134.959 24.1774L133.272 26.2064L133.258 26.2201Z" fill="#171A37"/>
<path d="M123.952 106.199C123.425 106.93 115.958 109.41 113.123 114.13C110.288 118.851 107.487 140.043 107.487 140.043L105.684 153.993C109.236 159.616 113.998 167.055 119.06 172.302L123.952 106.205V106.199Z" fill="#CFDFFA"/>
<g opacity="0.3">
<path d="M180.055 126.66C180.369 129.502 180.69 132.378 181.667 135.069C182.644 137.754 184.359 140.282 186.866 141.669C187.911 142.249 189.1 142.632 189.974 143.445C190.917 144.319 191.388 145.59 192.242 146.553C193.233 147.674 194.668 148.296 196.075 148.801C200.249 150.284 204.369 150.987 208.796 150.83C208.932 149.368 208.939 143.998 209.076 142.536L180.055 126.666V126.66Z" fill="black"/>
</g>
<path d="M203.043 95.9375C203.043 95.9375 212.457 98.7248 215.217 102.735C217.977 106.745 222.862 122.294 223.866 125.177C224.87 128.06 223.989 134.748 222.11 139.551C220.231 144.354 216.966 148.494 211.33 149.122C205.694 149.751 196.785 146.492 194.783 144.361C192.782 142.229 191.941 137.447 191.941 137.447C194.442 137.01 196.915 136.388 199.333 135.595" fill="#CFDFFA"/>
<path d="M199.333 135.582C199.333 135.582 199.292 135.602 199.217 135.636C199.121 135.671 199.005 135.712 198.862 135.766C198.548 135.876 198.076 136.033 197.455 136.217C196.211 136.586 194.367 137.092 191.962 137.536L192.037 137.426C192.249 138.492 192.549 139.66 193 140.883C193.226 141.491 193.485 142.12 193.813 142.728C194.148 143.336 194.537 143.951 195.077 144.443C195.617 144.934 196.286 145.331 196.983 145.7C197.68 146.075 198.425 146.403 199.197 146.717C200.747 147.339 202.421 147.879 204.197 148.302C205.974 148.712 207.859 149.02 209.813 149.027C210.305 149.047 210.79 148.986 211.282 148.958C211.767 148.876 212.266 148.835 212.751 148.699C213.728 148.48 214.684 148.111 215.579 147.599C217.383 146.601 218.906 145.044 220.067 143.22C221.242 141.396 222.103 139.326 222.732 137.167C223.224 135.507 223.586 133.826 223.818 132.159C224.057 130.492 224.173 128.825 224.064 127.206C224.002 126.393 223.852 125.628 223.572 124.87C223.319 124.105 223.067 123.346 222.821 122.595C222.322 121.099 221.83 119.63 221.352 118.202C220.382 115.346 219.425 112.648 218.469 110.141C217.492 107.647 216.583 105.311 215.442 103.35C214.882 102.366 214.124 101.594 213.318 100.972C212.525 100.33 211.705 99.8179 210.92 99.367C209.348 98.4721 207.921 97.8436 206.746 97.3517C205.571 96.8666 204.641 96.525 204.006 96.2996C203.706 96.1903 203.466 96.1083 203.289 96.0468C203.125 95.9922 203.043 95.958 203.043 95.9512C203.043 95.9512 203.132 95.9648 203.296 96.0127C203.48 96.0673 203.719 96.1425 204.027 96.2313C204.669 96.4362 205.605 96.7505 206.793 97.2219C207.982 97.6933 209.424 98.3149 211.015 99.1962C211.808 99.6403 212.641 100.153 213.454 100.795C214.274 101.417 215.08 102.216 215.654 103.22C216.829 105.201 217.751 107.538 218.742 110.031C219.712 112.539 220.682 115.237 221.659 118.093C222.144 119.521 222.636 120.989 223.142 122.485C223.394 123.237 223.647 123.988 223.9 124.754C224.18 125.512 224.351 126.352 224.412 127.179C224.528 128.839 224.412 130.526 224.173 132.207C223.934 133.894 223.572 135.589 223.073 137.269C222.431 139.455 221.564 141.553 220.361 143.418C219.179 145.283 217.608 146.881 215.743 147.906C214.821 148.432 213.83 148.808 212.826 149.033C212.327 149.17 211.815 149.218 211.316 149.3C210.81 149.327 210.305 149.389 209.813 149.368C207.818 149.354 205.912 149.04 204.122 148.617C202.332 148.186 200.645 147.633 199.087 146.998C198.308 146.676 197.557 146.342 196.853 145.952C196.15 145.577 195.473 145.167 194.899 144.647C194.332 144.121 193.936 143.479 193.601 142.858C193.267 142.229 193.007 141.594 192.788 140.972C192.351 139.729 192.057 138.554 191.853 137.474L191.832 137.379L191.928 137.365C194.332 136.955 196.177 136.477 197.427 136.135C198.035 135.964 198.507 135.828 198.848 135.732C198.998 135.691 199.115 135.657 199.21 135.63C199.292 135.609 199.333 135.595 199.333 135.602V135.582Z" fill="#263238"/>
<path d="M216.604 130.554C216.536 130.567 216.317 129.392 215.531 127.657C214.759 125.929 213.373 123.64 211.282 121.625C210.244 120.614 209.089 119.848 207.982 119.274C207.696 119.145 207.422 119.022 207.149 118.906C206.883 118.783 206.596 118.728 206.336 118.639C205.81 118.448 205.298 118.4 204.826 118.325C204.71 118.304 204.594 118.291 204.485 118.27C204.375 118.27 204.266 118.27 204.157 118.27C203.945 118.27 203.747 118.27 203.556 118.27C203.18 118.25 202.859 118.318 202.592 118.352C202.066 118.427 201.772 118.462 201.766 118.434C201.766 118.414 202.046 118.332 202.572 118.216C202.838 118.154 203.159 118.065 203.542 118.072C203.74 118.065 203.945 118.052 204.157 118.045C204.266 118.045 204.382 118.038 204.491 118.031C204.608 118.045 204.724 118.058 204.847 118.072C205.332 118.134 205.865 118.168 206.411 118.352C206.684 118.434 206.978 118.489 207.258 118.612C207.538 118.735 207.825 118.858 208.119 118.981C209.267 119.555 210.462 120.333 211.521 121.365C213.653 123.421 215.033 125.771 215.757 127.555C215.941 127.999 216.105 128.408 216.208 128.777C216.317 129.146 216.426 129.454 216.467 129.72C216.577 130.246 216.625 130.54 216.597 130.547L216.604 130.554Z" fill="#263238"/>
<path d="M221.742 122.103C221.666 122.13 221.407 120.894 220.321 119.234C219.255 117.601 217.219 115.558 214.322 114.69C211.433 113.809 208.625 114.082 206.664 114.274C205.728 114.383 204.949 114.479 204.321 114.554C203.767 114.622 203.46 114.649 203.453 114.622C203.453 114.595 203.747 114.526 204.293 114.417C204.84 114.308 205.632 114.164 206.623 114.021C208.584 113.768 211.433 113.447 214.411 114.349C215.894 114.8 217.192 115.558 218.21 116.426C219.241 117.287 219.986 118.243 220.519 119.097C221.052 119.958 221.352 120.716 221.523 121.256C221.694 121.789 221.742 122.096 221.728 122.103H221.742Z" fill="#263238"/>
<path d="M214.644 111.999C214.616 112.115 212.164 111.322 209.049 111.466C205.926 111.575 203.542 112.552 203.508 112.436C203.494 112.395 204.061 112.101 205.052 111.787C206.036 111.473 207.45 111.172 209.035 111.104C210.62 111.042 212.048 111.234 213.059 111.473C214.07 111.712 214.657 111.958 214.644 111.999Z" fill="#263238"/>
<path d="M199.407 98.2876C199.462 98.2944 199.325 99.2509 199.216 100.788C199.107 102.332 199.052 104.47 199.264 106.82C199.455 109.075 199.865 111.104 200.227 112.573L199.981 112.655C199.701 111.862 199.483 111.227 199.339 110.776C199.196 110.325 199.127 110.079 199.148 110.072C199.168 110.065 199.284 110.298 199.469 110.728C199.653 111.159 199.913 111.787 200.22 112.566L199.974 112.648C199.551 111.179 199.1 109.143 198.909 106.861C198.697 104.491 198.786 102.325 198.963 100.781C199.052 100.009 199.148 99.3875 199.237 98.9571C199.325 98.5267 199.38 98.2944 199.407 98.3013V98.2876Z" fill="#263238"/>
<path d="M186.1 80.7574C186.1 80.7574 181.215 80.7574 180.601 86.6327C180.129 91.1416 180.601 95.5207 180.601 97.4951C180.601 99.4694 179.733 106.492 179.733 106.492C179.733 106.492 176.399 109.451 176.454 113.003C176.508 116.576 179.05 117.662 179.05 117.662C179.05 117.662 177.499 121.044 180.457 124.152C180.457 124.152 179.036 127.425 180.204 129.631C181.106 131.339 183.135 131.906 183.135 131.906C183.135 131.906 181.694 135.131 185.157 136.49C187.207 137.29 190.233 137.112 190.233 137.112L193.881 137.044L197.092 138.82C197.092 138.82 202.592 136.422 202.735 133.177L202.879 129.932C202.879 129.932 201.328 124.576 201.184 122.882C201.041 121.187 202.455 117.102 201.608 115.264C200.761 113.433 197.803 112.354 198.083 109.792C198.363 107.23 197.803 105.816 196.532 104.409C195.261 103.001 189.653 100.18 189.653 100.18C189.653 100.18 188.211 96.0878 188.211 93.2663C188.211 90.4448 191.033 81.8437 186.093 80.7643L186.1 80.7574Z" fill="#FFBF9D"/>
<path d="M189.391 101.239C189.418 101.28 188.899 101.615 188.038 102.113C187.178 102.619 185.982 103.288 184.65 104.012C183.318 104.737 182.095 105.379 181.207 105.823C180.319 106.267 179.752 106.527 179.731 106.479C179.711 106.431 180.23 106.103 181.084 105.597C181.945 105.092 183.14 104.422 184.472 103.698C185.804 102.974 187.02 102.339 187.915 101.888C188.804 101.444 189.371 101.184 189.391 101.232V101.239Z" fill="#FF9A6C"/>
<path d="M192.596 112.286C192.596 112.286 192.46 112.443 192.173 112.668C191.886 112.9 191.455 113.208 190.902 113.563C189.802 114.28 188.197 115.155 186.325 115.872C184.446 116.59 182.67 117.006 181.372 117.211C180.723 117.314 180.197 117.375 179.828 117.396C179.459 117.416 179.261 117.423 179.254 117.396C179.254 117.341 180.046 117.232 181.324 116.965C182.601 116.699 184.343 116.248 186.195 115.544C188.046 114.834 189.645 114.007 190.772 113.351C191.899 112.696 192.569 112.245 192.603 112.292L192.596 112.286Z" fill="#FF9A6C"/>
<path d="M196.793 108.774C196.882 108.802 196.698 109.43 196.117 109.956C195.543 110.482 194.901 110.605 194.88 110.516C194.846 110.421 195.372 110.168 195.878 109.69C196.397 109.225 196.698 108.726 196.793 108.774Z" fill="#FF9A6C"/>
<path d="M194.782 121.959C194.796 122 194.024 122.315 192.739 122.711C191.455 123.107 189.645 123.558 187.616 123.886C185.587 124.214 183.728 124.35 182.382 124.378C181.037 124.412 180.203 124.35 180.203 124.31C180.203 124.255 181.03 124.221 182.369 124.125C183.701 124.029 185.545 123.859 187.561 123.531C189.576 123.203 191.373 122.793 192.671 122.465C193.969 122.137 194.768 121.905 194.782 121.959Z" fill="#FF9A6C"/>
<path d="M199.244 121.146C199.196 121.119 199.408 120.743 199.619 120.101C199.831 119.459 200.009 118.53 199.886 117.512C199.763 116.494 199.373 115.626 199.018 115.059C198.663 114.485 198.369 114.171 198.41 114.13C198.437 114.096 198.799 114.349 199.23 114.916C199.653 115.476 200.118 116.385 200.248 117.471C200.378 118.557 200.145 119.548 199.865 120.19C199.585 120.839 199.291 121.174 199.257 121.146H199.244Z" fill="#FF9A6C"/>
<path d="M195.035 131.845C195.041 131.886 194.386 132.07 193.299 132.255C192.213 132.439 190.69 132.596 189.002 132.59C187.315 132.59 185.798 132.419 184.712 132.227C183.626 132.043 182.97 131.852 182.977 131.811C182.99 131.756 183.66 131.859 184.746 131.982C185.832 132.104 187.335 132.227 189.002 132.234C190.669 132.234 192.172 132.125 193.265 132.002C194.351 131.886 195.028 131.79 195.035 131.845Z" fill="#FF9A6C"/>
<path d="M186.359 93.3414C186.379 93.3824 186.14 93.5601 185.683 93.724C185.232 93.888 184.548 94.0041 183.811 93.9153C183.073 93.8265 182.437 93.5532 182.034 93.2868C181.631 93.0203 181.44 92.7881 181.467 92.7539C181.529 92.6651 182.458 93.4097 183.852 93.56C185.245 93.7377 186.318 93.239 186.359 93.3346V93.3414Z" fill="#FF9A6C"/>
<path d="M200.264 121.556C200.264 121.556 200.325 121.741 200.339 122.082C200.345 122.424 200.304 122.923 200.168 123.524C200.038 124.125 199.813 124.815 199.594 125.573C199.389 126.332 199.191 127.192 199.341 128.06C199.457 128.921 200.106 129.624 200.209 130.506C200.325 131.367 199.983 132.098 199.669 132.617C199.341 133.143 199.02 133.519 198.788 133.765C198.556 134.01 198.412 134.14 198.398 134.12C198.344 134.079 198.87 133.519 199.457 132.487C199.731 131.975 200.011 131.291 199.888 130.547C199.806 129.802 199.15 129.105 198.993 128.115C198.829 127.145 199.061 126.243 199.287 125.478C199.526 124.706 199.772 124.036 199.929 123.455C200.27 122.301 200.202 121.549 200.264 121.549V121.556Z" fill="#FF9A6C"/>
<path d="M202.098 125.853C202.098 125.853 202.208 126.072 202.331 126.496C202.454 126.912 202.618 127.527 202.775 128.299C202.925 129.071 203.075 129.993 203.103 131.039C203.123 132.077 203.021 133.266 202.488 134.386C201.941 135.486 201.149 136.354 200.391 137.064C199.625 137.768 198.867 138.328 198.218 138.765C197.569 139.203 197.029 139.53 196.647 139.749C196.264 139.961 196.046 140.07 196.032 140.05C196.005 140.002 196.818 139.489 198.075 138.567C198.696 138.103 199.427 137.536 200.165 136.832C200.896 136.121 201.654 135.281 202.167 134.243C202.665 133.204 202.782 132.07 202.775 131.052C202.775 130.034 202.645 129.119 202.529 128.347C202.276 126.817 202.051 125.874 202.105 125.86L202.098 125.853Z" fill="#263238"/>
<path d="M150.545 103.111C150.545 103.111 150.252 102.919 149.753 102.516C149.213 102.072 148.516 101.492 147.683 100.802C147.246 100.433 146.767 100.03 146.262 99.6061C146.009 99.3943 145.75 99.1688 145.456 99.0254C145.162 98.8819 144.834 98.8409 144.54 98.9912C143.953 99.2986 143.557 100.057 143.051 100.685C142.566 101.341 142.06 102.018 141.548 102.714C140.721 103.821 139.929 104.88 139.198 105.864L138.754 106.451L138.897 105.727C139.376 103.254 140.045 101.191 140.598 99.77C140.872 99.0595 141.118 98.4993 141.295 98.1236C141.473 97.7479 141.582 97.5497 141.596 97.5566C141.616 97.5634 141.541 97.7752 141.398 98.1646C141.254 98.554 141.043 99.121 140.797 99.8383C140.305 101.28 139.683 103.336 139.232 105.789L138.932 105.659C139.663 104.675 140.448 103.609 141.268 102.503C141.787 101.813 142.293 101.136 142.778 100.481C143.024 100.153 143.263 99.8315 143.502 99.5173C143.748 99.203 144.021 98.8819 144.404 98.6975C144.793 98.4993 145.265 98.5677 145.599 98.7453C145.941 98.9229 146.207 99.162 146.46 99.3806C146.952 99.8179 147.416 100.228 147.847 100.61C148.653 101.334 149.323 101.943 149.842 102.407C150.306 102.837 150.559 103.083 150.545 103.104V103.111Z" fill="#263238"/>
<path d="M179.397 97.3312C179.397 97.3312 179.315 97.42 179.131 97.5703C178.912 97.7411 178.646 97.946 178.325 98.1988C177.573 98.7658 176.555 99.531 175.312 100.467C172.709 102.38 169.177 104.983 165.263 107.866L165.112 107.975L165.01 107.818C164.928 107.695 164.846 107.558 164.764 107.428C162.913 104.504 161.184 101.779 159.722 99.4627L159.907 99.5241C157.495 100.481 155.596 101.533 154.305 102.318C153.656 102.708 153.164 103.036 152.822 103.254C152.481 103.473 152.303 103.589 152.289 103.575C152.282 103.562 152.446 103.425 152.767 103.179C153.089 102.933 153.574 102.585 154.209 102.168C155.48 101.341 157.365 100.241 159.79 99.2441L159.907 99.1962L159.975 99.3055C161.451 101.608 163.193 104.327 165.065 107.237C165.147 107.374 165.235 107.504 165.31 107.627L165.058 107.579C169 104.73 172.552 102.161 175.175 100.269C176.446 99.3739 177.485 98.636 178.25 98.0963C178.591 97.864 178.871 97.6728 179.097 97.5225C179.295 97.3927 179.397 97.3312 179.404 97.338L179.397 97.3312Z" fill="#263238"/>
<path d="M118.081 124.501C118.081 124.501 118.108 124.665 118.115 124.986C118.122 125.334 118.135 125.799 118.156 126.366C118.176 127.609 118.21 129.338 118.251 131.449C118.333 135.739 118.504 141.669 118.73 148.22C118.955 154.772 119.085 160.709 119.099 164.999C119.105 167.144 119.099 168.886 119.078 170.089C119.064 170.662 119.058 171.12 119.051 171.469C119.037 171.783 119.03 171.954 119.017 171.954C119.003 171.954 118.989 171.79 118.982 171.469C118.976 171.12 118.962 170.656 118.941 170.089C118.921 168.845 118.887 167.124 118.846 165.006C118.764 160.716 118.593 154.786 118.368 148.234C118.142 141.682 118.012 135.753 117.999 131.455C117.992 129.31 117.999 127.568 118.019 126.366C118.033 125.792 118.04 125.334 118.046 124.986C118.06 124.672 118.067 124.501 118.081 124.501Z" fill="#263238"/>
<path d="M150.773 186.211C150.773 186.211 150.753 186.143 150.739 186.013C150.726 185.863 150.698 185.672 150.671 185.433C150.616 184.9 150.548 184.148 150.452 183.199C150.261 181.258 150.042 178.444 149.824 174.966C149.598 171.489 149.421 167.342 149.298 162.731C149.195 158.119 149.175 153.05 149.284 147.735C149.407 142.413 149.653 137.351 149.954 132.747C150.275 128.149 150.637 124.009 151.006 120.545C151.375 117.081 151.716 114.28 151.989 112.347C152.126 111.404 152.228 110.66 152.304 110.127C152.338 109.888 152.372 109.703 152.392 109.553C152.413 109.423 152.427 109.355 152.433 109.355C152.433 109.355 152.433 109.423 152.427 109.553C152.413 109.703 152.392 109.895 152.372 110.134C152.31 110.667 152.228 111.418 152.119 112.361C151.887 114.294 151.586 117.102 151.252 120.566C150.91 124.029 150.575 128.169 150.275 132.767C149.995 137.365 149.755 142.427 149.632 147.742C149.523 153.057 149.537 158.119 149.619 162.724C149.721 167.329 149.872 171.475 150.063 174.953C150.247 178.43 150.432 181.245 150.575 183.192C150.637 184.141 150.691 184.893 150.726 185.433C150.739 185.672 150.746 185.863 150.753 186.013C150.753 186.143 150.753 186.211 150.753 186.211H150.773Z" fill="#263238"/>
<path d="M130.414 74.3835C130.414 74.3835 130.175 74.5543 129.69 74.8686C129.205 75.1828 128.487 75.6474 127.551 76.2554C126.615 76.8634 125.529 77.7311 124.204 78.6943C123.548 79.1862 122.899 79.7806 122.168 80.3749C121.806 80.6755 121.437 80.9898 121.054 81.3109C120.679 81.6388 120.317 82.0077 119.927 82.3698C116.819 85.2596 113.294 89.14 110.048 94.2296C109.652 94.8718 109.242 95.5208 108.832 96.1834C108.402 96.8393 108.074 97.5635 107.678 98.2603C107.309 98.9776 106.892 99.6813 106.537 100.433C106.195 101.191 105.84 101.956 105.485 102.735C105.314 103.124 105.116 103.514 104.959 103.917C104.802 104.32 104.651 104.73 104.494 105.14C104.187 105.966 103.852 106.793 103.552 107.64C103.046 109.375 102.411 111.118 102.028 112.983C101.078 116.658 100.559 120.62 100.347 124.754C100.108 128.887 100.354 133.218 101.065 137.624C102.506 146.417 105.97 155.571 111.866 163.708C117.686 171.872 125.912 178.97 135.783 183.636C145.642 188.329 157.173 190.358 168.692 189.17C180.224 187.974 191.031 183.431 199.687 176.797C201.866 175.158 203.875 173.334 205.795 171.469C206.259 170.984 206.717 170.505 207.181 170.02C207.646 169.542 208.097 169.057 208.527 168.545C208.965 168.046 209.395 167.54 209.825 167.042C210.235 166.523 210.638 166.003 211.048 165.491C214.293 161.358 216.855 156.856 218.884 152.272C220.906 147.681 222.245 142.933 223.065 138.26C223.489 135.923 223.721 133.587 223.878 131.285C223.953 130.137 223.946 128.989 223.987 127.855C223.967 126.721 223.905 125.601 223.864 124.48C223.844 123.92 223.823 123.367 223.796 122.813C223.762 122.26 223.673 121.72 223.612 121.174C223.482 120.088 223.352 119.008 223.222 117.936C223.051 116.877 222.806 115.831 222.607 114.8C222.396 113.768 222.218 112.73 221.897 111.746C221.61 110.749 221.33 109.765 221.043 108.788C220.92 108.296 220.742 107.825 220.558 107.353C220.38 106.882 220.203 106.417 220.032 105.953C219.67 105.03 219.369 104.088 218.966 103.206C218.556 102.325 218.146 101.458 217.743 100.597C214.444 93.7514 210.208 88.2177 205.959 83.9479C201.689 79.6644 197.398 76.6653 193.778 74.4587C192.855 73.9326 191.988 73.4271 191.168 72.9625C190.765 72.7166 190.355 72.5253 189.952 72.334C189.556 72.1427 189.173 71.9651 188.804 71.7875C188.066 71.4322 187.383 71.1111 186.762 70.8106C186.147 70.4963 185.539 70.3187 185.026 70.1069C183.988 69.7038 183.195 69.3964 182.649 69.1846C182.116 68.9728 181.843 68.8567 181.843 68.8567C181.843 68.8567 182.123 68.9523 182.663 69.1505C183.209 69.3554 184.008 69.6492 185.054 70.0386C185.573 70.2504 186.181 70.4211 186.803 70.7286C187.431 71.0223 188.114 71.3434 188.859 71.6918C189.228 71.8626 189.617 72.0471 190.013 72.2315C190.416 72.416 190.833 72.6073 191.236 72.8532C192.056 73.3178 192.931 73.8165 193.86 74.3425C197.494 76.5423 201.812 79.5278 206.109 83.8113C210.386 88.0811 214.655 93.6216 217.982 100.494C218.385 101.355 218.795 102.229 219.212 103.111C219.622 103.992 219.923 104.942 220.291 105.864C220.469 106.329 220.647 106.8 220.824 107.271C221.009 107.743 221.186 108.214 221.309 108.713C221.596 109.69 221.876 110.68 222.17 111.678C222.491 112.668 222.676 113.707 222.894 114.745C223.099 115.784 223.345 116.829 223.516 117.895C223.646 118.967 223.782 120.053 223.912 121.146C223.974 121.693 224.063 122.24 224.097 122.793C224.117 123.346 224.145 123.906 224.165 124.467C224.206 125.587 224.268 126.714 224.295 127.855C224.254 128.996 224.261 130.144 224.186 131.298C224.035 133.607 223.803 135.958 223.379 138.308C222.56 143.008 221.214 147.776 219.192 152.401C217.163 157.013 214.587 161.542 211.328 165.696C210.918 166.215 210.508 166.734 210.099 167.254C209.661 167.752 209.231 168.258 208.794 168.763C208.363 169.276 207.912 169.768 207.441 170.246C206.976 170.731 206.512 171.216 206.047 171.701C204.114 173.573 202.099 175.411 199.906 177.064C191.209 183.745 180.34 188.309 168.74 189.511C157.16 190.714 145.56 188.671 135.647 183.943C125.714 179.243 117.454 172.104 111.606 163.892C105.69 155.708 102.213 146.499 100.778 137.665C100.067 133.239 99.8283 128.894 100.074 124.74C100.293 120.586 100.826 116.61 101.782 112.921C102.172 111.049 102.814 109.3 103.326 107.565C103.634 106.711 103.961 105.884 104.276 105.058C104.433 104.648 104.59 104.238 104.747 103.828C104.911 103.425 105.102 103.036 105.28 102.646C105.635 101.867 105.99 101.095 106.339 100.337C106.694 99.5856 107.118 98.8751 107.493 98.1578C107.89 97.4541 108.224 96.73 108.655 96.0741C109.072 95.4115 109.481 94.7556 109.878 94.1203C113.15 89.0238 116.703 85.1434 119.831 82.2673C120.221 81.9052 120.59 81.5363 120.966 81.2084C121.355 80.8873 121.724 80.573 122.093 80.2724C122.824 79.6781 123.486 79.0906 124.142 78.5987C125.474 77.6491 126.568 76.7883 127.517 76.1871C128.46 75.5927 129.184 75.135 129.676 74.8276C130.161 74.5202 130.414 74.3767 130.414 74.3767V74.3835Z" fill="#263238"/>
</g>
<defs>
<clipPath id="clip0_3998_7036">
<rect width="303.566" height="300" fill="white"/>
</clipPath>
</defs>
</svg>
