<svg width="400" height="400" viewBox="0 0 400 400" fill="none" xmlns="http://www.w3.org/2000/svg">
<g clip-path="url(#clip0_3013_4313)">
<path d="M392 315.482H8V315.674H392V315.482Z" fill="#EBEBEB"/>
<path d="M93.7565 321.917H68.3203V322.109H93.7565V321.917Z" fill="#EBEBEB"/>
<path d="M133.569 327.462H110.398V327.654H133.569V327.462Z" fill="#EBEBEB"/>
<path d="M81.0362 329.052H51.6602V329.244H81.0362V329.052Z" fill="#EBEBEB"/>
<path d="M353.524 328.637H341.312V328.829H353.524V328.637Z" fill="#EBEBEB"/>
<path d="M338.846 328.637H308.648V328.829H338.846V328.637Z" fill="#EBEBEB"/>
<path d="M223.293 321.825H200V322.017H223.293V321.825Z" fill="#EBEBEB"/>
<path d="M281.998 321.825H226.625V322.017H281.998V321.825Z" fill="#EBEBEB"/>
<path d="M190.022 281.229H41.7212C39.302 281.229 37.3359 279.263 37.3359 276.844V68.3853C37.3359 65.9661 39.302 64 41.7212 64H190.022C192.441 64 194.407 65.9661 194.407 68.3853V276.844C194.407 279.263 192.441 281.229 190.022 281.229ZM41.7212 64.192C39.4095 64.192 37.5279 66.0736 37.5279 68.3853V276.844C37.5279 279.155 39.4095 281.037 41.7212 281.037H190.022C192.334 281.037 194.215 279.155 194.215 276.844V68.3853C194.215 66.0736 192.334 64.192 190.022 64.192H41.7212Z" fill="#EBEBEB"/>
<path d="M356.143 281.229H207.842C205.423 281.229 203.457 279.263 203.457 276.844V68.3853C203.457 65.9661 205.423 64 207.842 64H356.143C358.562 64 360.528 65.9661 360.528 68.3853V276.844C360.528 279.263 358.562 281.229 356.143 281.229ZM207.842 64.192C205.531 64.192 203.649 66.0736 203.649 68.3853V276.844C203.649 279.155 205.531 281.037 207.842 281.037H356.143C358.455 281.037 360.336 279.155 360.336 276.844V68.3853C360.336 66.0736 358.455 64.192 356.143 64.192H207.842Z" fill="#EBEBEB"/>
<path d="M233.322 226.248H211.227V315.482H233.322V226.248Z" fill="#E6E6E6"/>
<path d="M224.139 315.482H233.324V300.083H214.508L224.139 315.482Z" fill="#F5F5F5"/>
<path d="M73.7555 226.248H51.6602V315.482H73.7555V226.248Z" fill="#E6E6E6"/>
<path d="M233.316 226.248H65.7383V310.182H233.316V226.248Z" fill="#F5F5F5"/>
<path d="M226.58 252.014H72.4805V233.659H226.58V252.014ZM73.2485 251.246H225.812V234.427H73.2485V251.246Z" fill="#EBEBEB"/>
<path d="M74.9236 315.482H65.7383V300.083H84.5543L74.9236 315.482Z" fill="#F5F5F5"/>
<path d="M226.58 302.771H72.4805V259.034H226.58V302.771ZM73.2485 302.003H225.812V259.802H73.2485V302.003Z" fill="#EBEBEB"/>
<path d="M321.245 82.1017H146.617V203.031H321.245V82.1017Z" fill="#E6E6E6"/>
<path d="M324.456 82.1017H149.828V203.031H324.456V82.1017Z" fill="#F5F5F5"/>
<path d="M318.695 196.925V88.2073L155.595 88.2073V196.925H318.695Z" fill="white"/>
<path d="M318.688 196.925V88.2073H316.261V196.925H318.688Z" fill="#E6E6E6"/>
<path d="M322.066 97.9456H152.207V102.047H322.066V97.9456Z" fill="#F5F5F5"/>
<g opacity="0.5">
<path d="M321.596 78.0621H314.699V212.378H321.596V78.0621Z" fill="#F0F0F0"/>
<path d="M312.834 78.0621H305.938V212.378H312.834V78.0621Z" fill="#F0F0F0"/>
<path d="M304.072 78.0621H297.176V212.378H304.072V78.0621Z" fill="#F0F0F0"/>
<path d="M295.315 78.0621H288.418V212.378H295.315V78.0621Z" fill="#F0F0F0"/>
<path d="M286.553 78.0621H279.656V212.378H286.553V78.0621Z" fill="#F0F0F0"/>
<path d="M277.791 78.0621H270.895V212.378H277.791V78.0621Z" fill="#F0F0F0"/>
<path d="M269.033 78.0621H262.137V212.378H269.033V78.0621Z" fill="#F0F0F0"/>
<path d="M260.272 78.0621H253.375V212.378H260.272V78.0621Z" fill="#F0F0F0"/>
<path d="M251.51 78.0621H244.613V212.378H251.51V78.0621Z" fill="#F0F0F0"/>
<path d="M242.748 78.0621H235.852V212.378H242.748V78.0621Z" fill="#F0F0F0"/>
<path d="M233.99 78.0621H227.094V212.378H233.99V78.0621Z" fill="#F0F0F0"/>
<path d="M225.229 78.0621H218.332V212.378H225.229V78.0621Z" fill="#F0F0F0"/>
<path d="M216.467 78.0621H209.57V212.378H216.467V78.0621Z" fill="#F0F0F0"/>
<path d="M207.701 78.0621H200.805V212.378H207.701V78.0621Z" fill="#F0F0F0"/>
<path d="M198.947 78.0621H192.051V212.378H198.947V78.0621Z" fill="#F0F0F0"/>
</g>
<path d="M106.494 96.5479H55.8828V188.585H106.494V96.5479Z" fill="#F0F0F0"/>
<path d="M117.363 96.5479H59.1484V188.585H117.363V96.5479Z" fill="#F5F5F5"/>
<path d="M61.5195 98.729L61.5195 186.404H114.988V98.729H61.5195Z" fill="white"/>
<path d="M75.7656 116.178V168.955C75.7656 170.126 76.7146 171.075 77.8853 171.075H98.6136C99.7843 171.075 100.733 170.126 100.733 168.955V116.178C100.733 115.007 99.7843 114.058 98.6136 114.058H77.8853C76.7146 114.058 75.7656 115.007 75.7656 116.178Z" fill="#F5F5F5"/>
<path d="M302.843 173.317L313.196 198.83C312.897 272.627 316.23 276.882 316.26 289.577H290.125C289.188 227.807 298.343 241.692 302.843 173.317Z" fill="#EBEBEB"/>
<path d="M317.437 248.681C296.401 190.766 247.979 208.706 250.145 229.811C252.31 250.916 329.533 281.989 317.437 248.681Z" fill="#EBEBEB"/>
<path d="M309.479 282.074C298.005 244.749 267.484 250.847 267.484 267.996C267.484 285.146 316.076 303.539 309.479 282.074Z" fill="#EBEBEB"/>
<path d="M308.664 214.705C290.647 164.815 245.773 171.681 249.39 192.732C253.007 213.783 319.025 243.397 308.664 214.705Z" fill="#EBEBEB"/>
<path d="M308.787 192.325C310.454 158.333 276.8 144.348 279.127 164.654C281.462 184.968 307.827 211.871 308.787 192.325Z" fill="#EBEBEB"/>
<path d="M306.275 227.131C313.387 185.244 356.518 169.316 351.703 193.024C346.879 216.732 302.19 251.223 306.275 227.131Z" fill="#EBEBEB"/>
<path d="M302.642 203.453C294.263 159.531 333.017 140.017 334.138 161.19C335.259 182.364 307.465 228.713 302.642 203.453Z" fill="#EBEBEB"/>
<path d="M299.28 253.066C316.399 210.742 353.071 221.24 349.369 240.502C345.667 259.763 289.434 277.404 299.28 253.066Z" fill="#EBEBEB"/>
<path d="M307.727 282.619C307.343 255.309 332.134 248.251 332.426 264.072C332.718 279.892 307.95 298.324 307.727 282.619Z" fill="#EBEBEB"/>
<path d="M300.156 315.674C286.532 315.674 275.035 306.189 272.239 293.363C271.502 289.969 270.657 286.605 269.328 283.395L269.113 282.88H331.198L330.983 283.395C329.655 286.605 328.81 289.976 328.073 293.363C325.277 306.189 313.78 315.674 300.156 315.674Z" fill="#E0E0E0"/>
<path d="M200.001 350.164C282.241 350.164 348.909 346.272 348.909 341.471C348.909 336.669 282.241 332.777 200.001 332.777C117.762 332.777 51.0938 336.669 51.0938 341.471C51.0938 346.272 117.762 350.164 200.001 350.164Z" fill="#F5F5F5"/>
<path d="M107.355 186.104L106.871 185.505C108.853 183.9 110.972 182.426 113.176 181.12L113.568 181.78C111.395 183.063 109.306 184.515 107.363 186.097L107.355 186.104Z" fill="#407BFF"/>
<path d="M91.5813 208.054L90.8594 207.785C93.4629 200.819 97.6255 194.353 102.894 189.084L103.439 189.629C98.2475 194.821 94.1464 201.195 91.5813 208.054Z" fill="#407BFF"/>
<path d="M240.373 241.9C240.189 219.459 221.949 201.334 199.462 201.334C194.047 201.334 188.879 202.394 184.148 204.306C176.115 187.871 159.234 176.543 139.704 176.543C116.088 176.543 96.3501 193.108 91.4426 215.242C69.232 216.671 51.6602 235.126 51.6602 257.697C51.6602 280.269 70.7142 300.252 94.215 300.252H229.629C246.287 300.252 259.796 286.743 259.796 270.085C259.796 257.206 251.724 246.223 240.373 241.892V241.9Z" fill="#353988"/>
<path d="M209.913 228.145H101.548C99.7203 228.145 98.2227 226.647 98.2227 224.819C98.2227 222.991 99.7203 221.494 101.548 221.494H209.913C211.741 221.494 213.238 222.991 213.238 224.819C213.238 226.647 211.741 228.145 209.913 228.145Z" fill="#263238"/>
<path d="M193.572 273.149H117.901C111.734 273.149 106.719 268.134 106.719 261.967C106.719 255.8 111.734 250.785 117.901 250.785H193.572C199.739 250.785 204.754 255.8 204.754 261.967C204.754 268.134 199.739 273.149 193.572 273.149ZM117.901 251.553C112.156 251.553 107.487 256.223 107.487 261.967C107.487 267.712 112.156 272.381 117.901 272.381H193.572C199.317 272.381 203.986 267.712 203.986 261.967C203.986 256.223 199.317 251.553 193.572 251.553H117.901Z" fill="white"/>
<path d="M135.572 270.461H117.9C113.231 270.461 109.406 266.637 109.406 261.967C109.406 257.298 113.231 253.473 117.9 253.473H135.572C140.241 253.473 144.066 257.298 144.066 261.967C144.066 266.637 140.241 270.461 135.572 270.461Z" fill="white"/>
<path d="M213.008 163.594L198.638 224.819H112.914L136.891 122.637L196.25 136.561L213.008 163.594Z" fill="#407BFF"/>
<path opacity="0.8" d="M213.008 163.594L198.638 224.819H112.914L136.891 122.637L196.25 136.561L213.008 163.594Z" fill="#FAFAFA"/>
<path d="M201.824 174.968L136.713 159.693C135.776 159.47 135.192 158.533 135.415 157.596C135.637 156.659 136.574 156.075 137.511 156.298L202.622 171.574C203.559 171.796 204.143 172.733 203.92 173.67C203.697 174.607 202.761 175.191 201.824 174.968Z" fill="#353988"/>
<path d="M199.335 185.567L134.224 170.291C133.287 170.068 132.704 169.131 132.926 168.195C133.149 167.258 134.086 166.674 135.023 166.897L200.134 182.172C201.071 182.395 201.655 183.332 201.432 184.269C201.209 185.206 200.272 185.789 199.335 185.567Z" fill="#353988"/>
<path d="M196.847 196.165L131.736 180.89C130.799 180.667 130.215 179.73 130.438 178.793C130.661 177.856 131.598 177.272 132.535 177.495L197.646 192.77C198.583 192.993 199.166 193.93 198.944 194.867C198.721 195.804 197.784 196.388 196.847 196.165Z" fill="#353988"/>
<path d="M194.367 206.764L129.255 191.488C128.319 191.265 127.735 190.328 127.958 189.391C128.18 188.454 129.117 187.871 130.054 188.093L195.165 203.369C196.102 203.592 196.686 204.529 196.463 205.466C196.24 206.403 195.303 206.986 194.367 206.764Z" fill="#353988"/>
<path d="M165.989 211.287L126.759 202.086C125.822 201.864 125.239 200.927 125.461 199.99C125.684 199.053 126.621 198.469 127.558 198.692L166.788 207.892C167.725 208.115 168.308 209.052 168.085 209.989C167.863 210.926 166.926 211.51 165.989 211.287Z" fill="#353988"/>
<path d="M213.009 163.594L191.113 158.456L196.251 136.561L213.009 163.594Z" fill="#353988"/>
<path d="M227.717 221.732L209.516 341.463H213.11L215.521 325.619H261.893L259.482 341.463H263.076L281.278 221.732H227.717ZM262.369 322.447H215.998L218.578 305.459H264.95L262.369 322.447ZM265.434 302.287H219.062L221.642 285.299H268.014L265.434 302.287ZM268.498 282.127H222.126L224.707 265.139H271.078L268.498 282.127ZM271.562 261.967H225.19L227.771 244.979H274.143L271.562 261.967ZM228.255 241.807L230.835 224.819H277.207L274.627 241.807H228.255Z" fill="#263238"/>
<path d="M288.767 221.732H235.207L253.409 341.463H257.003L254.591 325.619H300.963L303.375 341.463H306.969L288.767 221.732ZM239.27 224.819H285.642L288.222 241.807H241.85L239.27 224.819ZM242.334 244.979H288.706L291.286 261.967H244.915L242.334 244.979ZM245.398 265.139H291.77L294.351 282.127H247.979L245.398 265.139ZM248.463 285.299H294.835L297.415 302.287H251.043L248.463 285.299ZM254.108 322.447L251.527 305.459H297.899L300.479 322.447H254.108Z" fill="#263238"/>
<path opacity="0.4" d="M288.767 221.732H235.207L253.409 341.463H257.003L254.591 325.619H300.963L303.375 341.463H306.969L288.767 221.732ZM239.27 224.819H285.642L288.222 241.807H241.85L239.27 224.819ZM242.334 244.979H288.706L291.286 261.967H244.915L242.334 244.979ZM245.398 265.139H291.77L294.351 282.127H247.979L245.398 265.139ZM248.463 285.299H294.835L297.415 302.287H251.043L248.463 285.299ZM254.108 322.447L251.527 305.459H297.899L300.479 322.447H254.108Z" fill="white"/>
<path d="M265.818 105.18C267.354 106.363 268.706 107.553 270.111 108.774C271.501 109.988 272.845 111.263 274.166 112.568C276.808 115.172 279.327 117.937 281.662 120.955L282.522 122.115L282.952 122.698C283.198 123.036 283.428 123.412 283.605 123.766C284.342 125.21 284.565 126.546 284.665 127.744C284.826 130.132 284.465 132.152 284.012 134.088C283.052 137.935 281.608 141.338 279.757 144.686L275.833 143.089C276.578 139.748 277.246 136.246 277.499 133.012C277.622 131.407 277.607 129.818 277.361 128.627C277.238 128.044 277.031 127.606 276.9 127.468C276.87 127.429 276.847 127.429 276.824 127.406L276.409 126.938L275.587 125.993C273.314 123.505 270.856 121.078 268.291 118.743C265.757 116.401 263.069 114.058 260.488 111.885L265.818 105.203V105.18Z" fill="#7F3E3B"/>
<path d="M277.381 141.484L272.973 144.525L278.379 147.781C278.379 147.781 281.152 145.132 279.961 142.666L277.381 141.484Z" fill="#7F3E3B"/>
<path d="M270.77 149.601L274.84 151.89L278.373 147.781L272.966 144.525L270.77 149.601Z" fill="#7F3E3B"/>
<path d="M235.748 89.1366C235.878 89.6358 235.717 90.1043 235.387 90.1888C235.064 90.2733 234.695 89.9354 234.565 89.4438C234.434 88.9446 234.596 88.4762 234.926 88.3917C235.248 88.3072 235.617 88.6451 235.748 89.1366Z" fill="#263238"/>
<path d="M235.755 90.089C235.755 90.089 235.364 93.2455 234.473 94.9427C235.563 95.5341 236.961 94.7815 236.961 94.7815L235.755 90.089Z" fill="#630F0F"/>
<path d="M236.801 85.9341C236.74 85.9495 236.679 85.9495 236.617 85.9264C235.365 85.4349 234.459 86.0724 234.444 86.08C234.305 86.1799 234.121 86.1492 234.021 86.0109C233.921 85.8727 233.96 85.6884 234.09 85.5885C234.137 85.5578 235.281 84.7591 236.832 85.3658C236.986 85.4272 237.063 85.6039 237.001 85.7575C236.963 85.8496 236.886 85.9188 236.794 85.9418L236.801 85.9341Z" fill="#263238"/>
<path d="M251.493 90.5267C252.207 95.2115 253.213 102.392 257.33 104.212C257.33 104.212 257.729 109.082 249.604 112.008C240.664 115.226 243.736 109.105 243.736 109.105C248.198 106.186 246.77 102.607 244.696 99.5123L251.501 90.5267H251.493Z" fill="#7F3E3B"/>
<path d="M258.096 103.237C258.119 101.77 256.599 99.2282 255.086 99.3971C253.419 99.5814 247.06 101.932 244.741 104.074C242.421 106.217 244.065 109.972 244.065 109.972L258.096 103.237Z" fill="#263238"/>
<path d="M307.136 280.768C306.737 281.183 306.284 281.528 305.923 281.482C305.777 281.467 305.577 281.375 305.47 281.037C305.416 280.86 305.439 280.684 305.539 280.522C305.969 279.793 307.82 279.416 307.904 279.401C307.958 279.393 308.012 279.409 308.042 279.455C308.073 279.501 308.073 279.555 308.042 279.601C307.889 279.854 307.536 280.353 307.136 280.768ZM305.869 280.53C305.831 280.576 305.792 280.614 305.769 280.661C305.708 280.76 305.692 280.86 305.723 280.96C305.8 281.198 305.915 281.213 305.953 281.221C306.353 281.267 307.152 280.445 307.635 279.739C307.082 279.877 306.222 280.161 305.869 280.53Z" fill="#407BFF"/>
<path d="M308.027 279.624C308.027 279.624 307.997 279.654 307.974 279.654C307.336 279.854 305.67 279.808 305.301 279.286C305.232 279.194 305.147 278.994 305.347 278.733C305.47 278.564 305.647 278.472 305.869 278.441C306.706 278.341 307.974 279.378 308.027 279.424C308.066 279.455 308.081 279.501 308.073 279.555C308.073 279.578 308.058 279.601 308.035 279.624H308.027ZM305.593 278.848C305.593 278.848 305.562 278.879 305.554 278.894C305.447 279.032 305.493 279.101 305.516 279.132C305.731 279.439 306.906 279.578 307.628 279.462C307.244 279.178 306.43 278.648 305.892 278.71C305.769 278.725 305.67 278.771 305.593 278.848Z" fill="#407BFF"/>
<path d="M260.679 296.819C259.957 296.819 259.258 296.719 259.02 296.397C258.936 296.282 258.874 296.09 259.028 295.813C259.12 295.66 259.258 295.552 259.45 295.498C260.387 295.245 262.361 296.366 262.445 296.412C262.492 296.443 262.522 296.497 262.507 296.55C262.499 296.604 262.453 296.65 262.399 296.658C262.038 296.727 261.34 296.819 260.671 296.819H260.679ZM259.788 295.729C259.696 295.729 259.604 295.736 259.527 295.759C259.404 295.79 259.32 295.852 259.266 295.944C259.174 296.113 259.204 296.189 259.243 296.236C259.504 296.597 260.932 296.612 261.977 296.458C261.455 296.189 260.441 295.721 259.788 295.721V295.729Z" fill="#407BFF"/>
<path d="M262.385 296.666C262.385 296.666 262.347 296.666 262.331 296.65C261.648 296.343 260.304 295.122 260.404 294.484C260.427 294.339 260.534 294.147 260.903 294.108C261.172 294.077 261.425 294.154 261.64 294.339C262.354 294.93 262.508 296.451 262.516 296.512C262.516 296.558 262.5 296.604 262.462 296.635C262.439 296.65 262.408 296.658 262.385 296.658V296.666ZM261.01 294.377C261.01 294.377 260.957 294.377 260.934 294.377C260.696 294.4 260.68 294.5 260.673 294.531C260.611 294.915 261.525 295.875 262.224 296.289C262.155 295.844 261.947 294.938 261.479 294.546C261.333 294.431 261.187 294.369 261.018 294.369L261.01 294.377Z" fill="#407BFF"/>
<path d="M268.588 296.527H262.943L262.383 283.464H268.028L268.588 296.527Z" fill="#7F3E3B"/>
<path d="M313.792 277.389L308.577 279.293L301.941 267.589L307.164 265.684L313.792 277.389Z" fill="#7F3E3B"/>
<path d="M307.756 278.771L312.165 274.217C312.326 274.048 312.579 274.017 312.779 274.14L317.157 276.828C317.61 277.105 317.679 277.742 317.303 278.118C315.736 279.685 314.899 280.361 312.956 282.365C311.765 283.594 308.217 287.772 306.566 289.477C304.953 291.144 303.018 289.777 303.54 288.932C305.882 285.146 307.296 281.544 307.365 279.67C307.38 279.332 307.518 279.009 307.749 278.771H307.756Z" fill="#263238"/>
<path d="M262.982 295.875H269.141C269.372 295.875 269.571 296.036 269.625 296.259L270.739 301.274C270.854 301.796 270.462 302.287 269.925 302.28C267.705 302.241 264.487 302.111 261.699 302.111C258.435 302.111 257.007 302.287 253.175 302.287C250.855 302.287 250.218 299.945 251.185 299.73C255.601 298.762 257.806 298.662 261.623 296.312C262.037 296.059 262.498 295.875 262.982 295.875Z" fill="#263238"/>
<path d="M247.652 116.393C246.784 118.582 245.863 120.617 244.91 122.706C243.966 124.78 242.944 126.822 241.9 128.865C239.765 132.928 237.484 136.929 234.642 140.815C233.928 141.783 233.16 142.743 232.315 143.695C231.893 144.179 231.463 144.625 230.956 145.124C230.295 145.754 229.658 146.207 229.043 146.598C227.815 147.374 226.647 147.881 225.488 148.357C224.336 148.826 223.191 149.21 222.055 149.548C217.508 150.884 213.038 151.66 208.423 152.082L207.562 147.935C211.671 146.445 215.849 144.909 219.697 143.189C220.649 142.751 221.586 142.29 222.462 141.821C223.33 141.353 224.159 140.838 224.773 140.355C225.081 140.117 225.326 139.878 225.457 139.717C225.726 139.41 226.048 139.034 226.34 138.657C226.931 137.897 227.515 137.075 228.076 136.207C229.22 134.502 230.28 132.652 231.301 130.77C232.331 128.888 233.314 126.961 234.274 125.01C236.186 121.116 238.037 117.084 239.742 113.152L247.652 116.401V116.393Z" fill="#7F3E3B"/>
<path d="M260.532 101.816C268.634 101.187 275.899 113.19 275.899 113.19L270.078 122.637C270.078 122.637 263.842 120.348 258.573 115.779C253.052 110.994 255.002 102.254 260.532 101.824V101.816Z" fill="#407BFF"/>
<path opacity="0.3" d="M260.027 111.931L268.544 123.397L268.16 123.866C268.16 123.866 265.227 121.531 261.84 118.229L260.035 111.931H260.027Z" fill="black"/>
<path d="M238.084 110.764C237.639 114.719 244.251 132.214 245.787 152.965L275.816 150.008C275.601 146.03 273.404 129.295 269.434 110.356C268.336 105.134 264.288 101.11 259.058 102.162C259.012 102.17 258.958 102.185 258.912 102.193C255.134 102.968 249.696 104.236 246.486 105.38C243.76 106.348 241.217 107.592 239.758 108.36C238.837 108.844 238.207 109.734 238.092 110.771L238.084 110.764Z" fill="#407BFF"/>
<path opacity="0.3" d="M241.125 125.294C241.632 127.406 242.162 129.695 242.684 132.129C247.254 131.046 246.37 120.917 246.463 120.786L241.125 125.294Z" fill="black"/>
<path d="M247.87 112.722C250.174 120.625 241.641 131.169 241.641 131.169L233.055 125.64C233.055 125.64 232.993 118.405 235.743 112.745C239.222 105.58 246.226 107.085 247.87 112.722Z" fill="#407BFF"/>
<path d="M207.71 147.205L204.262 146.737L204.315 153.94C204.315 153.94 208.962 154.409 211.542 151.214L211.035 149.855C210.498 148.426 209.223 147.412 207.71 147.205Z" fill="#7F3E3B"/>
<path d="M198.34 148.396L200.544 154.263L204.315 153.94L204.261 146.737L198.34 148.396Z" fill="#7F3E3B"/>
<path opacity="0.2" d="M262.383 283.471L262.698 290.813H268.342L268.028 283.471H262.383Z" fill="black"/>
<path opacity="0.2" d="M307.164 265.692L301.941 267.589L305.612 274.071L310.589 271.721L307.164 265.692Z" fill="black"/>
<path d="M252.039 83.8375C253.23 90.0352 254.236 93.5988 251.963 97.5156C248.537 103.414 240.289 102.546 237.278 96.832C234.567 91.6864 233.078 82.4167 238.423 78.4615C243.691 74.56 250.857 77.6397 252.047 83.8298L252.039 83.8375Z" fill="#7F3E3B"/>
<path d="M241.603 87.9693C237.824 89.8586 237.74 83.8221 238.062 82.5472C236.641 83.9066 234.721 85.2813 231.235 83.776C226.949 81.9251 228.163 77.0867 231.235 77.1559C231.235 77.1559 228.961 72.7783 233.976 72.3098C236.764 72.0563 240.067 73.2467 240.067 73.2467C240.067 73.2467 241.933 68.3546 246.479 70.7277C248.891 71.9795 250.803 75.6813 250.803 75.6813C250.803 75.6813 260.595 77.1328 255.281 82.2554C256.486 84.8819 255.849 93.4221 252.739 97.0778C251.379 98.6752 239.744 98.2067 241.603 87.9693Z" fill="#263238"/>
<path d="M249.105 78.1773C249.105 78.1773 250.88 75.7351 251.018 70.0826C255.165 74.5831 249.105 78.1773 249.105 78.1773Z" fill="#263238"/>
<path d="M243.437 87.6237C243.575 89.2672 243.037 90.9184 242.277 92.055C241.125 93.7677 239.558 93.0304 239.044 91.2256C238.583 89.5974 238.629 86.7558 240.188 85.6806C241.724 84.6208 243.275 85.7498 243.437 87.6314V87.6237Z" fill="#7F3E3B"/>
<path d="M256.43 151.913C256.43 151.913 267.028 194.199 272.104 209.928C277.665 227.154 301.795 272.335 301.795 272.335L311.265 268.219C311.265 268.219 293.002 227.077 289.1 209.866C284.869 191.181 275.799 150.008 275.799 150.008L256.422 151.913H256.43Z" fill="#263238"/>
<path d="M299 269.225C298.962 269.24 302.103 273.664 302.103 273.664L312.74 268.964L310.589 264.563L299 269.217V269.225Z" fill="#407BFF"/>
<path opacity="0.3" d="M261.968 166.804C269.479 167.526 271.406 195.075 271.906 209.298C268.795 199.521 263.796 180.605 260.324 167.165C260.793 166.874 261.33 166.743 261.96 166.804H261.968Z" fill="black"/>
<path d="M245.777 152.965C245.777 152.965 246.998 196.373 249.295 213.437C251.683 231.186 260.515 287.956 260.515 287.956H270.069C270.069 287.956 267.865 230.648 266.567 213.115C265.154 193.999 265.523 151.03 265.523 151.03L245.785 152.973L245.777 152.965Z" fill="#263238"/>
<path d="M258.611 283.464C258.565 283.464 259.372 289.247 259.372 289.247L270.991 288.847L271.099 283.456H258.611V283.464Z" fill="#407BFF"/>
</g>
<defs>
<clipPath id="clip0_3013_4313">
<rect width="384" height="286.164" fill="white" transform="translate(8 64)"/>
</clipPath>
</defs>
</svg>
