<svg width="500" height="484" viewBox="0 0 500 484" fill="none" xmlns="http://www.w3.org/2000/svg">
<path d="M500 366.4H0V366.6H500V366.4Z" fill="#EBEBEB"/>
<path d="M111.6 374.8H78.5V375H111.6V374.8Z" fill="#EBEBEB"/>
<path d="M163.501 382H133.301V382.2H163.501V382Z" fill="#EBEBEB"/>
<path d="M95.1984 384.1H56.8984V384.3H95.1984V384.1Z" fill="#EBEBEB"/>
<path d="M449.9 383.5H434V383.7H449.9V383.5Z" fill="#EBEBEB"/>
<path d="M430.8 383.5H391.5V383.7H430.8V383.5Z" fill="#EBEBEB"/>
<path d="M280.3 374.7H250V374.9H280.3V374.7Z" fill="#EBEBEB"/>
<path d="M356.799 374.7H284.699V374.9H356.799V374.7Z" fill="#EBEBEB"/>
<path d="M236.999 321.8H43.8992C40.7992 321.8 38.1992 319.2 38.1992 316.1V44.7C38.1992 41.6 40.7992 39 43.8992 39H236.999C240.099 39 242.699 41.6 242.699 44.7V316.1C242.699 319.2 240.199 321.8 236.999 321.8ZM43.8992 39.2C40.8992 39.2 38.3992 41.6 38.3992 44.7V316.1C38.3992 319.1 40.7992 321.6 43.8992 321.6H236.999C239.999 321.6 242.499 319.2 242.499 316.1V44.7C242.499 41.7 240.099 39.2 236.999 39.2H43.8992Z" fill="#EBEBEB"/>
<path d="M453.3 321.8H260.2C257.1 321.8 254.5 319.2 254.5 316.1V44.7C254.5 41.6 257.1 39 260.2 39H453.3C456.4 39 459 41.6 459 44.7V316.1C459 319.2 456.5 321.8 453.3 321.8ZM260.2 39.2C257.2 39.2 254.7 41.6 254.7 44.7V316.1C254.7 319.1 257.1 321.6 260.2 321.6H453.3C456.3 321.6 458.8 319.2 458.8 316.1V44.7C458.8 41.7 456.4 39.2 453.3 39.2H260.2Z" fill="#EBEBEB"/>
<path d="M293.398 250.2H264.598V366.4H293.398V250.2Z" fill="#E6E6E6"/>
<path d="M281.398 366.4H293.398V346.4H268.898L281.398 366.4Z" fill="#F5F5F5"/>
<path d="M85.6984 250.2H56.8984V366.4H85.6984V250.2Z" fill="#E6E6E6"/>
<path d="M293.399 250.2H75.1992V359.5H293.399V250.2Z" fill="#F5F5F5"/>
<path d="M284.6 283.8H84V259.9H284.7V283.8H284.6ZM85 282.8H283.7V260.9H85V282.8Z" fill="#EBEBEB"/>
<path d="M87.0992 366.4H75.1992V346.4H99.6992L87.0992 366.4Z" fill="#F5F5F5"/>
<path d="M284.6 349.9H84V292.9H284.7V349.9H284.6ZM85 348.9H283.7V293.9H85V348.9Z" fill="#EBEBEB"/>
<path d="M407.9 62.5H180.5V220H407.9V62.5Z" fill="#E6E6E6"/>
<path d="M412.099 62.5H184.699V220H412.099V62.5Z" fill="#F5F5F5"/>
<path d="M404.512 212.096V70.4956L192.112 70.4956L192.112 212.096L404.512 212.096Z" fill="white"/>
<path d="M404.52 212.089V70.4889H401.32V212.089H404.52Z" fill="#E6E6E6"/>
<path d="M409.001 83.2H187.801V88.5H409.001V83.2Z" fill="#F5F5F5"/>
<g opacity="0.5">
<path d="M408.301 57.3H399.301V232.2H408.301V57.3Z" fill="#F0F0F0"/>
<path d="M396.902 57.3H387.902V232.2H396.902V57.3Z" fill="#F0F0F0"/>
<path d="M385.5 57.3H376.5V232.2H385.5V57.3Z" fill="#F0F0F0"/>
<path d="M374.102 57.3H365.102V232.2H374.102V57.3Z" fill="#F0F0F0"/>
<path d="M362.703 57.3H353.703V232.2H362.703V57.3Z" fill="#F0F0F0"/>
<path d="M351.301 57.3H342.301V232.2H351.301V57.3Z" fill="#F0F0F0"/>
<path d="M339.902 57.3H330.902V232.2H339.902V57.3Z" fill="#F0F0F0"/>
<path d="M328.5 57.3H319.5V232.2H328.5V57.3Z" fill="#F0F0F0"/>
<path d="M317.102 57.3H308.102V232.2H317.102V57.3Z" fill="#F0F0F0"/>
<path d="M305.703 57.3H296.703V232.2H305.703V57.3Z" fill="#F0F0F0"/>
<path d="M294.301 57.3H285.301V232.2H294.301V57.3Z" fill="#F0F0F0"/>
<path d="M282.902 57.3H273.902V232.2H282.902V57.3Z" fill="#F0F0F0"/>
<path d="M271.5 57.3H262.5V232.2H271.5V57.3Z" fill="#F0F0F0"/>
<path d="M260.102 57.3H251.102V232.2H260.102V57.3Z" fill="#F0F0F0"/>
<path d="M248.602 57.3H239.602V232.2H248.602V57.3Z" fill="#F0F0F0"/>
</g>
<path d="M128.197 81.3H62.2969V201.1H128.197V81.3Z" fill="#F0F0F0"/>
<path d="M142.398 81.3H66.5977V201.1H142.398V81.3Z" fill="#F5F5F5"/>
<path d="M69.6445 84.1542V198.354H139.245V84.1542H69.6445Z" fill="white"/>
<path d="M88.1953 106.9V175.6C88.1953 177.1 89.3953 178.4 90.9953 178.4H117.995C119.495 178.4 120.795 177.2 120.795 175.6V106.9C120.795 105.4 119.595 104.1 117.995 104.1H90.9953C89.4953 104.1 88.1953 105.4 88.1953 106.9Z" fill="#F5F5F5"/>
<path d="M383.898 181.3L397.398 214.5C396.998 310.6 401.398 316.1 401.398 332.7H367.398C366.098 252.2 378.098 270.3 383.898 181.3Z" fill="#EBEBEB"/>
<path d="M402.897 279.4C375.497 204 312.497 227.3 315.297 254.8C318.097 282.3 418.697 322.8 402.897 279.4Z" fill="#EBEBEB"/>
<path d="M392.598 322.9C377.698 274.3 337.898 282.2 337.898 304.6C337.898 326.9 401.098 350.9 392.598 322.9Z" fill="#EBEBEB"/>
<path d="M391.499 235.2C367.999 170.2 309.599 179.2 314.299 206.6C318.999 234 404.999 272.5 391.499 235.2Z" fill="#EBEBEB"/>
<path d="M391.601 206C393.801 161.7 349.901 143.5 353.001 170C356.101 196.5 390.401 231.5 391.601 206Z" fill="#EBEBEB"/>
<path d="M388.4 251.4C397.7 196.9 453.8 176.1 447.5 207C441.2 237.8 383.1 282.7 388.4 251.4Z" fill="#EBEBEB"/>
<path d="M383.598 220.5C372.698 163.3 423.198 137.9 424.598 165.5C425.998 193.1 389.898 253.4 383.598 220.5Z" fill="#EBEBEB"/>
<path d="M379.298 285.1C401.598 230 449.298 243.7 444.498 268.7C439.698 293.9 366.398 316.8 379.298 285.1Z" fill="#EBEBEB"/>
<path d="M390.299 323.6C389.799 288 422.099 278.9 422.499 299.5C422.799 320.1 390.599 344.1 390.299 323.6Z" fill="#EBEBEB"/>
<path d="M380.398 366.6C362.698 366.6 347.698 354.2 343.998 337.6C342.998 333.2 341.898 328.8 340.198 324.6L339.898 323.9H420.698L420.398 324.6C418.698 328.8 417.598 333.2 416.598 337.6C413.098 354.3 398.198 366.6 380.398 366.6Z" fill="#E0E0E0"/>
<path d="M250.002 411.5C357.09 411.5 443.902 406.441 443.902 400.2C443.902 393.959 357.09 388.9 250.002 388.9C142.914 388.9 56.1016 393.959 56.1016 400.2C56.1016 406.441 142.914 411.5 250.002 411.5Z" fill="#F5F5F5"/>
<path d="M129.397 197.9L128.797 197.1C131.397 195 134.097 193.1 136.997 191.4L137.497 192.3C134.597 194 131.897 195.9 129.397 197.9Z" fill="#407BFF"/>
<path d="M108.798 226.5L107.898 226.2C111.298 217.1 116.698 208.7 123.598 201.9L124.298 202.6C117.498 209.3 112.198 217.6 108.798 226.5Z" fill="#407BFF"/>
<path d="M302.598 270.6C302.398 241.4 278.598 217.8 249.298 217.8C242.198 217.8 235.498 219.2 229.398 221.7C218.898 200.3 196.998 185.6 171.498 185.6C140.698 185.6 115.098 207.2 108.698 236C79.7984 237.9 56.8984 261.9 56.8984 291.3C56.8984 321.9 81.6984 346.7 112.298 346.7H288.598C310.298 346.7 327.898 329.1 327.898 307.4C327.898 290.5 317.398 276.2 302.598 270.6Z" fill="#407BFF"/>
<path d="M262.9 252.7H121.8C119.4 252.7 117.5 250.7 117.5 248.4C117.5 246 119.5 244.1 121.8 244.1H262.9C265.3 244.1 267.2 246 267.2 248.4C267.2 250.7 265.3 252.7 262.9 252.7Z" fill="#263238"/>
<path d="M241.6 311.3H143.1C135.1 311.3 128.5 304.8 128.5 296.7C128.5 288.7 135 282.1 143.1 282.1H241.6C249.6 282.1 256.2 288.6 256.2 296.7C256.2 304.8 249.7 311.3 241.6 311.3ZM143.1 283.2C135.6 283.2 129.5 289.3 129.5 296.8C129.5 304.3 135.6 310.4 143.1 310.4H241.6C249.1 310.4 255.2 304.3 255.2 296.8C255.2 289.3 249.1 283.2 241.6 283.2H143.1Z" fill="white"/>
<path d="M166.1 307.8H143.1C137 307.8 132 302.8 132 296.7C132 290.6 137 285.6 143.1 285.6H166.1C172.2 285.6 177.2 290.6 177.2 296.7C177.2 302.8 172.2 307.8 166.1 307.8Z" fill="white"/>
<path d="M266.898 168.6L248.198 248.4H136.598L167.798 115.3L245.098 133.4L266.898 168.6Z" fill="#407BFF"/>
<path opacity="0.8" d="M266.898 168.6L248.198 248.4H136.598L167.798 115.3L245.098 133.4L266.898 168.6Z" fill="#FAFAFA"/>
<path d="M252.399 183.4L167.599 163.5C166.399 163.2 165.599 162 165.899 160.8C166.199 159.6 167.399 158.8 168.599 159.1L253.399 179C254.599 179.3 255.399 180.5 255.099 181.7C254.799 183 253.599 183.7 252.399 183.4Z" fill="#407BFF"/>
<path d="M249.098 197.2L164.298 177.3C163.098 177 162.298 175.8 162.598 174.6C162.898 173.4 164.098 172.6 165.298 172.9L250.098 192.8C251.298 193.1 252.098 194.3 251.798 195.5C251.598 196.8 250.398 197.5 249.098 197.2Z" fill="#407BFF"/>
<path d="M245.899 211L161.099 191.1C159.899 190.8 159.099 189.6 159.399 188.4C159.699 187.2 160.899 186.4 162.099 186.7L246.899 206.6C248.099 206.9 248.899 208.1 248.599 209.3C248.299 210.6 247.099 211.3 245.899 211Z" fill="#407BFF"/>
<path d="M242.7 224.8L157.9 204.9C156.7 204.6 155.9 203.4 156.2 202.2C156.5 201 157.7 200.2 158.9 200.5L243.7 220.4C244.9 220.7 245.7 221.9 245.4 223.1C245.1 224.4 243.9 225.1 242.7 224.8Z" fill="#407BFF"/>
<path d="M205.699 230.7L154.599 218.7C153.399 218.4 152.599 217.2 152.899 216C153.199 214.8 154.399 214 155.599 214.3L206.699 226.3C207.899 226.6 208.699 227.8 208.399 229C208.199 230.3 206.899 231 205.699 230.7Z" fill="#407BFF"/>
<path d="M266.898 168.6L238.398 161.9L245.098 133.4L266.898 168.6Z" fill="#407BFF"/>
<path d="M286.102 244.3L262.402 400.2H267.102L270.202 379.6H330.602L327.502 400.2H332.202L355.902 244.3H286.102ZM331.202 375.5H270.802L274.202 353.4H334.602L331.202 375.5ZM335.202 349.2H274.802L278.202 327.1H338.602L335.202 349.2ZM339.202 323H278.802L282.202 300.9H342.602L339.202 323ZM343.202 296.7H282.802L286.202 274.6H346.602L343.202 296.7ZM286.802 270.5L290.202 248.4H350.602L347.202 270.5H286.802Z" fill="#263238"/>
<path d="M365.602 244.3H295.902L319.602 400.2H324.302L321.202 379.6H381.602L384.702 400.2H389.402L365.602 244.3ZM301.102 248.4H361.502L364.902 270.5H304.502L301.102 248.4ZM305.102 274.6H365.502L368.902 296.7H308.502L305.102 274.6ZM309.102 300.9H369.502L372.902 323H312.502L309.102 300.9ZM313.102 327.1H373.502L376.902 349.2H316.502L313.102 327.1ZM320.502 375.5L317.102 353.4H377.502L380.902 375.5H320.502Z" fill="#263238"/>
<path opacity="0.4" d="M365.602 244.3H295.902L319.602 400.2H324.302L321.202 379.6H381.602L384.702 400.2H389.402L365.602 244.3ZM301.102 248.4H361.502L364.902 270.5H304.502L301.102 248.4ZM305.102 274.6H365.502L368.902 296.7H308.502L305.102 274.6ZM309.102 300.9H369.502L372.902 323H312.502L309.102 300.9ZM313.102 327.1H373.502L376.902 349.2H316.502L313.102 327.1ZM320.502 375.5L317.102 353.4H377.502L380.902 375.5H320.502Z" fill="white"/>
<path d="M335.7 92.6C337.7 94.1 339.5 95.7 341.3 97.3C343.1 98.9 344.9 100.5 346.6 102.2C350 105.6 353.3 109.2 356.4 113.1L357.5 114.6L358.1 115.4C358.4 115.8 358.7 116.3 359 116.8C360 118.7 360.3 120.4 360.4 122C360.6 125.1 360.1 127.7 359.6 130.3C358.4 135.3 356.5 139.7 354.1 144.1L349 142C350 137.6 350.8 133.1 351.2 128.9C351.4 126.8 351.3 124.7 351 123.2C350.8 122.4 350.6 121.9 350.4 121.7C350.4 121.6 350.3 121.6 350.3 121.6L349.8 121L348.7 119.8C345.7 116.6 342.5 113.4 339.2 110.4C335.9 107.4 332.4 104.3 329 101.5L335.7 92.6Z" fill="#7F3E3B"/>
<path d="M350.802 139.8L345.102 143.8L352.102 148C352.102 148 355.702 144.5 354.202 141.3L350.802 139.8Z" fill="#7F3E3B"/>
<path d="M342.199 150.4L347.499 153.4L352.099 148L344.999 143.8L342.199 150.4Z" fill="#7F3E3B"/>
<path d="M296.501 71.7C296.701 72.3 296.501 73 296.001 73.1C295.601 73.2 295.101 72.8 294.901 72.1C294.701 71.5 294.901 70.8 295.401 70.7C295.901 70.6 296.401 71 296.501 71.7Z" fill="#263238"/>
<path d="M296.602 72.9C296.602 72.9 296.102 77 294.902 79.2C296.302 80 298.102 79 298.102 79L296.602 72.9Z" fill="#630F0F"/>
<path d="M297.902 67.5C297.802 67.5 297.702 67.5 297.702 67.5C296.102 66.9 294.902 67.7 294.902 67.7C294.702 67.8 294.502 67.8 294.402 67.6C294.302 67.4 294.302 67.2 294.502 67.1C294.602 67.1 296.002 66 298.102 66.8C298.302 66.9 298.402 67.1 298.302 67.3C298.102 67.4 298.002 67.5 297.902 67.5Z" fill="#263238"/>
<path d="M317.102 73.5C318.002 79.6 319.302 88.9 324.702 91.3C324.702 91.3 325.202 97.6 314.602 101.4C303.002 105.6 307.002 97.6 307.002 97.6C312.802 93.8 310.902 89.1 308.202 85.1L317.102 73.5Z" fill="#7F3E3B"/>
<path d="M325.601 90C325.601 88.1 323.601 84.8 321.701 85C319.501 85.2 311.301 88.3 308.201 91.1C305.201 93.9 307.301 98.8 307.301 98.8L325.601 90Z" fill="#263238"/>
<path d="M389.499 321.2C388.999 321.7 388.399 322.2 387.899 322.1C387.699 322.1 387.399 322 387.299 321.5C387.199 321.3 387.299 321 387.399 320.8C387.999 319.9 390.399 319.4 390.499 319.3C390.599 319.3 390.599 319.3 390.699 319.4C390.699 319.5 390.699 319.5 390.699 319.6C390.499 320 389.999 320.7 389.499 321.2ZM387.899 320.9C387.799 321 387.799 321 387.799 321.1C387.699 321.2 387.699 321.4 387.699 321.5C387.799 321.8 387.899 321.8 387.999 321.8C388.499 321.9 389.599 320.8 390.199 319.9C389.399 320 388.299 320.4 387.899 320.9Z" fill="#407BFF"/>
<path d="M390.7 319.7C390.6 319.7 390.6 319.7 390.7 319.7C389.8 320 387.6 319.9 387.1 319.3C387 319.2 386.9 318.9 387.2 318.6C387.4 318.4 387.6 318.3 387.9 318.2C389 318.1 390.6 319.4 390.7 319.5C390.7 319.5 390.7 319.6 390.7 319.7ZM387.5 318.7C387.3 318.9 387.4 319 387.4 319.1C387.7 319.5 389.2 319.7 390.1 319.5C389.6 319.1 388.5 318.4 387.8 318.5C387.7 318.5 387.6 318.6 387.5 318.7Z" fill="#407BFF"/>
<path d="M328.999 342.1C328.099 342.1 327.099 342 326.799 341.5C326.699 341.4 326.599 341.1 326.799 340.7C326.899 340.5 327.099 340.4 327.399 340.3C328.599 340 331.199 341.4 331.299 341.5C331.399 341.5 331.399 341.6 331.399 341.7C331.399 341.8 331.299 341.8 331.299 341.8C330.799 342 329.899 342.1 328.999 342.1ZM327.799 340.7C327.699 340.7 327.599 340.7 327.499 340.7C327.299 340.7 327.199 340.8 327.199 340.9C327.099 341.1 327.099 341.2 327.199 341.3C327.499 341.8 329.399 341.8 330.799 341.6C329.999 341.3 328.699 340.7 327.799 340.7Z" fill="#407BFF"/>
<path d="M331.202 341.9C330.202 341.5 328.502 339.9 328.602 339.1C328.602 338.9 328.802 338.7 329.202 338.6C329.602 338.6 329.902 338.7 330.202 338.9C331.102 339.7 331.302 341.6 331.302 341.7C331.302 341.8 331.302 341.8 331.202 341.9C331.302 341.9 331.302 341.9 331.202 341.9ZM329.402 338.9H329.302C329.002 338.9 329.002 339.1 329.002 339.1C328.902 339.6 330.102 340.8 331.002 341.4C330.902 340.8 330.602 339.6 330.002 339.1C329.902 339 329.702 338.9 329.402 338.9Z" fill="#407BFF"/>
<path d="M339.299 341.7H331.999L331.199 324.7H338.599L339.299 341.7Z" fill="#7F3E3B"/>
<path d="M398.199 316.8L391.399 319.3L382.699 304L389.499 301.6L398.199 316.8Z" fill="#7F3E3B"/>
<path d="M390.3 318.6L396 312.7C396.2 312.5 396.5 312.4 396.8 312.6L402.5 316.1C403.1 316.5 403.2 317.3 402.7 317.8C400.7 319.8 399.6 320.7 397 323.3C395.4 324.9 390.8 330.3 388.7 332.6C386.6 334.8 384.1 333 384.8 331.9C387.8 327 389.7 322.3 389.8 319.8C389.8 319.3 390 318.9 390.3 318.6Z" fill="#263238"/>
<path d="M332.002 340.9H340.002C340.302 340.9 340.602 341.1 340.602 341.4L342.102 347.9C342.302 348.6 341.702 349.2 341.002 349.2C338.102 349.2 333.902 349 330.302 349C326.002 349 324.202 349.2 319.202 349.2C316.202 349.2 315.302 346.2 316.602 345.9C322.302 344.6 325.202 344.5 330.202 341.4C330.802 341.1 331.402 340.9 332.002 340.9Z" fill="#263238"/>
<path d="M312.102 107.2C311.002 110 309.802 112.7 308.502 115.4C307.302 118.1 305.902 120.8 304.602 123.4C301.802 128.7 298.802 133.9 295.202 139C294.302 140.3 293.302 141.5 292.202 142.7C291.702 143.3 291.102 143.9 290.402 144.6C289.502 145.4 288.702 146 287.902 146.5C286.302 147.5 284.802 148.2 283.302 148.8C281.802 149.4 280.302 149.9 278.802 150.3C272.902 152 267.102 153 261.002 153.6L259.902 148.2C265.202 146.3 270.702 144.3 275.702 142C276.902 141.4 278.202 140.8 279.302 140.2C280.402 139.6 281.502 138.9 282.302 138.3C282.702 138 283.002 137.7 283.202 137.5C283.502 137.1 284.002 136.6 284.302 136.1C285.102 135.1 285.802 134 286.602 132.9C288.102 130.7 289.502 128.3 290.802 125.8C292.102 123.4 293.402 120.8 294.702 118.3C297.202 113.2 299.602 108 301.802 102.9L312.102 107.2Z" fill="#7F3E3B"/>
<path d="M328.802 88.2C339.302 87.4 348.802 103 348.802 103L341.202 115.3C341.202 115.3 333.102 112.3 326.202 106.4C319.102 100.1 321.602 88.8 328.802 88.2Z" fill="#407BFF"/>
<path opacity="0.3" d="M328.199 101.4L339.299 116.3L338.799 116.9C338.799 116.9 334.999 113.9 330.599 109.6L328.199 101.4Z" fill="black"/>
<path d="M299.6 99.8C299 104.9 307.6 127.7 309.6 154.8L348.7 151C348.4 145.8 345.6 124 340.4 99.4C339 92.6 333.7 87.4 326.9 88.7C326.8 88.7 326.8 88.7 326.7 88.7C321.8 89.7 314.7 91.4 310.5 92.8C307 94.1 303.6 95.7 301.7 96.7C300.6 97.3 299.7 98.5 299.6 99.8Z" fill="#407BFF"/>
<path opacity="0.3" d="M303.5 118.8C304.2 121.6 304.9 124.5 305.5 127.7C311.4 126.3 310.3 113.1 310.4 112.9L303.5 118.8Z" fill="black"/>
<path d="M312.3 102.4C315.3 112.7 304.2 126.4 304.2 126.4L293 119.2C293 119.2 292.9 109.8 296.5 102.4C301.1 93.1 310.2 95.1 312.3 102.4Z" fill="#407BFF"/>
<path d="M260 147.3L255.5 146.7L255.6 156.1C255.6 156.1 261.7 156.7 265 152.6L264.3 150.8C263.7 148.9 262 147.6 260 147.3Z" fill="#7F3E3B"/>
<path d="M247.801 148.8L250.701 156.5L255.601 156.1V146.7L247.801 148.8Z" fill="#7F3E3B"/>
<path opacity="0.2" d="M331.199 324.7L331.599 334.3H338.999L338.599 324.7H331.199Z" fill="black"/>
<path opacity="0.2" d="M389.499 301.6L382.699 304L387.499 312.5L393.999 309.4L389.499 301.6Z" fill="black"/>
<path d="M317.8 64.8C319.3 72.9 320.7 77.5 317.7 82.6C313.2 90.3 302.5 89.2 298.6 81.7C295.1 75 293.1 62.9 300.1 57.8C306.9 52.7 316.2 56.7 317.8 64.8Z" fill="#7F3E3B"/>
<path d="M304.199 70.2C299.299 72.7 299.199 64.8 299.599 63.1C297.799 64.9 295.299 66.7 290.699 64.7C285.099 62.3 286.699 56 290.699 56.1C290.699 56.1 287.699 50.4 294.299 49.8C297.899 49.5 302.199 51 302.199 51C302.199 51 304.599 44.6 310.599 47.7C313.699 49.3 316.199 54.1 316.199 54.1C316.199 54.1 328.999 56 321.999 62.7C323.599 66.1 322.699 77.2 318.699 82C316.899 84.1 301.799 83.5 304.199 70.2Z" fill="#263238"/>
<path d="M313.902 57.4C313.902 57.4 316.202 54.2 316.402 46.9C321.802 52.7 313.902 57.4 313.902 57.4Z" fill="#263238"/>
<path d="M306.6 69.7C306.8 71.8 306.1 74 305.1 75.5C303.6 77.7 301.6 76.8 300.9 74.4C300.3 72.3 300.4 68.6 302.4 67.2C304.3 65.8 306.4 67.3 306.6 69.7Z" fill="#7F3E3B"/>
<path d="M323.5 153.4C323.5 153.4 337.3 208.5 343.9 228.9C351.1 251.3 382.6 310.2 382.6 310.2L394.9 304.8C394.9 304.8 371.1 251.2 366 228.8C360.5 204.5 348.7 150.9 348.7 150.9L323.5 153.4Z" fill="#263238"/>
<path d="M378.9 306.2C378.8 306.2 382.9 312 382.9 312L396.7 305.9L393.9 300.2L378.9 306.2Z" fill="#407BFF"/>
<path opacity="0.3" d="M330.7 172.8C340.5 173.7 343 209.6 343.6 228.1C339.6 215.4 333 190.7 328.5 173.2C329.2 172.9 329.9 172.7 330.7 172.8Z" fill="black"/>
<path d="M309.602 154.8C309.602 154.8 311.202 211.3 314.202 233.5C317.302 256.6 328.802 330.5 328.802 330.5H341.202C341.202 330.5 338.302 255.9 336.602 233C334.802 208.1 335.202 152.2 335.202 152.2L309.602 154.8Z" fill="#263238"/>
<path d="M326.299 324.7C326.199 324.7 327.299 332.2 327.299 332.2L342.399 331.7L342.499 324.7H326.299Z" fill="#407BFF"/>
</svg>
