<svg width="211" height="40" viewBox="0 0 211 40" fill="none" xmlns="http://www.w3.org/2000/svg">
<path d="M64.1337 25.5203H57.5519L56.4968 28.6354H52L58.3809 11H63.355L69.7359 28.6354H65.1888L64.1337 25.5203ZM63.0284 22.2042L60.8428 15.748L58.6823 22.2042H63.0284Z" fill="#111827"/>
<path d="M77.3805 28.8363C76.1579 28.8363 75.0693 28.627 74.1147 28.2083C73.1601 27.7896 72.4064 27.2202 71.8537 26.5C71.301 25.7631 70.9912 24.9425 70.9242 24.0381H75.1698C75.22 24.5238 75.4461 24.9174 75.8481 25.2188C76.25 25.5203 76.7441 25.671 77.3302 25.671C77.8662 25.671 78.2765 25.5705 78.5612 25.3696C78.8627 25.1518 79.0134 24.8755 79.0134 24.5405C79.0134 24.1386 78.804 23.8455 78.3853 23.6613C77.9667 23.4603 77.2884 23.2426 76.3505 23.0081C75.3456 22.7737 74.5082 22.5308 73.8383 22.2796C73.1684 22.0116 72.5906 21.6013 72.1049 21.0486C71.6193 20.4792 71.3764 19.7172 71.3764 18.7626C71.3764 17.9587 71.5941 17.2302 72.0296 16.577C72.4818 15.9071 73.1349 15.3795 73.9891 14.9943C74.8599 14.6091 75.8899 14.4165 77.079 14.4165C78.8375 14.4165 80.2192 14.852 81.2241 15.7229C82.2457 16.5937 82.8319 17.7493 82.9826 19.1896H79.0134C78.9464 18.704 78.7287 18.3188 78.3602 18.034C78.0085 17.7493 77.5396 17.607 76.9534 17.607C76.451 17.607 76.0658 17.7075 75.7978 17.9084C75.5299 18.0927 75.3959 18.3523 75.3959 18.6872C75.3959 19.0892 75.6052 19.3906 76.0239 19.5916C76.4594 19.7926 77.1293 19.9935 78.0336 20.1945C79.072 20.4625 79.9178 20.7304 80.5709 20.9984C81.2241 21.2496 81.7935 21.6683 82.2792 22.2545C82.7816 22.8239 83.0412 23.5943 83.058 24.5657C83.058 25.3863 82.8235 26.1232 82.3546 26.7764C81.9024 27.4128 81.2408 27.9152 80.37 28.2837C79.5158 28.6521 78.5193 28.8363 77.3805 28.8363Z" fill="#111827"/>
<path d="M91.3887 28.8363C90.1661 28.8363 89.0775 28.627 88.1229 28.2083C87.1683 27.7896 86.4146 27.2202 85.862 26.5C85.3093 25.7631 84.9995 24.9425 84.9325 24.0381H89.178C89.2283 24.5238 89.4544 24.9174 89.8563 25.2188C90.2582 25.5203 90.7523 25.671 91.3385 25.671C91.8744 25.671 92.2847 25.5705 92.5694 25.3696C92.8709 25.1518 93.0216 24.8755 93.0216 24.5405C93.0216 24.1386 92.8123 23.8455 92.3936 23.6613C91.9749 23.4603 91.2966 23.2426 90.3587 23.0081C89.3539 22.7737 88.5165 22.5308 87.8466 22.2796C87.1767 22.0116 86.5989 21.6013 86.1132 21.0486C85.6275 20.4792 85.3847 19.7172 85.3847 18.7626C85.3847 17.9587 85.6024 17.2302 86.0378 16.577C86.49 15.9071 87.1432 15.3795 87.9973 14.9943C88.8682 14.6091 89.8982 14.4165 91.0873 14.4165C92.8458 14.4165 94.2275 14.852 95.2323 15.7229C96.2539 16.5937 96.8401 17.7493 96.9908 19.1896H93.0216C92.9546 18.704 92.7369 18.3188 92.3685 18.034C92.0168 17.7493 91.5478 17.607 90.9617 17.607C90.4592 17.607 90.074 17.7075 89.8061 17.9084C89.5381 18.0927 89.4041 18.3523 89.4041 18.6872C89.4041 19.0892 89.6135 19.3906 90.0322 19.5916C90.4676 19.7926 91.1375 19.9935 92.0419 20.1945C93.0802 20.4625 93.926 20.7304 94.5792 20.9984C95.2323 21.2496 95.8017 21.6683 96.2874 22.2545C96.7899 22.8239 97.0495 23.5943 97.0662 24.5657C97.0662 25.3863 96.8317 26.1232 96.3628 26.7764C95.9106 27.4128 95.2491 27.9152 94.3782 28.2837C93.5241 28.6521 92.5276 28.8363 91.3887 28.8363Z" fill="#111827"/>
<path d="M112.908 21.4003C112.908 21.8023 112.883 22.221 112.833 22.6564H103.111C103.178 23.5273 103.454 24.1972 103.94 24.6662C104.442 25.1183 105.054 25.3444 105.774 25.3444C106.846 25.3444 107.591 24.8922 108.01 23.9879H112.582C112.347 24.909 111.92 25.738 111.301 26.4749C110.698 27.2118 109.936 27.7896 109.014 28.2083C108.093 28.627 107.063 28.8363 105.925 28.8363C104.551 28.8363 103.329 28.5433 102.257 27.9571C101.185 27.3709 100.348 26.5335 99.7446 25.4449C99.1417 24.3563 98.8402 23.0835 98.8402 21.6264C98.8402 20.1694 99.1333 18.8966 99.7195 17.808C100.322 16.7194 101.16 15.882 102.232 15.2958C103.303 14.7096 104.534 14.4165 105.925 14.4165C107.281 14.4165 108.487 14.7012 109.542 15.2707C110.597 15.8401 111.418 16.6524 112.004 17.7075C112.607 18.7626 112.908 19.9935 112.908 21.4003ZM108.512 20.2699C108.512 19.533 108.261 18.9468 107.758 18.5114C107.256 18.0759 106.628 17.8582 105.874 17.8582C105.154 17.8582 104.543 18.0675 104.04 18.4862C103.555 18.9049 103.253 19.4995 103.136 20.2699H108.512Z" fill="#111827"/>
<path d="M120.877 28.8363C119.655 28.8363 118.566 28.627 117.611 28.2083C116.657 27.7896 115.903 27.2202 115.35 26.5C114.798 25.7631 114.488 24.9425 114.421 24.0381H118.666C118.717 24.5238 118.943 24.9174 119.345 25.2188C119.747 25.5203 120.241 25.671 120.827 25.671C121.363 25.671 121.773 25.5705 122.058 25.3696C122.359 25.1518 122.51 24.8755 122.51 24.5405C122.51 24.1386 122.301 23.8455 121.882 23.6613C121.463 23.4603 120.785 23.2426 119.847 23.0081C118.842 22.7737 118.005 22.5308 117.335 22.2796C116.665 22.0116 116.087 21.6013 115.602 21.0486C115.116 20.4792 114.873 19.7172 114.873 18.7626C114.873 17.9587 115.091 17.2302 115.526 16.577C115.978 15.9071 116.632 15.3795 117.486 14.9943C118.357 14.6091 119.387 14.4165 120.576 14.4165C122.334 14.4165 123.716 14.852 124.721 15.7229C125.742 16.5937 126.329 17.7493 126.479 19.1896H122.51C122.443 18.704 122.225 18.3188 121.857 18.034C121.505 17.7493 121.036 17.607 120.45 17.607C119.948 17.607 119.562 17.7075 119.295 17.9084C119.027 18.0927 118.893 18.3523 118.893 18.6872C118.893 19.0892 119.102 19.3906 119.521 19.5916C119.956 19.7926 120.626 19.9935 121.53 20.1945C122.569 20.4625 123.414 20.7304 124.068 20.9984C124.721 21.2496 125.29 21.6683 125.776 22.2545C126.278 22.8239 126.538 23.5943 126.555 24.5657C126.555 25.3863 126.32 26.1232 125.851 26.7764C125.399 27.4128 124.738 27.9152 123.867 28.2837C123.013 28.6521 122.016 28.8363 120.877 28.8363Z" fill="#111827"/>
<path d="M134.885 28.8363C133.663 28.8363 132.574 28.627 131.62 28.2083C130.665 27.7896 129.911 27.2202 129.359 26.5C128.806 25.7631 128.496 24.9425 128.429 24.0381H132.675C132.725 24.5238 132.951 24.9174 133.353 25.2188C133.755 25.5203 134.249 25.671 134.835 25.671C135.371 25.671 135.781 25.5705 136.066 25.3696C136.368 25.1518 136.518 24.8755 136.518 24.5405C136.518 24.1386 136.309 23.8455 135.89 23.6613C135.472 23.4603 134.793 23.2426 133.855 23.0081C132.851 22.7737 132.013 22.5308 131.343 22.2796C130.673 22.0116 130.096 21.6013 129.61 21.0486C129.124 20.4792 128.881 19.7172 128.881 18.7626C128.881 17.9587 129.099 17.2302 129.535 16.577C129.987 15.9071 130.64 15.3795 131.494 14.9943C132.365 14.6091 133.395 14.4165 134.584 14.4165C136.342 14.4165 137.724 14.852 138.729 15.7229C139.751 16.5937 140.337 17.7493 140.488 19.1896H136.518C136.451 18.704 136.234 18.3188 135.865 18.034C135.513 17.7493 135.045 17.607 134.458 17.607C133.956 17.607 133.571 17.7075 133.303 17.9084C133.035 18.0927 132.901 18.3523 132.901 18.6872C132.901 19.0892 133.11 19.3906 133.529 19.5916C133.964 19.7926 134.634 19.9935 135.539 20.1945C136.577 20.4625 137.423 20.7304 138.076 20.9984C138.729 21.2496 139.298 21.6683 139.784 22.2545C140.287 22.8239 140.546 23.5943 140.563 24.5657C140.563 25.3863 140.328 26.1232 139.859 26.7764C139.407 27.4128 138.746 27.9152 137.875 28.2837C137.021 28.6521 136.024 28.8363 134.885 28.8363Z" fill="#111827"/>
<path d="M161.078 14.4668C162.819 14.4668 164.201 14.9943 165.223 16.0494C166.261 17.1045 166.78 18.57 166.78 20.4457V28.6354H162.51V21.0235C162.51 20.1191 162.267 19.4241 161.781 18.9384C161.312 18.436 160.659 18.1848 159.822 18.1848C158.984 18.1848 158.323 18.436 157.837 18.9384C157.368 19.4241 157.134 20.1191 157.134 21.0235V28.6354H152.863V21.0235C152.863 20.1191 152.62 19.4241 152.134 18.9384C151.665 18.436 151.012 18.1848 150.175 18.1848C149.337 18.1848 148.676 18.436 148.19 18.9384C147.721 19.4241 147.487 20.1191 147.487 21.0235V28.6354H143.191V14.6175H147.487V16.376C147.922 15.7899 148.492 15.3293 149.195 14.9943C149.899 14.6426 150.694 14.4668 151.582 14.4668C152.637 14.4668 153.575 14.6929 154.395 15.1451C155.233 15.5973 155.886 16.242 156.355 17.0794C156.84 16.309 157.502 15.681 158.339 15.1953C159.177 14.7096 160.09 14.4668 161.078 14.4668Z" fill="#111827"/>
<path d="M182.999 21.4003C182.999 21.8023 182.973 22.221 182.923 22.6564H173.201C173.268 23.5273 173.544 24.1972 174.03 24.6662C174.533 25.1183 175.144 25.3444 175.864 25.3444C176.936 25.3444 177.681 24.8922 178.1 23.9879H182.672C182.438 24.909 182.01 25.738 181.391 26.4749C180.788 27.2118 180.026 27.7896 179.105 28.2083C178.184 28.627 177.154 28.8363 176.015 28.8363C174.641 28.8363 173.419 28.5433 172.347 27.9571C171.275 27.3709 170.438 26.5335 169.835 25.4449C169.232 24.3563 168.93 23.0835 168.93 21.6264C168.93 20.1694 169.224 18.8966 169.81 17.808C170.413 16.7194 171.25 15.882 172.322 15.2958C173.394 14.7096 174.625 14.4165 176.015 14.4165C177.371 14.4165 178.577 14.7012 179.632 15.2707C180.687 15.8401 181.508 16.6524 182.094 17.7075C182.697 18.7626 182.999 19.9935 182.999 21.4003ZM178.602 20.2699C178.602 19.533 178.351 18.9468 177.849 18.5114C177.346 18.0759 176.718 17.8582 175.965 17.8582C175.244 17.8582 174.633 18.0675 174.131 18.4862C173.645 18.9049 173.344 19.4995 173.226 20.2699H178.602Z" fill="#111827"/>
<path d="M193.806 14.4668C195.447 14.4668 196.754 15.0027 197.725 16.0746C198.713 17.1297 199.207 18.5867 199.207 20.4457V28.6354H194.937V21.0235C194.937 20.0856 194.694 19.3571 194.208 18.8379C193.722 18.3188 193.069 18.0592 192.249 18.0592C191.428 18.0592 190.775 18.3188 190.289 18.8379C189.803 19.3571 189.561 20.0856 189.561 21.0235V28.6354H185.265V14.6175H189.561V16.4765C189.996 15.8568 190.582 15.3712 191.319 15.0195C192.056 14.651 192.885 14.4668 193.806 14.4668Z" fill="#111827"/>
<path d="M210.005 24.9927V28.6354H207.82C206.262 28.6354 205.048 28.2585 204.177 27.5049C203.306 26.7345 202.871 25.4868 202.871 23.7618V18.1848H201.163V14.6175H202.871V11.201H207.167V14.6175H209.98V18.1848H207.167V23.812C207.167 24.2307 207.267 24.5322 207.468 24.7164C207.669 24.9006 208.004 24.9927 208.473 24.9927H210.005Z" fill="#111827"/>
<rect width="40" height="40" rx="8" fill="#353988"/>
<g filter="url(#filter0_d_2455_4992)">
<path d="M14.0509 28.9149L14.0516 28.9147C16.0584 28.3625 17.5055 27.7775 19.1707 26.8493C21.1642 25.7381 22.7113 24.4963 24.1268 22.8801C25.544 21.2712 26.4992 19.6546 27.2251 17.6221C27.7001 16.2983 27.8677 15.5085 27.7889 14.7282L27.7889 14.7282L27.7879 14.7191C27.7582 14.4713 27.7328 13.6418 27.7243 12.8753C27.7159 11.7101 27.7435 11.4781 27.8704 11.0618L27.8711 11.0593C27.95 10.7954 28.1049 10.4485 28.2723 10.1484C28.3552 9.99981 28.4354 9.87299 28.5037 9.78039C28.521 9.75691 28.5357 9.7381 28.5479 9.72323C28.5578 9.72245 28.5683 9.72165 28.5796 9.72084C28.6945 9.71258 28.8568 9.70479 29.0538 9.69786C29.4464 9.68403 29.9596 9.67416 30.4702 9.6695C30.8661 9.6659 31.2577 9.66546 31.5881 9.66865C31.0618 10.419 30.5608 11.3492 30.1676 12.254C29.7489 13.2171 29.4323 14.1971 29.353 14.9305L29.3527 14.9332C29.3131 15.3202 29.3431 15.7244 29.4404 16.1151L29.4414 16.1188C29.6003 16.7366 29.7054 17.6797 29.7384 18.6509C29.7714 19.6212 29.7308 20.5701 29.6182 21.1984C28.7727 25.866 25.5838 29.1835 21.0301 30.1505C20.7444 30.211 20.0559 30.271 19.3144 30.3051C18.5776 30.3389 17.8661 30.3438 17.5369 30.3108C16.4922 30.1948 14.9226 29.7699 13.8221 29.301C13.8218 29.3008 13.8216 29.3007 13.8213 29.3006L13.4961 29.1604V29.0872V29.0667L14.0509 28.9149Z" fill="white" stroke="white"/>
<path d="M18.7836 20.5956C21.2889 19.9896 23.0914 19.1196 24.5661 17.7766L14.0856 20.5956C14.8742 20.7545 18.0956 20.7639 18.7836 20.5956ZM17.8949 21.1883C18.2997 21.1683 18.6757 21.1365 18.9011 21.0815C20.9815 20.5783 22.6151 19.8899 23.9865 18.8931C23.8302 19.1745 23.6805 19.4274 23.5611 19.6066C22.5695 21.0833 21.2016 22.5075 19.7924 23.5187L19.7924 23.5187L19.7888 23.5213C19.0386 24.0698 17.1693 25.1249 16.4124 25.4357L16.4123 25.4356L16.4013 25.4404C16.2626 25.5013 16.1169 25.5658 15.9957 25.6213C15.8943 25.6677 15.7764 25.7228 15.7044 25.7656C15.699 25.7671 15.6524 25.7815 15.5319 25.7659C15.3847 25.7469 15.1786 25.6893 14.9071 25.577C12.8272 24.705 10.6871 23.0577 9.12382 21.1064C8.87067 20.7889 8.57379 20.3572 8.3403 19.9803C8.22361 19.792 8.12727 19.6246 8.0619 19.4974C8.04804 19.4704 8.03625 19.4466 8.02637 19.4258C8.02667 19.4251 8.02697 19.4245 8.02727 19.4238C8.06432 19.3403 8.11871 19.2304 8.18224 19.1115C8.24899 18.9865 8.31849 18.8652 8.38096 18.7632C8.40145 18.778 8.42345 18.794 8.4471 18.8112L8.44706 18.8113L8.45347 18.8158C9.91351 19.8453 11.8258 20.6251 13.9813 21.0846L13.9813 21.0846L13.9868 21.0857C14.4384 21.1768 15.4922 21.2172 16.4717 21.2183C16.9727 21.2189 17.4732 21.2092 17.8949 21.1883ZM24.9582 17.4051C25.1125 17.2622 25.2422 17.1615 25.3125 17.1259H25.3691L24.9582 17.4051ZM7.98783 19.3341C7.98797 19.3342 7.98888 19.3368 7.99015 19.3416C7.98833 19.3364 7.98769 19.334 7.98783 19.3341ZM7.98984 19.5161C7.98841 19.5218 7.98737 19.525 7.9872 19.5251C7.98704 19.5253 7.98775 19.5224 7.98984 19.5161Z" fill="white" stroke="white"/>
<path d="M12.0126 18.0489L12.0126 18.0488L12.0045 18.0456C11.6927 17.9209 11.573 17.8425 10.3887 16.5126L10.3887 16.5126L10.3875 16.5113C9.66349 15.7042 8.97226 14.8384 8.82345 14.5935C8.73345 14.4454 8.64164 14.2991 8.5654 14.1841C8.53496 14.1382 8.50497 14.0942 8.47728 14.0557C8.52191 13.9647 8.57904 13.8534 8.64192 13.7346C8.71051 13.6051 8.78256 13.4732 8.84937 13.3546C9.00139 13.4254 9.18748 13.5156 9.38776 13.6164L9.38775 13.6164L9.39247 13.6187C11.8801 14.8385 14.6934 15.6974 17.2938 16.0227L17.2944 16.0227C18.9347 16.2259 21.3535 16.1028 22.8448 15.7314C23.1794 15.6495 23.689 15.4804 24.1642 15.3046C24.5342 15.1677 24.9101 15.017 25.1845 14.8888L25.1955 14.9795L24.8624 15.3319C24.8623 15.332 24.8623 15.3321 24.8622 15.3321C23.4233 16.8474 21.1545 18.0465 18.8522 18.5058C18.3233 18.6106 17.5102 18.6864 16.6902 18.7187C15.8696 18.751 15.0853 18.7381 14.6105 18.6781C13.7355 18.5594 12.5348 18.2682 12.0126 18.0489Z" fill="white" stroke="white"/>
</g>
<defs>
<filter id="filter0_d_2455_4992" x="3.5" y="9.1665" width="33" height="29.6665" filterUnits="userSpaceOnUse" color-interpolation-filters="sRGB">
<feFlood flood-opacity="0" result="BackgroundImageFix"/>
<feColorMatrix in="SourceAlpha" type="matrix" values="0 0 0 0 0 0 0 0 0 0 0 0 0 0 0 0 0 0 127 0" result="hardAlpha"/>
<feOffset dy="4"/>
<feGaussianBlur stdDeviation="2"/>
<feComposite in2="hardAlpha" operator="out"/>
<feColorMatrix type="matrix" values="0 0 0 0 0 0 0 0 0 0 0 0 0 0 0 0 0 0 0.25 0"/>
<feBlend mode="normal" in2="BackgroundImageFix" result="effect1_dropShadow_2455_4992"/>
<feBlend mode="normal" in="SourceGraphic" in2="effect1_dropShadow_2455_4992" result="shape"/>
</filter>
</defs>
</svg>
