<svg width="22" height="22" viewBox="0 0 22 22" fill="none" xmlns="http://www.w3.org/2000/svg">
<path d="M10.6334 15.3312L5.54587 10.2437L6.62295 9.16667L10.6334 13.2L19.525 4.30833L20.5792 5.38542L10.6334 15.3312ZM4.23962 19.5708C3.73545 19.5708 3.30767 19.3951 2.95628 19.0437C2.60489 18.6924 2.4292 18.2646 2.4292 17.7604V4.23958C2.4292 3.73542 2.60489 3.30382 2.95628 2.94479C3.30767 2.58576 3.73545 2.40625 4.23962 2.40625H17.7604C17.9743 2.40625 18.1959 2.45972 18.425 2.56667C18.6542 2.67361 18.8375 2.78819 18.975 2.91042L17.5542 4.33125V4.23958H4.23962V17.7604H17.7604V10.1292L19.5938 8.29583V17.7604C19.5938 18.2646 19.4143 18.6924 19.0552 19.0437C18.6962 19.3951 18.2646 19.5708 17.7604 19.5708H4.23962Z" fill="#0F1335"/>
</svg>
