<svg width="24" height="24" viewBox="0 0 24 24" fill="none" xmlns="http://www.w3.org/2000/svg">
<path d="M12.3999 22.6016L12.2249 19.5516H11.1749C8.75824 19.4349 6.7124 18.4932 5.0374 16.7266C3.3624 14.9599 2.5249 12.8682 2.5249 10.4516C2.5249 7.9349 3.41657 5.78906 5.1999 4.01406C6.98324 2.23906 9.14157 1.35156 11.6749 1.35156C12.9249 1.35156 14.0832 1.58073 15.1499 2.03906C16.2166 2.4974 17.1457 3.13073 17.9374 3.93906C18.7291 4.7474 19.3541 5.70156 19.8124 6.80156C20.2707 7.90156 20.4999 9.10156 20.4999 10.4016C20.4999 12.8349 19.7582 15.1391 18.2749 17.3141C16.7916 19.4891 14.8332 21.2516 12.3999 22.6016ZM11.6999 16.3766C11.9999 16.3766 12.2541 16.2682 12.4624 16.0516C12.6707 15.8349 12.7749 15.5766 12.7749 15.2766C12.7749 14.9766 12.6707 14.7224 12.4624 14.5141C12.2541 14.3057 11.9999 14.2016 11.6999 14.2016C11.3832 14.2016 11.1207 14.3057 10.9124 14.5141C10.7041 14.7224 10.5999 14.9766 10.5999 15.2766C10.5999 15.5766 10.7041 15.8349 10.9124 16.0516C11.1207 16.2682 11.3832 16.3766 11.6999 16.3766ZM11.6249 12.8766C11.8249 12.8766 11.9999 12.8099 12.1499 12.6766C12.2999 12.5432 12.3999 12.3599 12.4499 12.1266C12.5166 11.9099 12.6291 11.6932 12.7874 11.4766C12.9457 11.2599 13.1666 11.0182 13.4499 10.7516C13.9166 10.2849 14.2416 9.86406 14.4249 9.48906C14.6082 9.11406 14.6999 8.69323 14.6999 8.22656C14.6999 7.42656 14.4457 6.7724 13.9374 6.26406C13.4291 5.75573 12.7166 5.50156 11.7999 5.50156C11.1832 5.50156 10.6207 5.64323 10.1124 5.92656C9.60407 6.2099 9.19157 6.59323 8.8749 7.07656C8.74157 7.2599 8.72074 7.45156 8.8124 7.65156C8.90407 7.85156 9.0499 7.99323 9.2499 8.07656C9.41657 8.14323 9.59157 8.14323 9.7749 8.07656C9.95824 8.0099 10.1166 7.89323 10.2499 7.72656C10.4166 7.47656 10.6291 7.2974 10.8874 7.18906C11.1457 7.08073 11.4166 7.02656 11.6999 7.02656C12.1666 7.02656 12.5291 7.1349 12.7874 7.35156C13.0457 7.56823 13.1749 7.8599 13.1749 8.22656C13.1749 8.5099 13.0832 8.81406 12.8999 9.13906C12.7166 9.46406 12.4082 9.85156 11.9749 10.3016C11.6249 10.6516 11.3666 10.9557 11.1999 11.2141C11.0332 11.4724 10.9332 11.7766 10.8999 12.1266C10.8666 12.3266 10.9249 12.5016 11.0749 12.6516C11.2249 12.8016 11.4082 12.8766 11.6249 12.8766ZM14.1249 17.6016V19.1516C15.4916 18.0016 16.5624 16.6432 17.3374 15.0766C18.1124 13.5099 18.4999 11.9516 18.4999 10.4016C18.4999 8.3349 17.8541 6.64323 16.5624 5.32656C15.2707 4.0099 13.6416 3.35156 11.6749 3.35156C9.6749 3.35156 7.97907 4.04323 6.5874 5.42656C5.19574 6.8099 4.4999 8.4849 4.4999 10.4516C4.4999 12.4349 5.19574 14.1224 6.5874 15.5141C7.97907 16.9057 9.65824 17.6016 11.6249 17.6016H14.1249Z" fill="#0F1335"/>
</svg>
