<svg width="16" height="20" viewBox="0 0 16 20" fill="none" xmlns="http://www.w3.org/2000/svg">
<path d="M8.55 9.15H7.4V14.2L5.2 12L4.4 12.8L8 16.3L11.55 12.75L10.8 12L8.55 14.2V9.15ZM1.95 19.5C1.55 19.5 1.2 19.35 0.95 19.05C0.7 18.75 0.5 18.45 0.5 18.05V1.95C0.5 1.55 0.65 1.2 0.95 0.95C1.25 0.7 1.55 0.5 1.95 0.5H10.65L15.5 5.35V18.05C15.5 18.45 15.35 18.8 15.05 19.05C14.75 19.35 14.45 19.5 14.05 19.5H1.95ZM10.05 5.9V1.65H1.95C1.85 1.65 1.8 1.7 1.75 1.75C1.7 1.8 1.65 1.9 1.65 1.95V18.05C1.65 18.15 1.7 18.2 1.75 18.25C1.8 18.3 1.9 18.35 1.95 18.35H14.05C14.15 18.35 14.2 18.3 14.25 18.25C14.3 18.2 14.35 18.1 14.35 18.05V5.9H10.05Z" fill="#1F2937"/>
</svg>
