<svg width="400" height="400" viewBox="0 0 400 400" fill="none" xmlns="http://www.w3.org/2000/svg">
<g clip-path="url(#clip0_3013_4207)">
<path d="M8.16406 330.539C8.16406 333.363 94.262 335.649 200.474 335.649C306.686 335.649 392.784 333.363 392.784 330.539C392.784 327.714 306.686 325.429 200.474 325.429C94.262 325.429 8.16406 327.722 8.16406 330.539Z" fill="#D5D8EF"/>
<path d="M310.336 86.7592H148.425C146.622 86.7592 145.16 88.2211 145.16 90.0245V327.739C145.16 329.542 146.622 331.004 148.425 331.004H310.336C312.139 331.004 313.601 329.542 313.601 327.739V90.0245C313.601 88.2211 312.139 86.7592 310.336 86.7592Z" fill="#1F143F"/>
<path d="M307.453 86.7592H145.543C143.739 86.7592 142.277 88.2211 142.277 90.0245V327.739C142.277 329.542 143.739 331.004 145.543 331.004H307.453C309.256 331.004 310.718 329.542 310.718 327.739V90.0245C310.718 88.2211 309.256 86.7592 307.453 86.7592Z" fill="#353988"/>
<path d="M302.229 97.3387H156.531V320.433H302.229V97.3387Z" fill="#C1C6E0"/>
<path d="M299.346 97.3387H153.648V320.433H299.346V97.3387Z" fill="white"/>
<path d="M195.207 80.9551H257.786C260.039 80.9551 261.868 82.7836 261.868 85.0367V102.367H191.125V85.0367C191.125 82.7836 192.954 80.9551 195.207 80.9551Z" fill="#1F143F"/>
<path d="M226.497 64.4897C217.403 64.4897 210.031 71.8612 210.031 80.9551C210.031 90.0489 217.403 97.4204 226.497 97.4204C235.59 97.4204 242.962 90.0489 242.962 80.9551C242.962 71.8612 235.599 64.4897 226.497 64.4897ZM226.497 89.1918C221.95 89.1918 218.26 85.502 218.26 80.9551C218.26 76.4081 221.95 72.7183 226.497 72.7183C231.043 72.7183 234.733 76.4081 234.733 80.9551C234.733 85.502 231.043 89.1918 226.497 89.1918Z" fill="#1F143F"/>
<path d="M276.785 142.408H262.328C261.426 142.408 260.695 143.139 260.695 144.041V158.498C260.695 159.4 261.426 160.131 262.328 160.131H276.785C277.687 160.131 278.418 159.4 278.418 158.498V144.041C278.418 143.139 277.687 142.408 276.785 142.408Z" stroke="#D5D8EF" stroke-miterlimit="10"/>
<path d="M255.707 148.808C258.629 151.731 261.552 154.653 264.474 157.575C265.25 158.351 266.58 158.359 267.364 157.575C273.364 151.575 279.372 145.567 285.372 139.567C286.221 138.718 287.062 137.877 287.911 137.029C289.772 135.167 286.882 132.286 285.021 134.139C279.021 140.139 273.013 146.147 267.013 152.147C266.164 152.996 265.323 153.837 264.474 154.686H267.364C264.441 151.763 261.519 148.841 258.597 145.918C256.735 144.057 253.854 146.947 255.707 148.808Z" fill="#E95A4F"/>
<path d="M276.785 176.784H262.328C261.426 176.784 260.695 177.515 260.695 178.416V192.873C260.695 193.775 261.426 194.506 262.328 194.506H276.785C277.687 194.506 278.418 193.775 278.418 192.873V178.416C278.418 177.515 277.687 176.784 276.785 176.784Z" stroke="#D5D8EF" stroke-miterlimit="10"/>
<path d="M255.707 183.184L264.474 191.951C265.25 192.726 266.58 192.735 267.364 191.951C273.364 185.951 279.372 179.943 285.372 173.943C286.221 173.094 287.062 172.253 287.911 171.404C289.772 169.543 286.882 166.661 285.021 168.514C279.021 174.514 273.013 180.522 267.013 186.522C266.164 187.371 265.323 188.212 264.474 189.061H267.364L258.597 180.294C256.735 178.433 253.854 181.322 255.707 183.184Z" fill="#E95A4F"/>
<path d="M276.785 209.559H262.328C261.426 209.559 260.695 210.29 260.695 211.192V225.649C260.695 226.551 261.426 227.282 262.328 227.282H276.785C277.687 227.282 278.418 226.551 278.418 225.649V211.192C278.418 210.29 277.687 209.559 276.785 209.559Z" stroke="#D5D8EF" stroke-miterlimit="10"/>
<path d="M255.707 215.967C258.629 218.89 261.552 221.812 264.474 224.735C265.25 225.51 266.58 225.518 267.364 224.735C273.364 218.735 279.372 212.726 285.372 206.726C286.221 205.877 287.062 205.037 287.911 204.188C289.772 202.326 286.882 199.445 285.021 201.298C279.021 207.298 273.013 213.306 267.013 219.306C266.164 220.155 265.323 220.996 264.474 221.845H267.364C264.441 218.922 261.519 216 258.597 213.077C256.735 211.216 253.854 214.106 255.707 215.967Z" fill="#E95A4F"/>
<path d="M276.785 242.873H262.328C261.426 242.873 260.695 243.604 260.695 244.506V258.963C260.695 259.865 261.426 260.596 262.328 260.596H276.785C277.687 260.596 278.418 259.865 278.418 258.963V244.506C278.418 243.604 277.687 242.873 276.785 242.873Z" stroke="#D5D8EF" stroke-miterlimit="10"/>
<path d="M255.707 249.273C258.629 252.196 261.552 255.118 264.474 258.041C265.25 258.816 266.58 258.824 267.364 258.041C273.364 252.041 279.372 246.033 285.372 240.033C286.221 239.184 287.062 238.343 287.911 237.494C289.772 235.633 286.882 232.751 285.021 234.604C279.021 240.604 273.013 246.612 267.013 252.612C266.164 253.461 265.323 254.302 264.474 255.151H267.364C264.441 252.229 261.519 249.306 258.597 246.384C256.735 244.522 253.854 247.412 255.707 249.273Z" fill="#E95A4F"/>
<path d="M247.119 141.608H173.976C173.526 141.608 173.16 141.974 173.16 142.424V143.714C173.16 144.165 173.526 144.531 173.976 144.531H247.119C247.57 144.531 247.936 144.165 247.936 143.714V142.424C247.936 141.974 247.57 141.608 247.119 141.608Z" fill="#C1C6E0"/>
<path d="M247.119 149.143H173.976C173.526 149.143 173.16 149.508 173.16 149.959V151.249C173.16 151.7 173.526 152.065 173.976 152.065H247.119C247.57 152.065 247.936 151.7 247.936 151.249V149.959C247.936 149.508 247.57 149.143 247.119 149.143Z" fill="#C1C6E0"/>
<path d="M229.487 156.669H173.976C173.526 156.669 173.16 157.035 173.16 157.486V158.775C173.16 159.226 173.526 159.592 173.976 159.592H229.487C229.938 159.592 230.303 159.226 230.303 158.775V157.486C230.303 157.035 229.938 156.669 229.487 156.669Z" fill="#C1C6E0"/>
<path d="M247.119 175.984H173.976C173.526 175.984 173.16 176.349 173.16 176.8V178.09C173.16 178.541 173.526 178.906 173.976 178.906H247.119C247.57 178.906 247.936 178.541 247.936 178.09V176.8C247.936 176.349 247.57 175.984 247.119 175.984Z" fill="#C1C6E0"/>
<path d="M247.119 183.518H173.976C173.526 183.518 173.16 183.884 173.16 184.335V185.624C173.16 186.075 173.526 186.441 173.976 186.441H247.119C247.57 186.441 247.936 186.075 247.936 185.624V184.335C247.936 183.884 247.57 183.518 247.119 183.518Z" fill="#C1C6E0"/>
<path d="M229.487 191.045H173.976C173.526 191.045 173.16 191.41 173.16 191.861V193.151C173.16 193.602 173.526 193.967 173.976 193.967H229.487C229.938 193.967 230.303 193.602 230.303 193.151V191.861C230.303 191.41 229.938 191.045 229.487 191.045Z" fill="#C1C6E0"/>
<path d="M247.119 208.767H173.976C173.526 208.767 173.16 209.133 173.16 209.584V210.873C173.16 211.324 173.526 211.69 173.976 211.69H247.119C247.57 211.69 247.936 211.324 247.936 210.873V209.584C247.936 209.133 247.57 208.767 247.119 208.767Z" fill="#C1C6E0"/>
<path d="M247.119 216.294H173.976C173.526 216.294 173.16 216.659 173.16 217.11V218.4C173.16 218.851 173.526 219.216 173.976 219.216H247.119C247.57 219.216 247.936 218.851 247.936 218.4V217.11C247.936 216.659 247.57 216.294 247.119 216.294Z" fill="#C1C6E0"/>
<path d="M229.487 223.828H173.976C173.526 223.828 173.16 224.194 173.16 224.645V225.935C173.16 226.385 173.526 226.751 173.976 226.751H229.487C229.938 226.751 230.303 226.385 230.303 225.935V224.645C230.303 224.194 229.938 223.828 229.487 223.828Z" fill="#C1C6E0"/>
<path d="M247.119 242.073H173.976C173.526 242.073 173.16 242.439 173.16 242.89V244.18C173.16 244.63 173.526 244.996 173.976 244.996H247.119C247.57 244.996 247.936 244.63 247.936 244.18V242.89C247.936 242.439 247.57 242.073 247.119 242.073Z" fill="#C1C6E0"/>
<path d="M247.119 249.608H173.976C173.526 249.608 173.16 249.974 173.16 250.424V251.714C173.16 252.165 173.526 252.531 173.976 252.531H247.119C247.57 252.531 247.936 252.165 247.936 251.714V250.424C247.936 249.974 247.57 249.608 247.119 249.608Z" fill="#C1C6E0"/>
<path d="M229.487 257.143H173.976C173.526 257.143 173.16 257.508 173.16 257.959V259.249C173.16 259.7 173.526 260.065 173.976 260.065H229.487C229.938 260.065 230.303 259.7 230.303 259.249V257.959C230.303 257.508 229.938 257.143 229.487 257.143Z" fill="#C1C6E0"/>
<path d="M151.061 152.8C154.759 153.094 161.355 155.657 160.049 160.58C159.992 160.8 159.91 161.02 159.739 161.167C159.51 161.371 159.176 161.388 158.874 161.396C157.225 161.445 155.429 161.331 154.172 160.261C153.38 159.592 152.882 158.612 152.041 158.008C151.551 157.657 150.98 157.453 150.416 157.257C149.437 156.914 148.457 156.571 147.486 156.228C146.972 156.049 146.384 155.796 146.229 155.273C146.057 154.702 146.506 154.122 146.988 153.771C148.139 152.931 149.649 152.677 151.069 152.792L151.061 152.8Z" fill="#1F143F"/>
<path d="M65.1543 331.061C65.1543 331.061 65.1951 331.061 65.2114 331.069C66.7543 331.38 68.3298 331.322 69.8971 331.339C72.7461 331.363 75.5788 331.388 78.4277 331.265C80.1747 331.184 80.8849 330.318 81.2114 328.694C81.5543 327.004 81.6767 325.273 81.5869 323.551C81.5788 323.388 81.5624 323.208 81.4808 323.069C81.3665 322.89 81.1543 322.8 80.9584 322.726C80.2645 322.473 79.5461 322.302 78.8114 322.22C78.3053 322.163 77.3828 321.984 76.9584 322.302C76.5339 322.62 76.2073 323.371 75.9135 323.812C75.5379 324.367 75.1461 324.922 74.6563 325.396C73.7094 326.318 72.4767 326.89 71.2114 327.273C69.9461 327.657 68.64 327.861 67.3584 328.163C66.4033 328.384 65.44 328.669 64.64 329.249C64.3135 329.486 63.9951 329.845 64.0441 330.245C64.1094 330.735 64.6645 330.971 65.1543 331.077V331.061Z" fill="#1F143F"/>
<path d="M134.785 331.061C134.785 331.061 134.744 331.061 134.728 331.069C133.185 331.38 131.61 331.322 130.042 331.339C127.193 331.363 124.361 331.388 121.512 331.265C119.765 331.184 119.055 330.318 118.728 328.694C118.385 327.004 118.263 325.273 118.353 323.551C118.361 323.388 118.377 323.208 118.459 323.069C118.573 322.89 118.785 322.8 118.981 322.726C119.675 322.473 120.393 322.302 121.128 322.22C121.634 322.163 122.557 321.984 122.981 322.302C123.406 322.62 123.732 323.371 124.026 323.812C124.41 324.367 124.793 324.922 125.283 325.396C126.23 326.318 127.463 326.89 128.728 327.273C129.993 327.657 131.3 327.861 132.581 328.163C133.536 328.384 134.5 328.669 135.3 329.249C135.626 329.486 135.944 329.845 135.895 330.245C135.83 330.735 135.275 330.971 134.785 331.077V331.061Z" fill="#1F143F"/>
<path d="M100.27 141.926C100.246 142.351 100.197 142.775 100.099 143.192C99.6499 145.061 98.2703 146.441 97.2581 148.016C96.3928 149.355 96.205 151.045 96.4418 152.596C96.9479 155.926 98.9561 159.061 101.176 161.518C101.65 162.049 102.197 162.718 102.809 163.086C103.519 163.518 104.483 163.747 105.266 164.008C107.495 164.751 109.805 165.249 112.14 165.486C113.291 165.608 114.442 165.657 115.593 165.673C116.646 165.69 117.666 165.086 118.613 164.62C119.699 164.09 120.744 163.437 121.642 162.62C122.597 161.747 123.364 160.686 124.115 159.633C124.695 158.816 125.283 157.959 125.487 156.98C125.74 155.812 125.438 154.539 125.879 153.42C126.156 152.71 126.695 152.147 127.111 151.51C128.474 149.388 126.54 146.824 127.65 144.612C128.344 143.241 129.74 142.4 130.336 140.971C130.899 139.624 130.883 138.024 130.336 136.677C129.413 134.441 127.323 132.882 125.103 131.91C122.572 130.808 119.364 130.433 117.242 132.204C116.793 132.58 116.409 133.037 115.985 133.437C112.556 136.661 108.115 134.09 104.172 135.575C102.532 136.188 101.079 137.469 100.597 139.151C100.336 140.049 100.36 140.988 100.295 141.926H100.27Z" fill="#1F143F"/>
<path d="M216.2 156.963L185.555 152.408L188.151 169.755L216.2 156.963Z" fill="#EEEAED"/>
<path d="M204.386 160.971C204.647 162.024 205.088 162.988 205.709 163.771C207.864 166.522 212.974 164.694 215.513 163.543C218.509 162.188 220.615 159.567 220.9 156.245C220.974 155.339 220.86 154.4 220.411 153.608C219.415 151.861 216.958 151.502 215.178 151.102C212.998 150.612 210.705 150.539 208.549 151.184C204.778 152.318 203.431 157.167 204.378 160.955L204.386 160.971Z" fill="#E95A4F"/>
<path d="M184.754 152.375L48.4029 169.584L46.7539 188.571L187.529 169.935L184.754 152.375Z" fill="#FFBB00"/>
<path opacity="0.2" d="M45.4219 175.837L185.699 158.384L184.752 152.375L48.4015 169.584L45.4219 175.837Z" fill="white"/>
<path opacity="0.2" d="M46.1406 182.735L186.704 164.751L187.528 169.935L46.7529 188.571L46.1406 182.735Z" fill="#231F20"/>
<path d="M48.4028 169.584L50.8192 188.016L31.7824 190.588C30.0518 190.824 28.46 189.608 28.2314 187.877L26.509 175.159C26.2722 173.396 27.5375 171.78 29.309 171.592L48.4028 169.584Z" fill="#68838C"/>
<path d="M34.0753 168.98L37.0385 191.216L27.2345 191.91L24.0508 171.314L34.0753 168.98Z" fill="#C95B59"/>
<path d="M38.3945 168.629L41.4149 191.257L46.2149 190.882L43.0231 168.237" stroke="#506D75" stroke-miterlimit="10"/>
<path d="M187.261 164.833C185.595 165.314 183.824 164.245 183.31 162.441C182.795 160.645 183.726 158.792 185.391 158.318C187.056 157.845 188.828 158.906 189.342 160.71C189.856 162.506 188.926 164.359 187.261 164.833Z" fill="#EEEAED"/>
<path d="M187.862 169.837C186.343 170.269 184.784 169.469 184.376 168.049C183.968 166.629 184.866 165.126 186.376 164.686C187.894 164.253 189.453 165.053 189.862 166.473C190.27 167.894 189.372 169.396 187.862 169.837Z" fill="#EEEAED"/>
<path d="M186.075 158.392C184.556 158.824 182.948 157.853 182.483 156.22C182.009 154.588 182.858 152.914 184.377 152.473C185.895 152.041 187.503 153.012 187.968 154.645C188.442 156.278 187.593 157.951 186.075 158.392Z" fill="#EEEAED"/>
<path d="M83.9291 294.065C86.9332 281.673 89.7169 269.233 91.325 256.588C91.8393 252.539 92.3373 248.482 92.9006 244.441C93.5128 240.065 94.2148 235.902 95.0802 229.69C95.3985 227.445 100.035 227.486 102.247 226.971C107.758 225.698 113.439 226.367 119.031 226.465C121.088 226.498 123.88 225.633 125.235 227.437C126.68 229.363 126.647 232.751 126.778 235.037C127.929 255.339 125.496 275.6 124.925 295.878C124.688 304.392 124.835 312.841 125.26 321.347C125.341 323.029 124.925 324.694 123.007 324.947C122.125 325.061 120.329 324.98 119.529 324.514C117.717 323.469 116.582 320.024 115.962 318.196C115.072 315.559 114.59 312.808 114.117 310.082C113.243 305.02 112.819 299.894 112.468 294.775C111.35 278.098 110.484 267.331 111.725 249.192C110.027 258.947 110.068 265.322 107.072 274.767C104.231 283.722 100.092 292.188 95.8148 300.522C93.4393 305.143 91.1863 309.829 88.6067 314.343C87.3169 316.596 85.9536 318.808 84.4597 320.931C83.1455 322.792 82.1169 324.686 79.6516 324.971C78.5904 325.094 77.521 324.971 76.4597 324.841C76.1659 324.808 75.8312 324.743 75.6924 324.482C75.6026 324.318 75.6271 324.114 75.6516 323.935C76.3781 318.98 78.8353 314.131 80.1659 309.282C81.5455 304.245 82.6965 299.143 83.9291 294.065Z" fill="#4266B0"/>
<path d="M93.0213 230.171C93.3315 229.951 93.6907 229.78 94.0499 229.633C94.7601 229.347 95.4866 229.118 96.2376 228.955C97.9764 228.571 97.8295 229.608 98.1723 230.816C98.5886 232.269 99.4621 233.706 100.017 235.126C100.629 236.686 101.748 238.041 99.9519 239.061C99.0376 239.575 98.0172 239.902 96.9723 240.008C96.7682 240.024 96.556 240.041 96.3682 239.959C96.1886 239.886 96.058 239.731 95.9274 239.584C95.1274 238.612 94.3437 237.543 93.6172 236.514C92.5723 235.037 91.7233 233.78 92.0335 231.869C92.0907 231.518 92.1886 231.167 92.3682 230.865C92.5315 230.588 92.7601 230.367 93.0213 230.188V230.171Z" fill="#FAB594"/>
<path d="M93.9621 240.694C96.2805 240.841 98.4928 240.759 100.46 239.412C102.207 238.212 103.448 236.457 104.264 234.522C104.468 234.041 103.676 233.828 103.481 234.302C102.738 236.065 101.546 237.714 99.9377 238.775C99.2193 239.249 98.4356 239.6 97.5866 239.78C96.3948 240.033 95.1621 239.943 93.9621 239.869C93.4397 239.837 93.4397 240.653 93.9621 240.686V240.694Z" fill="#4C83C3"/>
<path d="M126.425 243.747C125.348 243.926 124.401 243.894 123.625 243.053C123.078 242.457 122.695 241.722 122.36 240.996C121.348 238.767 120.825 236.302 120.45 233.894C120.368 233.38 119.584 233.6 119.666 234.114C120.082 236.751 120.67 239.461 121.878 241.861C122.246 242.596 122.703 243.355 123.323 243.902C124.295 244.767 125.438 244.743 126.646 244.539C127.16 244.449 126.94 243.665 126.425 243.755V243.747Z" fill="#4C83C3"/>
<path opacity="0.2" d="M119.135 226.465C119.07 226.465 118.996 226.465 118.931 226.465C113.339 226.375 107.657 225.698 102.147 226.971C99.943 227.486 95.2981 227.445 94.9797 229.69C94.7267 231.486 94.4899 233.11 94.2695 234.612C95.2736 235.445 96.5961 236.057 97.592 236.473C101.265 238.016 105.159 238.955 109.078 239.624C113.576 240.392 119.706 239.624 122.033 244.506C123.127 246.8 123.192 249.429 123.233 251.959C123.445 263.861 123.665 276.049 122.629 288.016C122.098 294.114 121.241 300.196 119.902 306.18C118.849 310.898 117.045 316 116.874 320.955C117.51 322.424 118.343 323.894 119.421 324.506C120.221 324.963 122.016 325.053 122.898 324.939C124.816 324.694 125.233 323.029 125.151 321.339C124.727 312.833 124.58 304.384 124.816 295.869C125.388 275.592 127.821 255.331 126.67 235.029C126.612 234.049 126.588 232.857 126.457 231.673C124.67 229.249 122.008 227.502 119.119 226.457L119.135 226.465Z" fill="#231F20"/>
<path d="M128.697 177.518C128.166 177.812 127.676 178.163 127.252 178.604C125.505 180.433 126.06 183.894 128.452 184.939C131.317 186.188 134.786 185.339 137.652 184.547C144.493 182.669 150.925 179.649 157.129 176.253C158.019 175.763 159.382 175.2 160.386 174.424C160.876 174.049 161.268 173.624 161.505 173.135L128.688 177.518H128.697Z" fill="#FAB594"/>
<path d="M129.446 189.861C128.931 187.306 128.213 184.8 127.217 182.375C126.09 179.641 124.246 176.351 121.617 174.767C119.16 173.282 114.319 174.702 111.593 175.331C109.029 175.926 105.168 176.735 103.086 178.449C101.168 180.033 101.38 184 101.609 186.294C101.878 188.931 102.523 191.526 102.752 194.163C103.176 198.988 102.221 203.828 101.078 208.531C99.715 214.163 98.066 219.747 95.8946 225.126C95.5762 225.926 95.2333 226.759 95.3231 227.608C95.4701 229.069 96.7925 230.098 98.0578 230.849C106.384 235.78 116.572 235.02 125.919 234.563C126.695 234.522 127.511 234.465 128.148 234.016C128.939 233.461 129.242 232.441 129.454 231.494C130.613 226.367 130.646 221.069 130.629 215.812C130.588 207.29 131.127 198.31 129.429 189.861H129.446Z" fill="#DFEAE5"/>
<path d="M115.163 177.298C113.293 176.726 111.449 176.098 109.628 175.396C109.44 175.322 109.244 175.249 109.106 175.102C108.722 174.71 108.795 173.845 108.763 173.331C108.722 172.661 108.746 171.984 108.795 171.314C108.885 170.09 109.089 168.865 109.081 167.633C109.081 166.645 109.081 165.616 109.53 164.735C110.069 163.682 111.187 163.02 112.338 162.743C113.489 162.465 114.689 162.531 115.873 162.588C116.216 162.604 116.583 162.637 116.844 162.857C117.718 163.608 117.514 165.086 117.628 166.114C117.791 167.608 118.126 169.086 118.453 170.547C118.608 171.233 118.82 171.902 118.983 172.58C119.114 173.118 119.391 173.829 119.179 174.351C118.714 175.518 117.693 176.58 116.697 177.306C116.567 177.404 116.42 177.502 116.257 177.526C116.085 177.551 115.914 177.502 115.751 177.453C115.563 177.396 115.375 177.339 115.187 177.282L115.163 177.298Z" fill="#FAB594"/>
<path d="M110.453 170.743C112.779 172.228 116.045 173.118 118.804 172.335C118.689 171.747 118.575 171.151 118.445 170.555C118.118 169.086 117.783 167.616 117.62 166.122C117.514 165.094 117.71 163.616 116.836 162.865C116.575 162.645 116.208 162.612 115.865 162.596C114.681 162.531 113.481 162.473 112.33 162.751C111.179 163.028 110.061 163.69 109.522 164.743C109.073 165.624 109.065 166.653 109.073 167.641C109.073 168.277 109.04 168.963 109.008 169.673C109.465 170.065 109.947 170.424 110.453 170.751V170.743Z" fill="#EB977D"/>
<path d="M103.831 158.016C104.435 162.277 106.786 166.359 110.452 168.71C113.26 170.506 117.431 171.437 120.444 169.6C124.484 167.135 125.301 161.143 125.195 156.833C125.072 151.747 123.072 146.049 118.141 143.78C114.672 142.188 109.244 142.024 106.762 145.347C104.199 148.784 103.203 153.575 103.831 158.016Z" fill="#FAB594"/>
<path d="M151.561 154.416C153.512 156.22 154.883 158.506 152.875 159.69C152.222 160.073 151.422 159.469 151.006 158.833C150.598 158.196 150.214 157.404 149.471 157.233C148.9 157.102 148.32 157.404 147.814 157.698C145.896 158.792 143.985 159.886 142.067 160.98C141.757 161.151 141.447 161.331 141.104 161.42C140.034 161.69 138.883 160.963 138.442 159.951C138.002 158.939 138.173 157.747 138.647 156.743C140.312 153.192 142.793 152.833 146.32 152.71C148.402 152.637 150.002 152.98 151.561 154.416Z" fill="#FAB594"/>
<path d="M119.464 143.551C118.411 143.673 117.382 144.057 116.509 144.645C114.746 145.837 113.652 147.804 112.068 149.224C110.574 150.563 108.688 151.371 106.876 152.229C106.533 152.392 106.182 152.563 105.954 152.857C105.652 153.241 105.603 153.755 105.635 154.237C105.799 156.963 107.627 159.38 106.223 162.106C106.076 162.392 105.897 162.661 105.644 162.857C104.084 164.016 102.688 161.094 102.133 160.024C101.309 158.433 100.803 156.669 100.631 154.89C100.288 151.314 100.982 146.588 103.848 144.188C106.623 141.853 110.133 140.31 113.79 140.286C115.015 140.286 116.305 140.449 117.48 140.792C118.182 140.996 118.672 141.273 119.219 141.739C119.546 142.016 119.872 142.204 120.125 142.563C120.182 142.637 120.566 143.51 120.541 143.51C120.19 143.494 119.831 143.51 119.48 143.551H119.464Z" fill="#1F143F"/>
<path d="M113.928 163.029C115.487 162.898 116.989 162.922 118.532 162.58C120.083 162.229 121.593 161.682 122.998 160.939C122.998 160.939 122.851 162.596 122.802 162.767C122.606 163.429 122.295 164.073 121.887 164.629C120.557 166.441 117.536 166.955 115.642 165.755C115.136 165.437 114.712 164.996 114.402 164.49C114.344 164.392 113.74 163.037 113.92 163.02L113.928 163.029Z" fill="white"/>
<path d="M119.358 150.906C120.558 150.318 122.289 150.171 123.227 151.29C123.366 151.461 123.66 151.437 123.807 151.29C123.97 151.126 123.946 150.882 123.807 150.71C122.615 149.298 120.46 149.461 118.942 150.204C118.746 150.302 118.689 150.58 118.795 150.759C118.909 150.963 119.154 151.004 119.35 150.906H119.358Z" fill="#1F143F"/>
<g opacity="0.2">
<path d="M111.292 249.877C110.827 251.38 110.476 252.947 110.059 254.473C108.141 261.42 105.676 268.482 102.157 274.89C98.3043 281.902 92.8757 287.412 87.741 293.453C85.9288 295.584 84.141 297.796 82.492 300.09C81.7574 303.159 81.0063 306.229 80.1737 309.282C78.8431 314.131 76.3859 318.971 75.6594 323.935C75.6349 324.122 75.6104 324.318 75.7002 324.482C75.839 324.743 76.1737 324.808 76.4676 324.841C77.5288 324.963 78.5982 325.094 79.6594 324.971C82.1165 324.686 83.1533 322.792 84.4676 320.931C85.9614 318.808 87.3247 316.596 88.6145 314.343C91.1941 309.829 93.4471 305.143 95.8227 300.522C100.1 292.188 104.239 283.722 107.08 274.767C110.076 265.322 110.043 258.955 111.733 249.192C111.635 249.192 111.341 249.78 111.308 249.877H111.292Z" fill="#231F20"/>
<path d="M111.716 249.192C111.708 249.314 111.7 249.437 111.691 249.551C111.732 249.371 111.765 249.192 111.716 249.192Z" fill="#231F20"/>
</g>
<path d="M110.981 190.931C110.997 192.22 111.022 193.502 111.038 194.792C111.046 195.608 111.063 196.424 110.858 197.216C110.654 198 110.214 198.759 109.503 199.167C108.026 200.008 105.691 198.735 104.858 197.445C103.593 195.477 103.136 193.257 103.062 190.922C105.699 190.922 108.344 190.906 110.981 190.906C110.981 190.914 110.981 190.922 110.981 190.939V190.931Z" fill="#72C384"/>
<path d="M105.929 161.102C106.9 162.775 106.843 164.62 105.806 165.216C104.769 165.812 103.153 164.939 102.182 163.265C101.21 161.592 101.267 159.747 102.304 159.151C103.341 158.555 104.957 159.429 105.929 161.102Z" fill="#FAB594"/>
<path d="M113.143 156.408C113.38 157.502 113.102 158.49 112.523 158.612C111.943 158.735 111.282 157.951 111.053 156.857C110.817 155.763 111.094 154.775 111.674 154.653C112.253 154.531 112.915 155.314 113.143 156.408Z" fill="#1F143F"/>
<path d="M122.401 154.563C122.491 155.673 122.082 156.62 121.495 156.661C120.907 156.71 120.352 155.845 120.27 154.726C120.18 153.616 120.589 152.669 121.176 152.629C121.764 152.588 122.319 153.445 122.401 154.563Z" fill="#1F143F"/>
<path d="M112.612 151.6C111.592 151.445 110.637 151.804 109.788 152.335C108.939 152.865 108.457 153.616 108.122 154.498C108.041 154.702 108.212 154.947 108.408 155.004C108.637 155.069 108.833 154.922 108.914 154.718C109.167 154.041 109.584 153.429 110.204 153.045C110.824 152.661 111.624 152.269 112.4 152.392C112.62 152.424 112.841 152.335 112.906 152.106C112.955 151.91 112.841 151.641 112.62 151.6H112.612Z" fill="#1F143F"/>
<path d="M119.155 173.469L116.371 177.437L120.526 180.955V174.188L119.155 173.469Z" fill="white"/>
<path d="M105.031 176.726L108.835 174.09L116.37 177.437L114.427 182.335L105.031 176.726Z" fill="white"/>
<path d="M97.0211 231.184C94.8741 231.282 93.4701 229.461 93.3966 227.249C93.3721 226.465 93.3803 225.682 93.4211 224.906C93.7558 218.759 96.2701 213.094 98.4252 207.42C100.303 202.473 101.454 197.208 101.315 191.902C101.201 187.649 100.384 183.388 98.7843 179.437C98.7517 179.355 98.719 179.265 98.7354 179.175C98.7517 179.102 98.8007 179.037 98.8496 178.98C99.8292 177.796 101.152 177.037 102.45 176.261C103.854 175.42 105.217 174.653 106.793 174.155C107.07 174.065 108.123 173.624 108.335 173.673C109.584 173.975 110.964 177.91 111.454 179.004C116.629 190.473 114.539 204.171 109.282 215.216C106.719 220.612 103.772 225.943 99.4701 230.09C99.119 230.424 98.7517 230.759 98.2945 230.922C97.8537 231.077 97.4292 231.167 97.0292 231.184H97.0211Z" fill="#1F143F"/>
<path d="M85.0698 199.575C83.6004 202.057 81.8616 204.743 81.38 207.543C80.7678 211.118 81.7474 214.49 82.8657 217.894C84.9718 224.302 88.1229 230.253 91.829 235.829C91.9841 236.057 92.1882 236.31 92.4576 236.294C92.5882 236.286 92.7106 236.212 92.8249 236.131C94.6208 234.947 96.4167 233.755 98.2208 232.571C98.5065 232.384 98.8004 232.18 98.9474 231.869C99.1596 231.412 98.9718 230.89 98.7923 230.424C97.1596 226.302 95.5351 222.188 93.9025 218.065C93.1841 216.253 92.4576 214.408 92.2698 212.465C91.9923 209.567 92.9555 206.653 94.4902 204.18C96.0249 201.706 98.1065 199.616 100.237 197.641C100.996 196.939 101.788 196.22 102.213 195.282C103.584 192.269 103.356 188.759 103.053 185.543C102.89 183.837 103.143 178.18 100.441 178.237C99.9433 178.245 99.4943 178.547 99.1025 178.849C96.0086 181.241 93.9841 184.645 92.0331 187.959C89.9269 191.543 87.6576 195.02 85.6086 198.637C85.4372 198.939 85.2576 199.249 85.0698 199.559V199.575Z" fill="#1F143F"/>
<path d="M131.765 221.094C131.887 212.694 132.01 204.286 131.536 195.894C131.414 193.771 131.25 191.649 131.054 189.535C130.924 188.163 130.761 188.22 131.756 187.518C132.491 187.004 133.756 186.792 134.605 186.482C139.765 184.604 144.924 182.718 150.05 180.743C154.614 178.988 159.112 176.751 162.344 172.971C157.609 173.992 152.777 174.441 147.961 174.89C141.471 175.494 134.956 176.09 128.442 175.926C125.789 175.861 122.883 175.412 120.516 174.204C121.414 176.62 122.556 179.314 122.638 181.878C122.728 184.931 122.94 187.975 123.046 191.029C123.258 197.012 123.356 203.004 123.34 208.996C123.324 218.269 122.663 227.241 121.781 236.449C123.797 236.612 125.83 236.433 127.789 235.91C128.132 235.82 128.491 235.714 128.752 235.478C129.03 235.233 129.177 234.89 129.316 234.547C130.352 232.024 131.128 229.38 131.471 226.669C131.699 224.824 131.732 222.955 131.756 221.094H131.765Z" fill="#1F143F"/>
<path d="M109.267 215.216C114.524 204.163 116.614 190.473 111.438 179.004C110.948 177.91 109.569 173.975 108.32 173.673C108.107 173.624 107.063 174.065 106.777 174.155C106.687 174.18 106.605 174.22 106.516 174.253C106.63 174.784 106.932 175.175 107.201 175.771C107.716 176.906 107.985 178.131 108.254 179.347C109.438 184.71 109.593 190.294 108.687 195.714C109.463 195.633 110.263 195.714 111.005 195.984C110.891 196.824 110.246 197.494 109.863 198.253C109.103 199.763 109.389 201.551 109.585 203.233C110.083 207.575 109.805 212 108.777 216.245C108.94 215.91 109.112 215.575 109.267 215.233V215.216Z" fill="#274169"/>
<path d="M127.821 196.759C127.241 192.89 126.703 189.012 126.099 185.143C125.576 181.469 124.343 178.269 122.768 175.069C121.992 174.833 121.233 174.547 120.531 174.188C121.429 176.604 122.572 179.298 122.654 181.861C122.743 184.914 122.956 187.959 123.062 191.012C123.274 196.996 123.372 202.988 123.356 208.98C123.356 210.645 123.323 212.294 123.282 213.943C124.425 210.375 126.172 206.947 126.646 203.233C126.923 201.012 126.735 198.767 126.548 196.547C126.948 196.735 127.397 196.808 127.829 196.759H127.821Z" fill="#274169"/>
<path d="M117.17 179.804C118.361 183.029 118.745 186.522 118.99 189.926C119.235 193.331 119.243 196.833 119.145 200.286C118.949 207.257 118.525 214.106 117.047 220.939C116.231 224.718 115.349 228.49 114.663 232.294C114.574 232.808 115.357 233.029 115.447 232.514C116.68 225.69 118.631 218.996 119.333 212.082C119.684 208.629 119.798 205.151 119.921 201.69C120.043 198.229 120.092 194.514 119.88 190.931C119.651 187.135 119.292 183.175 117.961 179.584C117.782 179.094 116.99 179.306 117.178 179.804H117.17Z" fill="white"/>
<path d="M349.624 262.482L338.881 258.677L333.224 268.767L333.566 268.89C331.444 268.751 329.346 268.865 327.297 269.216L327.624 269.061L320.946 259.624L310.66 264.531L313.795 275.665L314.121 275.51C312.554 276.882 311.142 278.441 309.917 280.18L310.04 279.837L298.644 277.886L294.84 288.629L304.93 294.286L305.052 293.943C304.913 296.065 305.028 298.163 305.379 300.212L305.224 299.886L295.787 306.563L300.693 316.849L311.828 313.714L311.672 313.388C313.044 314.955 314.603 316.367 316.342 317.592L315.999 317.469L314.048 328.865L324.791 332.669L330.448 322.58L330.105 322.457C332.228 322.596 334.326 322.482 336.375 322.131L336.048 322.286L342.726 331.722L353.011 326.816L349.877 315.682L349.55 315.837C351.117 314.465 352.53 312.906 353.754 311.167L353.632 311.51L365.028 313.461L368.832 302.718L358.742 297.061L358.619 297.404C358.758 295.282 358.644 293.184 358.293 291.126L358.448 291.453L367.885 284.775L362.979 274.49L351.844 277.624L351.999 277.951C350.628 276.384 349.068 274.971 347.33 273.747L347.672 273.869L349.624 262.473V262.482Z" fill="#6A8FBC"/>
<path d="M346.731 313.587C356.609 305.355 357.942 290.674 349.71 280.797C341.477 270.92 326.797 269.586 316.919 277.819C307.042 286.051 305.709 300.732 313.941 310.609C322.173 320.486 336.854 321.819 346.731 313.587Z" fill="#A0B3D9"/>
<path d="M337.662 279.192C346.764 282.416 351.532 292.408 348.307 301.51C345.083 310.612 335.091 315.38 325.989 312.155C316.887 308.931 312.12 298.939 315.344 289.837C318.568 280.735 328.56 275.967 337.662 279.192Z" fill="#5A82AD"/>
<path d="M335.885 284.204C342.22 286.449 345.534 293.404 343.289 299.731C341.044 306.065 334.089 309.38 327.763 307.135C321.428 304.89 318.114 297.935 320.359 291.608C322.604 285.273 329.559 281.959 335.885 284.204Z" fill="white"/>
<path d="M333.962 211.616L327.088 208.294L322.574 214.596L322.794 214.702C321.39 214.457 319.986 214.375 318.59 214.457L318.819 214.375L315.064 207.6L307.856 210.106L309.121 217.747L309.35 217.665C308.207 218.465 307.154 219.396 306.207 220.465L306.313 220.245L298.868 218.106L295.545 224.98L301.847 229.494L301.954 229.273C301.709 230.678 301.627 232.082 301.709 233.478L301.627 233.249L294.852 237.004L297.358 244.212L304.998 242.947L304.917 242.718C305.717 243.861 306.647 244.914 307.717 245.861L307.496 245.755L305.358 253.2L312.231 256.522L316.745 250.22L316.525 250.114C317.929 250.359 319.333 250.441 320.729 250.359L320.501 250.441L324.256 257.216L331.464 254.71L330.198 247.069L329.97 247.151C331.113 246.351 332.166 245.42 333.113 244.351L333.007 244.571L340.452 246.71L343.774 239.837L337.472 235.322L337.366 235.543C337.611 234.139 337.692 232.735 337.611 231.339L337.692 231.567L344.468 227.812L341.962 220.604L334.321 221.869L334.403 222.098C333.603 220.955 332.672 219.902 331.603 218.955L331.823 219.061L333.962 211.616Z" fill="#6A8FBC"/>
<path d="M333.778 239.016C337.435 231.215 334.076 221.927 326.276 218.269C318.475 214.612 309.186 217.971 305.529 225.771C301.871 233.572 305.23 242.861 313.031 246.518C320.832 250.176 330.12 246.817 333.778 239.016Z" fill="#A0B3D9"/>
<path d="M324.762 221.861C330.591 224.678 333.024 231.69 330.207 237.51C327.391 243.339 320.379 245.771 314.558 242.955C308.73 240.139 306.297 233.127 309.113 227.306C311.93 221.478 318.942 219.045 324.762 221.861Z" fill="#5A82AD"/>
<path d="M323.212 225.069C327.261 227.029 328.959 231.902 327 235.959C325.04 240.008 320.167 241.706 316.11 239.747C312.061 237.788 310.363 232.914 312.322 228.857C314.281 224.808 319.155 223.11 323.212 225.069Z" fill="white"/>
</g>
<defs>
<clipPath id="clip0_3013_4207">
<rect width="384.62" height="271.159" fill="white" transform="translate(8.16406 64.4897)"/>
</clipPath>
</defs>
</svg>
