<svg width="366" height="356" viewBox="0 0 366 356" fill="none" xmlns="http://www.w3.org/2000/svg">
<path d="M10.4688 106.02L13.9903 106.753L19.4469 119.049L17.9926 126.068C17.9926 126.068 23.3651 127.534 24.6271 118.207C25.9011 108.881 26.1055 111.368 26.1055 111.368C26.1055 111.368 37.6557 113.724 38.8215 112.919C39.6749 112.33 42.3672 100.936 43.7854 94.7342C44.4945 91.6212 43.1844 88.304 40.4201 86.9579C40.0235 86.7656 39.6268 86.6213 39.2182 86.5372C36.3336 85.9363 21.1416 85.2151 21.1416 85.2151L15.06 83.9531L10.4688 106.02Z" fill="#EBEBEB"/>
<path d="M0 105.847L7.16332 82.2422L13.1848 83.4922L8.2931 107.061L0 105.847Z" fill="#EBEBEB"/>
<path d="M354.283 38.3092L350.894 38.8621L341.819 29.7396L340.726 22.9609C340.726 22.9609 335.425 23.4898 337.481 32.2636C339.536 41.0375 338.502 38.8861 338.502 38.8861C338.502 38.8861 327.361 40.737 326.591 41.8548C326.027 42.6721 327.517 53.7896 328.37 59.8112C328.803 62.8399 331.111 65.3519 334.031 65.6163C334.452 65.6524 334.86 65.6524 335.257 65.5803C338.033 65.1356 351.867 60.5684 351.867 60.5684L357.733 59.6189L354.283 38.3212V38.3092Z" fill="#EBEBEB"/>
<path d="M363.706 34.8828L365.377 58.44L359.56 59.3775L355.882 36.6256L363.706 34.8828Z" fill="#EBEBEB"/>
<path d="M302.093 277.417L292.514 277.469L292.772 325.135L302.351 325.084L302.093 277.417Z" fill="#E0E0E0"/>
<path d="M234.332 277.553L209.525 277.688L209.668 304.009L234.475 303.874L234.332 277.553Z" fill="#EBEBEB"/>
<path d="M259.018 277.413L234.211 277.547L234.353 303.868L259.16 303.734L259.018 277.413Z" fill="#F5F5F5"/>
<path d="M209.54 284.965C226.03 285.097 242.556 285.001 259.046 284.737C259.383 284.737 259.383 284.208 259.046 284.208C242.556 284.112 226.03 284.208 209.552 284.508C209.264 284.508 209.264 284.953 209.552 284.965H209.54Z" fill="#E0E0E0"/>
<path d="M239.122 303.42L194.052 303.664L194.168 325.106L239.238 324.862L239.122 303.42Z" fill="#EBEBEB"/>
<path d="M283.975 303.178L238.904 303.422L239.02 324.863L284.091 324.62L283.975 303.178Z" fill="#F5F5F5"/>
<path d="M194.071 309.642C224.01 309.979 254.058 309.678 284.009 309.197C284.345 309.197 284.345 308.668 284.009 308.668C254.058 308.512 224.01 308.524 194.071 309.185C193.782 309.185 193.782 309.63 194.071 309.642Z" fill="#E0E0E0"/>
<path d="M351.844 325.125H177.208V332.805H351.844V325.125Z" fill="#E0E0E0"/>
<path d="M212.892 328.812H205.801V355.026H212.892V328.812Z" fill="#E0E0E0"/>
<path d="M318.719 328.812H311.628V355.026H318.719V328.812Z" fill="#E0E0E0"/>
<path d="M311.442 259.643L301.863 259.695L302.218 325.258L311.797 325.206L311.442 259.643Z" fill="#EBEBEB"/>
<path d="M326.412 271.841L311.521 271.922L311.808 325.057L326.699 324.976L326.412 271.841Z" fill="#F5F5F5"/>
<path d="M326.292 282.096C326.292 282.24 322.962 282.349 318.852 282.349C314.741 282.349 311.412 282.228 311.412 282.096C311.412 281.964 314.741 281.844 318.852 281.844C322.962 281.844 326.292 281.964 326.292 282.096Z" fill="#E0E0E0"/>
<path d="M326.292 279.854C326.292 279.998 322.962 280.106 318.852 280.106C314.741 280.106 311.412 279.986 311.412 279.854C311.412 279.722 314.741 279.602 318.852 279.602C322.962 279.602 326.292 279.722 326.292 279.854Z" fill="#E0E0E0"/>
<path d="M326.292 317.002C326.292 317.147 322.962 317.255 318.852 317.255C314.741 317.255 311.412 317.135 311.412 317.002C311.412 316.87 314.741 316.75 318.852 316.75C322.962 316.75 326.292 316.87 326.292 317.002Z" fill="#E0E0E0"/>
<path d="M326.292 314.76C326.292 314.904 322.962 315.013 318.852 315.013C314.741 315.013 311.412 314.892 311.412 314.76C311.412 314.628 314.741 314.508 318.852 314.508C322.962 314.508 326.292 314.628 326.292 314.76Z" fill="#E0E0E0"/>
<path d="M319.092 309.895C318.948 309.895 318.84 304.534 318.84 297.924C318.84 291.314 318.96 285.953 319.092 285.953C319.224 285.953 319.345 291.314 319.345 297.924C319.345 304.534 319.224 309.895 319.092 309.895Z" fill="#E0E0E0"/>
<path d="M342.662 284.906H326.46V325.014H342.662V284.906Z" fill="#EBEBEB"/>
<path d="M309.25 270.846C309.25 272.373 308.012 273.598 306.497 273.598C304.983 273.598 303.745 272.361 303.745 270.846C303.745 269.332 304.983 268.094 306.497 268.094C308.012 268.094 309.25 269.332 309.25 270.846Z" fill="#E0E0E0"/>
<path d="M307.35 278.414H305.644V317.416H307.35V278.414Z" fill="#E0E0E0"/>
<path d="M330.522 354.508C330.522 354.676 258.745 354.82 170.237 354.82C81.7292 354.82 9.92773 354.676 9.92773 354.508C9.92773 354.34 81.6811 354.195 170.237 354.195C258.793 354.195 330.522 354.34 330.522 354.508Z" fill="#263238"/>
<path d="M309.922 0.3125H54.4707V101.02H309.922V0.3125Z" fill="#F5F5F5"/>
<path d="M309.922 101.019C309.922 101.019 309.91 100.406 309.898 99.2282C309.898 98.0503 309.886 96.3076 309.874 94.024C309.862 89.4447 309.838 82.7141 309.826 74.0244C309.802 56.6689 309.754 31.5132 309.706 0.311893L309.922 0.528235C245.548 0.552273 154.865 0.58833 54.4824 0.624387H54.4704L54.7829 0.311893C54.7829 35.5396 54.7829 69.5653 54.7709 101.019L54.4704 100.719C128.435 100.779 192.256 100.827 237.604 100.863C260.296 100.899 278.36 100.923 290.764 100.947C296.966 100.959 301.749 100.971 304.994 100.983C306.605 100.983 307.843 100.995 308.672 101.007C309.501 101.007 309.934 101.031 309.934 101.031C309.934 101.031 309.525 101.043 308.708 101.055C307.879 101.055 306.665 101.055 305.066 101.079C301.833 101.079 297.074 101.103 290.908 101.115C278.516 101.139 260.476 101.163 237.82 101.199C192.424 101.235 128.531 101.283 54.4824 101.344H54.1819V101.043C54.1819 69.6014 54.1819 35.5636 54.1699 0.335931V0.0234375H54.4824H54.4944C154.877 0.0594945 245.56 0.0955514 309.934 0.119589H310.15V0.335931C310.102 31.5973 310.054 56.7891 310.03 74.1806C310.006 82.8463 309.994 89.5649 309.982 94.1321C309.982 96.3917 309.958 98.1224 309.958 99.3003C309.958 100.466 309.934 101.043 309.934 101.043L309.922 101.019Z" fill="#263238"/>
<path d="M199.324 52.0156C199.324 52.1839 171.969 52.3281 138.231 52.3281C104.494 52.3281 77.1387 52.1839 77.1387 52.0156C77.1387 51.8474 104.482 51.7031 138.231 51.7031C171.981 51.7031 199.324 51.8474 199.324 52.0156Z" fill="#263238"/>
<path d="M199.672 64.2187C199.672 64.387 172.16 64.5312 138.23 64.5312C104.301 64.5312 76.7773 64.387 76.7773 64.2187C76.7773 64.0505 104.289 63.9062 138.23 63.9062C172.172 63.9062 199.672 64.0505 199.672 64.2187Z" fill="#263238"/>
<path d="M84.8545 16.6094L87.5828 22.1501L93.7004 23.0395L89.2775 27.3423L90.3231 33.4239L84.8545 30.5514L79.3978 33.4239L80.4315 27.3423L76.0205 23.0395L82.1262 22.1501L84.8545 16.6094Z" fill="#FBBF24"/>
<path d="M105.071 16.6094L107.799 22.1501L113.905 23.0395L109.482 27.3423L110.527 33.4239L105.071 30.5514L99.602 33.4239L100.648 27.3423L96.2246 23.0395L102.33 22.1501L105.071 16.6094Z" fill="#FBBF24"/>
<path d="M125.273 16.6094L128.002 22.1501L134.119 23.0395L129.696 27.3423L130.742 33.4239L125.273 30.5514L119.817 33.4239L120.85 27.3423L116.439 23.0395L122.545 22.1501L125.273 16.6094Z" fill="#FBBF24"/>
<path d="M145.491 16.6094L148.219 22.1501L154.324 23.0395L149.901 27.3423L150.947 33.4239L145.491 30.5514L140.022 33.4239L141.068 27.3423L136.645 23.0395L142.75 22.1501L145.491 16.6094Z" fill="#FBBF24"/>
<path d="M165.694 16.6094L168.423 22.1501L174.54 23.0395L170.117 27.3423L171.163 33.4239L165.694 30.5514L160.238 33.4239L161.271 27.3423L156.86 23.0395L162.966 22.1501L165.694 16.6094Z" fill="#FBBF24"/>
<path d="M120.503 80.3594C120.503 80.5276 111.069 80.6719 99.4221 80.6719C87.7757 80.6719 78.3408 80.5276 78.3408 80.3594C78.3408 80.1911 87.7757 80.0469 99.4221 80.0469C111.069 80.0469 120.503 80.1911 120.503 80.3594Z" fill="#E0E0E0"/>
<path d="M260.271 87.123C279.336 87.123 294.79 71.6685 294.79 52.6045C294.79 33.5404 279.336 18.0859 260.271 18.0859C241.207 18.0859 225.753 33.5404 225.753 52.6045C225.753 71.6685 241.207 87.123 260.271 87.123Z" fill="#CFDFFA"/>
<path d="M243.002 28.8656L245.706 72.17C246.127 78.8646 251.679 84.0808 258.386 84.0808C265.441 84.0808 271.138 78.3358 271.09 71.2806C271.054 65.9922 270.994 61.1125 270.994 61.1125C270.994 61.1125 280.946 59.5621 281.066 49.6224C281.126 44.9109 280.465 35.2837 279.756 26.4618C278.962 16.5461 270.681 8.91406 260.73 8.91406H260.273C249.925 9.51501 242.112 18.5413 243.002 28.8776V28.8656Z" fill="#EB996E"/>
<path d="M271.006 60.9711C271.006 60.9711 264.72 61.4879 258.037 57.2812C258.037 57.2812 261.102 64.4446 271.03 63.5431L271.006 60.9711Z" fill="#D1734A"/>
<path d="M277.423 32.8149C277.243 32.9952 276.173 32.2019 274.647 32.2019C273.12 32.1899 272.003 32.9711 271.834 32.7788C271.75 32.6947 271.93 32.3582 272.423 32.0096C272.904 31.6611 273.721 31.3125 274.671 31.3125C275.62 31.3125 276.426 31.6731 276.882 32.0216C277.351 32.3822 277.507 32.7187 277.423 32.8029V32.8149Z" fill="#263238"/>
<path d="M262.544 32.8149C262.364 32.9952 261.294 32.2019 259.768 32.2019C258.241 32.1899 257.124 32.9711 256.955 32.7788C256.871 32.6947 257.052 32.3582 257.544 32.0096C258.025 31.6611 258.842 31.3125 259.792 31.3125C260.741 31.3125 261.547 31.6731 262.003 32.0216C262.472 32.3822 262.628 32.7187 262.544 32.8029V32.8149Z" fill="#263238"/>
<path d="M268.097 42.4242C268.097 42.3401 269.035 42.1718 270.585 41.9795C270.97 41.9435 271.342 41.8593 271.414 41.5949C271.51 41.3185 271.342 40.8978 271.15 40.4411C270.777 39.4916 270.405 38.506 269.996 37.4724C268.398 33.2417 267.232 29.7562 267.4 29.6961C267.568 29.636 269.01 33.0133 270.609 37.244C270.994 38.2897 271.366 39.2873 271.715 40.2368C271.859 40.6815 272.111 41.1863 271.919 41.7632C271.811 42.0516 271.522 42.268 271.282 42.3281C271.03 42.4002 270.813 42.4122 270.621 42.4242C269.071 42.5083 268.109 42.5204 268.109 42.4242H268.097Z" fill="#263238"/>
<path d="M262.941 25.1061C262.785 25.5267 261.259 25.3224 259.468 25.5387C257.665 25.719 256.223 26.2479 255.982 25.8753C255.874 25.695 256.127 25.3104 256.716 24.9017C257.292 24.5051 258.218 24.1205 259.3 24.0003C260.381 23.8801 261.367 24.0484 262.016 24.3248C262.677 24.5892 263.002 24.9138 262.941 25.1181V25.1061Z" fill="#263238"/>
<path d="M277.016 26.3787C276.752 26.7273 275.694 26.3667 274.432 26.3427C273.17 26.2826 272.088 26.571 271.848 26.2105C271.74 26.0302 271.908 25.6816 272.377 25.3571C272.834 25.0326 273.615 24.7562 274.48 24.7922C275.346 24.8163 276.103 25.1288 276.547 25.4893C276.992 25.8499 277.136 26.1985 277.028 26.3787H277.016Z" fill="#263238"/>
<path d="M253.807 17.956C253.807 17.956 253.771 17.9801 253.746 18.0041C252.16 19.2541 251.114 21.0689 250.838 23.0641C250.838 23.1362 250.814 23.1963 250.814 23.2684C250.429 26.1049 250.489 28.9895 250.081 31.8259C249.66 34.6624 248.687 37.547 246.583 39.4941C245.718 40.2993 244.191 40.8522 243.494 39.9147C243.218 39.5542 243.17 39.0734 243.146 38.6167C242.617 31.7658 240.742 25.6842 240.754 18.5209C240.754 16.5738 241.679 14.747 243.266 13.6052C244.768 12.5355 246.595 11.4177 248.266 12.1989C249.936 12.9922 252.088 16.1051 253.386 17.4272" fill="#263238"/>
<path d="M246.355 33.3666C246.187 33.2945 239.516 31.3474 239.733 38.1502C239.949 44.9529 246.728 43.3304 246.74 43.1381C246.74 42.9457 246.355 33.3786 246.355 33.3786V33.3666Z" fill="#EB996E"/>
<path d="M244.589 40.6202C244.589 40.6202 244.468 40.7043 244.276 40.8005C244.084 40.8966 243.747 40.9687 243.387 40.8485C242.666 40.6082 242.017 39.4904 241.944 38.2645C241.908 37.6515 242.017 37.0505 242.221 36.5578C242.413 36.053 242.726 35.6924 243.086 35.6203C243.447 35.5241 243.711 35.7284 243.795 35.9207C243.891 36.1131 243.855 36.2453 243.891 36.2573C243.916 36.2693 244.036 36.1371 243.976 35.8607C243.94 35.7284 243.855 35.5722 243.699 35.44C243.531 35.3078 243.291 35.2477 243.038 35.2837C242.509 35.3318 242.053 35.8366 241.836 36.3775C241.584 36.9183 241.44 37.5914 241.488 38.2885C241.572 39.6587 242.317 40.9206 243.315 41.173C243.795 41.2812 244.192 41.125 244.396 40.9567C244.601 40.7764 244.637 40.6322 244.613 40.6202H244.589Z" fill="#D1734A"/>
<path d="M248.025 13.2328C246.355 10.5165 250.934 6.61037 254.299 5.5527C257.652 4.49503 262.075 6.12961 265.417 7.23536C267.52 7.93246 269.623 8.906 271.847 8.82187C273.337 8.76177 274.755 8.22092 276.162 7.72814C277.568 7.23536 279.022 6.76662 280.513 6.87479C282.003 6.98296 283.529 7.7642 284.094 9.14638C284.659 10.5286 283.854 12.4155 282.376 12.6199C284.262 11.5862 286.979 12.9444 287.291 15.0717C287.592 17.1991 285.368 19.2664 283.277 18.8096C284.238 18.0765 285.729 19.2904 285.609 20.4923C285.488 21.6942 284.395 22.5836 283.289 23.0644C280.452 24.3143 277.147 23.9177 274.215 22.9201C271.282 21.9346 268.554 20.3962 265.645 19.3265C262.736 18.2688 257.857 16.3578 254.936 17.3914C252.785 18.1486 251.294 20.7447 250.068 20.1678C248.891 19.6149 248.145 18.389 247.917 17.115C247.677 15.841 247.869 14.5309 248.049 13.2449" fill="#263238"/>
<path d="M283.181 12.4134C283.181 12.4134 282.832 12.9182 282.099 13.7115C281.366 14.4927 280.14 15.5143 278.325 16.1393C276.546 16.7643 274.119 16.9566 271.835 15.8749C269.527 14.8413 267.544 12.762 265.261 10.8149C262.989 8.84379 260.309 7.3895 257.617 7.14912C254.948 6.89672 252.472 7.87026 251.114 9.39667C249.744 10.9351 249.468 12.6899 249.576 13.7956C249.624 14.3605 249.768 14.7692 249.864 15.0456C249.984 15.31 250.069 15.4422 250.081 15.4302C250.141 15.4062 249.864 14.8533 249.828 13.7716C249.804 12.7259 250.153 11.0913 251.463 9.70916C252.761 8.35101 255.056 7.47363 257.556 7.75007C260.068 8.01448 262.604 9.39667 264.828 11.3197C267.063 13.2307 269.107 15.3581 271.583 16.4398C274.047 17.5696 276.643 17.2931 278.482 16.584C280.368 15.8629 281.606 14.7331 282.292 13.8798C282.64 13.4471 282.868 13.0865 283.001 12.8221C283.133 12.5697 283.193 12.4255 283.181 12.4134Z" fill="#455A64"/>
<path d="M244.624 33.0615C244.624 33.0615 244.912 32.8692 245.177 32.3403C245.441 31.8115 245.634 30.9341 245.513 29.8765C245.357 27.689 243.422 25.3333 243.182 22.3045C243.025 20.8141 243.29 19.3478 243.939 18.2421C244.576 17.1363 245.573 16.4152 246.463 16.0546C247.364 15.682 248.194 15.67 248.734 15.7421C249.275 15.8263 249.576 15.9585 249.6 15.8984C249.612 15.8743 249.359 15.658 248.795 15.4777C248.23 15.3215 247.328 15.2373 246.307 15.5979C245.297 15.9344 244.167 16.6796 243.41 17.9176C242.665 19.1435 242.364 20.754 242.521 22.3526C242.665 23.9631 243.242 25.4294 243.831 26.6433C244.408 27.8573 244.9 28.951 245.057 29.9245C245.417 31.9197 244.54 33.0134 244.636 33.0495L244.624 33.0615Z" fill="#455A64"/>
<path d="M262.94 44.3011C263.217 45.7914 263.89 47.2578 265.056 48.2193C266.222 49.1928 267.916 49.5894 269.298 48.9765C270.512 48.4476 271.306 47.2818 272.027 46.164L262.94 44.2891V44.3011Z" fill="white"/>
<path d="M309.922 122.281H54.4707V222.988H309.922V122.281Z" fill="#F5F5F5"/>
<path d="M309.922 222.98C309.922 222.98 309.91 222.367 309.898 221.189C309.898 220.011 309.886 218.269 309.874 215.985C309.862 211.406 309.838 204.675 309.826 195.985C309.802 178.63 309.754 153.474 309.706 122.273L309.922 122.489C245.548 122.513 154.865 122.549 54.4824 122.585H54.4704L54.7829 122.273C54.7829 157.5 54.7829 191.526 54.7709 222.98L54.4704 222.679C128.435 222.74 192.256 222.788 237.604 222.824C260.296 222.86 278.36 222.884 290.764 222.908C296.966 222.92 301.749 222.932 304.994 222.944C306.605 222.944 307.843 222.956 308.672 222.968C309.501 222.968 309.934 222.992 309.934 222.992C309.934 222.992 309.525 223.004 308.708 223.016C307.879 223.016 306.665 223.016 305.066 223.04C301.833 223.04 297.074 223.064 290.908 223.076C278.516 223.1 260.476 223.124 237.82 223.16C192.424 223.196 128.531 223.244 54.4824 223.304H54.1819V223.004C54.1819 191.562 54.1819 157.525 54.1699 122.297V121.984H54.4824H54.4944C154.877 122.02 245.56 122.056 309.934 122.081H310.15V122.297C310.102 153.558 310.054 178.75 310.03 196.142C310.006 204.807 309.994 211.526 309.982 216.093C309.982 218.353 309.958 220.083 309.958 221.261C309.958 222.427 309.934 223.004 309.934 223.004L309.922 222.98Z" fill="#263238"/>
<path d="M199.324 175.961C199.324 176.129 171.969 176.273 138.231 176.273C104.494 176.273 77.1387 176.129 77.1387 175.961C77.1387 175.793 104.482 175.648 138.231 175.648C171.981 175.648 199.324 175.793 199.324 175.961Z" fill="#263238"/>
<path d="M199.672 188.148C199.672 188.317 172.16 188.461 138.23 188.461C104.301 188.461 76.7773 188.317 76.7773 188.148C76.7773 187.98 104.289 187.836 138.23 187.836C172.172 187.836 199.672 187.98 199.672 188.148Z" fill="#263238"/>
<path d="M84.8545 140.555L87.5828 146.083L93.7004 146.973L89.2775 151.276L90.3231 157.369L84.8545 154.497L79.3978 157.369L80.4315 151.276L76.0205 146.973L82.1262 146.083L84.8545 140.555Z" fill="#FBBF24"/>
<path d="M105.071 140.555L107.799 146.083L113.905 146.973L109.482 151.276L110.527 157.369L105.071 154.497L99.602 157.369L100.648 151.276L96.2246 146.973L102.33 146.083L105.071 140.555Z" fill="#FBBF24"/>
<path d="M125.273 140.555L128.002 146.083L134.119 146.973L129.696 151.276L130.742 157.369L125.273 154.497L119.817 157.369L120.85 151.276L116.439 146.973L122.545 146.083L125.273 140.555Z" fill="#FBBF24"/>
<path d="M145.491 140.555L148.219 146.083L154.324 146.973L149.901 151.276L150.947 157.369L145.491 154.497L140.022 157.369L141.068 151.276L136.645 146.973L142.75 146.083L145.491 140.555Z" fill="#E0E0E0"/>
<path d="M165.694 140.555L168.423 146.083L174.54 146.973L170.117 151.276L171.163 157.369L165.694 154.497L160.238 157.369L161.271 151.276L156.86 146.973L162.966 146.083L165.694 140.555Z" fill="#E0E0E0"/>
<path d="M120.503 204.289C120.503 204.457 111.069 204.602 99.4221 204.602C87.7757 204.602 78.3408 204.457 78.3408 204.289C78.3408 204.121 87.7757 203.977 99.4221 203.977C111.069 203.977 120.503 204.121 120.503 204.289Z" fill="#E0E0E0"/>
<path d="M293.901 184.381C298.229 165.815 286.686 147.256 268.119 142.929C249.553 138.601 230.994 150.144 226.666 168.711C222.339 187.277 233.882 205.836 252.449 210.164C271.015 214.491 289.574 202.948 293.901 184.381Z" fill="#CFDFFA"/>
<path d="M295.824 172.291C294.887 171.534 293.541 171.438 292.579 170.704C290.596 169.202 291.161 166.161 290.74 163.709C290.272 161.041 288.457 158.842 287.026 156.558C285.584 154.263 283.926 150.945 284.983 148.445L265.561 184.058H296.029C296.029 184.058 296.954 178.457 297.122 176.822C297.291 175.188 297.122 173.313 295.836 172.279L295.824 172.291Z" fill="#263238"/>
<path d="M255.452 136.916C256.39 134.056 259.515 132.433 262.507 132.073C265.5 131.712 266.966 132.938 269.911 132.277C273.949 131.364 276.305 129.993 278.985 130.438C281.401 130.835 284.466 131.58 286.641 134.104C288.24 135.955 288.3 140.282 287.627 142.637C287.014 144.789 285.355 146.543 284.899 148.731C284.478 150.762 285.175 152.817 285.62 154.837C286.966 160.906 285.92 167.697 281.906 172.432C277.88 177.168 270.656 179.259 265.103 176.471" fill="#263238"/>
<path d="M271.943 195.832L271.774 186.974C271.774 186.974 280.584 185.676 282.604 174.246C283.613 168.561 283.493 159.223 283.144 151.579C282.832 144.704 275.548 137.709 268.686 138.31L246.402 142.144V145.845L247.027 196.229C247.111 203.044 252.664 208.537 259.479 208.537C266.45 208.537 272.063 202.816 271.931 195.845L271.943 195.832Z" fill="#A36957"/>
<path d="M279.334 158.55C279.346 159.331 278.697 159.98 277.892 160.004C277.087 160.028 276.414 159.427 276.402 158.658C276.39 157.877 277.039 157.228 277.844 157.204C278.649 157.18 279.322 157.781 279.334 158.562V158.55Z" fill="#263238"/>
<path d="M281.029 156.397C280.848 156.589 279.743 155.736 278.168 155.712C276.594 155.663 275.416 156.457 275.248 156.264C275.163 156.18 275.356 155.832 275.873 155.471C276.377 155.111 277.231 154.774 278.216 154.798C279.202 154.822 280.019 155.195 280.488 155.579C280.969 155.964 281.125 156.312 281.029 156.397Z" fill="#263238"/>
<path d="M264.057 158.284C264.069 159.066 263.42 159.715 262.615 159.739C261.809 159.763 261.136 159.162 261.124 158.392C261.112 157.611 261.761 156.962 262.566 156.938C263.372 156.914 264.045 157.515 264.057 158.296V158.284Z" fill="#263238"/>
<path d="M265.488 156.424C265.307 156.616 264.202 155.775 262.627 155.751C261.053 155.703 259.875 156.496 259.707 156.303C259.622 156.219 259.815 155.871 260.332 155.51C260.836 155.15 261.69 154.813 262.675 154.837C263.661 154.861 264.478 155.234 264.947 155.618C265.428 156.003 265.584 156.352 265.488 156.436V156.424Z" fill="#263238"/>
<path d="M271.017 168.252C271.017 168.168 272.003 168.012 273.589 167.832C273.998 167.796 274.383 167.723 274.455 167.447C274.551 167.159 274.395 166.714 274.202 166.245C273.842 165.26 273.457 164.226 273.061 163.144C271.486 158.733 270.344 155.116 270.525 155.055C270.705 154.995 272.123 158.517 273.71 162.916C274.094 163.998 274.455 165.043 274.803 166.029C274.948 166.486 275.2 167.014 274.984 167.615C274.875 167.916 274.575 168.132 274.311 168.192C274.046 168.264 273.818 168.264 273.625 168.276C272.027 168.336 271.029 168.324 271.017 168.228V168.252Z" fill="#263238"/>
<path d="M271.775 186.972C271.775 186.972 264.059 187.333 256.511 182.609C256.511 182.609 260.092 190.542 271.571 189.677L271.775 186.972Z" fill="#7C3B29"/>
<path d="M270.284 172.046C269.731 171.289 268.746 170.856 267.748 170.94C267.063 171 266.366 171.325 265.933 171.866C265.501 172.418 265.405 173.212 265.777 173.753C266.198 174.365 267.087 174.51 267.844 174.317C268.602 174.113 269.263 173.632 269.888 173.152C270.056 173.019 270.236 172.875 270.344 172.695C270.452 172.515 270.477 172.262 270.344 172.106" fill="#7C3B29"/>
<path d="M266.341 169.258C266.594 169.258 266.57 170.965 268.024 172.203C269.466 173.453 271.305 173.284 271.305 173.537C271.329 173.645 270.897 173.861 270.115 173.873C269.358 173.885 268.252 173.621 267.375 172.864C266.498 172.107 266.125 171.097 266.077 170.388C266.029 169.667 266.221 169.246 266.341 169.258Z" fill="#263238"/>
<path d="M266.006 150.235C265.838 150.668 264.263 150.428 262.413 150.62C260.55 150.776 259.047 151.293 258.807 150.896C258.699 150.704 258.963 150.307 259.576 149.899C260.177 149.49 261.151 149.118 262.256 149.009C263.374 148.913 264.384 149.106 265.057 149.394C265.73 149.682 266.066 150.019 265.994 150.223L266.006 150.235Z" fill="#263238"/>
<path d="M280.524 151.823C280.236 152.172 279.154 151.787 277.844 151.739C276.534 151.655 275.416 151.931 275.176 151.559C275.068 151.378 275.248 151.018 275.741 150.681C276.221 150.357 277.027 150.092 277.928 150.128C278.83 150.176 279.599 150.513 280.055 150.885C280.512 151.258 280.656 151.631 280.536 151.811L280.524 151.823Z" fill="#263238"/>
<path d="M259.635 132.804C261.894 136.434 262.604 140.989 261.546 145.135C260.5 149.282 257.712 152.948 253.998 155.075C252.724 155.808 251.282 156.421 250.5 157.671C249.515 159.258 249.936 161.289 250.116 163.14C250.609 168.152 248.986 173.344 245.729 177.178C243.541 172.923 241.342 168.609 240.38 163.921C239.9 161.553 239.731 159.101 238.866 156.842C238.349 155.496 237.604 154.246 237.159 152.876C236.354 150.376 236.655 147.623 237.496 145.135C239.034 140.628 242.4 136.77 246.666 134.643C250.933 132.515 256.041 132.155 260.572 133.657" fill="#263238"/>
<path d="M239.72 140.734C234.564 148.282 237.076 153.198 235.069 157.056C233.614 159.857 230.249 160.974 227.857 163.03C224.6 165.83 223.278 170.373 223.398 174.664C223.518 178.955 224.9 183.101 226.271 187.164C235.513 187.212 244.756 187.26 253.998 187.296C256.138 180.541 250.777 173.21 252.496 166.335C253.085 163.991 254.479 161.828 254.563 159.4C254.611 157.789 254.071 156.227 253.722 154.664C252.712 150.241 253.169 145.494 255.008 141.347" fill="#263238"/>
<path d="M287.651 137.423C287.651 137.423 287.459 137.063 287.014 136.486C286.57 135.909 285.776 135.188 284.61 134.647C283.445 134.106 281.894 133.77 280.187 133.842C278.481 133.914 276.642 134.431 274.767 135.092C272.892 135.753 271.113 136.462 269.418 136.87C267.724 137.279 266.137 137.411 264.827 137.279C263.505 137.147 262.483 136.786 261.834 136.426C261.51 136.245 261.27 136.101 261.113 135.981C260.957 135.861 260.873 135.801 260.885 135.789C260.909 135.765 261.233 136.005 261.883 136.318C262.532 136.63 263.553 136.955 264.839 137.051C266.125 137.147 267.688 137.003 269.346 136.582C271.017 136.161 272.772 135.452 274.659 134.791C276.546 134.13 278.409 133.613 280.163 133.553C281.918 133.493 283.493 133.866 284.683 134.443C285.872 135.02 286.678 135.801 287.086 136.402C287.291 136.714 287.435 136.955 287.519 137.135C287.603 137.315 287.639 137.399 287.627 137.411L287.651 137.423Z" fill="#455A64"/>
<path d="M283.649 156.82C283.649 156.82 283.745 156.868 283.914 157.001C283.998 157.061 284.094 157.145 284.202 157.253C284.31 157.361 284.43 157.481 284.551 157.65C285.067 158.263 285.56 159.344 285.777 160.751C285.885 161.448 285.945 162.229 285.945 163.058C285.945 163.887 285.897 164.765 285.921 165.69C285.945 166.616 286.005 167.589 286.245 168.539C286.486 169.5 286.954 170.438 287.724 171.147C288.493 171.856 289.466 172.277 290.332 172.806C291.221 173.31 292.002 174.007 292.447 174.861C293.361 176.568 293.264 178.394 292.952 179.753C292.627 181.135 292.147 182.18 291.822 182.902C291.654 183.262 291.522 183.539 291.425 183.719C291.329 183.899 291.281 183.995 291.269 183.995C291.269 183.995 291.293 183.887 291.365 183.695C291.462 183.466 291.57 183.19 291.702 182.853C291.99 182.12 292.435 181.075 292.724 179.704C292.868 179.019 292.94 178.262 292.88 177.457C292.82 176.652 292.615 175.786 292.183 174.993C291.75 174.188 291.029 173.551 290.163 173.058C289.31 172.541 288.325 172.12 287.495 171.375C286.678 170.618 286.173 169.609 285.933 168.611C285.68 167.613 285.62 166.616 285.608 165.69C285.608 164.753 285.656 163.875 285.668 163.046C285.668 162.229 285.632 161.46 285.536 160.775C285.356 159.392 284.899 158.335 284.43 157.722C283.962 157.097 283.601 156.856 283.625 156.82H283.649Z" fill="#455A64"/>
<path d="M236.463 186.143C236.463 186.143 236.427 186.095 236.379 185.998C236.331 185.902 236.259 185.758 236.175 185.566C236.006 185.181 235.766 184.604 235.513 183.835C235.261 183.078 235.009 182.116 234.852 180.986C234.696 179.857 234.648 178.535 234.888 177.104C235.129 175.686 235.658 174.148 236.643 172.753C237.629 171.335 239.155 170.278 240.622 169.124C241.367 168.547 242.088 167.91 242.701 167.153C243.302 166.395 243.746 165.482 243.975 164.496C244.432 162.513 244.119 160.362 243.674 158.247C243.218 156.119 242.713 154.004 242.797 151.913C242.833 150.867 243.049 149.845 243.47 148.92C243.879 147.994 244.504 147.189 245.189 146.528C246.583 145.194 248.242 144.365 249.792 143.716C251.355 143.067 252.833 142.562 254.131 141.973C255.429 141.396 256.547 140.735 257.412 140.014C258.277 139.293 258.902 138.535 259.311 137.85C259.72 137.177 259.924 136.576 260.032 136.18C260.14 135.771 260.164 135.555 260.188 135.555C260.188 135.555 260.188 135.783 260.092 136.192C260.008 136.6 259.816 137.213 259.407 137.91C259.011 138.608 258.386 139.401 257.508 140.146C256.643 140.903 255.513 141.576 254.203 142.177C252.893 142.778 251.415 143.307 249.864 143.956C248.326 144.605 246.715 145.446 245.357 146.732C244.684 147.381 244.095 148.151 243.71 149.04C243.314 149.929 243.109 150.915 243.073 151.925C242.989 153.968 243.482 156.047 243.951 158.186C244.396 160.314 244.72 162.513 244.239 164.569C244.011 165.59 243.53 166.54 242.905 167.333C242.268 168.114 241.523 168.763 240.778 169.352C239.287 170.518 237.797 171.54 236.824 172.91C235.85 174.256 235.321 175.758 235.069 177.152C234.588 179.965 235.165 182.297 235.598 183.811C235.826 184.58 236.054 185.157 236.199 185.554C236.271 185.734 236.331 185.878 236.379 185.998C236.415 186.095 236.439 186.155 236.427 186.155L236.463 186.143Z" fill="#455A64"/>
<path d="M259.9 135.543C259.9 135.543 259.84 135.543 259.707 135.543C259.563 135.531 259.383 135.507 259.154 135.495C258.674 135.459 257.965 135.387 257.051 135.351C255.236 135.291 252.52 135.267 249.383 136.192C247.821 136.661 246.174 137.418 244.636 138.572C243.109 139.714 241.691 141.276 240.814 143.247C239.912 145.207 239.732 147.514 239.768 149.87C239.792 152.226 239.996 154.702 239.515 157.202C239.275 158.439 238.878 159.665 238.217 160.723C237.568 161.793 236.643 162.646 235.645 163.307C233.65 164.629 231.475 165.423 229.828 166.817C228.182 168.199 227.232 170.134 226.884 171.997C226.511 173.872 226.631 175.699 227.004 177.273C227.376 178.86 227.977 180.23 228.578 181.384C229.179 182.538 229.792 183.487 230.297 184.244C230.814 185.001 231.234 185.578 231.523 185.975C231.655 186.155 231.763 186.312 231.847 186.42C231.919 186.516 231.956 186.576 231.956 186.576C231.956 186.576 231.907 186.528 231.823 186.432C231.739 186.324 231.619 186.179 231.475 186.011C231.174 185.626 230.742 185.062 230.201 184.316C229.672 183.559 229.047 182.622 228.422 181.468C227.809 180.314 227.184 178.944 226.799 177.333C226.403 175.723 226.271 173.872 226.643 171.949C227.004 170.038 227.953 168.031 229.66 166.6C231.355 165.17 233.554 164.365 235.501 163.067C236.475 162.418 237.352 161.6 237.977 160.567C238.614 159.545 238.999 158.367 239.239 157.153C239.708 154.702 239.503 152.25 239.491 149.882C239.467 147.526 239.648 145.158 240.585 143.151C241.499 141.144 242.953 139.546 244.515 138.392C246.078 137.226 247.761 136.469 249.347 136.012C252.532 135.099 255.26 135.159 257.087 135.255C258.001 135.315 258.722 135.399 259.203 135.459C259.431 135.495 259.611 135.519 259.743 135.543C259.864 135.567 259.924 135.579 259.924 135.579L259.9 135.543Z" fill="#455A64"/>
<path d="M245.284 187.345C245.284 187.345 246.077 187.069 247.099 186.035C247.604 185.518 248.133 184.797 248.553 183.86C248.962 182.922 249.299 181.78 249.383 180.494C249.491 179.208 249.311 177.79 248.962 176.3C248.613 174.821 248.061 173.271 247.46 171.66C246.871 170.038 246.234 168.331 245.849 166.48C245.464 164.641 245.32 162.622 245.825 160.651C246.077 159.677 246.522 158.752 247.063 157.935C247.616 157.117 248.277 156.408 248.962 155.759C250.344 154.473 251.859 153.452 253.217 152.406C254.587 151.36 255.837 150.315 256.786 149.125C257.748 147.947 258.445 146.697 258.926 145.495C259.899 143.091 260.092 140.94 260.043 139.498C260.043 139.137 260.019 138.812 259.995 138.536C259.971 138.26 259.947 138.019 259.923 137.827C259.899 137.647 259.887 137.514 259.863 137.394C259.863 137.298 259.851 137.25 259.863 137.25C259.863 137.25 260.092 138.031 260.176 139.498C260.26 140.952 260.104 143.127 259.142 145.579C258.661 146.805 257.964 148.079 257.003 149.293C256.053 150.519 254.779 151.589 253.409 152.646C252.039 153.704 250.549 154.726 249.178 156C248.505 156.637 247.856 157.334 247.327 158.127C246.799 158.92 246.378 159.81 246.138 160.747C245.645 162.646 245.777 164.617 246.162 166.432C246.534 168.259 247.159 169.954 247.736 171.576C248.325 173.199 248.866 174.749 249.214 176.252C249.563 177.754 249.731 179.208 249.599 180.518C249.503 181.828 249.142 182.994 248.71 183.944C248.265 184.893 247.7 185.614 247.183 186.131C246.666 186.66 246.162 186.937 245.825 187.129C245.669 187.201 245.537 187.261 245.428 187.309C245.332 187.345 245.296 187.369 245.284 187.357V187.345Z" fill="#455A64"/>
<path d="M261.09 140.486C264.022 142.542 267.268 144.681 270.837 144.429C272.953 144.272 274.912 143.287 276.931 142.626C278.95 141.965 281.294 141.652 283.097 142.77C284.262 142.674 284.815 141.087 284.299 140.03C283.782 138.972 282.628 138.407 281.522 138.023C275.104 135.835 268.698 138.311 261.486 138.78" fill="#263238"/>
<path d="M287.387 142.359C287.387 142.359 287.615 141.974 287.627 141.217C287.639 140.496 287.291 139.306 286.125 138.597C285.56 138.248 284.839 138.02 284.058 137.984C283.277 137.936 282.423 138.092 281.594 138.392C279.899 138.957 278.289 140.183 276.33 141.013C275.356 141.421 274.358 141.722 273.373 141.878C272.387 142.046 271.426 142.118 270.512 142.082C268.685 142.046 267.063 141.638 265.777 141.145C264.491 140.64 263.529 140.051 262.916 139.594C262.604 139.378 262.388 139.162 262.231 139.042C262.075 138.909 262.003 138.837 262.003 138.825C262.051 138.741 263.289 139.991 265.849 140.941C267.123 141.409 268.722 141.782 270.512 141.806C271.414 141.83 272.351 141.758 273.313 141.59C274.274 141.433 275.248 141.145 276.197 140.736C278.096 139.943 279.731 138.717 281.486 138.14C282.351 137.84 283.24 137.695 284.058 137.743C284.875 137.804 285.632 138.044 286.221 138.429C286.822 138.801 287.231 139.33 287.459 139.847C287.688 140.352 287.748 140.844 287.736 141.241C287.724 141.638 287.615 141.926 287.531 142.106C287.447 142.287 287.375 142.383 287.375 142.371L287.387 142.359Z" fill="#455A64"/>
<path d="M161.897 296.094H92.3672V305.649H161.897V296.094Z" fill="#263238"/>
<path d="M162.029 305.764H92.2588V295.969H162.029V305.764ZM92.4992 305.524H161.801V296.209H92.4992V305.524Z" fill="#263238"/>
<path d="M98.8213 302.453L108.833 351.839H145.864L155.539 305.638L98.8213 302.453Z" fill="#263238"/>
<path d="M98.8213 347.164L104.158 354.508H149.169L155.539 347.164H98.8213Z" fill="#263238"/>
<path d="M124.529 303.896C124.397 303.896 124.216 281.024 124.132 252.804C124.048 224.583 124.096 201.711 124.24 201.711C124.373 201.711 124.553 224.583 124.637 252.804C124.721 281.012 124.673 303.896 124.529 303.896Z" fill="#263238"/>
<path d="M140.021 246.653C140.021 246.653 139.973 246.845 139.829 247.181C139.661 247.566 139.457 248.059 139.204 248.66C139.06 248.984 138.916 249.345 138.747 249.729C138.603 250.138 138.447 250.571 138.279 251.028C138.11 251.496 137.93 251.989 137.738 252.518C137.558 253.047 137.401 253.624 137.221 254.213C136.464 256.58 135.863 259.489 135.274 262.722C134.769 265.979 134.385 269.573 134.192 273.371C133.856 280.967 134.288 287.854 134.745 292.818C134.973 295.306 135.19 297.301 135.358 298.695C135.43 299.344 135.49 299.873 135.538 300.293C135.574 300.654 135.586 300.858 135.562 300.858C135.55 300.858 135.502 300.678 135.43 300.305C135.358 299.885 135.274 299.368 135.166 298.719C134.937 297.337 134.661 295.342 134.397 292.854C133.844 287.89 133.363 280.979 133.699 273.347C133.892 269.537 134.288 265.919 134.817 262.65C135.43 259.405 136.067 256.484 136.872 254.104C137.065 253.503 137.221 252.939 137.425 252.41C137.63 251.881 137.822 251.388 138.002 250.919C138.183 250.463 138.351 250.03 138.507 249.633C138.675 249.249 138.856 248.9 139 248.576C139.288 247.987 139.517 247.506 139.709 247.133C139.877 246.809 139.973 246.641 139.985 246.641L140.021 246.653Z" fill="#263238"/>
<path d="M138.243 228.148C138.243 228.148 138.183 228.413 138.027 228.906C137.846 229.434 137.606 230.144 137.306 231.033C137.149 231.502 136.969 232.007 136.777 232.571C136.608 233.136 136.416 233.761 136.212 234.422C135.803 235.744 135.334 237.247 134.914 238.941C134.685 239.783 134.457 240.672 134.217 241.586C134.012 242.511 133.796 243.485 133.568 244.482C133.087 246.477 132.726 248.641 132.282 250.9C131.512 255.444 130.839 260.468 130.371 265.768C129.926 271.068 129.746 276.14 129.674 280.744C129.661 285.359 129.722 289.505 129.902 292.991C129.962 294.734 130.07 296.308 130.166 297.69C130.25 299.073 130.335 300.262 130.419 301.236C130.491 302.173 130.551 302.919 130.587 303.471C130.623 303.988 130.635 304.253 130.611 304.253C130.599 304.253 130.551 303.988 130.491 303.483C130.431 302.931 130.335 302.185 130.226 301.248C130.106 300.274 129.998 299.085 129.89 297.702C129.77 296.32 129.637 294.746 129.553 293.003C129.313 289.517 129.229 285.359 129.217 280.732C129.253 276.116 129.433 271.032 129.878 265.72C130.347 260.407 131.032 255.371 131.825 250.816C132.282 248.557 132.654 246.381 133.159 244.398C133.399 243.401 133.616 242.427 133.844 241.502C134.097 240.588 134.337 239.699 134.577 238.857C135.022 237.163 135.515 235.66 135.947 234.35C136.164 233.689 136.356 233.076 136.548 232.511C136.753 231.958 136.945 231.454 137.125 230.985C137.462 230.108 137.738 229.41 137.943 228.882C138.135 228.401 138.243 228.16 138.255 228.16L138.243 228.148Z" fill="#263238"/>
<path d="M120.13 307.947C120.13 307.947 120.106 307.851 120.094 307.682C120.082 307.478 120.058 307.214 120.034 306.901C119.986 306.168 119.914 305.158 119.83 303.872C119.661 301.204 119.421 297.406 119.132 292.731C118.531 283.32 117.654 270.327 116.068 256.037C115.262 248.886 114.325 242.107 113.351 235.953C112.834 232.876 112.366 229.956 111.825 227.239C111.332 224.511 110.803 221.987 110.323 219.679C109.866 217.372 109.361 215.304 108.94 213.478C108.532 211.651 108.147 210.088 107.823 208.814C107.51 207.564 107.27 206.579 107.101 205.87C107.029 205.557 106.969 205.305 106.921 205.1C106.885 204.92 106.873 204.836 106.873 204.836C106.873 204.836 106.909 204.92 106.969 205.088C107.029 205.281 107.101 205.533 107.198 205.846C107.39 206.555 107.666 207.528 108.015 208.766C108.363 210.04 108.784 211.591 109.217 213.418C109.649 215.244 110.19 217.312 110.671 219.619C111.176 221.927 111.729 224.451 112.234 227.179C112.786 229.896 113.267 232.816 113.808 235.893C114.806 242.047 115.767 248.837 116.572 256.001C118.159 270.303 118.976 283.32 119.493 292.731C119.745 297.442 119.926 301.252 120.034 303.884C120.082 305.17 120.118 306.192 120.142 306.913C120.142 307.238 120.154 307.502 120.154 307.706C120.154 307.887 120.154 307.971 120.154 307.971L120.13 307.947Z" fill="#263238"/>
<path d="M123.963 212.729C123.663 209.484 120.382 207.044 117.137 207.008C113.879 206.972 110.851 208.931 108.855 211.503C106.86 214.075 105.767 217.224 104.865 220.349C102.678 227.981 101.476 236.01 102.413 243.895C103.351 251.779 106.548 259.543 112.209 265.12C113.134 266.022 114.324 266.935 115.586 266.659C116.271 266.514 116.848 266.034 117.365 265.553C128.482 255.505 134.901 240.469 134.468 225.482C134.384 222.477 133.987 219.364 132.329 216.864C130.67 214.364 126.8 211.708 123.963 212.717" fill="#CFDFFA"/>
<path d="M99.6633 186.761C98.1368 189.526 96.6104 192.29 95.084 195.066C94.9759 195.259 94.8316 195.475 94.6153 195.499C94.3749 195.523 94.1946 195.295 94.0624 195.09C90.024 188.889 85.9856 182.687 81.9473 176.485L84.7357 174.898L99.6633 186.761Z" fill="#CFDFFA"/>
<g opacity="0.2">
<path d="M99.6633 186.761C98.1368 189.526 96.6104 192.29 95.084 195.066C94.9759 195.259 94.8316 195.475 94.6153 195.499C94.3749 195.523 94.1946 195.295 94.0624 195.09C90.024 188.889 85.9856 182.687 81.9473 176.485L84.7357 174.898L99.6633 186.761Z" fill="black"/>
</g>
<path d="M124.241 201.724C110.455 193.587 96.6817 185.463 82.8959 177.326C82.4752 177.073 82.0185 176.785 81.8863 176.316C81.718 175.703 82.1748 175.114 82.6195 174.658C88.3044 168.792 96.5615 165.391 104.71 165.98C112.859 166.569 120.696 171.268 124.686 178.408C128.676 185.535 128.808 194.97 124.229 201.736" fill="#CFDFFA"/>
<path d="M88.8574 169.542C88.8574 169.542 89.0377 169.506 89.3983 169.47C89.7588 169.458 90.2757 169.386 90.9607 169.398C92.3189 169.362 94.29 169.458 96.6938 169.854C99.0976 170.251 101.91 171.02 104.867 172.33C107.811 173.64 110.864 175.527 113.641 178.015C116.393 180.527 118.58 183.376 120.179 186.176C121.777 188.977 122.835 191.705 123.46 194.061C124.097 196.416 124.386 198.363 124.482 199.722C124.554 200.395 124.542 200.923 124.566 201.284C124.566 201.645 124.566 201.825 124.554 201.825C124.506 201.825 124.458 201.08 124.289 199.734C124.133 198.387 123.797 196.464 123.124 194.145C121.813 189.541 118.785 183.328 113.304 178.376C107.823 173.424 101.345 171.02 96.6337 170.179C94.266 169.734 92.3069 169.602 90.9607 169.566C89.6146 169.542 88.8574 169.566 88.8574 169.518V169.542Z" fill="#263238"/>
<path d="M118.641 184.892C118.665 184.952 117.871 185.324 116.549 185.841C115.227 186.358 113.388 187.019 111.333 187.68C109.278 188.329 107.391 188.858 106.009 189.194C104.639 189.531 103.773 189.687 103.749 189.627C103.737 189.555 104.566 189.279 105.913 188.858C107.439 188.377 109.218 187.824 111.177 187.211C113.136 186.574 114.903 186.009 116.429 185.517C117.775 185.084 118.617 184.832 118.641 184.892Z" fill="#263238"/>
<path d="M112.138 167.398C112.27 167.386 112.559 169.442 112.631 172.014C112.703 174.574 112.511 176.653 112.378 176.641C112.234 176.641 112.21 174.574 112.138 172.026C112.078 169.478 112.006 167.411 112.138 167.398Z" fill="#263238"/>
<path d="M82.5354 176.851C82.5114 176.791 83.6652 176.37 85.5402 175.793C87.4152 175.216 90.0353 174.483 92.9439 173.774C95.8645 173.077 98.5207 172.536 100.456 172.187C102.391 171.851 103.605 171.695 103.605 171.755C103.617 171.827 102.439 172.103 100.516 172.524C98.6048 172.957 95.9607 173.546 93.0521 174.243C90.1435 174.94 87.5233 175.625 85.6243 176.118C83.7253 176.61 82.5475 176.911 82.5234 176.839L82.5354 176.851Z" fill="#263238"/>
<path d="M105.178 205.042C101.621 202.35 97.8589 201.821 93.3998 201.989C88.9408 202.17 84.6019 203.528 80.5155 205.318C73.5444 208.371 66.9941 212.866 62.8235 219.236C58.6529 225.607 57.2106 234.044 60.3236 240.979C60.636 241.676 61.0327 242.397 61.7298 242.698C62.4629 243.01 63.3043 242.77 64.0615 242.517C71.994 239.933 79.9746 237.325 87.2701 233.275C94.5657 229.224 101.2 223.599 105.106 216.232C106.044 214.465 106.825 212.566 106.981 210.571C107.138 208.576 106.585 206.46 105.166 205.042" fill="#CFDFFA"/>
<path d="M105.251 204.211C105.251 204.211 105.058 204.307 104.686 204.439C104.253 204.584 103.7 204.776 103.027 205.016C102.654 205.136 102.258 205.269 101.825 205.413C101.392 205.569 100.924 205.761 100.419 205.966C99.4214 206.374 98.2555 206.771 97.0296 207.372C96.4046 207.66 95.7556 207.949 95.0825 208.261C94.4094 208.574 93.7364 208.958 93.0273 209.319C91.585 210.028 90.1307 210.93 88.5922 211.843C85.5514 213.766 82.3303 216.074 79.2054 218.802C76.1045 221.566 73.4002 224.463 71.1046 227.227C69.9989 228.646 68.9172 229.98 68.0398 231.314C67.5951 231.975 67.1263 232.588 66.7297 233.225C66.3331 233.85 65.9605 234.463 65.5999 235.04C64.8547 236.181 64.3019 237.287 63.773 238.225C63.5206 238.705 63.2682 239.138 63.0519 239.547C62.8476 239.955 62.6673 240.34 62.499 240.689C62.1745 241.338 61.9221 241.854 61.7178 242.263C61.5375 242.624 61.4293 242.804 61.4173 242.804C61.4053 242.804 61.4774 242.6 61.6336 242.227C61.8139 241.806 62.0423 241.278 62.3307 240.604C62.487 240.244 62.6553 239.859 62.8476 239.439C63.0519 239.018 63.2923 238.573 63.5326 238.092C64.0374 237.131 64.5783 236.013 65.2994 234.859C65.648 234.27 66.0206 233.657 66.4052 233.02C66.7898 232.383 67.2585 231.758 67.7032 231.085C68.5806 229.727 69.6503 228.381 70.7561 226.951C73.0397 224.15 75.756 221.218 78.8809 218.441C82.0299 215.689 85.287 213.381 88.3519 211.458C89.9143 210.545 91.3927 209.656 92.847 208.958C93.5681 208.598 94.2532 208.225 94.9263 207.925C95.6113 207.624 96.2604 207.336 96.8974 207.059C98.1353 206.483 99.3132 206.098 100.335 205.713C100.852 205.533 101.32 205.341 101.765 205.209C102.21 205.076 102.618 204.956 102.991 204.848C103.688 204.644 104.241 204.487 104.686 204.367C105.07 204.259 105.275 204.211 105.287 204.235L105.251 204.211Z" fill="#263238"/>
<path d="M77.475 219.246C77.511 219.378 73.6409 220.628 68.8213 222.034C64.0017 223.44 60.0715 224.474 60.0354 224.342C59.9993 224.21 63.8695 222.96 68.6891 221.553C73.5087 220.147 77.4389 219.114 77.475 219.246Z" fill="#263238"/>
<path d="M77.1147 238.334C77.0426 238.334 76.9705 237.301 76.9224 235.642C76.8743 233.971 76.8743 231.676 76.9344 229.128C77.0065 226.58 77.1387 224.284 77.2829 222.626C77.4272 220.967 77.5594 219.945 77.6195 219.945C77.6916 219.945 77.6796 220.979 77.6195 222.65C77.5594 224.476 77.4993 226.688 77.4152 229.152C77.3551 231.604 77.295 233.827 77.2469 235.654C77.1988 237.313 77.1507 238.346 77.0906 238.346L77.1147 238.334Z" fill="#263238"/>
<path d="M93.4599 230.012C93.3277 230.012 92.883 225.336 92.4864 219.555C92.0898 213.774 91.8734 209.075 92.0056 209.062C92.1379 209.062 92.5826 213.738 92.9792 219.519C93.3758 225.3 93.5921 230 93.4599 230V230.012Z" fill="#263238"/>
<path d="M73.1113 208.611C73.1113 208.538 74.169 208.514 75.8877 208.526C77.5944 208.526 79.9622 208.586 82.5583 208.671C85.1664 208.755 87.5221 208.863 89.2288 208.959C90.9355 209.055 91.9932 209.151 91.9932 209.223C91.9932 209.296 90.9355 209.32 89.2288 209.308C87.5221 209.308 85.1544 209.248 82.5462 209.163C79.9381 209.079 77.5824 208.971 75.8757 208.875C74.169 208.779 73.1113 208.683 73.1233 208.611H73.1113Z" fill="#263238"/>
<path d="M113.977 267.335C113.977 267.335 113.941 267.143 113.917 266.77C113.893 266.349 113.869 265.808 113.845 265.147C113.785 263.741 113.773 261.698 113.821 259.162C113.869 256.638 114.037 253.633 114.325 250.304C114.65 246.975 115.119 243.333 115.78 239.535C116.465 235.737 117.282 232.155 118.136 228.922C119.001 225.701 119.89 222.816 120.72 220.437C121.537 218.045 122.258 216.134 122.811 214.836C123.063 214.223 123.28 213.73 123.436 213.333C123.58 212.997 123.676 212.817 123.688 212.829C123.7 212.841 123.652 213.021 123.532 213.37C123.388 213.766 123.208 214.283 122.991 214.896C122.498 216.218 121.837 218.141 121.056 220.545C120.275 222.937 119.434 225.821 118.58 229.042C117.763 232.275 116.958 235.845 116.273 239.619C115.612 243.405 115.131 247.035 114.782 250.34C114.458 253.657 114.253 256.65 114.169 259.162C114.073 261.674 114.037 263.717 114.037 265.123C114.037 265.784 114.025 266.325 114.013 266.746C114.013 267.118 113.989 267.311 113.977 267.311V267.335Z" fill="#263238"/>
<path d="M116.164 239.129C116.164 239.129 115.587 239.874 114.517 240.944C113.448 242.014 111.933 243.444 110.202 244.958C108.472 246.473 106.849 247.795 105.647 248.72C104.445 249.646 103.676 250.175 103.64 250.114C103.592 250.054 104.289 249.429 105.431 248.444C106.705 247.338 108.207 246.028 109.878 244.586C111.524 243.119 113.027 241.797 114.289 240.679C115.419 239.682 116.128 239.069 116.176 239.129H116.164Z" fill="#263238"/>
<path d="M129.253 249.67C129.253 249.67 128.532 248.769 127.498 247.242C126.368 245.596 124.962 243.541 123.411 241.281C121.825 239.033 120.395 237.014 119.241 235.38C118.171 233.877 117.51 232.928 117.57 232.892C117.618 232.856 118.375 233.721 119.517 235.175C120.659 236.63 122.197 238.685 123.82 241.005C125.431 243.324 126.825 245.476 127.798 247.062C128.76 248.649 129.313 249.646 129.265 249.682L129.253 249.67Z" fill="#263238"/>
<path d="M122.389 216.519C122.461 216.64 118.11 219.56 112.678 223.058C107.245 226.555 102.774 229.296 102.702 229.175C102.63 229.055 106.969 226.135 112.413 222.637C117.846 219.14 122.317 216.399 122.389 216.519Z" fill="#263238"/>
<path d="M134.648 229.752C134.552 229.848 131.608 227.132 128.074 223.683C124.54 220.233 121.752 217.349 121.848 217.252C121.944 217.156 124.889 219.873 128.423 223.334C131.956 226.784 134.744 229.668 134.648 229.764V229.752Z" fill="#263238"/>
<path d="M137.725 229.487L141.451 229.175C144.095 228.959 146.667 228.177 148.987 226.867C150.129 226.218 151.283 225.593 152.497 225.1C157.112 223.25 162.256 223.574 167.22 223.334C175.321 222.925 183.337 220.882 190.645 217.348C191.065 217.144 191.438 216.831 191.666 216.423C192.436 215.029 191.005 213.779 189.779 213.033C183.494 209.163 177.099 205.233 169.96 203.31C162.833 201.387 154.744 201.711 148.65 205.894C141.511 210.81 138.903 220.906 137.701 229.487" fill="#CFDFFA"/>
<path d="M191.763 215.973C191.763 215.973 191.534 215.888 191.126 215.672C190.681 215.432 190.092 215.131 189.359 214.747C187.82 213.941 185.621 212.751 182.821 211.405C180.032 210.083 176.643 208.593 172.713 207.511C168.794 206.417 164.275 205.853 159.612 206.454C154.973 207.066 150.694 208.869 147.665 211.586C144.624 214.29 142.761 217.547 141.439 220.323C140.129 223.124 139.324 225.504 138.735 227.126C138.458 227.907 138.242 228.532 138.074 229.013C137.918 229.446 137.833 229.662 137.809 229.662C137.797 229.662 137.845 229.422 137.978 228.989C138.122 228.508 138.314 227.871 138.555 227.078C139.083 225.431 139.841 223.028 141.127 220.191C142.413 217.379 144.264 214.05 147.364 211.261C150.453 208.461 154.828 206.598 159.552 205.985C164.299 205.372 168.89 205.985 172.845 207.103C176.811 208.22 180.2 209.759 182.989 211.129C185.765 212.511 187.953 213.749 189.455 214.614C190.164 215.035 190.741 215.372 191.174 215.624C191.57 215.864 191.763 215.997 191.763 216.009V215.973Z" fill="#263238"/>
<path d="M182.808 220.779C182.736 220.888 177.856 217.739 171.907 213.724C165.957 209.722 161.21 206.381 161.282 206.261C161.354 206.152 166.234 209.301 172.183 213.316C178.121 217.318 182.88 220.659 182.808 220.779Z" fill="#263238"/>
<path d="M178.122 205.798C178.146 205.931 176.451 206.363 174.312 206.568C172.172 206.772 170.43 206.64 170.43 206.508C170.43 206.363 172.16 206.267 174.264 206.075C176.379 205.883 178.098 205.666 178.122 205.798Z" fill="#263238"/>
<path d="M156.234 201.886C156.354 201.958 155.633 203.388 154.635 205.083C153.638 206.777 152.724 208.099 152.604 208.027C152.484 207.955 153.205 206.525 154.202 204.83C155.2 203.136 156.113 201.814 156.234 201.886Z" fill="#263238"/>
<path d="M160.609 223.645C160.609 223.645 159.672 223.225 158.266 222.371C156.859 221.518 154.948 220.256 152.917 218.79C150.886 217.311 149.083 215.917 147.797 214.896C146.511 213.874 145.73 213.213 145.766 213.153C145.802 213.093 146.655 213.658 148.001 214.607C149.468 215.677 151.234 216.963 153.206 218.381C155.237 219.859 157.1 221.145 158.458 222.071C159.816 222.996 160.657 223.573 160.621 223.633L160.609 223.645Z" fill="#263238"/>
<path d="M143.23 245.345C139.672 244.408 135.43 247.869 134.696 251.475C133.963 255.08 135.321 258.77 136.896 262.099C140.405 269.455 145.237 276.282 151.619 281.354C157.989 286.438 165.97 289.683 174.119 289.635C172.616 282.652 174.515 275.344 173.674 268.241C172.941 262.039 170.056 256.126 165.621 251.739C161.186 247.352 155.237 244.516 149.035 243.843C146.764 243.602 144.131 243.242 143.23 245.333" fill="#CFDFFA"/>
<path d="M174.119 289.633C174.119 289.633 173.938 289.561 173.614 289.393C173.289 289.213 172.833 288.936 172.28 288.503C171.162 287.65 169.888 286.016 168.77 283.804C168.205 282.698 167.568 281.508 166.943 280.186C166.342 278.852 165.705 277.446 165.032 275.956C164.359 274.477 163.602 272.939 162.677 271.437C161.751 269.934 160.657 268.468 159.443 267.038C157.004 264.177 154.395 261.701 152.124 259.333C149.84 256.978 147.929 254.706 146.547 252.639C145.153 250.584 144.3 248.733 143.819 247.435C143.59 246.774 143.422 246.269 143.338 245.908C143.254 245.56 143.206 245.367 143.23 245.367C143.278 245.355 143.482 246.088 143.999 247.375C144.528 248.649 145.417 250.439 146.836 252.459C148.242 254.478 150.165 256.701 152.448 259.033C154.72 261.377 157.352 263.841 159.816 266.737C161.042 268.179 162.16 269.67 163.085 271.208C164.023 272.735 164.768 274.297 165.441 275.799C166.102 277.29 166.727 278.72 167.316 280.054C167.917 281.376 168.53 282.578 169.071 283.684C170.14 285.907 171.342 287.518 172.4 288.395C173.434 289.297 174.143 289.621 174.119 289.669V289.633Z" fill="#263238"/>
<path d="M155.706 283.833C155.645 283.821 155.754 282.908 156.03 281.441C156.307 279.975 156.763 277.968 157.388 275.768C158.001 273.581 158.662 271.622 159.191 270.228C159.72 268.833 160.104 267.992 160.165 268.016C160.237 268.04 159.96 268.918 159.528 270.348C159.083 271.766 158.482 273.725 157.869 275.913C157.256 278.1 156.751 280.083 156.379 281.525C156.018 282.968 155.778 283.857 155.706 283.845V283.833Z" fill="#263238"/>
<path d="M173.446 266.673C173.422 266.745 172.472 266.493 170.934 266.096C169.395 265.699 167.28 265.147 164.924 264.618C162.568 264.089 160.417 263.68 158.867 263.38C157.304 263.079 156.343 262.899 156.355 262.827C156.355 262.767 157.34 262.827 158.927 263.031C160.501 263.236 162.677 263.596 165.044 264.137C167.412 264.666 169.527 265.279 171.042 265.759C172.556 266.252 173.47 266.613 173.446 266.673Z" fill="#263238"/>
<path d="M142.509 271.656C142.449 271.644 142.581 270.587 142.894 268.88C143.206 267.185 143.699 264.842 144.372 262.294C145.033 259.745 145.742 257.462 146.307 255.827C146.86 254.193 147.269 253.195 147.329 253.219C147.401 253.243 147.113 254.277 146.644 255.935C146.175 257.594 145.526 259.878 144.853 262.426C144.192 264.974 143.639 267.281 143.242 268.964C142.846 270.647 142.581 271.68 142.509 271.668V271.656Z" fill="#263238"/>
<path d="M165.273 251.732C165.261 251.864 160.814 251.504 155.345 250.927C149.877 250.35 145.454 249.773 145.478 249.629C145.49 249.497 149.937 249.857 155.405 250.434C160.874 251.011 165.285 251.588 165.273 251.732Z" fill="#263238"/>
<path d="M162.017 305.604C162.017 305.736 146.392 305.856 127.138 305.856C107.883 305.856 92.2588 305.748 92.2588 305.604C92.2588 305.46 107.871 305.352 127.138 305.352C146.404 305.352 162.017 305.46 162.017 305.604Z" fill="#455A64"/>
<path d="M151.151 325.698C151.151 325.83 140.622 325.95 127.654 325.95C114.685 325.95 104.145 325.842 104.145 325.698C104.145 325.553 114.661 325.445 127.654 325.445C140.646 325.445 151.151 325.553 151.151 325.698Z" fill="#455A64"/>
<path d="M151.56 328.573C151.56 328.705 141.031 328.825 128.063 328.825C115.094 328.825 104.554 328.717 104.554 328.573C104.554 328.428 115.07 328.32 128.063 328.32C141.055 328.32 151.56 328.428 151.56 328.573Z" fill="#455A64"/>
<path d="M151.56 323.331C151.56 323.463 140.671 323.583 127.246 323.583C113.821 323.583 102.932 323.475 102.932 323.331C102.932 323.186 113.809 323.078 127.246 323.078C140.683 323.078 151.56 323.186 151.56 323.331Z" fill="#455A64"/>
</svg>
