<svg width="285" height="300" viewBox="0 0 285 300" fill="none" xmlns="http://www.w3.org/2000/svg">
<g clip-path="url(#clip0_4024_5796)">
<path d="M161.199 9.08057H21.9097C19.2586 9.08057 17.1094 11.2297 17.1094 13.8809V208.147C17.1094 210.798 19.2586 212.947 21.9097 212.947H161.199C163.85 212.947 165.999 210.798 165.999 208.147V13.8809C165.999 11.2297 163.85 9.08057 161.199 9.08057Z" fill="#F5F5F5"/>
<path d="M274.264 21.2213L274.544 22.6348L271.737 37.8024C269.724 39.2759 267.197 39.8559 264.744 39.4025L248.876 36.469C248.876 36.469 246.356 35.909 247.056 32.6288C247.056 32.6288 247.182 30.902 248.663 30.7886C248.663 30.7886 245.589 29.5419 245.929 27.1684C246.269 24.8016 248.016 24.8282 248.016 24.8282C248.016 24.8282 245.136 24.1015 245.436 21.4347C245.736 18.7678 247.289 18.7612 247.289 18.7612C247.289 18.7612 243.936 17.9478 244.776 14.9876C245.616 12.0274 248.496 12.7541 248.496 12.7541L259.783 14.8409L269.677 16.6677C271.991 17.0944 273.811 18.8945 274.271 21.208L274.264 21.2213Z" fill="#EBEBEB"/>
<path d="M271.47 17.3411C271.47 17.3411 267.997 14.1942 266.77 10.774C265.883 8.29384 265.943 5.49366 265.943 5.49366C265.97 5.36031 266.17 4.1669 266.337 3.18684C266.47 2.38678 265.95 1.62673 265.157 1.45339C263.49 1.0867 260.55 2.04676 259.663 5.09363C258.343 9.6406 259.469 12.7408 259.509 14.1209L259.549 15.5077L271.464 17.3478L271.47 17.3411Z" fill="#EBEBEB"/>
<path d="M269.295 40.088L280.375 42.1355L284.537 19.6153L273.457 17.5678L269.295 40.088Z" fill="#EBEBEB"/>
<path d="M269.289 40.0759C269.289 40.0759 270.176 35.0289 271.329 28.8085C272.476 22.5881 273.429 17.5544 273.456 17.5544C273.483 17.5544 272.569 22.6014 271.416 28.8219C270.269 35.0356 269.316 40.0759 269.289 40.0693V40.0759Z" fill="#E0E0E0"/>
<path d="M280.379 42.1228C280.379 42.1228 281.266 37.0758 282.419 30.8554C283.566 24.635 284.519 19.6013 284.546 19.6013C284.573 19.6013 283.659 24.6483 282.506 30.8687C281.359 37.0825 280.406 42.1228 280.379 42.1161V42.1228Z" fill="#E0E0E0"/>
<path d="M276.419 23.4349C276.205 24.5816 276.965 25.6817 278.112 25.8951C279.259 26.1084 280.359 25.3484 280.572 24.2016C280.786 23.0549 280.026 21.9548 278.879 21.7415C277.732 21.5281 276.632 22.2882 276.419 23.4349Z" fill="white"/>
<path d="M257.184 14.3743C257.184 14.3743 258.397 14.5543 259.89 14.8276C261.384 15.101 262.584 15.3477 262.584 15.3677C262.584 15.3943 261.371 15.1877 259.877 14.9143C258.384 14.641 257.184 14.3943 257.184 14.3743Z" fill="#E0E0E0"/>
<path d="M247.77 24.9083C247.77 24.9083 248.55 25.0083 249.503 25.1817C250.456 25.355 251.223 25.5217 251.223 25.5417C251.223 25.5684 250.443 25.4417 249.49 25.2683C248.536 25.095 247.77 24.9283 247.77 24.9083Z" fill="#E0E0E0"/>
<path d="M247.082 18.6812C247.082 18.6812 248.189 18.8412 249.536 19.0878C250.889 19.3345 251.982 19.5612 251.976 19.5812C251.976 19.6079 250.869 19.4212 249.522 19.1745C248.169 18.9278 247.075 18.7012 247.082 18.6812Z" fill="#E0E0E0"/>
<path d="M247.961 30.6953C247.961 30.6953 249.068 30.8553 250.414 31.102C251.768 31.3487 252.861 31.5754 252.855 31.5954C252.855 31.622 251.748 31.4354 250.401 31.1887C249.048 30.942 247.954 30.7153 247.961 30.6953Z" fill="#E0E0E0"/>
<path d="M275.949 18.6812C275.949 18.6812 277.503 18.9212 279.416 19.2745C281.33 19.6279 282.87 19.9346 282.87 19.9546C282.87 19.9812 281.316 19.7146 279.403 19.3612C277.496 19.0078 275.949 18.7012 275.949 18.6812Z" fill="white"/>
<path d="M246.489 22.5814C246.489 22.5814 246.469 22.5348 246.443 22.4548C246.416 22.3681 246.389 22.2481 246.369 22.0881C246.349 21.9281 246.342 21.7414 246.369 21.5347C246.389 21.328 246.436 21.1013 246.516 20.868C246.596 20.6413 246.703 20.4346 246.816 20.2546C246.929 20.0813 247.049 19.9346 247.163 19.8213C247.276 19.7079 247.376 19.6279 247.449 19.5812C247.523 19.5346 247.563 19.5079 247.569 19.5146C247.576 19.5279 247.423 19.6412 247.209 19.8679C247.103 19.9813 246.996 20.1279 246.883 20.3013C246.776 20.4746 246.676 20.6746 246.596 20.8947C246.522 21.1147 246.476 21.3347 246.449 21.5414C246.429 21.7414 246.422 21.9281 246.436 22.0814C246.456 22.3881 246.516 22.5748 246.496 22.5814H246.489Z" fill="white"/>
<path d="M245.909 16.5744C245.909 16.5744 245.795 16.4877 245.689 16.2877C245.582 16.0944 245.482 15.7877 245.489 15.441C245.495 15.0943 245.602 14.7943 245.722 14.6009C245.835 14.4076 245.949 14.3209 245.955 14.3209C245.969 14.3343 245.875 14.4343 245.782 14.6276C245.682 14.821 245.589 15.1076 245.582 15.441C245.582 15.7677 245.662 16.061 245.749 16.2611C245.842 16.4544 245.929 16.5611 245.915 16.5744H245.909Z" fill="white"/>
<path d="M247.314 29.0419C247.314 29.0419 247.168 28.9686 247.008 28.7619C246.848 28.5619 246.681 28.2219 246.688 27.8152C246.688 27.4152 246.868 27.0751 247.034 26.8751C247.201 26.6751 247.348 26.6018 247.348 26.6084C247.354 26.6218 247.228 26.7151 247.081 26.9151C246.934 27.1151 246.781 27.4352 246.774 27.8152C246.774 28.1952 246.914 28.5219 247.054 28.7219C247.194 28.9286 247.321 29.0219 247.314 29.0353V29.0419Z" fill="white"/>
<path d="M248.584 34.8089C248.584 34.8089 248.477 34.7089 248.371 34.5089C248.264 34.3022 248.171 33.9955 248.164 33.6355C248.164 33.2822 248.257 32.9688 248.364 32.7621C248.471 32.5555 248.571 32.4554 248.577 32.4554C248.591 32.4621 248.511 32.5821 248.424 32.7888C248.337 32.9955 248.257 33.2955 248.257 33.6355C248.257 33.9755 248.344 34.2756 248.431 34.4822C248.517 34.6889 248.597 34.8023 248.591 34.8089H248.584Z" fill="white"/>
<path d="M259.798 10.3606C259.798 10.3606 259.764 10.2739 259.718 10.1073C259.698 10.0273 259.671 9.92725 259.644 9.80724C259.624 9.68724 259.591 9.55389 259.571 9.40722C259.524 9.1072 259.491 8.74717 259.484 8.34715C259.484 7.94712 259.504 7.50709 259.571 7.04706C259.638 6.58703 259.744 6.16033 259.864 5.78031C259.984 5.40028 260.118 5.06026 260.251 4.79358C260.311 4.65357 260.378 4.53356 260.438 4.42688C260.491 4.32021 260.544 4.23354 260.591 4.1602C260.678 4.01352 260.731 3.94019 260.738 3.94019C260.738 3.94019 260.704 4.02686 260.624 4.17353C260.584 4.24687 260.538 4.34021 260.484 4.44689C260.431 4.55356 260.371 4.67357 260.311 4.81358C260.191 5.08693 260.064 5.42028 259.944 5.80031C259.831 6.18034 259.731 6.60703 259.664 7.06039C259.598 7.51376 259.578 7.94712 259.578 8.34715C259.578 8.74051 259.604 9.10053 259.644 9.40055C259.658 9.54723 259.684 9.68057 259.704 9.80058C259.724 9.92058 259.744 10.0206 259.758 10.1006C259.791 10.2673 259.804 10.3606 259.804 10.3606H259.798Z" fill="white"/>
<path d="M257.11 159.937L257.863 160.797L261.944 172.305C261.15 174.111 259.644 175.512 257.783 176.172L245.743 180.439C245.743 180.439 243.789 181.052 242.976 178.525C242.976 178.525 242.376 177.292 243.349 176.625C243.349 176.625 240.749 176.985 240.042 175.225C239.336 173.465 240.549 172.798 240.549 172.798C240.549 172.798 238.289 173.438 237.435 171.491C236.582 169.545 237.649 168.924 237.649 168.924C237.649 168.924 235.029 169.691 234.435 167.331C233.842 164.971 236.102 164.331 236.102 164.331L244.663 161.297L252.17 158.637C253.93 158.017 255.89 158.53 257.117 159.931L257.11 159.937Z" fill="#EBEBEB"/>
<path d="M253.664 158.377C253.664 158.377 250.037 157.597 247.843 155.737C246.25 154.384 245.19 152.443 245.19 152.443C245.157 152.343 244.823 151.443 244.55 150.703C244.323 150.097 243.67 149.783 243.056 149.983C241.763 150.39 240.13 152.21 240.73 154.65C241.623 158.29 243.623 159.964 244.196 160.904L244.77 161.837L253.664 158.384V158.377Z" fill="#EBEBEB"/>
<path d="M261.159 174.849L269.566 171.868L263.509 154.782L255.101 157.763L261.159 174.849Z" fill="#EBEBEB"/>
<path d="M261.163 174.832C261.163 174.832 259.777 171.018 258.103 166.304C256.43 161.584 255.09 157.757 255.11 157.75C255.13 157.744 256.496 161.564 258.17 166.284C259.843 171.005 261.183 174.832 261.163 174.838V174.832Z" fill="#E0E0E0"/>
<path d="M269.57 171.845C269.57 171.845 268.183 168.031 266.509 163.318C264.836 158.597 263.496 154.77 263.516 154.764C263.536 154.764 264.903 158.577 266.576 163.298C268.249 168.018 269.59 171.845 269.57 171.851V171.845Z" fill="#E0E0E0"/>
<path d="M259.462 160.604C259.768 161.471 260.722 161.931 261.595 161.617C262.462 161.311 262.922 160.357 262.609 159.484C262.295 158.611 261.349 158.157 260.475 158.471C259.608 158.777 259.148 159.731 259.462 160.604Z" fill="white"/>
<path d="M242.688 161.997C242.688 161.997 243.594 161.637 244.721 161.237C245.854 160.837 246.774 160.524 246.781 160.544C246.788 160.564 245.874 160.904 244.748 161.304C243.614 161.704 242.694 162.017 242.688 161.997Z" fill="#E0E0E0"/>
<path d="M240.402 172.945C240.402 172.945 240.976 172.705 241.702 172.445C242.422 172.191 243.016 171.998 243.023 172.011C243.023 172.031 242.449 172.251 241.722 172.511C241.002 172.765 240.409 172.958 240.402 172.945Z" fill="#E0E0E0"/>
<path d="M237.469 168.945C237.469 168.945 238.289 168.618 239.316 168.251C240.342 167.885 241.176 167.605 241.182 167.625C241.182 167.645 240.362 167.951 239.336 168.318C238.309 168.685 237.475 168.965 237.469 168.945Z" fill="#E0E0E0"/>
<path d="M242.828 176.838C242.828 176.838 243.648 176.512 244.675 176.145C245.702 175.778 246.535 175.498 246.542 175.518C246.542 175.538 245.722 175.845 244.695 176.212C243.668 176.578 242.835 176.858 242.828 176.838Z" fill="#E0E0E0"/>
<path d="M257.262 157.524C257.262 157.524 258.422 157.077 259.875 156.564C261.322 156.05 262.502 155.65 262.509 155.664C262.509 155.684 261.349 156.11 259.895 156.624C258.448 157.137 257.268 157.537 257.262 157.524Z" fill="white"/>
<path d="M238.61 171.858C238.61 171.858 238.576 171.838 238.523 171.791C238.47 171.745 238.403 171.671 238.33 171.571C238.256 171.471 238.176 171.345 238.103 171.191C238.036 171.038 237.976 170.865 237.936 170.678C237.903 170.491 237.89 170.305 237.896 170.138C237.91 169.971 237.93 169.825 237.963 169.705C237.996 169.585 238.03 169.491 238.063 169.425C238.096 169.365 238.11 169.331 238.116 169.331C238.13 169.331 238.063 169.478 238.01 169.718C237.983 169.838 237.963 169.985 237.956 170.145C237.956 170.305 237.963 170.485 237.996 170.665C238.03 170.845 238.09 171.018 238.15 171.165C238.216 171.311 238.283 171.438 238.356 171.538C238.496 171.738 238.603 171.845 238.596 171.858H238.61Z" fill="white"/>
<path d="M235.828 167.971C235.828 167.971 235.715 167.958 235.561 167.864C235.408 167.771 235.221 167.604 235.088 167.364C234.955 167.124 234.908 166.878 234.915 166.698C234.915 166.518 234.955 166.418 234.961 166.418C234.975 166.418 234.955 166.524 234.961 166.698C234.968 166.871 235.021 167.104 235.148 167.331C235.275 167.558 235.448 167.724 235.588 167.824C235.728 167.924 235.828 167.964 235.821 167.971H235.828Z" fill="white"/>
<path d="M241.73 175.958C241.73 175.958 241.603 175.965 241.41 175.892C241.223 175.818 240.97 175.645 240.816 175.372C240.663 175.092 240.65 174.792 240.683 174.592C240.716 174.392 240.79 174.278 240.796 174.285C240.81 174.285 240.756 174.405 240.736 174.598C240.716 174.792 240.736 175.078 240.883 175.338C241.03 175.598 241.256 175.765 241.436 175.852C241.616 175.938 241.743 175.952 241.736 175.965L241.73 175.958Z" fill="white"/>
<path d="M244.883 179.412C244.883 179.412 244.77 179.385 244.616 179.292C244.463 179.192 244.27 179.019 244.13 178.779C243.99 178.539 243.93 178.285 243.923 178.099C243.916 177.919 243.943 177.805 243.95 177.805C243.963 177.805 243.95 177.919 243.976 178.092C243.996 178.265 244.063 178.505 244.196 178.739C244.33 178.972 244.51 179.145 244.65 179.252C244.79 179.359 244.89 179.405 244.89 179.419L244.883 179.412Z" fill="white"/>
<path d="M242.887 158.21C242.887 158.21 242.827 158.164 242.734 158.07C242.687 158.024 242.627 157.964 242.567 157.89C242.507 157.817 242.434 157.737 242.361 157.644C242.207 157.457 242.047 157.224 241.881 156.95C241.721 156.677 241.56 156.364 241.427 156.03C241.294 155.69 241.194 155.357 241.127 155.044C241.06 154.737 241.02 154.45 241 154.21C240.987 154.09 240.987 153.983 240.98 153.89C240.98 153.797 240.98 153.717 240.98 153.643C240.98 153.51 240.987 153.437 240.994 153.437C240.994 153.437 241 153.51 241.007 153.643C241.007 153.71 241.007 153.79 241.02 153.883C241.027 153.977 241.034 154.083 241.047 154.203C241.074 154.437 241.12 154.717 241.187 155.024C241.26 155.33 241.36 155.657 241.494 155.997C241.627 156.33 241.787 156.644 241.941 156.91C242.101 157.177 242.261 157.417 242.401 157.604C242.467 157.704 242.541 157.784 242.601 157.857C242.661 157.93 242.714 157.99 242.761 158.044C242.847 158.144 242.894 158.197 242.894 158.204L242.887 158.21Z" fill="white"/>
<path d="M153.012 241.903H120.55C115.649 241.903 111.676 245.876 111.676 250.777V283.239C111.676 288.14 115.649 292.113 120.55 292.113H153.012C157.913 292.113 161.886 288.14 161.886 283.239V250.777C161.886 245.876 157.913 241.903 153.012 241.903Z" fill="#E0E0E0"/>
<path d="M143.996 241.903H111.534C106.633 241.903 102.66 245.876 102.66 250.777V283.239C102.66 288.14 106.633 292.113 111.534 292.113H143.996C148.897 292.113 152.87 288.14 152.87 283.239V250.777C152.87 245.876 148.897 241.903 143.996 241.903Z" fill="#EBEBEB"/>
<path d="M110.426 267.731L115.486 262.678L125.24 271.345L141.528 254.997L146.228 260.051L124.52 281.099L110.426 267.731Z" fill="white"/>
<path d="M63.7422 252.684H42.5341C37.6331 252.684 33.6602 256.657 33.6602 261.558V282.766C33.6602 287.667 37.6331 291.64 42.5341 291.64H63.7422C68.6431 291.64 72.6161 287.667 72.6161 282.766V261.558C72.6161 256.657 68.6431 252.684 63.7422 252.684Z" fill="#E0E0E0"/>
<path d="M56.75 252.684H35.5419C30.641 252.684 26.668 256.657 26.668 261.558V282.766C26.668 287.667 30.641 291.64 35.5419 291.64H56.75C61.6509 291.64 65.6239 287.667 65.6239 282.766V261.558C65.6239 256.657 61.6509 252.684 56.75 252.684Z" fill="#EBEBEB"/>
<path d="M32.6953 272.718L36.6222 268.798L44.1894 275.525L56.8236 262.838L60.4705 266.758L43.6294 283.092L32.6953 272.718Z" fill="white"/>
<path d="M275.386 290.486C275.386 290.579 215.409 290.659 141.444 290.659C67.4789 290.659 7.48828 290.579 7.48828 290.486C7.48828 290.393 67.4523 290.313 141.444 290.313C215.435 290.313 275.386 290.393 275.386 290.486Z" fill="#263238"/>
<path d="M248.537 271.391C248.537 271.391 245.757 252.284 245.99 241.169C246.224 230.055 245.977 217.548 245.977 217.548H247.257C247.257 217.548 246.391 239.609 247.331 252.917C248.271 266.211 250.757 271.391 250.757 271.391H248.531" fill="#263238"/>
<path d="M256.818 196.053C256.558 195.4 256.245 194.72 255.651 194.346C254.838 193.833 253.771 194.046 252.864 194.366C248.998 195.733 245.564 202.947 244.004 206.74L249.138 224.048C258.412 215.448 260.012 204.16 256.811 196.053H256.818Z" fill="#919CAF"/>
<path d="M255.35 195.046C255.35 195.046 255.33 195.126 255.277 195.273C255.21 195.44 255.13 195.646 255.024 195.906C254.797 196.453 254.484 197.24 254.104 198.227C253.344 200.193 252.383 202.94 251.523 206.034C250.663 209.134 250.077 211.981 249.71 214.054C249.53 215.094 249.39 215.934 249.303 216.514C249.257 216.788 249.223 217.008 249.197 217.181C249.17 217.334 249.15 217.414 249.143 217.414C249.137 217.414 249.143 217.334 249.157 217.174C249.177 216.994 249.197 216.774 249.23 216.501C249.29 215.914 249.41 215.068 249.57 214.028C249.897 211.941 250.463 209.081 251.33 205.974C252.197 202.867 253.184 200.12 253.977 198.167C254.37 197.186 254.71 196.406 254.957 195.866C255.077 195.62 255.17 195.413 255.244 195.253C255.31 195.113 255.35 195.04 255.357 195.046H255.35Z" fill="#263238"/>
<path d="M246.859 228.195C242.046 225.535 239.205 220.528 238.945 215.034C238.759 211.194 239.939 207.427 241.279 203.82C241.392 203.507 241.532 203.173 241.825 203.007C242.232 202.78 242.732 202.98 243.139 203.213C246.639 205.207 248.759 209.007 249.886 212.867C250.639 215.441 251.026 218.148 250.679 220.808C250.333 223.461 248.813 226.355 246.872 228.195" fill="#455A64"/>
<path d="M246.857 228.195C246.857 228.195 246.843 228.115 246.837 227.962C246.837 227.788 246.83 227.568 246.823 227.295C246.823 226.722 246.797 225.882 246.75 224.855C246.657 222.795 246.39 219.961 245.857 216.861C245.323 213.761 244.676 210.987 244.196 208.981C243.963 208 243.77 207.194 243.63 206.607C243.57 206.347 243.523 206.127 243.483 205.96C243.45 205.814 243.436 205.734 243.443 205.734C243.45 205.734 243.476 205.807 243.523 205.954C243.57 206.12 243.636 206.334 243.71 206.594C243.87 207.147 244.09 207.954 244.343 208.954C244.856 210.954 245.53 213.728 246.063 216.834C246.597 219.941 246.843 222.795 246.897 224.862C246.923 225.895 246.923 226.728 246.897 227.308C246.883 227.575 246.877 227.795 246.87 227.975C246.863 228.128 246.857 228.208 246.843 228.208L246.857 228.195Z" fill="#263238"/>
<g opacity="0.3">
<path d="M246.859 228.195C242.046 225.535 239.205 220.528 238.945 215.034C238.759 211.194 239.939 207.427 241.279 203.82C241.392 203.507 241.532 203.173 241.825 203.007C242.232 202.78 242.732 202.98 243.139 203.213C246.639 205.207 248.759 209.007 249.886 212.867C250.639 215.441 251.026 218.148 250.679 220.808C250.333 223.461 248.813 226.355 246.872 228.195" fill="#919CAF"/>
</g>
<path d="M252.285 257.431C257.025 258.471 260.926 261.811 265.499 263.438C268.526 264.511 271.946 264.891 274.36 267.011C273.78 265.551 272.406 264.571 271.073 263.738C267.313 261.391 263.286 259.471 259.099 258.024C256.945 257.284 254.612 256.664 252.425 257.271" fill="#919CAF"/>
<path d="M245.439 261.651C239.506 261.557 233.259 256.504 227.352 256.204C233.532 254.21 242.386 255.837 245.439 261.651Z" fill="#919CAF"/>
<path d="M247.758 247.417C250.771 246.33 254.078 246.276 257.245 246.77C260.412 247.263 263.466 248.277 266.506 249.29C266.199 247.23 264.532 245.683 262.966 244.31C261.785 243.276 260.599 242.243 259.245 241.449C257.892 240.663 256.352 240.123 254.785 240.189C252.898 240.269 251.098 241.243 249.865 242.67C248.625 244.096 247.958 245.536 247.758 247.41" fill="#919CAF"/>
<path d="M235.577 240.863C231.844 237.676 226.183 237.982 221.27 238.096C228.817 241.703 236.951 246.656 243.458 251.923C243.658 248.45 240.297 244.896 235.577 240.863Z" fill="#455A64"/>
<g opacity="0.3">
<path d="M235.577 240.863C231.844 237.676 226.183 237.982 221.27 238.096C228.817 241.703 236.951 246.656 243.458 251.923C243.658 248.45 240.297 244.896 235.577 240.863Z" fill="#919CAF"/>
</g>
<path d="M249.438 236.462C251.318 235.209 253.219 234.016 255.185 233.122C257.152 232.229 258.986 230.809 260.886 229.775C263.346 228.442 265.479 226.588 267.74 224.935C270 223.282 272.48 221.788 275.247 221.355C272.993 220.888 270.633 221.141 268.413 221.748C266.193 222.355 264.079 223.302 261.979 224.248C259.066 225.562 256.099 226.908 253.719 229.035C251.338 231.169 249.185 233.269 249.438 236.456" fill="#919CAF"/>
<path d="M265.392 261.651C265.392 261.651 265.325 261.631 265.205 261.571C265.065 261.497 264.892 261.411 264.685 261.304C264.238 261.064 263.598 260.711 262.792 260.311C262.392 260.097 261.952 259.877 261.465 259.651C260.992 259.417 260.471 259.184 259.925 258.944C258.831 258.477 257.605 257.991 256.271 257.67C254.938 257.344 253.618 257.27 252.464 257.577C251.884 257.717 251.338 257.857 250.851 258.057C250.364 258.257 249.931 258.484 249.551 258.724C248.791 259.204 248.257 259.711 247.917 260.077C247.571 260.444 247.404 260.671 247.391 260.657C247.391 260.657 247.424 260.591 247.497 260.484C247.571 260.371 247.691 260.217 247.857 260.024C248.184 259.637 248.711 259.104 249.471 258.604C249.851 258.351 250.291 258.111 250.784 257.897C251.278 257.684 251.838 257.537 252.418 257.39C253.591 257.07 254.971 257.137 256.318 257.47C257.671 257.79 258.905 258.291 260.005 258.771C260.552 259.011 261.072 259.257 261.545 259.497C262.025 259.731 262.465 259.957 262.858 260.177C263.658 260.604 264.292 260.977 264.725 261.237C264.925 261.357 265.092 261.457 265.225 261.537C265.338 261.611 265.398 261.651 265.392 261.657V261.651Z" fill="#263238"/>
<path d="M241.012 258.711C241.012 258.711 241.152 258.737 241.385 258.817C241.619 258.897 241.952 259.037 242.352 259.237C243.152 259.631 244.199 260.304 245.186 261.251C246.172 262.198 246.886 263.224 247.306 264.004C247.519 264.398 247.672 264.724 247.766 264.951C247.859 265.184 247.906 265.311 247.892 265.318C247.859 265.331 247.639 264.831 247.179 264.078C246.726 263.324 246.006 262.338 245.039 261.404C244.072 260.477 243.052 259.797 242.279 259.371C241.505 258.944 240.999 258.744 241.012 258.711Z" fill="#263238"/>
<path d="M227.875 240.563C227.875 240.563 227.962 240.583 228.128 240.636C228.315 240.703 228.548 240.783 228.842 240.889C229.155 241.009 229.535 241.143 229.962 241.303C230.402 241.463 230.875 241.703 231.415 241.943C233.549 242.909 236.396 244.543 239.142 246.863C240.496 248.043 241.723 249.243 242.743 250.41C243.763 251.583 244.629 252.69 245.303 253.65C245.983 254.61 246.496 255.41 246.843 255.964C247.01 256.224 247.143 256.437 247.25 256.597C247.343 256.744 247.39 256.824 247.383 256.824C247.376 256.824 247.323 256.757 247.216 256.617C247.11 256.477 246.963 256.27 246.776 256.004C246.403 255.464 245.87 254.677 245.183 253.73C244.496 252.783 243.623 251.69 242.603 250.53C241.576 249.37 240.356 248.183 239.009 247.016C236.282 244.71 233.469 243.069 231.355 242.069C230.822 241.823 230.355 241.576 229.922 241.403C229.495 241.229 229.128 241.083 228.815 240.956C228.528 240.836 228.295 240.743 228.115 240.663C227.955 240.596 227.875 240.556 227.875 240.549V240.563Z" fill="#263238"/>
<path d="M256.659 244.083C256.659 244.083 256.486 244.076 256.186 244.023C256.025 243.99 255.839 243.956 255.639 243.923C255.425 243.883 255.179 243.883 254.912 243.856C253.845 243.776 252.292 243.87 250.832 244.663C250.098 245.036 249.478 245.536 248.978 246.043C248.465 246.543 248.078 247.063 247.785 247.517C247.192 248.43 247.005 249.083 246.972 249.077C246.958 249.077 246.992 248.903 247.092 248.617C247.198 248.33 247.372 247.91 247.658 247.443C247.938 246.97 248.325 246.43 248.838 245.91C249.345 245.39 249.978 244.863 250.732 244.483C252.232 243.663 253.845 243.596 254.925 243.716C255.199 243.756 255.445 243.763 255.659 243.816C255.859 243.87 256.039 243.91 256.206 243.956C256.506 244.036 256.666 244.083 256.659 244.096V244.083Z" fill="#263238"/>
<path d="M262.627 225.575C262.627 225.575 262.553 225.628 262.4 225.715C262.227 225.808 262.007 225.928 261.74 226.075C261.166 226.389 260.333 226.842 259.326 227.435C258.326 228.035 257.146 228.775 255.886 229.675C254.633 230.575 253.286 231.622 252.046 232.889C251.433 233.529 250.872 234.196 250.479 234.922C250.092 235.669 249.719 236.389 249.379 237.083C248.692 238.469 248.132 239.743 247.732 240.836C247.332 241.93 247.079 242.843 246.932 243.476C246.779 244.11 246.726 244.47 246.706 244.463C246.699 244.463 246.706 244.37 246.732 244.203C246.752 244.03 246.792 243.776 246.852 243.456C246.979 242.81 247.206 241.89 247.592 240.783C247.979 239.676 248.526 238.389 249.206 236.996C249.546 236.296 249.912 235.576 250.299 234.822C250.706 234.062 251.279 233.389 251.899 232.736C253.153 231.449 254.513 230.402 255.779 229.509C257.046 228.615 258.24 227.889 259.253 227.302C260.273 226.722 261.113 226.282 261.7 225.995C261.98 225.862 262.207 225.755 262.38 225.668C262.54 225.595 262.62 225.562 262.627 225.568V225.575Z" fill="#263238"/>
<path d="M245.983 243.543C245.983 243.543 245.93 243.369 245.863 243.043C245.796 242.676 245.71 242.216 245.603 241.669C245.376 240.516 245.03 238.922 244.483 237.216C243.936 235.509 243.276 234.022 242.789 232.949C242.556 232.442 242.363 232.015 242.209 231.675C242.076 231.375 242.009 231.202 242.016 231.195C242.029 231.195 242.123 231.349 242.283 231.635C242.443 231.922 242.663 232.349 242.923 232.875C243.443 233.936 244.136 235.422 244.683 237.142C245.236 238.862 245.563 240.469 245.75 241.636C245.843 242.223 245.91 242.689 245.943 243.023C245.983 243.349 245.996 243.536 245.976 243.536L245.983 243.543Z" fill="#263238"/>
<path d="M245.55 230.042C245.403 227.802 244.67 225.622 243.623 223.635C240.743 218.188 235.329 214.154 229.289 212.948C233.716 219.541 238.136 226.135 242.563 232.729L244.277 236.262C245.443 234.342 245.703 232.289 245.557 230.049L245.55 230.042Z" fill="#919CAF"/>
<path d="M264.593 269.031H233.73V274.498H264.593V269.031Z" fill="#CFDFFA"/>
<path d="M236.035 273.412L238.662 290.386H259.15L262.284 273.412H236.035Z" fill="#CFDFFA"/>
<path d="M264.572 274.505C264.572 274.565 257.612 274.612 249.024 274.612C240.437 274.612 233.477 274.565 233.477 274.505C233.477 274.445 240.437 274.398 249.024 274.398C257.612 274.398 264.572 274.445 264.572 274.505Z" fill="#263238"/>
<path d="M99.5264 245.363H72.1513C67.2503 245.363 63.2773 249.336 63.2773 254.237V281.612C63.2773 286.513 67.2503 290.486 72.1513 290.486H99.5264C104.427 290.486 108.4 286.513 108.4 281.612V254.237C108.4 249.336 104.427 245.363 99.5264 245.363Z" fill="#919CAF"/>
<g opacity="0.3">
<path d="M99.5264 245.363H72.1513C67.2503 245.363 63.2773 249.336 63.2773 254.237V281.612C63.2773 286.513 67.2503 290.486 72.1513 290.486H99.5264C104.427 290.486 108.4 286.513 108.4 281.612V254.237C108.4 249.336 104.427 245.363 99.5264 245.363Z" fill="#CFDFFA"/>
</g>
<path d="M91.421 245.363H64.0458C59.1449 245.363 55.1719 249.336 55.1719 254.237V281.612C55.1719 286.513 59.1449 290.486 64.0458 290.486H91.421C96.3219 290.486 100.295 286.513 100.295 281.612V254.237C100.295 249.336 96.3219 245.363 91.421 245.363Z" fill="#353988"/>
<path d="M62.1602 268.571L66.7005 264.031L75.4677 271.818L90.1087 257.124L94.329 261.671L74.821 280.585L62.1602 268.571Z" fill="white"/>
<path d="M167.89 0.17334H28.6011C25.95 0.17334 23.8008 2.32252 23.8008 4.97366V199.24C23.8008 201.891 25.95 204.04 28.6011 204.04H167.89C170.542 204.04 172.691 201.891 172.691 199.24V4.97366C172.691 2.32252 170.542 0.17334 167.89 0.17334Z" fill="white"/>
<path d="M167.899 204.04C167.892 204 168.532 204.114 169.652 203.687C170.199 203.467 170.859 203.094 171.446 202.434C172.039 201.793 172.532 200.84 172.646 199.693C172.679 195.06 172.639 188.199 172.639 179.379C172.626 161.731 172.606 136.202 172.586 104.66C172.586 88.8859 172.572 71.6114 172.566 53.0635C172.566 43.7896 172.566 34.2023 172.559 24.3216C172.559 19.3813 172.559 14.3676 172.559 9.28729C172.559 8.01387 172.559 6.74045 172.559 5.46703C172.639 4.20028 172.292 2.9402 171.466 1.9868C170.666 1.0334 169.466 0.420028 168.212 0.34669C166.939 0.313354 165.625 0.340023 164.325 0.333356C122.616 0.333356 76.766 0.340023 28.6362 0.34669C27.1827 0.34669 25.7493 1.0534 24.9026 2.23348C24.4692 2.81352 24.1759 3.49357 24.0625 4.20695C23.9492 4.90699 24.0092 5.67371 23.9959 6.42043C23.9959 9.41396 23.9959 12.3942 23.9959 15.3677C23.9959 21.3081 23.9959 27.2151 23.9959 33.0755C23.9959 44.7963 23.9959 56.3504 23.9959 67.6979C23.9959 90.3994 23.9892 112.287 23.9825 133.149C23.9825 154.004 23.9692 173.825 23.9692 192.373C23.9692 194.693 23.9692 196.986 23.9692 199.267C23.9692 200.373 24.3892 201.467 25.1093 202.294C25.8227 203.127 26.8361 203.687 27.9095 203.847C28.4428 203.934 29.0029 203.9 29.5562 203.907C30.1096 203.907 30.6696 203.907 31.223 203.907C32.3298 203.907 33.4365 203.907 34.5299 203.907C36.7234 203.907 38.8969 203.907 41.0503 203.907C49.6576 203.907 57.9248 203.914 65.8053 203.92C97.3474 203.94 122.876 203.96 140.517 203.974C149.338 203.987 156.185 204 160.832 204.007C163.152 204.014 164.919 204.02 166.112 204.027C167.299 204.027 167.912 204.047 167.912 204.047C167.912 204.047 167.305 204.06 166.112 204.067C164.919 204.067 163.152 204.074 160.832 204.087C156.185 204.094 149.338 204.107 140.517 204.12C122.876 204.134 97.3474 204.154 65.8053 204.174C57.9181 204.174 49.6576 204.18 41.0503 204.187C38.8969 204.187 36.7234 204.187 34.5299 204.187C33.4298 204.187 32.3298 204.187 31.223 204.187C30.6696 204.187 30.1163 204.187 29.5562 204.187C29.0029 204.187 28.4428 204.214 27.8628 204.12C26.7227 203.954 25.6426 203.36 24.8893 202.474C24.1292 201.593 23.6892 200.44 23.6825 199.267C23.6825 196.986 23.6825 194.686 23.6825 192.373C23.6825 173.825 23.6692 154.004 23.6692 133.149C23.6692 112.294 23.6692 90.3994 23.6558 67.6979C23.6558 56.3504 23.6558 44.7963 23.6558 33.0755C23.6558 27.2151 23.6558 21.3081 23.6558 15.3677C23.6558 12.3942 23.6558 9.41396 23.6558 6.42043C23.6692 5.67371 23.6092 4.93366 23.7292 4.15361C23.8492 3.38689 24.1625 2.65351 24.6292 2.0268C25.516 0.760051 27.0627 0 28.6228 0C76.7527 0 122.602 0.00666711 164.312 0.0133342C165.619 0.0200013 166.905 0 168.219 0.0333356C169.559 0.113341 170.839 0.766718 171.692 1.78679C172.572 2.79352 172.939 4.18695 172.852 5.46703C172.852 6.74712 172.852 8.02054 172.852 9.28729C172.852 14.3676 172.852 19.3813 172.852 24.3216C172.852 34.2023 172.852 43.7896 172.846 53.0635C172.839 71.6114 172.832 88.8859 172.826 104.66C172.806 136.202 172.786 161.731 172.772 179.379C172.752 188.199 172.772 195.046 172.719 199.7C172.592 200.867 172.092 201.827 171.486 202.474C170.892 203.134 170.226 203.514 169.672 203.727C169.119 203.954 168.659 204 168.359 204.034C168.059 204.047 167.905 204.047 167.905 204.047L167.899 204.04Z" fill="#263238"/>
<path d="M145.462 60.8041H79.4581C77.1383 60.8041 75.2578 62.6846 75.2578 65.0044V65.4111C75.2578 67.7308 77.1383 69.6113 79.4581 69.6113H145.462C147.782 69.6113 149.663 67.7308 149.663 65.4111V65.0044C149.663 62.6846 147.782 60.8041 145.462 60.8041Z" fill="#E0E0E0"/>
<path d="M63.8104 55.557H50.2628C48.3702 55.557 46.8359 57.0913 46.8359 58.9839V72.5315C46.8359 74.4241 48.3702 75.9584 50.2628 75.9584H63.8104C65.703 75.9584 67.2373 74.4241 67.2373 72.5315V58.9839C67.2373 57.0913 65.703 55.557 63.8104 55.557Z" fill="#353988"/>
<path d="M49.9883 66.051L52.0484 63.9975L56.0087 67.5178L62.6291 60.8773L64.5359 62.9308L55.7153 71.4847L49.9883 66.051Z" fill="white"/>
<path d="M145.462 92.4595H79.4581C77.1383 92.4595 75.2578 94.34 75.2578 96.6598V97.0664C75.2578 99.3862 77.1383 101.267 79.4581 101.267H145.462C147.782 101.267 149.663 99.3862 149.663 97.0664V96.6598C149.663 94.34 147.782 92.4595 145.462 92.4595Z" fill="#E0E0E0"/>
<path d="M63.8104 87.2058H50.2628C48.3702 87.2058 46.8359 88.7401 46.8359 90.6327V104.18C46.8359 106.073 48.3702 107.607 50.2628 107.607H63.8104C65.703 107.607 67.2373 106.073 67.2373 104.18V90.6327C67.2373 88.7401 65.703 87.2058 63.8104 87.2058Z" fill="#353988"/>
<path d="M49.9883 97.7065L52.0484 95.6463L56.0087 99.1732L62.6291 92.5261L64.5359 94.5796L55.7153 103.133L49.9883 97.7065Z" fill="white"/>
<path d="M145.462 124.108H79.4581C77.1383 124.108 75.2578 125.989 75.2578 128.309V128.715C75.2578 131.035 77.1383 132.916 79.4581 132.916H145.462C147.782 132.916 149.663 131.035 149.663 128.715V128.309C149.663 125.989 147.782 124.108 145.462 124.108Z" fill="#E0E0E0"/>
<path d="M63.8104 118.861H50.2628C48.3702 118.861 46.8359 120.395 46.8359 122.288V135.836C46.8359 137.728 48.3702 139.263 50.2628 139.263H63.8104C65.703 139.263 67.2373 137.728 67.2373 135.836V122.288C67.2373 120.395 65.703 118.861 63.8104 118.861Z" fill="#353988"/>
<path d="M49.9883 129.355L52.0484 127.302L56.0087 130.822L62.6291 124.182L64.5359 126.235L55.7153 134.789L49.9883 129.355Z" fill="white"/>
<path d="M145.462 155.764H79.4581C77.1383 155.764 75.2578 157.644 75.2578 159.964V160.371C75.2578 162.69 77.1383 164.571 79.4581 164.571H145.462C147.782 164.571 149.663 162.69 149.663 160.371V159.964C149.663 157.644 147.782 155.764 145.462 155.764Z" fill="#E0E0E0"/>
<path d="M63.8104 150.51H50.2628C48.3702 150.51 46.8359 152.044 46.8359 153.937V167.484C46.8359 169.377 48.3702 170.911 50.2628 170.911H63.8104C65.703 170.911 67.2373 169.377 67.2373 167.484V153.937C67.2373 152.044 65.703 150.51 63.8104 150.51Z" fill="#353988"/>
<path d="M49.9883 161.011L52.0484 158.951L56.0087 162.477L62.6291 155.83L64.5359 157.884L55.7153 166.438L49.9883 161.011Z" fill="white"/>
<path d="M66.4197 35.7023L66.0196 34.1888H63.3928L62.9861 35.7023H60.5859L63.2261 27.5751H66.1396L68.8132 35.7023H66.4197ZM65.5663 32.3954L65.2196 31.0686C65.1796 30.922 65.1262 30.7219 65.0596 30.4486C64.9929 30.1819 64.9196 29.9019 64.8529 29.6152C64.7862 29.3285 64.7329 29.0952 64.6929 28.9085C64.6595 29.0952 64.6129 29.3219 64.5529 29.5885C64.4929 29.8619 64.4262 30.1286 64.3662 30.3953C64.2995 30.6619 64.2462 30.882 64.1995 31.062L63.8528 32.3887H65.5729L65.5663 32.3954Z" fill="#263238"/>
<path d="M75.4393 33.2422C75.4393 33.6822 75.326 34.0956 75.106 34.4889C74.886 34.8823 74.5393 35.2023 74.0726 35.4423C73.6059 35.689 73.0058 35.809 72.2658 35.809C71.8991 35.809 71.5724 35.7957 71.2924 35.7623C71.0124 35.729 70.7524 35.6757 70.5123 35.6023C70.2723 35.529 70.0256 35.429 69.7656 35.309V33.3622C70.2057 33.5822 70.6457 33.7489 71.0924 33.8689C71.5391 33.9822 71.9458 34.0422 72.3058 34.0422C72.5258 34.0422 72.6992 34.0155 72.8392 33.9622C72.9792 33.9089 73.0792 33.8422 73.1459 33.7489C73.2125 33.6555 73.2459 33.5555 73.2459 33.4355C73.2459 33.2955 73.1992 33.1755 73.0992 33.0755C72.9992 32.9755 72.8458 32.8755 72.6325 32.7688C72.4191 32.6621 72.1391 32.5288 71.7858 32.3688C71.4857 32.2288 71.2191 32.0821 70.9724 31.9354C70.7324 31.7887 70.5257 31.6221 70.3523 31.4287C70.179 31.242 70.0456 31.0154 69.959 30.762C69.8723 30.5086 69.819 30.2086 69.819 29.8619C69.819 29.3419 69.9456 28.9085 70.2057 28.5552C70.459 28.2018 70.819 27.9351 71.2791 27.7618C71.7391 27.5818 72.2658 27.4951 72.8725 27.4951C73.3992 27.4951 73.8726 27.5551 74.2993 27.6751C74.7193 27.7951 75.0993 27.9285 75.4393 28.0818L74.7726 29.7686C74.4259 29.6086 74.0859 29.4819 73.7459 29.3886C73.4125 29.2952 73.0992 29.2486 72.8125 29.2486C72.6258 29.2486 72.4725 29.2686 72.3525 29.3152C72.2325 29.3619 72.1458 29.4219 72.0858 29.5019C72.0258 29.5819 71.9991 29.6686 71.9991 29.7686C71.9991 29.8953 72.0458 30.0086 72.1458 30.1086C72.2458 30.2086 72.4058 30.3153 72.6391 30.4353C72.8725 30.5487 73.1859 30.702 73.5859 30.8887C73.9792 31.0687 74.3193 31.2554 74.5926 31.462C74.8726 31.6687 75.0793 31.9087 75.226 32.1954C75.3727 32.4821 75.446 32.8355 75.446 33.2555L75.4393 33.2422Z" fill="#263238"/>
<path d="M82.4472 33.2422C82.4472 33.6822 82.3338 34.0956 82.1138 34.4889C81.8938 34.8823 81.5471 35.2023 81.0804 35.4423C80.6137 35.689 80.0137 35.809 79.2736 35.809C78.9069 35.809 78.5802 35.7957 78.3002 35.7623C78.0202 35.729 77.7602 35.6757 77.5202 35.6023C77.2801 35.529 77.0335 35.429 76.7734 35.309V33.3622C77.2135 33.5822 77.6535 33.7489 78.1002 33.8689C78.5469 33.9822 78.9536 34.0422 79.3136 34.0422C79.5336 34.0422 79.707 34.0155 79.847 33.9622C79.987 33.9089 80.087 33.8422 80.1537 33.7489C80.2203 33.6555 80.2537 33.5555 80.2537 33.4355C80.2537 33.2955 80.207 33.1755 80.107 33.0755C80.007 32.9755 79.8536 32.8755 79.6403 32.7688C79.4269 32.6621 79.1469 32.5288 78.7936 32.3688C78.4936 32.2288 78.2269 32.0821 77.9802 31.9354C77.7402 31.7887 77.5335 31.6221 77.3601 31.4287C77.1868 31.242 77.0535 31.0154 76.9668 30.762C76.8801 30.5086 76.8268 30.2086 76.8268 29.8619C76.8268 29.3419 76.9534 28.9085 77.2135 28.5552C77.4668 28.2018 77.8268 27.9351 78.2869 27.7618C78.7469 27.5818 79.2736 27.4951 79.8803 27.4951C80.407 27.4951 80.8804 27.5551 81.3071 27.6751C81.7271 27.7951 82.1071 27.9285 82.4472 28.0818L81.7804 29.7686C81.4337 29.6086 81.0937 29.4819 80.7537 29.3886C80.4203 29.2952 80.107 29.2486 79.8203 29.2486C79.6336 29.2486 79.4803 29.2686 79.3603 29.3152C79.2403 29.3619 79.1536 29.4219 79.0936 29.5019C79.0336 29.5819 79.0069 29.6686 79.0069 29.7686C79.0069 29.8953 79.0536 30.0086 79.1536 30.1086C79.2536 30.2086 79.4136 30.3153 79.647 30.4353C79.8803 30.5487 80.1937 30.702 80.5937 30.8887C80.987 31.0687 81.3271 31.2554 81.6004 31.462C81.8804 31.6687 82.0871 31.9087 82.2338 32.1954C82.3805 32.4821 82.4538 32.8355 82.4538 33.2555L82.4472 33.2422Z" fill="#263238"/>
<path d="M88.9671 35.7023H84.1602V27.6084H88.9671V29.3618H86.347V30.6353H88.7738V32.3887H86.347V33.9155H88.9671V35.6956V35.7023Z" fill="#263238"/>
<path d="M96.1425 33.2422C96.1425 33.6822 96.0291 34.0956 95.8091 34.4889C95.5891 34.8823 95.2424 35.2023 94.7757 35.4423C94.309 35.689 93.709 35.809 92.9689 35.809C92.6022 35.809 92.2755 35.7957 91.9955 35.7623C91.7155 35.729 91.4555 35.6757 91.2155 35.6023C90.9754 35.529 90.7288 35.429 90.4688 35.309V33.3622C90.9088 33.5822 91.3488 33.7489 91.7955 33.8689C92.2422 33.9822 92.6489 34.0422 93.0089 34.0422C93.2289 34.0422 93.4023 34.0155 93.5423 33.9622C93.6823 33.9089 93.7823 33.8422 93.849 33.7489C93.9156 33.6555 93.949 33.5555 93.949 33.4355C93.949 33.2955 93.9023 33.1755 93.8023 33.0755C93.7023 32.9755 93.549 32.8755 93.3356 32.7688C93.1223 32.6621 92.8422 32.5288 92.4889 32.3688C92.1889 32.2288 91.9222 32.0821 91.6755 31.9354C91.4355 31.7887 91.2288 31.6221 91.0555 31.4287C90.8821 31.242 90.7488 31.0154 90.6621 30.762C90.5754 30.5086 90.5221 30.2086 90.5221 29.8619C90.5221 29.3419 90.6488 28.9085 90.9088 28.5552C91.1621 28.2018 91.5222 27.9351 91.9822 27.7618C92.4422 27.5818 92.9689 27.4951 93.5756 27.4951C94.1023 27.4951 94.5757 27.5551 95.0024 27.6751C95.4224 27.7951 95.8024 27.9285 96.1425 28.0818L95.4757 29.7686C95.1291 29.6086 94.789 29.4819 94.449 29.3886C94.1157 29.2952 93.8023 29.2486 93.5156 29.2486C93.3289 29.2486 93.1756 29.2686 93.0556 29.3152C92.9356 29.3619 92.8489 29.4219 92.7889 29.5019C92.7289 29.5819 92.7022 29.6686 92.7022 29.7686C92.7022 29.8953 92.7489 30.0086 92.8489 30.1086C92.9489 30.2086 93.1089 30.3153 93.3423 30.4353C93.5756 30.5487 93.889 30.702 94.289 30.8887C94.6824 31.0687 95.0224 31.2554 95.2957 31.462C95.5758 31.6687 95.7824 31.9087 95.9291 32.1954C96.0758 32.4821 96.1491 32.8355 96.1491 33.2555L96.1425 33.2422Z" fill="#263238"/>
<path d="M103.15 33.2422C103.15 33.6822 103.037 34.0956 102.817 34.4889C102.597 34.8823 102.25 35.2023 101.784 35.4423C101.317 35.689 100.717 35.809 99.9767 35.809C99.61 35.809 99.2834 35.7957 99.0033 35.7623C98.7233 35.729 98.4633 35.6757 98.2233 35.6023C97.9833 35.529 97.7366 35.429 97.4766 35.309V33.3622C97.9166 33.5822 98.3566 33.7489 98.8033 33.8689C99.25 33.9822 99.6567 34.0422 100.017 34.0422C100.237 34.0422 100.41 34.0155 100.55 33.9622C100.69 33.9089 100.79 33.8422 100.857 33.7489C100.923 33.6555 100.957 33.5555 100.957 33.4355C100.957 33.2955 100.91 33.1755 100.81 33.0755C100.71 32.9755 100.557 32.8755 100.343 32.7688C100.13 32.6621 99.8501 32.5288 99.4967 32.3688C99.1967 32.2288 98.93 32.0821 98.6833 31.9354C98.4433 31.7887 98.2366 31.6221 98.0633 31.4287C97.8899 31.242 97.7566 31.0154 97.6699 30.762C97.5832 30.5086 97.5299 30.2086 97.5299 29.8619C97.5299 29.3419 97.6566 28.9085 97.9166 28.5552C98.1699 28.2018 98.53 27.9351 98.99 27.7618C99.45 27.5818 99.9767 27.4951 100.583 27.4951C101.11 27.4951 101.584 27.5551 102.01 27.6751C102.43 27.7951 102.81 27.9285 103.15 28.0818L102.484 29.7686C102.137 29.6086 101.797 29.4819 101.457 29.3886C101.123 29.2952 100.81 29.2486 100.523 29.2486C100.337 29.2486 100.183 29.2686 100.063 29.3152C99.9434 29.3619 99.8567 29.4219 99.7967 29.5019C99.7367 29.5819 99.71 29.6686 99.71 29.7686C99.71 29.8953 99.7567 30.0086 99.8567 30.1086C99.9567 30.2086 100.117 30.3153 100.35 30.4353C100.583 30.5487 100.897 30.702 101.297 30.8887C101.69 31.0687 102.03 31.2554 102.304 31.462C102.584 31.6687 102.79 31.9087 102.937 32.1954C103.084 32.4821 103.157 32.8355 103.157 33.2555L103.15 33.2422Z" fill="#263238"/>
<path d="M108.39 35.7023L106.737 29.8753H106.69C106.703 30.0286 106.723 30.2286 106.737 30.4887C106.75 30.7487 106.77 31.0287 106.783 31.3221C106.797 31.6154 106.803 31.9088 106.803 32.1821V35.6957H104.863V27.6018H107.777L109.464 33.3489H109.51L111.164 27.6018H114.077V35.6957H112.07V32.1488C112.07 31.8954 112.07 31.6221 112.084 31.3287C112.09 31.0354 112.104 30.762 112.117 30.4953C112.13 30.2353 112.144 30.0286 112.15 29.8753H112.104L110.47 35.689H108.39V35.7023Z" fill="#263238"/>
<path d="M121.088 35.7023H116.281V27.6084H121.088V29.3618H118.468V30.6353H120.895V32.3887H118.468V33.9155H121.088V35.6956V35.7023Z" fill="#263238"/>
<path d="M130.669 35.7023H127.802L124.849 30.002H124.796C124.816 30.1753 124.829 30.382 124.849 30.6287C124.862 30.8754 124.876 31.122 124.889 31.3754C124.902 31.6287 124.909 31.8554 124.909 32.0554V35.7023H122.969V27.6085H125.822L128.769 33.2288H128.802C128.789 33.0488 128.782 32.8488 128.769 32.6088C128.756 32.3755 128.749 32.1354 128.736 31.8954C128.722 31.6554 128.722 31.4421 128.722 31.262V27.6018H130.669V35.6957V35.7023Z" fill="#263238"/>
<path d="M136.457 35.7023H134.27V29.4019H132.297V27.6151H138.431V29.4019H136.457V35.7023Z" fill="#263238"/>
<path d="M198.915 266.938L198.341 281.992C198.341 281.992 213.449 287.626 213.616 290.419L184.394 290.359L184.32 266.871L198.915 266.944V266.938Z" fill="#A2B0CA"/>
<path d="M189.306 280.705C188.739 280.859 188.346 281.492 188.479 282.065C188.606 282.639 189.253 283.039 189.819 282.899C190.386 282.752 190.879 282.005 190.686 281.452C190.493 280.899 189.713 280.465 189.193 280.739" fill="#4F5672"/>
<path d="M184.387 290.359L184.473 287.992L212.462 288.939C212.462 288.939 213.762 289.506 213.615 290.426L184.393 290.366L184.387 290.359Z" fill="#455A64"/>
<path d="M198.816 281.845C198.816 281.985 198.096 282.052 197.396 282.505C196.682 282.945 196.316 283.559 196.189 283.505C196.056 283.479 196.269 282.625 197.136 282.085C197.989 281.539 198.856 281.712 198.822 281.839L198.816 281.845Z" fill="#4F5672"/>
<path d="M201.874 283.119C201.907 283.259 201.287 283.499 200.8 284.099C200.294 284.686 200.174 285.339 200.034 285.332C199.9 285.352 199.8 284.519 200.42 283.779C201.034 283.039 201.874 282.979 201.874 283.112V283.119Z" fill="#4F5672"/>
<path d="M203.607 286.792C203.48 286.826 203.28 286.112 203.647 285.326C204.007 284.539 204.68 284.232 204.74 284.352C204.82 284.472 204.387 284.886 204.094 285.532C203.787 286.172 203.747 286.772 203.6 286.786L203.607 286.792Z" fill="#4F5672"/>
<path d="M198.56 278.399C198.5 278.532 197.847 278.332 197.04 278.385C196.233 278.425 195.607 278.692 195.527 278.572C195.447 278.465 196.06 277.938 197.007 277.892C197.96 277.838 198.627 278.292 198.553 278.405L198.56 278.399Z" fill="#4F5672"/>
<path d="M163.141 264.891L161.561 283.046L164.447 297.767C164.654 298.827 163.921 299.84 162.847 299.98C162.247 300.053 161.654 299.84 161.241 299.393C158.634 296.553 149.106 286.059 149.3 284.739C149.52 283.206 149.7 265.478 149.7 265.478L163.141 264.891Z" fill="#A2B0CA"/>
<path d="M162.847 299.98L149.372 283.512L149.326 284.286C149.286 284.953 149.472 285.613 149.872 286.146C150.939 287.579 153.973 291.466 161.186 299.394C161.606 299.854 162.233 300.074 162.847 299.98Z" fill="#455A64"/>
<g opacity="0.6">
<path d="M153.487 277.885C153.92 278.232 154.027 278.925 153.7 279.379C153.373 279.825 152.667 279.939 152.22 279.605C151.78 279.272 151.626 278.432 152 278.025C152.373 277.619 153.213 277.532 153.56 277.959" fill="#171A37"/>
</g>
<path d="M159.2 291.766C159.3 291.826 159.774 290.9 160.887 290.453C161.987 289.979 162.974 290.299 163.007 290.186C163.027 290.139 162.807 289.986 162.381 289.899C161.961 289.813 161.34 289.833 160.734 290.086C160.12 290.339 159.674 290.766 159.44 291.126C159.207 291.486 159.16 291.753 159.2 291.773V291.766Z" fill="#4F5672"/>
<path d="M160.341 294.287C160.421 294.373 161.041 293.82 162.001 293.606C162.954 293.373 163.754 293.606 163.794 293.493C163.854 293.406 163.001 292.96 161.914 293.22C160.821 293.466 160.254 294.233 160.341 294.287Z" fill="#4F5672"/>
<path d="M156.985 288.493C157.065 288.586 158.019 287.726 159.479 287.273C160.932 286.792 162.206 286.939 162.219 286.819C162.252 286.726 160.919 286.386 159.359 286.892C157.792 287.386 156.905 288.439 156.985 288.493Z" fill="#4F5672"/>
<path d="M157.006 282.932C157.046 283.046 158.079 282.692 159.393 282.726C160.706 282.746 161.72 283.146 161.766 283.032C161.82 282.946 160.813 282.346 159.399 282.326C157.993 282.292 156.953 282.846 157.006 282.932Z" fill="#4F5672"/>
<path d="M157.341 277.592C157.388 277.699 158.441 277.159 159.815 277.312C161.195 277.432 162.115 278.172 162.188 278.072C162.221 278.039 162.035 277.792 161.635 277.525C161.235 277.259 160.601 276.985 159.855 276.912C159.115 276.839 158.434 276.979 157.994 277.165C157.548 277.352 157.321 277.552 157.341 277.592Z" fill="#4F5672"/>
<path d="M159.847 276.292C159.847 276.292 159.927 276.052 159.913 275.605C159.9 275.165 159.813 274.505 159.48 273.772C159.306 273.418 159.126 272.972 158.633 272.698C158.386 272.558 158.006 272.585 157.78 272.812C157.553 273.032 157.466 273.325 157.44 273.612C157.386 274.765 158.306 275.945 159.593 276.198C160.887 276.425 162.113 275.758 162.693 274.792C162.82 274.538 162.92 274.232 162.8 273.912C162.68 273.592 162.32 273.445 162.053 273.472C161.507 273.518 161.147 273.805 160.813 274.018C160.153 274.485 159.733 274.985 159.48 275.352C159.226 275.718 159.14 275.952 159.16 275.965C159.22 276.018 159.68 275.098 160.967 274.258C161.293 274.065 161.667 273.818 162.06 273.812C162.253 273.812 162.407 273.892 162.467 274.045C162.527 274.198 162.473 274.425 162.36 274.618C161.873 275.405 160.747 276.012 159.653 275.805C158.566 275.605 157.76 274.565 157.793 273.638C157.806 273.412 157.88 273.192 158.006 273.065C158.133 272.945 158.313 272.918 158.48 272.998C158.826 273.165 159.04 273.558 159.213 273.892C159.893 275.278 159.747 276.305 159.833 276.292H159.847Z" fill="white"/>
<path d="M212.989 140.049C212.989 140.049 215.203 148.63 214.403 159.084C214.089 163.131 200.442 275.018 200.442 275.018H182.014L187.194 169.858L185.687 170.185C185.687 170.185 175.627 215.034 174.807 222.295C174.067 228.822 165.586 276.238 165.586 276.238L148.738 276.432L154.119 213.708L160.379 153.524L162.733 136.002L212.989 140.043V140.049Z" fill="#171A37"/>
<path d="M186.527 162.718C186.527 162.718 186.561 162.771 186.647 162.844C186.741 162.911 186.881 163.004 187.094 163.058C187.507 163.178 188.207 163.118 188.841 162.644C189.501 162.178 189.901 161.251 190.034 160.264C190.168 159.264 190.188 158.184 190.261 157.044C190.388 154.77 190.474 152.704 190.528 151.217C190.574 149.723 190.581 148.797 190.528 148.797C190.481 148.797 190.381 149.717 190.268 151.203C190.154 152.69 190.021 154.75 189.901 157.031C189.828 158.164 189.814 159.264 189.708 160.224C189.594 161.177 189.254 162.018 188.688 162.451C188.134 162.904 187.507 162.998 187.127 162.931C186.727 162.871 186.547 162.698 186.527 162.731V162.718Z" fill="#455A64"/>
<path d="M159.418 151.904C159.418 151.904 159.591 151.997 159.931 152.09C160.271 152.184 160.771 152.284 161.405 152.337C162.658 152.457 164.452 152.337 166.265 151.61C168.072 150.883 169.452 149.723 170.272 148.777C170.685 148.303 170.985 147.883 171.165 147.577C171.345 147.277 171.425 147.097 171.412 147.083C171.359 147.05 170.952 147.71 170.092 148.597C169.239 149.483 167.879 150.57 166.132 151.27C164.385 151.97 162.652 152.13 161.425 152.077C160.191 152.03 159.431 151.837 159.418 151.897V151.904Z" fill="#455A64"/>
<path d="M205.646 147.223C205.606 147.223 205.646 147.95 205.926 149.07C206.206 150.19 206.799 151.71 207.779 153.19C208.766 154.67 209.933 155.804 210.86 156.497C211.786 157.197 212.44 157.504 212.46 157.47C212.54 157.377 210 155.924 208.079 152.99C206.119 150.083 205.766 147.176 205.646 147.216V147.223Z" fill="#455A64"/>
<path d="M261.932 115.561L266.166 116.901L273.846 112.654L278.207 124.795L267.753 127.282L259.832 126.408L261.932 115.561Z" fill="#AE7461"/>
<path d="M212.75 66.8245C212.75 66.8245 217.07 69.418 220.651 78.2319C227.678 95.5464 232.098 104.887 232.098 104.887L264.367 115.081L261.787 128.015C261.787 128.015 229.078 123.455 224.697 121.815C218.704 119.568 214.263 107.747 214.263 107.747L212.757 66.8245H212.75Z" fill="#E0E0E0"/>
<path d="M203.881 27.9885C205.548 28.0952 207.181 26.7884 207.454 25.1483C207.728 23.5015 206.594 21.7414 204.987 21.308C205.961 20.2013 206.134 18.4545 205.388 17.1811C204.641 15.9077 203.041 15.1943 201.601 15.501C201.467 14.0476 200.527 12.7008 199.214 12.0674C197.9 11.4407 196.26 11.5474 195.04 12.3541C193.36 11.054 190.767 11.134 189.173 12.5341C187.746 12.3474 186.24 13.1742 185.646 14.4876C185.046 15.7943 185.4 17.4744 186.48 18.4345" fill="#171A37"/>
<path d="M188.612 15.9278L189.358 15.8878C196.879 15.5144 203.426 20.9748 204.399 28.442C205.306 35.3824 206.22 43.0696 206.36 46.8099C206.646 54.557 198.966 56.1438 198.966 56.1438L200.086 65.4111L181.265 65.7645L177.924 32.1089C176.831 24.1017 180.578 16.7945 188.612 15.9211V15.9278Z" fill="#FFBF9D"/>
<path d="M199.024 56.1304C199.024 56.1304 194.097 56.6704 188.73 53.6636C188.73 53.6636 191.391 59.1173 199.084 58.0372L199.024 56.1304Z" fill="#6F4439"/>
<path d="M201.614 35.5891C201.66 36.1691 201.214 36.6958 200.6 36.7558C199.994 36.8158 199.46 36.3958 199.414 35.8158C199.367 35.2357 199.814 34.709 200.42 34.649C201.027 34.589 201.56 35.009 201.614 35.5891Z" fill="#263238"/>
<path d="M202.921 32.3155C202.795 32.4688 201.921 31.8888 200.735 31.9488C199.548 31.9955 198.701 32.6489 198.568 32.5088C198.501 32.4488 198.628 32.1822 198.994 31.8821C199.355 31.5888 199.981 31.2888 200.721 31.2554C201.461 31.2221 202.101 31.4621 202.475 31.7288C202.855 31.9888 202.988 32.2488 202.928 32.3155H202.921Z" fill="#263238"/>
<path d="M190.758 35.8824C190.805 36.4625 190.358 36.9892 189.745 37.0492C189.138 37.1092 188.605 36.6891 188.558 36.1091C188.511 35.5291 188.958 35.0024 189.565 34.9424C190.171 34.8823 190.705 35.3024 190.758 35.8824Z" fill="#263238"/>
<path d="M191.238 33.1155C191.111 33.2689 190.238 32.6888 189.051 32.7489C187.864 32.7955 187.018 33.4489 186.884 33.3089C186.818 33.2489 186.944 32.9822 187.311 32.6822C187.671 32.3888 188.298 32.0888 189.038 32.0555C189.778 32.0221 190.418 32.2622 190.791 32.5288C191.171 32.7889 191.304 33.0489 191.244 33.1155H191.238Z" fill="#263238"/>
<path d="M195.992 41.7295C195.985 41.6629 196.719 41.4962 197.905 41.2828C198.205 41.2362 198.492 41.1628 198.532 40.9495C198.592 40.7295 198.452 40.4028 198.285 40.0561C197.965 39.336 197.625 38.576 197.272 37.7893C195.859 34.5557 194.825 31.8955 194.952 31.8355C195.085 31.7822 196.332 34.3557 197.745 37.5892C198.085 38.3893 198.412 39.1494 198.719 39.8761C198.852 40.2161 199.066 40.5961 198.939 41.0628C198.866 41.2962 198.652 41.4695 198.459 41.5295C198.265 41.5962 198.099 41.6095 197.945 41.6295C196.745 41.7562 195.992 41.7962 195.985 41.7295H195.992Z" fill="#263238"/>
<path d="M192.041 28.4886C191.901 28.7953 190.861 28.522 189.608 28.542C188.347 28.5353 187.301 28.822 187.174 28.5153C187.114 28.3686 187.327 28.0886 187.767 27.8219C188.201 27.5552 188.874 27.3352 189.634 27.3352C190.388 27.3352 191.054 27.5419 191.481 27.8019C191.914 28.0619 192.108 28.3419 192.048 28.4886H192.041Z" fill="#263238"/>
<path d="M202.732 27.4018C202.492 27.6818 201.499 27.4552 200.319 27.4952C199.139 27.5085 198.145 27.7885 197.905 27.5152C197.799 27.3818 197.939 27.1018 198.365 26.8284C198.785 26.5551 199.492 26.3084 200.305 26.2884C201.119 26.2684 201.832 26.4818 202.259 26.7351C202.692 26.9951 202.839 27.2618 202.739 27.4018H202.732Z" fill="#263238"/>
<path d="M203.478 24.9284C203.478 24.9284 201.198 20.1814 198.798 19.168C195.898 17.9412 194.838 21.1081 192.097 20.4881C189.364 19.868 186.597 18.688 183.944 20.9081C181.037 23.3416 182.53 24.875 182.517 28.3153C182.45 42.2829 180.103 46.3498 179.057 39.8227C178.943 39.1093 176.916 38.6359 176.47 35.6157C175.89 31.6955 175.503 26.9218 176.243 24.0816C176.87 21.6882 178.13 19.9947 180.45 18.0812C184.11 15.061 189.331 14.741 192.897 14.921C196.464 15.101 203.505 18.8413 203.478 24.9284Z" fill="#171A37"/>
<path d="M179.538 39.5827C179.432 38.3893 178.352 37.4959 177.171 37.6693C175.731 37.8759 174.171 38.776 174.411 41.7562C174.845 47.0432 180.058 45.5165 180.058 45.3631C180.058 45.2564 179.745 41.7895 179.545 39.5761L179.538 39.5827Z" fill="#FFBF9D"/>
<path d="M178.745 43.4763C178.745 43.4763 178.658 43.5496 178.505 43.6296C178.358 43.7096 178.104 43.783 177.818 43.703C177.244 43.543 176.698 42.6962 176.598 41.7428C176.544 41.2628 176.611 40.7961 176.751 40.4027C176.878 40.0027 177.111 39.7094 177.384 39.6427C177.658 39.556 177.871 39.7094 177.951 39.8494C178.031 39.9894 178.011 40.1027 178.038 40.1094C178.051 40.1227 178.144 40.0094 178.084 39.796C178.051 39.696 177.984 39.576 177.851 39.4827C177.718 39.3893 177.524 39.3493 177.331 39.3893C176.924 39.4494 176.591 39.856 176.438 40.2894C176.264 40.7228 176.178 41.2495 176.238 41.7895C176.358 42.8496 176.984 43.803 177.764 43.963C178.145 44.0297 178.445 43.8896 178.598 43.7563C178.751 43.6096 178.771 43.4896 178.751 43.483L178.745 43.4763Z" fill="#6F4439"/>
<path d="M179.132 29.3219C179.846 29.7553 180.592 30.202 181.426 30.2487C182.259 30.2887 183.179 29.7686 183.279 28.9419C183.326 28.5686 183.213 28.1485 183.439 27.8485C183.713 27.4952 184.253 27.5752 184.699 27.6018C186.246 27.6885 187.96 25.9017 188.28 24.3816C188.7 24.9483 189.573 25.0817 190.146 24.675C190.72 24.2616 190.926 24.0349 191.366 23.4749C191.806 22.9215 192.433 22.4082 193.14 22.4748C193.533 22.5082 193.913 22.7282 194.307 22.6682C195 22.5748 195.3 21.7414 195.367 21.0481C195.44 20.3547 195.48 19.5413 196.047 19.1413C196.573 18.7679 197.294 18.9346 197.94 18.9946C198.587 19.0546 199.407 18.8679 199.534 18.2345C199.6 17.9012 199.447 17.5612 199.247 17.2878C198.36 16.0277 196.533 15.541 195.133 16.1877C194.527 14.461 192.827 13.1809 191 13.0809C189.173 12.9809 187.339 14.0609 186.546 15.7077C185.379 14.7476 183.733 14.401 182.273 14.8143C180.819 15.221 179.592 16.3744 179.092 17.8012C177.786 17.5278 176.345 18.0945 175.579 19.1879C174.819 20.2813 174.779 21.8348 175.485 22.9615C174.559 23.5549 173.792 24.5416 173.825 25.635C173.859 26.7284 174.979 27.7685 176.025 27.4285C175.639 28.3019 176.045 29.442 176.899 29.882C177.752 30.3153 178.912 29.982 179.399 29.1553" fill="#171A37"/>
<path d="M195.606 17.7212C195.606 17.7212 195.606 17.7545 195.606 17.8212C195.606 17.8879 195.606 17.9812 195.586 18.1079C195.553 18.3546 195.466 18.7213 195.253 19.148C195.033 19.568 194.686 20.0547 194.139 20.4547C193.606 20.8614 192.859 21.1881 191.999 21.1814L192.086 21.0614C192.273 21.5081 192.253 22.0548 192.053 22.5282C191.866 23.0149 191.546 23.4482 191.213 23.8749C191.039 24.0816 190.893 24.3216 190.653 24.515C190.419 24.7017 190.126 24.815 189.826 24.8683C189.233 24.975 188.552 24.8217 188.092 24.3416L188.286 24.275C188.206 25.335 187.659 26.4151 186.739 27.1085C186.252 27.4952 185.639 27.7485 185.026 27.7619C184.412 27.7885 183.832 27.6352 183.292 27.4685L183.432 27.4018C183.179 28.0752 182.772 28.6553 182.259 29.0953C181.759 29.5353 181.079 29.8153 180.439 29.6887C179.179 29.4886 178.298 28.4886 178.078 27.5152L178.198 27.5618C177.598 27.9285 176.932 27.9952 176.392 27.9219C175.845 27.8485 175.412 27.6352 175.098 27.4218C174.785 27.2018 174.592 26.9685 174.472 26.8018C174.365 26.6351 174.318 26.5351 174.325 26.5351C174.352 26.5151 174.518 26.9285 175.145 27.3485C175.458 27.5485 175.885 27.7419 176.405 27.7952C176.925 27.8552 177.552 27.7819 178.105 27.4285L178.198 27.3685L178.225 27.4818C178.438 28.3886 179.285 29.3153 180.452 29.4886C181.025 29.5953 181.625 29.3486 182.105 28.9286C182.585 28.5152 182.972 27.9485 183.205 27.3218L183.245 27.2218L183.345 27.2552C183.879 27.4152 184.432 27.5552 184.999 27.5285C185.566 27.5152 186.112 27.2885 186.579 26.9218C187.446 26.2684 187.959 25.255 188.046 24.255L188.066 24.0016L188.239 24.1883C188.626 24.6016 189.239 24.7483 189.773 24.655C190.039 24.6083 190.299 24.5083 190.506 24.3483C190.706 24.195 190.859 23.9616 191.039 23.7483C191.373 23.3282 191.679 22.9082 191.866 22.4615C192.059 22.0148 192.079 21.5348 191.913 21.1348L191.866 21.0081H191.999C192.806 21.0214 193.526 20.7281 194.046 20.348C194.58 19.9747 194.926 19.508 195.153 19.108C195.593 18.2812 195.553 17.7212 195.593 17.7345L195.606 17.7212Z" fill="#455A64"/>
<path d="M195.94 45.8097C195.9 45.6164 194.613 45.9497 193.406 45.0897C192.2 44.2296 191.98 42.8162 191.8 42.8562C191.713 42.8562 191.633 43.2295 191.766 43.8096C191.9 44.3829 192.3 45.163 193.033 45.6897C193.773 46.2164 194.593 46.3097 195.133 46.2097C195.687 46.1164 195.967 45.8897 195.933 45.803L195.94 45.8097Z" fill="#263238"/>
<path d="M227.363 94.7663C227.243 94.3463 220.349 75.5851 218.149 71.4781C215.515 66.5644 209.988 64.391 206.555 64.1776C203.121 63.9643 166.379 66.8911 166.379 66.8911C166.379 66.8911 155.405 69.3513 154.005 78.7853C152.398 89.6527 150.984 114.521 150.984 114.521L167.705 105.947L169.872 100.493L204.475 108.214L212.922 95.7197L227.356 94.7597L227.363 94.7663Z" fill="#CFDFFA"/>
<path d="M163.958 67.9645L178.306 61.6374L179.913 55.4503L196.667 63.3708L200.174 59.4973L201.641 63.8642L205.314 65.0643L213.895 80.152L213.868 112.307L215.602 140.043L213.742 144.423L198.374 146.69C196.694 146.936 194.987 146.936 193.307 146.69L162.111 141.589L161.305 132.429L164.638 107.174L163.958 67.9712V67.9645Z" fill="#CFDFFA"/>
<path d="M179.913 55.4503C179.913 55.4503 181.786 55.9904 186.593 58.5572C191.307 61.0707 196.66 63.3708 196.66 63.3708L196.254 70.938L178.426 61.9908" fill="#CFDFFA"/>
<path d="M200.175 59.4906L196.668 63.3642L198.541 71.4781L201.668 64.1442" fill="#CFDFFA"/>
<g opacity="0.3">
<path d="M196.733 64.2043C196.887 64.3176 197.86 73.5582 197.86 73.5582L179.992 62.7642L196.26 70.9314L196.733 64.2043Z" fill="black"/>
</g>
<path d="M196.609 98.6932C196.342 91.626 197.456 73.5915 197.456 73.5915L199.783 73.2181C199.783 73.2181 204.136 90.746 205.756 112.227C206.416 120.921 206.416 130.989 206.416 130.989L201.736 141.029L196.562 131.055C196.562 131.055 196.929 107.28 196.603 98.6932H196.609Z" fill="#455A64"/>
<path d="M162.884 69.0579C162.857 69.0912 163.371 69.4912 164.091 70.2379C164.817 70.978 165.724 72.1047 166.477 73.4982C167.224 74.8916 167.657 76.2717 167.877 77.2851C168.097 78.2985 168.151 78.9452 168.197 78.9452C168.217 78.9452 168.217 78.7852 168.197 78.4852C168.191 78.1918 168.137 77.7651 168.051 77.2517C167.871 76.2183 167.457 74.8049 166.697 73.3848C165.931 71.9647 164.984 70.838 164.217 70.1179C163.837 69.7579 163.511 69.4846 163.27 69.3112C163.03 69.1379 162.897 69.0512 162.89 69.0645L162.884 69.0579Z" fill="#263238"/>
<path d="M196.608 66.9844L198.209 66.3644L199.722 68.9579L199.995 73.2182L197.862 73.5582L196.262 70.9313L196.608 66.9844Z" fill="#455A64"/>
<path d="M213.869 79.6653C213.802 79.6653 213.742 88.8926 213.742 100.267C213.742 111.641 213.796 120.875 213.869 120.875C213.942 120.875 213.996 111.654 213.996 100.267C213.996 88.8792 213.942 79.6653 213.869 79.6653Z" fill="#263238"/>
<path d="M196.495 63.3042C196.495 63.3042 196.842 63.8976 197.402 64.8443C197.968 65.791 198.715 67.1178 199.428 68.6446C199.488 68.7712 199.542 68.8912 199.595 69.0113L199.709 69.2513L199.822 69.0113C200.509 67.5645 201.009 66.2177 201.315 65.231C201.469 64.7376 201.582 64.3376 201.649 64.0576C201.715 63.7776 201.742 63.6242 201.729 63.6176C201.695 63.6109 201.502 64.2043 201.155 65.171C200.809 66.1377 200.289 67.4645 199.602 68.8979H199.829C199.775 68.7846 199.715 68.6579 199.655 68.5312C198.935 66.9978 198.155 65.671 197.548 64.7443C197.248 64.2776 196.988 63.9109 196.802 63.6642C196.615 63.4175 196.502 63.2842 196.488 63.2975L196.495 63.3042Z" fill="#263238"/>
<path d="M178.305 61.6375C178.305 61.6375 178.385 61.6975 178.551 61.7841C178.738 61.8841 178.978 62.0108 179.271 62.1642C179.931 62.5042 180.832 62.9709 181.932 63.5442C184.178 64.711 187.259 66.3778 190.666 68.1979C192.739 69.3046 194.706 70.3314 196.419 71.1848L196.579 71.2648V71.0914C196.606 68.8713 196.619 67.0045 196.633 65.6511C196.633 65.0177 196.633 64.5043 196.633 64.1176C196.633 63.7643 196.619 63.5709 196.606 63.5709C196.593 63.5709 196.579 63.7576 196.559 64.1176C196.546 64.5043 196.526 65.0177 196.499 65.6511C196.466 67.0045 196.413 68.8713 196.359 71.0914L196.519 70.9981C194.819 70.1247 192.859 69.0913 190.786 67.9845C187.379 66.1644 184.285 64.5243 182.018 63.3909C180.885 62.8242 179.958 62.3775 179.318 62.0775C179.018 61.9375 178.771 61.8308 178.571 61.7441C178.398 61.6708 178.311 61.6375 178.305 61.6441V61.6375Z" fill="#263238"/>
<path d="M211.714 67.4645C211.68 67.4845 211.96 67.9645 212.32 68.7712C212.68 69.578 213.1 70.7314 213.34 72.0581C213.58 73.3849 213.607 74.6116 213.554 75.4983C213.507 76.3851 213.414 76.9251 213.454 76.9318C213.474 76.9318 213.507 76.8051 213.567 76.5584C213.627 76.3117 213.687 75.9584 213.734 75.5117C213.834 74.6183 213.834 73.3649 213.587 72.0181C213.334 70.6647 212.887 69.4979 212.48 68.6979C212.28 68.2979 212.094 67.9845 211.954 67.7778C211.814 67.5712 211.734 67.4578 211.714 67.4711V67.4645Z" fill="#263238"/>
<path d="M198.248 73.8382C198.282 73.8982 198.688 73.7049 199.155 73.4115C199.615 73.1182 199.962 72.8381 199.928 72.7781C199.895 72.7181 199.488 72.9115 199.022 73.2048C198.562 73.4982 198.215 73.7782 198.248 73.8382Z" fill="#263238"/>
<path d="M197.481 72.7982C197.541 72.8248 198.028 71.8581 198.568 70.638C199.101 69.4179 199.488 68.4112 199.421 68.3779C199.361 68.3512 198.875 69.3179 198.341 70.538C197.808 71.7581 197.421 72.7648 197.488 72.7982H197.481Z" fill="#263238"/>
<path d="M161.02 69.5513C161.02 69.5513 155.493 73.5315 154.799 75.7317C154.106 77.9318 151.172 113.661 150.652 117.914C150.132 122.168 149.619 130.115 152.899 132.709C156.179 135.302 163.266 137.242 163.266 137.242L169.813 123.722L166.347 116.461L169.813 89.3259L161.02 69.5513Z" fill="#CFDFFA"/>
<path d="M161.686 136.762C161.686 136.762 161.806 136.742 162.04 136.736C162.273 136.729 162.613 136.736 163.06 136.669C163.927 136.562 165.26 136.329 166.6 135.389C167.947 134.482 169.187 132.856 169.974 130.769C170.767 128.689 171.227 126.182 171.254 123.495L171.287 123.588C169.714 121.408 168 119.035 166.207 116.561L166.167 116.508V116.441C166.2 116.261 166.22 116.068 166.247 115.868C167.227 108.254 168.107 101.367 168.753 96.3464C169.074 93.8729 169.334 91.8594 169.52 90.4327C169.607 89.7593 169.68 89.2259 169.734 88.8259C169.78 88.4592 169.8 88.2659 169.814 88.2659C169.814 88.2659 169.82 88.3125 169.814 88.4125C169.814 88.5059 169.814 88.6526 169.794 88.8326C169.76 89.2326 169.707 89.7726 169.647 90.446C169.507 91.8461 169.28 93.8729 168.987 96.3731C168.4 101.38 167.553 108.287 166.58 115.908C166.553 116.101 166.533 116.301 166.507 116.481L166.473 116.361C168.253 118.841 169.967 121.221 171.534 123.402L171.567 123.448V123.495C171.527 126.235 171.047 128.755 170.22 130.875C169.4 132.996 168.107 134.649 166.7 135.562C166.007 136.029 165.313 136.322 164.687 136.496C164.533 136.536 164.38 136.582 164.233 136.622C164.087 136.649 163.947 136.669 163.806 136.696C163.533 136.749 163.286 136.776 163.06 136.782C162.613 136.829 162.266 136.802 162.033 136.796C161.8 136.782 161.68 136.776 161.68 136.769L161.686 136.762Z" fill="#263238"/>
<path d="M155.004 118.961C155.004 118.961 155.497 118.481 156.457 117.928C157.411 117.374 158.837 116.774 160.498 116.448C162.158 116.128 163.704 116.154 164.798 116.308C165.891 116.461 166.538 116.688 166.531 116.721C166.525 116.841 163.831 116.128 160.564 116.788C157.284 117.401 155.057 119.068 155.004 118.961Z" fill="#263238"/>
<path d="M198.388 83.3922C198.388 83.3922 198.702 84.5789 199.208 86.6724C200.335 85.0456 201.788 83.6589 203.469 82.5921H203.449C203.449 82.5921 211.982 74.1183 214.709 65.1977C216.689 58.7239 216.196 51.5568 216.196 51.5568C216.116 51.2167 215.449 48.1765 214.909 45.6897C214.463 43.6496 215.709 41.6428 217.723 41.1027C221.963 39.9626 233.437 37.7292 236.071 45.4363C239.998 56.9371 233.651 69.3579 233.717 72.9115C233.731 73.5849 233.744 74.1249 233.751 74.5716C237.117 73.7916 239.724 73.2315 239.738 73.2915L261.832 68.1379C261.832 68.1379 269.133 65.931 271.64 73.4115C274.147 80.8987 265.646 83.3855 265.646 83.3855C265.646 83.3855 269.64 83.2122 270.726 90.0193C271.813 96.8264 264.513 99.0332 264.513 99.0332C264.513 99.0332 268.986 98.7466 270.14 104.78C271.266 110.654 263.966 114.194 263.579 114.374C264.659 114.141 265.333 114.014 265.339 114.041C265.339 114.068 264.839 114.208 263.999 114.428C267.399 114.861 267.893 118.915 267.893 118.915C270.086 127.228 263.686 128.975 263.686 128.975L223.343 138.396C219.283 139.343 215.089 139.169 211.182 137.956C211.569 139.676 211.776 140.643 211.762 140.649L183.587 147.23C183.527 147.243 180.48 134.436 176.793 118.635C173.1 102.82 170.16 89.9993 170.22 89.9793L198.395 83.3989L198.388 83.3922Z" fill="#407BFF"/>
<g opacity="0.3">
<path d="M198.388 83.3922C198.388 83.3922 198.702 84.5789 199.208 86.6724C200.335 85.0456 201.788 83.6589 203.469 82.5921H203.449C203.449 82.5921 211.982 74.1183 214.709 65.1977C216.689 58.7239 216.196 51.5568 216.196 51.5568C216.116 51.2167 215.449 48.1765 214.909 45.6897C214.463 43.6496 215.709 41.6428 217.723 41.1027C221.963 39.9626 233.437 37.7292 236.071 45.4363C239.998 56.9371 233.651 69.3579 233.717 72.9115C233.731 73.5849 233.744 74.1249 233.751 74.5716C237.117 73.7916 239.724 73.2315 239.738 73.2915L261.832 68.1379C261.832 68.1379 269.133 65.931 271.64 73.4115C274.147 80.8987 265.646 83.3855 265.646 83.3855C265.646 83.3855 269.64 83.2122 270.726 90.0193C271.813 96.8264 264.513 99.0332 264.513 99.0332C264.513 99.0332 268.986 98.7466 270.14 104.78C271.266 110.654 263.966 114.194 263.579 114.374C264.659 114.141 265.333 114.014 265.339 114.041C265.339 114.068 264.839 114.208 263.999 114.428C267.399 114.861 267.893 118.915 267.893 118.915C270.086 127.228 263.686 128.975 263.686 128.975L223.343 138.396C219.283 139.343 215.089 139.169 211.182 137.956C211.569 139.676 211.776 140.643 211.762 140.649L183.587 147.23C183.527 147.243 180.48 134.436 176.793 118.635C173.1 102.82 170.16 89.9993 170.22 89.9793L198.395 83.3989L198.388 83.3922Z" fill="black"/>
</g>
<path d="M203.836 91.4194L203.289 95.0796L212.296 133.649C217.63 137.189 224.19 138.376 230.431 136.916L270.774 127.495C270.774 127.495 277.174 125.748 274.981 117.434C274.981 117.434 274.454 113.021 270.647 112.901C270.647 112.901 278.387 109.327 277.227 103.294C276.067 97.2598 271.6 97.5465 271.6 97.5465C271.6 97.5465 278.901 95.3396 277.814 88.5325C276.727 81.7254 272.734 81.8987 272.734 81.8987C272.734 81.8987 281.228 79.4119 278.727 71.9247C276.221 64.4376 268.92 66.6511 268.92 66.6511L240.225 73.3448L215.07 79.2186C209.183 80.592 204.729 85.4257 203.836 91.4061V91.4194Z" fill="#407BFF"/>
<path d="M210.539 81.132C210.539 81.132 219.073 72.6515 221.8 63.7375C223.78 57.2638 223.287 50.0966 223.287 50.0966C223.207 49.7566 222.54 46.7164 222 44.2296C221.553 42.1894 222.8 40.1826 224.813 39.6426C229.054 38.5025 236.701 40.6093 239.334 48.3165C243.261 59.8173 240.741 67.8978 240.808 71.4514L240.874 75.0049L210.539 81.1454V81.132Z" fill="#407BFF"/>
<path d="M205.481 81.9078L177.305 88.4906L190.68 145.74L218.856 139.157L205.481 81.9078Z" fill="#407BFF"/>
<path d="M218.853 139.176C218.913 139.163 215.973 126.335 212.279 110.527C208.585 94.7129 205.545 81.9121 205.485 81.9254C205.425 81.9388 208.365 94.7663 212.059 110.581C215.753 126.388 218.793 139.189 218.853 139.176Z" fill="#263238"/>
<path d="M190.669 145.756C190.729 145.743 187.789 132.915 184.095 117.108C180.402 101.293 177.362 88.4925 177.302 88.5059C177.242 88.5192 180.182 101.347 183.875 117.161C187.569 132.969 190.609 145.77 190.669 145.756Z" fill="#263238"/>
<path d="M198.589 97.353C199.269 100.267 197.462 103.18 194.549 103.86C191.635 104.54 188.722 102.733 188.042 99.8199C187.362 96.9063 189.168 93.9928 192.082 93.3128C194.995 92.6327 197.909 94.4395 198.589 97.353Z" fill="white"/>
<path d="M246.826 71.8114C246.813 71.7514 243.726 72.4181 239.939 73.3048C236.152 74.1915 233.092 74.9582 233.106 75.0182C233.119 75.0783 236.206 74.4115 239.993 73.5248C243.78 72.6381 246.84 71.8714 246.826 71.8114Z" fill="#263238"/>
<path d="M272.235 97.6931C272.222 97.6331 270.248 98.0398 267.821 98.6065C265.401 99.1732 263.448 99.6799 263.461 99.7399C263.474 99.7999 265.448 99.3932 267.875 98.8265C270.295 98.2598 272.248 97.7531 272.235 97.6931Z" fill="#263238"/>
<path d="M273.256 81.6387C273.243 81.5787 270.443 82.1788 267.009 82.9788C263.569 83.7789 260.795 84.4789 260.809 84.5456C260.822 84.6056 263.622 84.0056 267.062 83.1989C270.503 82.3988 273.276 81.6988 273.263 81.6321L273.256 81.6387Z" fill="#263238"/>
<path d="M272.42 112.567C272.407 112.507 269.607 113.107 266.173 113.908C262.733 114.708 259.959 115.408 259.973 115.474C259.986 115.534 262.786 114.934 266.226 114.128C269.667 113.328 272.44 112.627 272.427 112.561L272.42 112.567Z" fill="#263238"/>
<g opacity="0.3">
<path d="M225.06 42.4694C224.186 43.2894 224.08 44.6695 224.413 45.823C224.746 46.9764 225.433 47.9898 225.953 49.0698C227.106 51.4567 227.44 54.2302 226.893 56.8237C226.726 57.6171 226.506 58.5305 227.013 59.1638C227.733 60.0572 229.187 59.5639 230.093 58.8572C233.533 56.2036 235.187 51.43 234.134 47.2097C233.687 45.4296 232.76 43.7228 231.287 42.6294C229.813 41.536 227.553 40.5426 225.053 42.4627" fill="white"/>
</g>
<g opacity="0.3">
<path d="M271.562 67.6578C270.575 67.4712 269.555 67.7178 268.582 67.9645C262.908 69.4046 257.228 70.8447 251.554 72.2915C249.701 72.7648 246.214 73.1849 246.18 75.0783C245.807 76.1117 246.594 77.2851 247.607 77.7052C248.621 78.1319 249.774 77.9985 250.861 77.8252C253.141 77.4585 255.388 76.9318 257.628 76.3984C262.135 75.3183 266.655 74.2116 270.935 72.4315C271.569 72.1648 272.209 71.8848 272.722 71.4247C273.236 70.9647 273.609 70.3047 273.569 69.618C273.502 68.6112 272.549 67.8512 271.555 67.6578H271.562Z" fill="white"/>
</g>
<path d="M199.209 85.099C199.196 85.039 195.249 85.9057 190.388 87.0391C185.528 88.1725 181.608 89.1393 181.621 89.2059C181.634 89.266 185.581 88.3992 190.442 87.2658C195.295 86.1324 199.222 85.1657 199.209 85.099Z" fill="white"/>
<path d="M275.229 91.5794C275.229 91.5794 275.283 91.466 275.343 91.246C275.403 91.026 275.456 90.706 275.489 90.2993C275.523 89.8926 275.509 89.4126 275.436 88.8792C275.356 88.3458 275.216 87.7725 274.982 87.1924C274.749 86.619 274.449 86.099 274.142 85.659C273.822 85.2256 273.502 84.8656 273.196 84.5922C272.896 84.3189 272.629 84.1256 272.436 84.0055C272.242 83.8855 272.136 83.8255 272.122 83.8389C272.096 83.8722 272.522 84.1456 273.082 84.6989C273.362 84.9789 273.669 85.339 273.969 85.7657C274.256 86.199 274.542 86.7057 274.769 87.2591C274.989 87.8191 275.136 88.3792 275.222 88.8925C275.302 89.4059 275.336 89.8793 275.323 90.2793C275.303 91.0727 275.182 91.5594 275.222 91.566L275.229 91.5794Z" fill="white"/>
<path d="M276.015 76.1051C276.015 76.1051 276.288 75.8651 276.548 75.345C276.808 74.8316 277.022 74.0383 276.962 73.1515C276.902 72.2648 276.588 71.5048 276.262 71.0314C275.942 70.5514 275.648 70.3313 275.635 70.3513C275.608 70.378 275.848 70.6314 276.122 71.1181C276.395 71.5981 276.675 72.3248 276.728 73.1715C276.782 74.0183 276.602 74.7783 276.395 75.285C276.188 75.7984 275.975 76.0851 276.008 76.1051H276.015Z" fill="white"/>
<path d="M273.883 108.254C273.883 108.254 274.249 108.047 274.643 107.507C275.029 106.974 275.409 106.074 275.349 105.04C275.283 104.007 274.796 103.16 274.349 102.68C273.896 102.187 273.516 102.013 273.509 102.027C273.483 102.06 273.829 102.28 274.229 102.78C274.629 103.267 275.063 104.08 275.123 105.054C275.183 106.02 274.849 106.88 274.509 107.414C274.169 107.96 273.856 108.22 273.883 108.247V108.254Z" fill="white"/>
<path d="M271.33 123.181C271.33 123.181 271.596 122.921 271.843 122.381C272.09 121.848 272.303 121.035 272.263 120.121C272.223 119.215 271.943 118.421 271.65 117.908C271.356 117.394 271.09 117.141 271.07 117.154C271.036 117.181 271.256 117.468 271.503 117.981C271.75 118.495 271.996 119.261 272.036 120.128C272.07 121.001 271.896 121.781 271.69 122.315C271.49 122.848 271.296 123.155 271.33 123.175V123.181Z" fill="white"/>
<path d="M239.647 61.8241C239.647 61.8241 239.72 61.5974 239.813 61.1707C239.86 60.9574 239.92 60.6974 239.96 60.3973C240.007 60.0907 240.067 59.744 240.1 59.3573C240.187 58.5839 240.227 57.6572 240.2 56.6304C240.16 55.6037 240.053 54.477 239.833 53.3102C239.6 52.1435 239.287 51.0567 238.94 50.09C238.58 49.1299 238.2 48.2832 237.833 47.5965C237.66 47.2498 237.473 46.9498 237.32 46.6831C237.167 46.4164 237.02 46.1964 236.893 46.0164C236.647 45.6564 236.507 45.463 236.493 45.4764C236.48 45.4897 236.6 45.6964 236.82 46.0631C236.933 46.2497 237.067 46.4764 237.207 46.7431C237.353 47.0165 237.527 47.3165 237.687 47.6632C238.033 48.3499 238.393 49.1966 238.74 50.15C239.073 51.1101 239.38 52.1901 239.607 53.3435C239.827 54.497 239.94 55.6104 239.993 56.6304C240.027 57.6438 240.007 58.5639 239.94 59.3306C239.92 59.7173 239.867 60.0573 239.833 60.364C239.807 60.6707 239.76 60.9307 239.727 61.1441C239.66 61.5708 239.627 61.8108 239.647 61.8108V61.8241Z" fill="white"/>
<path d="M175.312 129.368C175.312 129.368 177.526 127.655 179.173 127.582C180.819 127.508 182.96 128.155 183.393 127.942C183.82 127.728 184.82 126.788 185.466 127.582C186.106 128.375 186.893 131.235 183.466 132.022H181.106C181.106 132.022 181.393 134.382 181.966 135.309C182.54 136.236 190.547 146.316 190.547 146.316C190.547 146.316 191.547 147.316 191.047 148.316C190.547 149.317 188.4 148.743 188.4 148.743C188.4 148.743 186.9 150.103 185.186 149.457C183.473 148.81 182.753 148.31 182.753 148.31C182.753 148.31 180.893 149.81 178.893 148.31C176.893 146.81 170.219 138.442 170.219 138.442L172.606 129.082L175.319 129.368H175.312Z" fill="#AE7461"/>
<path d="M168.366 123.835L175.313 129.369L170.213 138.442L160.039 134.749C160.039 134.749 160.332 124.028 168.366 123.835Z" fill="#AE7461"/>
<path d="M276.717 111.481C276.717 111.481 276.497 108.994 275.11 109.507C273.717 110.021 273.137 112.948 273.137 112.948L276.724 111.487L276.717 111.481Z" fill="#AE7461"/>
<path d="M271.745 113.934C271.745 113.934 274.159 111.227 277.525 111.447C280.892 111.667 278.772 114.521 278.772 114.521C278.772 114.521 281.266 116.054 279.432 118.255L279.139 118.841C279.139 118.841 281.259 119.648 279.066 121.915C279.066 121.915 279.872 123.375 278.772 124.475C277.672 125.575 274.932 124.108 274.932 124.108C274.932 124.108 272.405 124.695 272.185 123.668C271.965 122.641 272.552 121.915 272.772 121.768C272.992 121.621 274.305 121.108 274.305 121.108C274.305 121.108 271.378 121.475 271.305 120.741C271.232 120.008 270.938 119.208 273.132 118.475L274.305 118.161C274.305 118.161 271.272 118.255 271.252 117.521C271.232 116.788 271.085 116.494 272.185 115.988C273.285 115.481 274.159 114.888 274.159 114.888C274.159 114.888 271.305 115.474 271.745 113.934Z" fill="#AE7461"/>
<path d="M271.204 116.788C271.257 116.868 272.631 115.534 274.824 114.934C277.011 114.301 278.871 114.721 278.878 114.621C278.885 114.588 278.438 114.434 277.684 114.368C276.931 114.294 275.864 114.334 274.744 114.648C273.624 114.968 272.691 115.488 272.091 115.948C271.484 116.408 271.184 116.768 271.204 116.794V116.788Z" fill="#6F4439"/>
<path d="M271.545 120.975C271.545 120.975 271.472 120.881 271.405 120.715C271.332 120.548 271.312 120.275 271.412 119.955C271.512 119.641 271.712 119.275 272.072 119.035C272.432 118.775 272.899 118.601 273.412 118.475C275.485 117.995 277.245 118.108 277.245 118.015C277.245 117.975 276.812 117.901 276.105 117.888C275.392 117.875 274.405 117.935 273.345 118.181C272.812 118.308 272.305 118.508 271.912 118.808C271.498 119.101 271.292 119.541 271.205 119.895C271.118 120.261 271.178 120.588 271.298 120.761C271.418 120.941 271.538 120.981 271.545 120.968V120.975Z" fill="#6F4439"/>
<path d="M272.778 124.188C272.778 124.188 272.671 124.122 272.525 123.982C272.378 123.842 272.198 123.595 272.158 123.235C272.125 122.882 272.211 122.435 272.585 122.148C272.945 121.862 273.491 121.661 274.018 121.481C275.111 121.175 276.185 121.315 276.952 121.328C277.725 121.361 278.205 121.301 278.198 121.261C278.198 121.221 277.725 121.201 276.965 121.115C276.212 121.055 275.118 120.868 273.931 121.195C273.358 121.395 272.831 121.581 272.398 121.935C272.185 122.108 272.038 122.348 271.971 122.588C271.911 122.828 271.905 123.055 271.938 123.262C272.011 123.675 272.251 123.942 272.438 124.068C272.631 124.195 272.765 124.195 272.765 124.182L272.778 124.188Z" fill="#6F4439"/>
<path d="M271.704 114.048C271.704 114.048 271.771 113.954 271.918 113.821C272.064 113.681 272.291 113.494 272.584 113.281C273.171 112.868 274.031 112.288 275.065 111.948C276.131 111.607 277.118 111.421 277.832 111.547C278.538 111.654 278.932 111.921 278.958 111.867C278.978 111.847 278.618 111.514 277.872 111.334C277.118 111.141 276.051 111.314 274.978 111.654C272.791 112.441 271.524 113.948 271.704 114.048Z" fill="#6F4439"/>
</g>
<defs>
<clipPath id="clip0_4024_5796">
<rect width="284.539" height="300" fill="white"/>
</clipPath>
</defs>
</svg>
