<svg width="404" height="300" viewBox="0 0 404 300" fill="none" xmlns="http://www.w3.org/2000/svg">
<g clip-path="url(#clip0_4016_5666)">
<path d="M403.749 0.187622H291.164V53.0655H403.749V0.187622Z" fill="#FAFAFA"/>
<path d="M403.75 53.0656C403.75 53.0656 403.742 52.7407 403.735 52.1199C403.735 51.4919 403.728 50.5751 403.721 49.3695C403.714 46.9512 403.699 43.3996 403.685 38.8301C403.67 29.691 403.641 16.495 403.613 0.187673L403.75 0.324831C374.477 0.339268 334.795 0.353706 291.172 0.375362H291.165L291.353 0.187673C291.353 18.7978 291.353 36.6861 291.345 53.0656L291.165 52.8851C323.938 52.9212 352.063 52.9501 372.001 52.9717C381.978 52.9934 389.904 53.0078 395.347 53.0223C398.061 53.0295 400.162 53.0367 401.584 53.0439C402.291 53.0439 402.826 53.0511 403.201 53.0511C403.562 53.0511 403.757 53.0656 403.757 53.0656C403.757 53.0656 403.584 53.0728 403.223 53.08C402.855 53.08 402.328 53.08 401.627 53.0945C400.212 53.0945 398.126 53.1089 395.426 53.1161C389.998 53.1306 382.079 53.145 372.124 53.1666C352.157 53.1883 323.996 53.2172 291.172 53.2533H290.992V53.0728C290.992 36.6933 290.992 18.805 290.984 0.194892V0.00720215H291.172H291.179C334.803 0.0288586 374.485 0.0432963 403.757 0.0577339H403.894V0.194892C403.865 16.5311 403.836 29.7632 403.822 38.9167C403.807 43.4718 403.793 47.0162 403.786 49.4273C403.786 50.6184 403.771 51.528 403.771 52.156C403.771 52.7696 403.757 53.0728 403.757 53.0728L403.75 53.0656Z" fill="#263238"/>
<path d="M403.922 16.1485C403.922 16.2496 378.678 16.3362 347.543 16.3362C316.408 16.3362 291.164 16.2496 291.164 16.1485C291.164 16.0474 316.401 15.9608 347.543 15.9608C378.685 15.9608 403.922 16.0474 403.922 16.1485Z" fill="#263238"/>
<path d="M302.268 5.76782C302.34 5.84723 300.968 7.21881 299.207 8.83582C297.445 10.4528 295.966 11.7017 295.893 11.6295C295.821 11.5501 297.193 10.1785 298.954 8.56151C300.716 6.94449 302.195 5.69563 302.268 5.77504V5.76782Z" fill="#263238"/>
<path d="M302.014 11.8822C301.935 11.9544 300.563 10.5828 298.946 8.82141C297.329 7.06002 296.08 5.58016 296.16 5.50797C296.239 5.43578 297.611 6.80736 299.228 8.56876C300.845 10.3301 302.094 11.81 302.014 11.8822Z" fill="#263238"/>
<path d="M313.45 11.7522C313.45 11.7522 313.428 11.5717 313.414 11.2757C313.4 10.922 313.385 10.5105 313.371 10.0124C313.342 8.93683 313.306 7.4281 313.291 5.63061L313.457 5.79664C311.66 5.80386 309.574 5.81108 307.343 5.82552C307.3 5.86883 307.697 5.47179 307.531 5.63783V6.05652V6.46799C307.531 6.74231 307.531 7.01662 307.531 7.28372C307.531 7.82513 307.531 8.3521 307.531 8.86464C307.531 9.88971 307.516 10.8498 307.509 11.7522L307.343 11.5861C309.14 11.6006 310.649 11.6367 311.725 11.6655C312.216 11.68 312.634 11.6944 312.988 11.7089C313.284 11.7233 313.45 11.7305 313.465 11.745C313.486 11.7666 312.901 11.7955 311.833 11.8244C310.772 11.8532 309.22 11.8893 307.35 11.9038H307.191V11.7377C307.191 10.8426 307.177 9.87528 307.17 8.8502C307.17 8.33767 307.17 7.81069 307.17 7.26928C307.17 7.00218 307.17 6.72787 307.17 6.45355V6.04208V5.83273V5.72445V5.67392V5.63783V5.62339C307.004 5.78942 307.401 5.39239 307.357 5.4357C309.588 5.44292 311.674 5.45014 313.472 5.46457H313.638V5.63061C313.623 7.50028 313.587 9.05233 313.558 10.1135C313.529 11.1819 313.501 11.7666 313.479 11.745L313.45 11.7522Z" fill="#263238"/>
<path d="M324.855 11.2109C324.855 11.3119 323.389 11.3986 321.578 11.3986C319.766 11.3986 318.293 11.3119 318.293 11.2109C318.293 11.1098 319.758 11.0232 321.578 11.0232C323.397 11.0232 324.855 11.1098 324.855 11.2109Z" fill="#263238"/>
<path d="M102.363 63.8794H0.1875V135.62H102.363V63.8794Z" fill="#FAFAFA"/>
<path d="M102.363 135.613C102.363 135.613 102.349 135.165 102.349 134.306C102.349 133.44 102.341 132.17 102.334 130.509C102.327 127.181 102.312 122.294 102.298 116.05C102.276 103.569 102.255 85.6587 102.219 63.8722L102.37 64.0238C73.9424 64.0311 38.5197 64.0455 0.209346 64.0599H0.202127L0.389817 63.8722C0.389817 89.528 0.375379 113.884 0.375379 135.613L0.202127 135.44C30.3552 135.476 55.8737 135.505 73.863 135.526C82.8649 135.548 89.9827 135.562 94.8554 135.57C97.2881 135.577 99.165 135.584 100.436 135.591C101.064 135.591 101.547 135.599 101.872 135.599C102.197 135.599 102.363 135.606 102.363 135.606C102.363 135.606 102.204 135.606 101.887 135.613C101.562 135.613 101.085 135.613 100.464 135.62C99.2011 135.62 97.3387 135.635 94.9204 135.642C90.0549 135.649 82.9515 135.671 73.9641 135.685C55.9459 135.707 30.384 135.736 0.187689 135.772H0.0144377V135.599C0.0144377 113.891 0 89.5352 0 63.8795V63.6918H0.187689H0.194908C38.5124 63.7062 73.928 63.7206 102.356 63.7279H102.507V63.8795C102.471 85.702 102.45 103.648 102.428 116.151C102.413 122.381 102.399 127.254 102.392 130.574C102.385 132.22 102.377 133.483 102.377 134.342C102.377 135.194 102.363 135.62 102.363 135.62V135.613Z" fill="#263238"/>
<path d="M102.514 78.3604C102.514 78.4615 79.6018 78.5481 51.3545 78.5481C23.1073 78.5481 0.1875 78.4615 0.1875 78.3604C0.1875 78.2594 23.0928 78.1727 51.3545 78.1727C79.6162 78.1727 102.514 78.2594 102.514 78.3604Z" fill="#263238"/>
<path d="M10.2657 68.9398C10.3379 69.0193 9.09629 70.2681 7.50093 71.7335C5.90557 73.199 4.55565 74.3323 4.48346 74.2529C4.41128 74.1735 5.65291 72.9246 7.24827 71.4592C8.84364 69.9938 10.1936 68.8604 10.2657 68.9398Z" fill="#263238"/>
<path d="M10.0357 74.4911C9.95633 74.5633 8.70747 73.3216 7.24205 71.7263C5.77663 70.1309 4.64327 68.781 4.72268 68.7088C4.80209 68.6366 6.05095 69.8783 7.51637 71.4736C8.98179 73.069 10.1151 74.4189 10.0357 74.4911Z" fill="#263238"/>
<path d="M20.4144 74.3684C20.4144 74.3684 20.3638 73.762 20.335 72.7875C20.3061 71.8129 20.27 70.4486 20.2556 68.8171L20.4216 68.9832C18.7829 68.9904 16.8916 68.9976 14.8703 69.012C14.827 69.0553 15.224 68.6583 15.058 68.8243V69.012V69.1997V69.5751C15.058 69.8278 15.058 70.0732 15.058 70.3186C15.058 70.8095 15.058 71.286 15.058 71.7552C15.058 72.6792 15.0436 73.5599 15.0363 74.3756L14.8703 74.2096C16.5018 74.224 17.8661 74.2601 18.8407 74.289C19.8152 74.3179 20.3927 74.3467 20.4216 74.3684C20.4433 74.3901 19.9163 74.4189 18.949 74.4478C17.9816 74.4767 16.574 74.5128 14.8775 74.5272H14.7187V74.3612C14.7187 73.5455 14.7043 72.672 14.6971 71.7408C14.6971 71.2715 14.6971 70.7951 14.6971 70.3042C14.6971 70.0588 14.6971 69.8133 14.6971 69.5607V69.1853V68.9976V68.8171C14.531 68.9759 14.9281 68.5789 14.8848 68.615C16.906 68.6222 18.7974 68.6294 20.436 68.6439H20.6021V68.8099C20.5876 70.5063 20.5515 71.9212 20.5227 72.8813C20.4938 73.8487 20.4649 74.3828 20.4432 74.354L20.4144 74.3684Z" fill="#263238"/>
<path d="M30.7608 73.8775C30.7608 73.9786 29.4253 74.0652 27.7867 74.0652C26.148 74.0652 24.8125 73.9786 24.8125 73.8775C24.8125 73.7764 26.148 73.6898 27.7867 73.6898C29.4253 73.6898 30.7608 73.7764 30.7608 73.8775Z" fill="#263238"/>
<path d="M60.4485 101.865C60.4485 93.0363 52.4717 86.0774 43.3327 87.7882C37.5865 88.8638 33.0025 93.5633 31.9991 99.3239C31.3711 102.926 32.1146 106.312 33.7533 109.105H33.7461L33.7894 109.156C34.338 110.08 35.031 110.744 35.724 111.719L44.0473 122.742C45.0796 124.113 47.1442 124.113 48.1765 122.742L56.3627 111.899C56.3627 111.899 57.893 110.08 58.4417 109.142L58.4706 109.105C59.7194 106.976 60.4485 104.507 60.4485 101.865ZM46.1119 108.109C42.6252 108.109 39.8027 105.287 39.8027 101.8C39.8027 98.3133 42.6252 95.4907 46.1119 95.4907C49.5986 95.4907 52.4212 98.3133 52.4212 101.8C52.4212 105.287 49.5986 108.109 46.1119 108.109Z" fill="#E0E0E0"/>
<path d="M347.124 26.6302H75.7109V235.298H347.124V26.6302Z" fill="white"/>
<path d="M347.125 235.298C347.125 234.013 347.067 152.707 346.973 26.6302L347.125 26.7818C270.107 26.789 176.544 26.8034 75.7328 26.8179H75.7111L75.8988 26.6302C75.8988 101.778 75.8844 172.891 75.8772 235.298L75.7111 235.132C236.734 235.233 345.638 235.298 347.125 235.298C345.638 235.298 236.734 235.37 75.7111 235.464H75.5451V235.298C75.5451 172.891 75.5307 101.778 75.5234 26.6302V26.4425H75.7328C176.544 26.4569 270.1 26.4642 347.125 26.4786H347.276V26.6302C347.182 152.707 347.125 234.013 347.125 235.298Z" fill="#263238"/>
<path d="M347.126 45.854C347.126 45.955 286.69 46.0416 212.148 46.0416C137.607 46.0416 77.1562 45.955 77.1562 45.854C77.1562 45.7529 137.585 45.6663 212.148 45.6663C286.712 45.6663 347.126 45.7529 347.126 45.854Z" fill="#263238"/>
<path d="M90.5966 34.1017C90.6688 34.1811 88.8135 36.0003 86.453 38.1659C84.0924 40.3316 82.1217 42.028 82.0567 41.9558C81.9845 41.8764 83.8398 40.0572 86.2003 37.8916C88.5609 35.7259 90.5244 34.0295 90.5966 34.1017Z" fill="#263238"/>
<path d="M90.2508 42.3023C90.1714 42.3745 88.3523 40.5192 86.1866 38.1587C84.021 35.7981 82.3246 33.8274 82.3968 33.7624C82.4762 33.6902 84.2953 35.5455 86.4609 37.906C88.6266 40.2666 90.323 42.2301 90.2508 42.3023Z" fill="#263238"/>
<path d="M105.583 42.129C105.583 42.129 105.562 41.898 105.547 41.5082C105.533 41.0679 105.525 40.5048 105.504 39.8262C105.475 38.3897 105.439 36.3612 105.424 33.9357L105.59 34.1017C103.194 34.1089 100.386 34.1161 97.3971 34.1306C97.3538 34.1739 97.7508 33.7768 97.5848 33.9429V34.4987V35.0546C97.5848 35.4227 97.5848 35.7909 97.5848 36.1518C97.5848 36.8737 97.5848 37.5812 97.5848 38.267C97.5848 39.6385 97.5703 40.9379 97.5631 42.1362L97.3971 41.9702C99.8226 41.9847 101.844 42.0207 103.288 42.0496C103.966 42.0641 104.529 42.0785 104.97 42.0929C105.367 42.1074 105.583 42.1146 105.59 42.129C105.605 42.1435 105.41 42.1507 105.035 42.1651C104.601 42.1796 104.053 42.194 103.389 42.2084C101.959 42.2373 99.8876 42.2734 97.3971 42.2878H97.2383V42.1218C97.2383 40.9235 97.2238 39.6313 97.2166 38.2525C97.2166 37.5667 97.2166 36.8593 97.2166 36.1374C97.2166 35.7765 97.2166 35.4083 97.2166 35.0401V34.4843V34.2028V33.9429V33.9284C97.0506 34.0945 97.4476 33.6974 97.4043 33.7335C100.4 33.7408 103.201 33.748 105.598 33.7624H105.764V33.9284C105.749 36.4189 105.713 38.4907 105.684 39.9201C105.67 40.5842 105.655 41.1328 105.641 41.566C105.627 41.9413 105.619 42.1362 105.605 42.1218L105.583 42.129Z" fill="#263238"/>
<path d="M120.871 41.4C120.871 41.501 118.9 41.5877 116.474 41.5877C114.049 41.5877 112.078 41.501 112.078 41.4C112.078 41.2989 114.049 41.2123 116.474 41.2123C118.9 41.2123 120.871 41.2989 120.871 41.4Z" fill="#263238"/>
<path d="M269.696 217.741C269.696 217.741 269.927 217.417 270.396 216.803C270.511 216.651 270.648 216.478 270.793 216.283C270.923 216.081 271.045 215.85 271.19 215.597C271.471 215.099 271.825 214.529 272.078 213.814C272.215 213.461 272.381 213.1 272.525 212.703C272.641 212.298 272.756 211.865 272.879 211.418C273.023 210.97 273.096 210.494 273.175 209.988C273.24 209.483 273.377 208.963 273.392 208.415C273.63 206.213 273.485 203.65 273.045 200.82C272.164 195.139 269.76 188.447 266.072 181.178C262.39 173.894 257.322 166.055 251.093 157.883C244.863 149.711 237.37 141.265 228.758 132.79C220.138 124.323 210.371 115.819 199.435 107.755C193.963 103.734 188.188 99.8291 182.102 96.1547C176.024 92.4731 169.606 89.0369 162.85 86.0556C156.086 83.1175 148.953 80.5548 141.424 79.3421C137.67 78.7646 133.801 78.483 129.997 79.0605C128.098 79.3493 126.236 79.869 124.474 80.6559C122.749 81.5005 121.154 82.6266 119.84 84.0415C118.577 85.5069 117.638 87.2106 116.996 89.0225C116.411 90.8561 116.1 92.7691 116.028 94.6893C115.884 98.5369 116.606 102.348 117.602 106.008C119.659 113.35 123.023 120.15 126.712 126.539C130.437 132.92 134.581 138.905 138.934 144.521C143.279 150.152 147.813 155.443 152.433 160.424C161.687 170.379 171.252 179.113 180.644 186.715C190.043 194.309 199.283 200.792 208.112 206.054C216.94 211.309 225.3 215.46 232.959 218.283C240.604 221.12 247.526 222.751 253.265 222.975C256.131 223.091 258.694 222.939 260.852 222.455C261.401 222.376 261.899 222.181 262.39 222.058C262.881 221.928 263.35 221.798 263.776 221.603C264.209 221.43 264.621 221.264 265.01 221.105C265.386 220.918 265.732 220.716 266.064 220.535C266.743 220.203 267.27 219.784 267.732 219.445C267.963 219.272 268.18 219.127 268.367 218.969C268.54 218.803 268.699 218.651 268.836 218.521C269.4 217.987 269.696 217.72 269.696 217.72C269.696 217.72 269.421 218.009 268.873 218.557C268.735 218.694 268.577 218.846 268.411 219.019C268.23 219.178 268.006 219.33 267.783 219.503C267.321 219.849 266.801 220.275 266.122 220.614C265.79 220.795 265.444 221.004 265.068 221.199C264.678 221.358 264.26 221.531 263.827 221.712C263.401 221.907 262.931 222.044 262.433 222.181C261.935 222.311 261.437 222.506 260.889 222.592C258.723 223.098 256.146 223.257 253.265 223.156C247.498 222.953 240.546 221.344 232.879 218.521C225.191 215.706 216.803 211.577 207.953 206.328C199.103 201.073 189.834 194.598 180.413 187.011C171 179.409 161.413 170.675 152.137 160.713C147.502 155.724 142.955 150.426 138.602 144.788C134.234 139.157 130.083 133.158 126.337 126.763C122.634 120.352 119.255 113.53 117.176 106.131C116.165 102.442 115.436 98.5874 115.581 94.6748C115.653 92.7185 115.971 90.7695 116.57 88.8781C117.234 87.0157 118.201 85.2543 119.508 83.7383C120.865 82.2657 122.511 81.1107 124.287 80.2444C126.091 79.4359 127.997 78.9089 129.932 78.6057C133.801 78.021 137.714 78.3025 141.496 78.8873C149.083 80.1145 156.244 82.6916 163.03 85.6441C169.816 88.6327 176.241 92.0833 182.333 95.7793C188.433 99.4681 194.215 103.381 199.695 107.416C210.645 115.501 220.413 124.027 229.039 132.516C237.651 141.013 245.144 149.48 251.367 157.681C257.59 165.874 262.65 173.743 266.317 181.055C269.991 188.354 272.388 195.074 273.24 200.784C273.666 203.629 273.803 206.213 273.55 208.422C273.529 208.978 273.392 209.498 273.319 210.003C273.24 210.508 273.161 210.992 273.009 211.439C272.879 211.887 272.756 212.32 272.641 212.732C272.496 213.129 272.323 213.497 272.186 213.85C271.926 214.565 271.565 215.135 271.269 215.633C271.118 215.879 270.995 216.117 270.858 216.312C270.706 216.5 270.576 216.673 270.453 216.825C269.97 217.438 269.717 217.741 269.717 217.741H269.696Z" fill="#E0E0E0"/>
<path d="M297.413 150.837C297.413 150.837 297.369 150.44 297.312 149.668C297.297 149.473 297.283 149.256 297.261 149.018C297.225 148.78 297.16 148.527 297.102 148.246C296.98 147.683 296.871 147.026 296.582 146.326C296.453 145.972 296.33 145.589 296.171 145.199C295.983 144.824 295.788 144.42 295.579 144.008C295.391 143.582 295.124 143.171 294.85 142.745C294.561 142.326 294.323 141.85 293.962 141.424C292.677 139.627 290.858 137.807 288.649 135.988C284.209 132.336 277.958 128.943 270.371 125.976C262.77 122.987 253.775 120.511 243.683 118.562C233.591 116.613 222.38 115.299 210.31 114.707C198.24 114.13 185.297 114.281 171.762 115.552C164.998 116.194 158.089 117.125 151.101 118.432C144.114 119.731 137.039 121.435 130.015 123.716C123.013 126.026 115.982 128.863 109.557 132.964C106.374 135.028 103.298 137.396 100.844 140.356C99.624 141.835 98.5773 143.467 97.7904 145.221C97.0613 147.004 96.621 148.896 96.5921 150.83C96.6282 152.765 97.0613 154.663 97.7832 156.446C98.5701 158.201 99.6096 159.839 100.837 161.319C103.291 164.286 106.366 166.654 109.55 168.718C115.975 172.826 123.006 175.663 130.015 177.973C137.046 180.254 144.121 181.958 151.109 183.257C158.097 184.564 165.005 185.495 171.769 186.137C185.304 187.408 198.248 187.56 210.318 186.975C222.387 186.383 233.598 185.069 243.69 183.12C253.775 181.171 262.777 178.695 270.378 175.706C277.972 172.732 284.224 169.346 288.656 165.694C290.865 163.875 292.684 162.055 293.969 160.258C294.323 159.832 294.568 159.356 294.857 158.937C295.139 158.511 295.399 158.1 295.586 157.674C295.796 157.255 295.991 156.858 296.178 156.482C296.337 156.093 296.46 155.71 296.59 155.356C296.878 154.656 296.987 153.999 297.109 153.436C297.167 153.155 297.232 152.902 297.268 152.664C297.29 152.426 297.304 152.209 297.319 152.014C297.377 151.242 297.42 150.845 297.42 150.845C297.42 150.845 297.405 151.242 297.362 152.014C297.348 152.209 297.34 152.426 297.326 152.664C297.297 152.902 297.232 153.162 297.182 153.443C297.066 154.006 296.965 154.671 296.676 155.378C296.546 155.732 296.431 156.122 296.272 156.519C296.084 156.901 295.889 157.305 295.687 157.724C295.5 158.157 295.24 158.569 294.958 159.002C294.669 159.428 294.431 159.911 294.078 160.337C292.793 162.156 290.981 163.99 288.764 165.831C284.325 169.52 278.066 172.949 270.465 175.944C262.856 178.962 253.847 181.46 243.748 183.438C233.642 185.416 222.423 186.744 210.332 187.357C198.248 187.949 185.283 187.819 171.726 186.556C164.947 185.921 158.032 184.99 151.022 183.683C144.013 182.384 136.924 180.68 129.871 178.392C122.84 176.074 115.78 173.23 109.304 169.094C106.092 167.008 102.988 164.618 100.49 161.601C99.2414 160.092 98.1802 158.424 97.3717 156.62C96.621 154.786 96.1734 152.83 96.1445 150.83C96.1806 148.831 96.6354 146.874 97.3862 145.041C98.1947 143.236 99.2631 141.568 100.512 140.067C103.01 137.049 106.121 134.667 109.326 132.581C115.801 128.445 122.861 125.6 129.893 123.29C136.945 121.009 144.034 119.298 151.036 118.006C158.039 116.7 164.962 115.768 171.733 115.133C185.29 113.877 198.248 113.74 210.339 114.332C222.423 114.938 233.649 116.274 243.755 118.244C253.854 120.215 262.863 122.72 270.472 125.738C278.073 128.741 284.332 132.162 288.772 135.851C290.988 137.692 292.8 139.525 294.085 141.345C294.438 141.771 294.684 142.254 294.965 142.68C295.24 143.113 295.507 143.525 295.695 143.958C295.897 144.377 296.092 144.781 296.279 145.163C296.438 145.56 296.554 145.943 296.684 146.304C296.965 147.011 297.073 147.676 297.189 148.239C297.239 148.52 297.304 148.78 297.333 149.018C297.348 149.256 297.362 149.473 297.369 149.668C297.413 150.448 297.427 150.837 297.427 150.837H297.413Z" fill="#E0E0E0"/>
<path d="M260.685 67.5465C260.685 67.5465 260.346 67.3372 259.696 66.9113C259.537 66.803 259.35 66.6875 259.155 66.5503C258.946 66.4348 258.7 66.3265 258.447 66.2038C257.928 65.9584 257.343 65.6407 256.614 65.4386C256.253 65.3231 255.878 65.186 255.473 65.0705C255.062 64.9838 254.621 64.8972 254.167 64.8034C253.712 64.6879 253.228 64.6445 252.723 64.6085C252.218 64.5796 251.691 64.4785 251.135 64.5002C248.926 64.4135 246.378 64.7384 243.584 65.3736C237.975 66.6369 231.471 69.5028 224.468 73.6825C217.452 77.855 209.98 83.4568 202.263 90.2353C194.539 97.0138 186.635 105.07 178.773 114.245C170.919 123.427 163.108 133.758 155.825 145.228C152.186 150.967 148.692 156.995 145.444 163.319C142.188 169.642 139.2 176.269 136.695 183.221C134.226 190.173 132.161 197.464 131.468 205.058C131.151 208.841 131.136 212.717 131.974 216.478C132.392 218.355 133.042 220.174 133.952 221.878C134.912 223.545 136.146 225.054 137.648 226.267C139.2 227.422 140.961 228.245 142.816 228.765C144.686 229.219 146.613 229.4 148.534 229.335C152.381 229.212 156.135 228.238 159.723 226.982C166.905 224.419 173.46 220.6 179.575 216.478C185.682 212.32 191.363 207.772 196.676 203.044C201.996 198.323 206.963 193.436 211.612 188.476C220.902 178.558 228.959 168.415 235.896 158.525C242.826 148.621 248.651 138.955 253.293 129.787C257.928 120.619 261.487 111.993 263.782 104.153C266.085 96.3352 267.24 89.3185 267.067 83.5723C266.98 80.7064 266.662 78.1582 266.027 76.0431C265.912 75.5017 265.681 75.018 265.529 74.5343C265.363 74.0507 265.197 73.5959 264.98 73.1844C264.778 72.7657 264.583 72.3687 264.396 71.9861C264.186 71.6179 263.955 71.2931 263.753 70.9755C263.378 70.3185 262.923 69.8277 262.555 69.3873C262.367 69.1708 262.208 68.9614 262.042 68.7882C261.862 68.6293 261.703 68.4777 261.559 68.3478C260.988 67.8281 260.7 67.5465 260.7 67.5465C260.7 67.5465 261.003 67.7992 261.588 68.3117C261.732 68.4416 261.898 68.586 262.078 68.7448C262.252 68.9181 262.411 69.1274 262.605 69.3368C262.981 69.7699 263.443 70.2608 263.825 70.9177C264.028 71.2353 264.266 71.5674 264.475 71.9283C264.663 72.3109 264.865 72.708 265.067 73.1267C265.291 73.5381 265.464 74.0001 265.63 74.4838C265.789 74.9675 266.027 75.4583 266.143 75.9998C266.792 78.1293 267.132 80.6848 267.233 83.5651C267.435 89.3329 266.302 96.3785 264.013 104.225C261.739 112.087 258.195 120.742 253.567 129.932C248.94 139.128 243.115 148.816 236.192 158.742C229.254 168.661 221.205 178.825 211.908 188.765C207.251 193.732 202.278 198.633 196.95 203.369C191.63 208.112 185.942 212.674 179.813 216.846C173.677 220.983 167.1 224.823 159.86 227.407C156.243 228.671 152.453 229.66 148.541 229.782C146.584 229.847 144.614 229.667 142.694 229.198C140.788 228.664 138.961 227.819 137.359 226.621C135.8 225.365 134.529 223.805 133.54 222.094C132.609 220.347 131.952 218.485 131.519 216.579C130.667 212.753 130.681 208.841 131.006 205.022C131.706 197.37 133.785 190.05 136.262 183.077C138.774 176.103 141.77 169.455 145.04 163.124C148.295 156.786 151.804 150.751 155.449 145.005C162.762 133.519 170.594 123.189 178.47 114.007C186.353 104.825 194.286 96.7755 202.04 89.9971C209.785 83.2258 217.286 77.6384 224.331 73.4732C231.362 69.3007 237.903 66.4565 243.541 65.2076C246.349 64.5868 248.911 64.2764 251.135 64.3775C251.691 64.3558 252.218 64.4641 252.73 64.5002C253.243 64.5435 253.726 64.594 254.188 64.7095C254.643 64.8034 255.083 64.8972 255.502 64.9838C255.906 65.0993 256.289 65.2437 256.65 65.3664C257.379 65.5758 257.971 65.9006 258.491 66.1533C258.743 66.2832 258.989 66.3915 259.198 66.5142C259.4 66.6514 259.581 66.7741 259.74 66.8824C260.382 67.3227 260.7 67.5537 260.7 67.5537L260.685 67.5465Z" fill="#E0E0E0"/>
<path d="M95.2651 192.324C96.7233 193.782 96.7233 196.143 95.2651 197.601C93.8069 199.059 91.4464 199.059 89.9882 197.601C88.53 196.143 88.53 193.782 89.9882 192.324C91.4464 190.866 93.8069 190.866 95.2651 192.324Z" fill="#E0E0E0"/>
<path d="M305.91 76.635C305.91 78.6996 304.235 80.3671 302.177 80.3671C300.12 80.3671 298.445 78.6923 298.445 76.635C298.445 74.5776 300.12 72.9028 302.177 72.9028C304.235 72.9028 305.91 74.5776 305.91 76.635Z" fill="#E0E0E0"/>
<path d="M117.887 205.549C118.409 205.549 118.833 205.125 118.833 204.603C118.833 204.081 118.409 203.657 117.887 203.657C117.365 203.657 116.941 204.081 116.941 204.603C116.941 205.125 117.365 205.549 117.887 205.549Z" fill="#E0E0E0"/>
<path d="M139.091 99.9807C139.091 100.508 138.665 100.926 138.145 100.926C137.625 100.926 137.199 100.5 137.199 99.9807C137.199 99.4609 137.625 99.035 138.145 99.035C138.665 99.035 139.091 99.4609 139.091 99.9807Z" fill="#E0E0E0"/>
<path d="M287.157 150.837C287.157 151.364 286.731 151.783 286.211 151.783C285.692 151.783 285.266 151.357 285.266 150.837C285.266 150.318 285.692 149.892 286.211 149.892C286.731 149.892 287.157 150.318 287.157 150.837Z" fill="#E0E0E0"/>
<path d="M300.337 106.6C300.337 107.127 299.911 107.546 299.391 107.546C298.871 107.546 298.445 107.12 298.445 106.6C298.445 106.081 298.871 105.655 299.391 105.655C299.911 105.655 300.337 106.081 300.337 106.6Z" fill="#E0E0E0"/>
<path d="M201.505 199.175C234.365 199.175 261.003 172.356 261.003 139.273C261.003 106.19 234.365 79.371 201.505 79.371C168.646 79.371 142.008 106.19 142.008 139.273C142.008 172.356 168.646 199.175 201.505 199.175Z" fill="#CFDFFA"/>
<g opacity="0.3">
<path d="M179.473 165.968C179.783 163.362 181.819 160.713 180.65 158.359C179.343 155.732 175.531 156.158 172.846 154.981C169.099 153.335 167.944 148.686 165.497 145.402C163.303 142.464 158.185 139.237 154.286 140.118C151.464 140.76 150.497 142.442 150.201 144.514C150.078 144.492 149.962 144.478 149.84 144.456C148.793 144.341 147.573 144.29 146.995 143.424C146.324 142.413 146.988 140.919 146.302 139.93C145.941 139.41 145.321 139.186 144.815 138.818C144.31 138.457 143.877 137.786 144.187 137.237C144.44 136.775 145.097 136.681 145.429 136.255C145.689 135.916 145.682 135.396 145.407 135.079C144.332 133.808 143.141 136.4 142.549 137.006C142.383 137.187 142.217 137.338 142.065 137.461C142.058 137.584 142.043 137.685 142.043 137.8C142.029 138.154 142.029 138.515 142.022 138.876C142.022 139.237 142 139.591 142 139.951C142 140.24 142.007 140.529 142.014 140.825C142.014 141.114 142.014 141.41 142.029 141.698C142.671 141.915 143.271 142.254 143.862 142.601C145.017 143.272 146.31 144.153 146.382 145.488C146.389 145.705 146.375 145.943 146.505 146.116C146.627 146.282 146.851 146.355 147.06 146.398C148.049 146.636 149.067 146.773 150.085 146.824C150.107 148.022 150.186 149.271 150.172 150.455C150.143 152.18 149.58 153.884 149.767 155.587C150.042 157.999 151.717 159.976 153.175 161.911C158.726 169.325 161.722 177.836 164.97 186.549C165.569 187.033 166.436 187.668 167.057 188.108C167.547 188.462 167.995 188.772 168.5 189.104C168.998 189.444 169.446 189.732 169.959 190.05C170.319 190.274 170.392 190.339 170.76 190.555C170.709 190.454 170.803 190.628 170.76 190.527C169.453 187.653 169.446 183.676 172.261 182.254C172.796 181.979 173.409 181.828 173.849 181.416C175.098 180.233 174.073 177.785 175.329 176.594C176.037 175.937 177.134 175.981 178.015 175.584C179.588 174.862 180.094 172.848 179.971 171.115C179.841 169.39 179.278 167.679 179.473 165.954V165.968Z" fill="#353988"/>
</g>
<g opacity="0.3">
<path d="M145.702 122.128C146.814 121.175 148.734 121.067 149.593 122.251C150.207 123.095 150.063 124.258 149.904 125.29C149.687 126.683 149.471 128.076 149.247 129.47C149.182 129.881 149.124 130.336 149.305 130.718C149.716 131.606 151.167 131.433 151.723 130.646C152.286 129.845 152.221 128.777 152.07 127.816C151.918 126.849 151.723 125.831 152.098 124.929C153.037 122.691 156.379 123.03 158.321 121.572C159.527 120.67 160.061 119.154 160.775 117.826C161.49 116.497 162.688 115.169 164.19 115.234C164.695 115.256 165.201 115.443 165.706 115.422C167.193 115.371 168.059 113.198 167.005 112.144C166.789 111.921 166.5 111.74 166.348 111.466C166.088 110.968 166.37 110.325 166.818 109.986C167.272 109.654 167.843 109.56 168.398 109.481C169.669 109.271 170.94 109.076 172.21 108.882C173.61 108.665 175.408 107.943 175.213 106.535C175.047 105.323 173.394 104.774 173.148 103.568C173.084 103.28 173.12 102.955 172.99 102.681C172.607 101.908 171.445 102.219 170.701 102.63C170.398 101.511 168.803 100.999 167.908 101.735C167.157 102.356 167.063 103.446 166.796 104.377C166.175 106.636 164.378 108.347 162.667 109.943C162.089 110.47 161.44 111.033 160.66 111.069C159.88 111.105 159.057 110.268 159.418 109.582C159.664 109.113 160.342 108.838 160.277 108.311C160.183 107.654 159.036 107.698 158.812 107.07C159.267 105.207 161.403 104.435 163.035 103.439C165.02 102.233 166.587 100.334 167.352 98.1327C167.482 97.7862 167.59 97.3675 167.41 97.0426C167.164 96.5734 166.536 96.494 165.995 96.494C164.731 96.4723 163.165 96.6456 162.703 97.8223C162.457 98.4503 162.638 99.165 162.486 99.8291C162.046 101.785 159.361 102.002 157.722 103.171C157.079 103.626 156.581 104.254 155.874 104.601C155.109 104.969 154.221 104.94 153.369 105.005C153.217 105.012 152.835 105.005 152.683 105.019C152.163 105.741 151.759 106.398 151.275 107.142C150.792 107.885 150.315 108.723 149.868 109.488C147.76 113.09 146.128 116.988 144.815 121.031C144.353 122.438 143.956 123.954 143.602 125.405C143.248 126.856 142.995 128.235 142.75 129.729C143.335 128.524 143.595 127.037 143.826 125.983C144.136 124.561 144.598 123.074 145.695 122.121L145.702 122.128Z" fill="#353988"/>
</g>
<g opacity="0.3">
<path d="M195.701 95.2162C196.264 94.4799 196.098 93.4187 196.466 92.5669C197.072 91.152 198.956 90.6467 199.606 89.2463C199.859 88.7121 199.917 88.0552 200.357 87.6509C200.725 87.3188 201.267 87.2539 201.656 86.9507C202.53 86.2793 202.169 84.7489 201.238 84.157C198.906 82.6699 194.611 84.388 192.597 85.8462C190.005 87.7231 187.471 89.9754 184.021 89.7588C183.068 89.7011 182.079 89.434 181.191 89.7732C180.303 90.1125 179.754 91.448 180.52 92.0111C180.946 92.3287 181.552 92.2349 182.028 92.4587C182.916 92.8701 183.003 94.1551 182.57 95.0358C182.137 95.9165 181.357 96.5734 180.844 97.4035C180.346 98.212 180.123 99.1794 180.202 100.125C180.26 100.782 180.491 101.461 181.01 101.872C182.086 102.731 183.718 101.995 184.62 100.962C185.529 99.9301 186.158 98.6019 187.334 97.9016C187.919 97.5479 188.597 97.3891 189.269 97.2303C190.77 96.8766 192.265 96.5156 193.766 96.1619C194.481 95.9887 195.253 95.7865 195.701 95.2018V95.2162Z" fill="#353988"/>
</g>
<g opacity="0.3">
<path d="M260.988 138.818C260.988 137.959 260.959 137.114 260.908 136.27C260.865 135.425 260.829 134.566 260.742 133.729C260.677 133.05 260.62 132.372 260.526 131.707C260.432 131 260.338 130.192 260.223 129.491C259.869 127.398 259.486 125.528 258.916 123.507C258.692 122.727 258.317 121.904 258.064 121.139C257.812 120.374 257.544 119.616 257.263 118.865V118.858C256.96 118.295 256.642 117.739 256.296 117.19C252.989 111.957 248.189 107.856 244.558 102.847C243.374 101.215 242.45 99.8725 240.349 99.5548C237.245 99.0712 235.671 100.847 233.47 97.9017C232.878 97.1076 231.838 96.3785 230.965 96.8478C231.188 97.4758 231.427 98.1111 231.65 98.7463C231.701 98.8763 231.744 99.0206 231.723 99.1578C231.672 99.5981 231.015 99.7209 230.64 99.4754C230.264 99.2228 230.077 98.7752 229.81 98.4143C228.828 97.0138 226.532 96.8333 225.341 98.0461C225.291 97.4542 224.901 96.8983 224.352 96.6529C224.23 97.8079 222.901 98.6669 221.79 98.2987C221.609 97.7212 222.634 97.6202 222.995 97.1293C223.327 96.6673 222.93 96.0248 222.504 95.6422C221.385 94.6605 219.905 94.0902 218.411 94.0541C217.458 94.0324 216.433 94.2129 215.603 93.722C215.127 93.4405 214.787 92.9713 214.296 92.6969C213.25 92.105 211.943 92.6464 210.889 93.2311C209.445 94.0324 207.958 95.0358 207.453 96.6095C206.933 98.1688 208.074 100.291 209.712 100.089C210.124 100.031 210.557 99.8364 210.961 99.9446C211.546 100.103 211.806 100.782 211.856 101.381C211.907 101.973 211.835 102.616 212.131 103.143C212.412 103.67 213.271 103.937 213.596 103.431C214.369 102.695 214.275 101.461 214.08 100.421C213.892 99.3744 213.676 98.1977 214.296 97.3459C214.924 96.4868 216.715 96.7611 216.592 97.8151C216.52 98.4359 215.812 98.8907 215.841 99.5187C215.87 100.161 216.65 100.5 217.292 100.472C217.935 100.45 218.584 100.219 219.205 100.378C219.833 100.529 220.331 101.345 219.884 101.807C219.104 102.695 217.068 101.179 216.664 102.276C216.549 102.558 216.664 102.875 216.635 103.179C216.563 104.103 215.401 104.442 214.477 104.55C213.553 104.651 212.578 104.745 211.741 104.355C210.904 103.958 210.326 102.861 210.81 102.067C210.341 101.728 209.626 102.067 209.373 102.594C209.121 103.114 209.193 103.735 209.272 104.305C208.29 104.088 207.417 104.918 206.861 105.734C206.298 106.564 205.757 107.524 204.811 107.813C203.851 108.102 202.53 107.712 202.032 108.578C201.382 109.705 203.266 111.141 202.609 112.26C202.234 112.888 201.331 112.874 200.617 113.068C198.725 113.603 198.069 116.375 199.353 117.847C200.631 119.327 203.223 119.241 204.587 117.826C205.54 116.858 205.923 115.494 206.608 114.325C207.294 113.17 208.594 112.116 209.893 112.491C210.398 112.643 210.831 112.996 211.236 113.336C211.864 113.863 212.499 114.39 213.127 114.924C213.531 115.263 213.972 115.689 213.935 116.216C213.899 116.642 213.567 116.967 213.43 117.364C213.033 118.504 214.679 119.587 215.719 118.966C216.765 118.345 216.866 116.757 216.159 115.776C215.177 114.418 212.968 113.74 213.026 112.065C214.152 111.141 215.935 112.116 216.592 113.422C217.249 114.722 217.271 116.266 217.826 117.609C218.382 118.966 219.934 120.157 221.234 119.5C220.894 118.331 220.562 117.176 220.223 116.021C221.053 115.4 221.999 117.205 222.988 116.909C223.587 116.721 223.666 115.855 223.399 115.27C223.147 114.685 222.677 114.195 222.562 113.567C222.374 112.419 223.652 111.394 224.814 111.581C225.962 111.769 226.799 112.874 227.016 114.007C227.103 114.462 227.117 114.938 227.319 115.35C227.752 116.252 228.871 116.526 229.795 116.902C230.726 117.277 231.687 118.208 231.304 119.132C231.124 119.537 230.705 119.926 230.849 120.338C230.994 120.706 231.535 120.865 231.535 121.262C231.528 121.529 231.253 121.702 231.008 121.81C230.387 122.063 229.709 122.15 229.109 122.439C228.51 122.72 227.962 123.305 228.005 123.962C228.077 124.9 229.203 125.355 229.73 126.135C230.236 126.878 230.163 127.867 230.481 128.712C230.784 129.491 231.405 130.105 231.903 130.776C233.462 132.906 233.831 135.642 234.596 138.168C234.935 139.309 235.556 140.579 236.725 140.796C237.368 140.911 238.003 140.666 238.609 140.428C240.291 139.756 242.046 139.042 243.222 137.677C244.406 136.306 244.803 134.075 243.59 132.725C243.439 132.545 243.244 132.386 243.013 132.357C242.695 132.321 242.414 132.538 242.125 132.668C241.266 133.065 240.212 132.733 239.497 132.105C238.79 131.484 238.357 130.61 237.938 129.758C237.476 128.827 237.014 127.889 236.545 126.943C237.101 126.474 237.989 126.669 238.559 127.131C239.122 127.593 239.468 128.257 239.93 128.827C241.331 130.581 243.641 131.347 245.872 131.614C246.435 131.679 247.019 131.729 247.546 131.96C249.214 132.725 249.69 135.18 251.452 135.707C251.943 135.858 252.484 135.829 252.946 136.046C253.639 136.378 253.993 137.165 254.195 137.908C254.577 139.294 254.715 140.753 255.299 142.067C255.877 143.388 257.054 144.579 258.483 144.6C259.378 144.622 260.187 144.203 260.836 143.575C260.908 142.276 260.995 140.933 260.995 139.612C260.995 139.338 260.995 139.063 260.973 138.796L260.988 138.818Z" fill="#353988"/>
</g>
<g opacity="0.3">
<path d="M236.915 163.507C236.027 163.68 235.854 164.2 235.37 164.856C234.742 165.708 233.847 166.567 233.277 167.412C232.309 168.841 233.183 171.072 231.905 172.27C231.645 172.516 231.313 172.674 231.075 172.949C230.562 173.541 230.757 174.551 231.378 175.028C232.006 175.504 232.923 175.468 233.594 175.071C234.266 174.674 234.72 173.967 234.951 173.216C235.117 172.674 235.211 172.068 235.637 171.693C236.366 171.057 237.5 171.527 238.452 171.397C242.531 170.826 240.777 162.749 236.9 163.514L236.915 163.507Z" fill="#353988"/>
</g>
<g opacity="0.3">
<path d="M238.292 152.274C240.638 150.245 241.591 145.654 238.668 144.593C237.563 144.189 236.293 144.514 235.195 144.088C233.766 143.532 233.102 141.929 232.582 140.486C231.225 136.696 229.875 132.913 228.518 129.123C227.702 126.842 226.461 124.2 224.064 123.861C222.707 123.673 221.386 124.315 220.036 124.568C215.387 125.413 207.569 114.166 204.032 121.738C203.541 119.681 200.191 120.453 199.123 122.28C198.055 124.106 197.831 126.532 196.134 127.795C194.842 128.762 192.944 128.82 191.89 130.04C191.146 130.899 191.016 132.112 190.93 133.245C190.749 135.411 190.569 137.569 190.395 139.735C190.251 141.482 190.128 143.344 190.995 144.867C191.861 146.391 194.113 147.235 195.412 146.058C196.004 145.517 196.257 144.694 196.741 144.052C197.52 143.012 198.957 142.521 200.213 142.853C201.267 143.135 202.112 143.914 202.855 144.716C208.904 151.234 211.077 160.511 211.337 169.397C211.388 171.021 211.388 172.696 211.987 174.212C212.687 175.988 214.167 177.417 214.6 179.28C214.932 180.709 214.622 182.275 215.235 183.604C216.361 186.051 220.122 186.159 222.173 184.405C224.223 182.651 224.93 179.814 225.349 177.15C225.76 174.486 226.035 171.678 227.522 169.426C228.446 168.033 229.81 166.914 230.453 165.376C231.355 163.218 230.684 160.662 231.528 158.482C232.647 155.587 235.939 154.302 238.285 152.274H238.292Z" fill="#353988"/>
</g>
<path d="M260.931 139.331C260.931 139.331 260.91 139.006 260.888 138.363C260.852 137.721 260.874 136.768 260.765 135.526C260.614 133.036 260.21 129.361 259.083 124.756C258.484 122.467 257.748 119.926 256.665 117.255C255.604 114.577 254.283 111.726 252.558 108.838C249.143 103.056 244.234 96.9922 237.528 91.8163C234.186 89.2175 230.389 86.8714 226.187 84.9512C221.993 83.0238 217.409 81.4717 212.508 80.5766C207.62 79.667 202.445 79.3061 197.16 79.7248C194.511 79.8836 191.855 80.3167 189.184 80.8581C186.52 81.4284 183.863 82.2153 181.236 83.1537C170.747 87.0014 160.828 94.1841 153.703 104.074C151.891 106.521 150.317 109.17 148.895 111.914C148.166 113.278 147.553 114.707 146.917 116.129C146.347 117.58 145.762 119.031 145.293 120.533C144.333 123.521 143.539 126.597 143.055 129.744C142.564 132.891 142.312 136.097 142.29 139.323C142.312 142.55 142.564 145.755 143.055 148.903C143.539 152.057 144.326 155.133 145.293 158.121C145.762 159.623 146.347 161.074 146.917 162.525C147.553 163.947 148.166 165.376 148.895 166.748C150.317 169.491 151.891 172.14 153.703 174.587C160.828 184.484 170.754 191.674 181.243 195.515C183.878 196.453 186.527 197.24 189.191 197.81C191.862 198.352 194.518 198.785 197.168 198.944C202.452 199.362 207.628 199.001 212.515 198.085C217.409 197.19 222 195.637 226.194 193.71C230.396 191.783 234.193 189.437 237.535 186.845C244.249 181.662 249.15 175.598 252.565 169.816C254.29 166.928 255.611 164.077 256.672 161.399C257.755 158.728 258.491 156.194 259.091 153.898C260.217 149.293 260.621 145.618 260.773 143.128C260.881 141.886 260.859 140.933 260.895 140.291C260.917 139.648 260.939 139.323 260.939 139.323C260.939 139.323 260.939 139.648 260.939 140.291C260.91 140.933 260.946 141.886 260.852 143.135C260.729 145.625 260.34 149.314 259.235 153.934C258.65 156.237 257.921 158.778 256.838 161.464C255.784 164.156 254.471 167.015 252.745 169.924C249.338 175.735 244.422 181.835 237.694 187.054C234.345 189.668 230.533 192.035 226.317 193.977C222.101 195.919 217.496 197.493 212.573 198.395C207.657 199.319 202.459 199.687 197.139 199.276C194.475 199.117 191.804 198.684 189.119 198.142C186.44 197.572 183.769 196.785 181.12 195.84C170.566 191.985 160.575 184.751 153.4 174.804C151.581 172.342 149.993 169.679 148.563 166.914C147.834 165.542 147.213 164.106 146.578 162.669C146.001 161.211 145.416 159.745 144.947 158.237C143.979 155.226 143.178 152.137 142.694 148.961C142.203 145.791 141.944 142.565 141.922 139.323C141.944 136.075 142.203 132.855 142.694 129.686C143.178 126.517 143.979 123.42 144.947 120.417C145.423 118.909 146.008 117.443 146.578 115.985C147.213 114.548 147.834 113.119 148.57 111.74C150 108.975 151.588 106.319 153.407 103.857C160.583 93.9098 170.566 86.6837 181.12 82.8217C183.769 81.876 186.44 81.0891 189.119 80.5189C191.804 79.9774 194.482 79.5443 197.139 79.3855C202.452 78.974 207.657 79.3422 212.573 80.2662C217.496 81.1686 222.101 82.7423 226.317 84.6841C230.533 86.626 234.345 88.9865 237.694 91.607C244.422 96.8262 249.338 102.926 252.745 108.737C254.471 111.639 255.784 114.505 256.838 117.198C257.914 119.883 258.643 122.424 259.235 124.727C260.34 129.347 260.722 133.036 260.852 135.526C260.953 136.775 260.917 137.728 260.939 138.371C260.946 139.013 260.939 139.338 260.939 139.338L260.931 139.331Z" fill="#263238"/>
<path d="M203.789 199.283C203.688 199.283 203.602 172.696 203.602 139.901C203.602 107.106 203.688 80.5116 203.789 80.5116C203.89 80.5116 203.977 107.099 203.977 139.901C203.977 172.703 203.89 199.283 203.789 199.283Z" fill="#263238"/>
<path d="M207.188 198.965C207.188 198.965 207.281 198.886 207.483 198.749C207.693 198.604 207.989 198.402 208.364 198.15C209.151 197.637 210.27 196.821 211.678 195.731C214.471 193.53 218.326 190.057 222.282 185.062C226.209 180.074 230.259 173.548 233.11 165.622C235.976 157.717 237.694 148.506 237.896 138.796C238.084 129.087 237.117 119.789 234.857 111.683C232.612 103.569 228.873 96.8045 224.874 91.874C222.888 89.3908 220.752 87.4345 218.745 85.9041C216.731 84.3809 214.825 83.3125 213.222 82.5329C211.613 81.7749 210.32 81.284 209.433 80.9808C208.999 80.8365 208.667 80.721 208.422 80.6343C208.198 80.5549 208.083 80.5044 208.083 80.5044C208.083 80.5044 208.205 80.5261 208.436 80.5982C208.682 80.6704 209.021 80.7715 209.461 80.9087C210.357 81.1902 211.663 81.6594 213.295 82.3957C214.904 83.1609 216.839 84.2077 218.875 85.7308C220.903 87.254 223.069 89.2103 225.083 91.7008C229.133 96.6385 232.923 103.424 235.197 111.581C237.485 119.724 238.467 129.058 238.279 138.796C238.07 148.542 236.337 157.789 233.442 165.73C230.555 173.692 226.469 180.225 222.499 185.221C218.499 190.216 214.601 193.667 211.771 195.84C210.342 196.915 209.209 197.709 208.407 198.2C208.018 198.446 207.722 198.633 207.505 198.77C207.303 198.9 207.188 198.951 207.188 198.951V198.965Z" fill="#263238"/>
<path d="M201.732 199.167C201.732 199.167 201.616 199.11 201.414 198.98C201.19 198.843 200.887 198.648 200.49 198.402C199.674 197.904 198.512 197.096 197.047 196.013C194.145 193.825 190.095 190.411 185.829 185.488C183.706 183.026 181.526 180.189 179.469 176.962C177.404 173.743 175.491 170.097 174.004 166.047C172.481 162.019 171.297 157.645 170.431 153.039C169.594 148.433 169.095 143.597 168.973 138.63C168.778 128.704 169.788 119.197 172.185 110.91C173.391 106.781 174.936 102.962 176.776 99.5981C178.574 96.2053 180.776 93.3538 183.021 90.9933C187.583 86.301 192.333 83.7456 195.646 82.2946C197.321 81.5799 198.657 81.1179 199.573 80.8364C200.021 80.7064 200.367 80.5982 200.62 80.526C200.858 80.461 200.981 80.4321 200.981 80.4321C200.981 80.4321 200.866 80.4827 200.635 80.5621C200.389 80.6415 200.043 80.757 199.602 80.9086C198.7 81.2118 197.372 81.7026 195.711 82.4317C192.427 83.9188 187.727 86.4887 183.223 91.181C181.007 93.5343 178.834 96.3713 177.058 99.7497C175.239 103.099 173.716 106.896 172.524 111.011C170.157 119.255 169.16 128.733 169.355 138.623C169.478 143.568 169.969 148.383 170.799 152.974C171.658 157.558 172.835 161.918 174.336 165.925C175.802 169.953 177.693 173.577 179.736 176.796C181.772 180.016 183.93 182.846 186.038 185.314C190.261 190.245 194.275 193.674 197.141 195.897C198.592 196.987 199.732 197.817 200.533 198.337C200.916 198.597 201.219 198.799 201.436 198.951C201.638 199.088 201.739 199.167 201.739 199.167H201.732Z" fill="#263238"/>
<path d="M261.006 138.277C261.006 138.378 234.534 138.464 201.883 138.464C169.233 138.464 142.754 138.378 142.754 138.277C142.754 138.176 169.218 138.089 201.883 138.089C234.549 138.089 261.006 138.176 261.006 138.277Z" fill="#263238"/>
<path d="M251.907 107.763C251.907 107.864 229.319 107.95 201.469 107.95C173.618 107.95 151.023 107.864 151.023 107.763C151.023 107.662 173.604 107.575 201.469 107.575C229.333 107.575 251.907 107.662 251.907 107.763Z" fill="#263238"/>
<path d="M252.558 169.368C252.558 169.469 229.457 169.556 200.972 169.556C172.486 169.556 149.379 169.469 149.379 169.368C149.379 169.267 172.472 169.18 200.972 169.18C229.472 169.18 252.558 169.267 252.558 169.368Z" fill="#263238"/>
<path d="M238.154 160.597H163.771C153.238 160.597 144.691 152.057 144.691 141.518C144.691 130.986 153.231 122.439 163.771 122.439H238.154C248.686 122.439 257.233 130.978 257.233 141.518C257.233 152.05 248.693 160.597 238.154 160.597Z" fill="white"/>
<path d="M238.154 160.597C238.154 160.597 238.385 160.576 238.847 160.54C239.302 160.496 239.988 160.518 240.869 160.337C242.623 160.092 245.251 159.457 248.131 157.666C248.874 157.255 249.56 156.67 250.304 156.107C250.65 155.79 251.004 155.465 251.372 155.133C251.74 154.808 252.051 154.404 252.404 154.028C253.754 152.476 254.981 150.57 255.841 148.332C256.7 146.095 257.183 143.525 257.075 140.803C256.974 138.089 256.266 135.23 254.852 132.567C253.408 129.924 251.264 127.477 248.506 125.673C247.799 125.247 247.106 124.792 246.333 124.46C245.59 124.063 244.781 123.803 243.98 123.507C242.341 123.031 240.63 122.633 238.855 122.626C231.722 122.561 224.078 122.626 216.05 122.605C199.981 122.605 182.324 122.612 163.779 122.619C159.18 122.626 154.683 124.359 151.334 127.318C149.652 128.791 148.237 130.545 147.183 132.473C146.136 134.415 145.443 136.515 145.125 138.652C144.815 140.789 144.808 142.969 145.226 145.055C145.638 147.141 146.381 149.134 147.421 150.938C149.471 154.584 152.777 157.32 156.408 158.915C158.249 159.673 160.177 160.135 162.111 160.33C164.039 160.475 165.988 160.395 167.886 160.417C171.691 160.417 175.387 160.417 178.96 160.424C186.107 160.431 192.762 160.438 198.833 160.446C210.976 160.467 220.808 160.489 227.615 160.503C231.008 160.518 233.643 160.532 235.44 160.54C236.328 160.547 237.007 160.554 237.476 160.561C237.931 160.561 238.169 160.583 238.169 160.583C238.169 160.583 237.931 160.597 237.476 160.604C237.007 160.604 236.328 160.612 235.44 160.626C233.643 160.633 231.008 160.648 227.615 160.662C220.808 160.677 210.983 160.698 198.833 160.72C192.755 160.72 186.099 160.734 178.96 160.742C175.387 160.742 171.691 160.742 167.886 160.749C165.981 160.727 164.06 160.814 162.082 160.669C160.119 160.475 158.155 160.013 156.278 159.24C152.575 157.616 149.211 154.837 147.118 151.126C146.064 149.285 145.299 147.257 144.88 145.127C144.447 142.998 144.454 140.782 144.772 138.602C145.096 136.421 145.804 134.277 146.872 132.299C147.955 130.329 149.392 128.538 151.103 127.037C154.517 124.019 159.101 122.251 163.793 122.244C182.331 122.244 199.996 122.251 216.065 122.258C224.099 122.28 231.73 122.236 238.883 122.309C240.688 122.323 242.435 122.727 244.095 123.218C244.911 123.521 245.727 123.788 246.485 124.193C247.272 124.532 247.979 124.994 248.694 125.427C251.488 127.268 253.653 129.758 255.111 132.437C256.534 135.144 257.248 138.046 257.342 140.789C257.443 143.539 256.945 146.145 256.064 148.397C255.184 150.664 253.935 152.577 252.563 154.136C252.202 154.512 251.892 154.916 251.516 155.241C251.148 155.573 250.787 155.898 250.434 156.215C249.676 156.779 248.983 157.363 248.232 157.775C245.315 159.565 242.666 160.179 240.898 160.395C240.017 160.561 239.324 160.525 238.869 160.554C238.407 160.568 238.176 160.568 238.176 160.568L238.154 160.597Z" fill="#263238"/>
<path d="M189.327 132.263L183.443 148.78H177.834L174.723 139.793L171.496 148.78H165.887L160.004 132.263H165.49L168.876 142.254L172.377 132.263H177.315L180.729 142.348L184.23 132.263H189.32H189.327Z" fill="#263238"/>
<path d="M217.936 132.263L212.053 148.78H206.444L203.332 139.793L200.106 148.78H194.497L188.613 132.263H194.1L197.485 142.254L200.986 132.263H205.924L209.339 142.348L212.84 132.263H217.929H217.936Z" fill="#263238"/>
<path d="M246.55 132.263L240.667 148.78H235.058L231.954 139.793L228.727 148.78H223.118L217.234 132.263H222.721L226.099 142.254L229.6 132.263H234.538L237.952 142.348L241.454 132.263H246.543H246.55Z" fill="#263238"/>
<path d="M170.392 178.269L144.607 185.776C143.582 186.072 143.264 187.365 144.029 188.101L161.622 205.101C162.358 205.809 163.578 205.513 163.896 204.545L172.089 180.045C172.443 178.984 171.461 177.966 170.385 178.276L170.392 178.269Z" fill="#263238"/>
<path d="M134.66 206.206L152.83 189.328L160.07 196.359L141.987 213.699L134.66 206.206Z" fill="#263238"/>
<path d="M169.672 233.233C171.592 232.071 173.642 231.19 175.75 230.591L176.999 224.578L187.163 224.397L188.628 230.367C190.758 230.894 192.83 231.703 194.793 232.793L199.926 229.429L207.238 236.489L204.055 241.737C205.217 243.657 206.098 245.707 206.697 247.815L212.71 249.064L212.891 259.228L206.921 260.693C206.394 262.823 205.585 264.895 204.495 266.858L207.859 271.998L200.799 279.311L195.551 276.127C193.631 277.29 191.581 278.17 189.473 278.769L188.224 284.783L178.06 284.963L176.595 278.993C174.465 278.466 172.393 277.658 170.43 276.568L165.297 279.932L157.984 272.872L161.168 267.624C160.006 265.703 159.125 263.653 158.526 261.545L152.513 260.296L152.332 250.132L158.302 248.667C158.829 246.537 159.637 244.466 160.728 242.502L157.364 237.362L164.424 230.05L169.672 233.233ZM175.086 246.768C170.906 251.1 171.022 258.001 175.36 262.188C179.691 266.367 186.593 266.252 190.779 261.913C194.959 257.582 194.844 250.681 190.505 246.494C186.174 242.314 179.273 242.43 175.086 246.768Z" fill="#EBEBEB"/>
<path d="M344.113 200.063C346.033 198.9 348.083 198.02 350.191 197.421L351.44 191.407L361.604 191.227L363.07 197.197C365.199 197.724 367.271 198.532 369.235 199.622L374.367 196.258L381.68 203.318L378.496 208.566C379.659 210.487 380.539 212.537 381.138 214.645L387.152 215.894L387.332 226.058L381.362 227.523C380.835 229.653 380.027 231.724 378.937 233.688L382.301 238.828L375.241 246.14L369.993 242.957C368.072 244.119 366.022 245 363.914 245.599L362.665 251.612L352.501 251.793L351.036 245.823C348.906 245.296 346.835 244.487 344.871 243.397L339.738 246.761L332.426 239.701L335.609 234.453C334.447 232.533 333.566 230.483 332.967 228.375L326.954 227.126L326.773 216.962L332.743 215.497C333.27 213.367 334.079 211.295 335.169 209.332L331.805 204.192L338.865 196.879L344.113 200.063ZM349.527 213.598C345.347 217.929 345.463 224.83 349.801 229.017C354.133 233.197 361.034 233.082 365.221 228.743C369.401 224.412 369.285 217.511 364.947 213.324C360.615 209.144 353.714 209.259 349.527 213.598Z" fill="#EBEBEB"/>
<path d="M111.861 72.7225C114.705 76.1804 116.286 80.656 116.235 85.1317C116.206 87.6872 115.737 90.5097 117.224 92.5887C118.35 94.1697 120.415 94.9565 121.332 96.6674C122.436 98.7248 121.498 101.324 122.176 103.561C123.136 106.73 126.847 108.051 129.049 110.528C130.954 112.672 131.662 115.812 130.897 118.577C130.132 121.341 127.923 123.659 125.208 124.597C123.75 125.102 122.09 125.211 120.704 124.525C119.217 123.781 118.3 122.265 117.549 120.778C116.084 117.855 103.249 102.06 102.52 98.8691" fill="#263238"/>
<path d="M102.527 68.9977C97.2792 68.153 92.2332 71.6397 90.017 76.4764C87.8081 81.313 87.7431 86.8137 87.5843 92.1268C87.4182 97.4398 87.0501 102.991 84.3358 107.568C82.6105 110.47 79.9468 113.018 79.5281 116.368C79.1527 119.363 80.7047 122.388 80.1922 125.362C79.7446 127.954 77.7667 130.213 77.8461 132.841C77.9399 136.003 81.1956 138.385 84.3575 138.472C87.5193 138.558 90.479 136.898 92.9551 134.934C96.9832 131.744 100.246 127.6 102.397 122.937" fill="#263238"/>
<path d="M93.8865 81.515C93.1935 75.9781 97.2 70.9177 102.823 70.3836C108.122 69.8782 112.829 73.8269 113.623 79.0895C114.316 83.7023 114.915 88.3584 114.893 90.0549C114.828 95.1586 111.847 97.1437 110.634 97.7357C110.36 97.8728 109.595 98.0244 109.291 98.0678C109.291 98.0678 109.263 98.0894 109.263 98.1111L110.396 103.966C110.909 107.799 108.765 111.228 104.939 111.784C101.098 112.347 98.0879 109.394 97.5032 105.561L93.8865 81.5222V81.515Z" fill="#FFBE9D"/>
<path d="M112.583 81.32C112.496 81.4428 111.825 81.0746 110.958 81.2045C110.092 81.32 109.522 81.8542 109.414 81.7676C109.363 81.7243 109.435 81.5222 109.681 81.2839C109.926 81.0457 110.359 80.7786 110.893 80.7064C111.435 80.6343 111.911 80.7642 112.2 80.9302C112.496 81.0963 112.612 81.2695 112.568 81.3273L112.583 81.32Z" fill="#263238"/>
<path d="M104.903 83.1898C104.816 83.3125 104.145 82.9444 103.279 83.0743C102.413 83.1898 101.842 83.724 101.734 83.6374C101.683 83.594 101.756 83.3919 102.001 83.1537C102.246 82.9155 102.68 82.6556 103.214 82.5762C103.755 82.504 104.232 82.6339 104.52 82.8C104.816 82.966 104.932 83.1393 104.889 83.197L104.903 83.1898Z" fill="#263238"/>
<path d="M108.05 87.817C108.036 87.7664 108.563 87.6004 109.415 87.3622C109.631 87.3044 109.833 87.2322 109.848 87.0806C109.877 86.9146 109.747 86.6908 109.602 86.4454C109.321 85.9401 109.018 85.4131 108.707 84.8645C107.451 82.605 106.513 80.7353 106.599 80.6848C106.693 80.6342 107.783 82.4245 109.032 84.684C109.335 85.2398 109.624 85.774 109.906 86.2794C110.028 86.5176 110.209 86.7774 110.144 87.1312C110.108 87.3044 109.963 87.4488 109.826 87.5066C109.689 87.5715 109.566 87.5932 109.458 87.6148C108.592 87.7881 108.05 87.8747 108.036 87.8242L108.05 87.817Z" fill="#263238"/>
<path d="M109.262 98.075C109.262 98.075 105.97 98.833 101.43 96.9344C101.43 96.9344 103.386 101.15 109.565 99.6487L109.262 98.0678V98.075Z" fill="#EB996E"/>
<path d="M104.469 80.9231C104.418 81.1685 103.538 81.183 102.542 81.4573C101.538 81.7099 100.766 82.1214 100.6 81.9337C100.528 81.8399 100.636 81.6017 100.932 81.3274C101.228 81.053 101.719 80.7643 102.318 80.6055C102.917 80.4539 103.487 80.4683 103.877 80.5622C104.274 80.656 104.483 80.8148 104.462 80.9303L104.469 80.9231Z" fill="#263238"/>
<path d="M111.868 79.407C111.746 79.6236 111.118 79.5081 110.403 79.602C109.681 79.6741 109.103 79.9268 108.93 79.7391C108.858 79.6453 108.923 79.4359 109.161 79.2121C109.392 78.9884 109.811 78.7718 110.302 78.714C110.793 78.6563 111.247 78.7718 111.529 78.9378C111.811 79.1039 111.926 79.2915 111.868 79.3998V79.407Z" fill="#263238"/>
<path d="M103.031 84.3015C103.089 84.6768 103.457 84.9367 103.847 84.879C104.237 84.8212 104.511 84.4747 104.453 84.0993C104.395 83.724 104.027 83.4641 103.638 83.5218C103.248 83.5796 102.973 83.9261 103.031 84.3015Z" fill="#263238"/>
<path d="M110.676 82.6484C110.733 83.0238 111.102 83.2836 111.491 83.2259C111.881 83.1681 112.155 82.8216 112.098 82.4463C112.04 82.0709 111.672 81.811 111.282 81.8688C110.892 81.9265 110.618 82.273 110.676 82.6484Z" fill="#263238"/>
<path d="M109.409 89.4991C108.853 89.3402 108.376 89.6218 108.153 90.0188C107.929 90.4231 107.979 90.9717 108.304 91.3038C108.629 91.6358 109.206 91.6864 109.567 91.3904C109.813 91.1955 109.936 90.8779 109.964 90.5674C109.993 90.2787 109.943 89.9683 109.77 89.7445C109.589 89.5135 109.264 89.3908 108.997 89.5135" fill="#EB996E"/>
<path d="M112.95 74.9603C112.553 73.0401 111.232 71.4015 109.622 70.2898C108.258 69.3369 106.641 68.7088 104.973 68.6583C103.313 68.6078 101.602 69.1636 100.404 70.3186C99.516 71.1705 99.0612 72.376 99.0179 73.6032L99.1117 72.7586C98.859 73.4516 98.8663 74.2096 99.1189 74.8954C99.2633 75.2635 99.4293 75.6317 99.5809 76.0071C100.007 77.0682 100.83 77.9634 101.848 78.4759C102.317 78.7141 102.837 78.873 103.364 78.8441C103.891 78.8224 104.418 78.5914 104.735 78.1727C105.19 77.5736 105.139 76.7434 105.067 75.9999C105.522 76.7073 105.998 77.4364 106.72 77.8551C107.442 78.2738 108.496 78.2593 109.001 77.5952C109.492 76.9527 109.297 76.0287 109.016 75.2708C109.478 75.9782 110.142 76.5485 110.907 76.9094C111.333 77.1043 111.831 77.2343 112.257 77.0538C112.618 76.895 112.864 76.5341 112.957 76.1442C113.051 75.7544 113.008 75.3502 112.929 74.9676L112.95 74.9603Z" fill="#263238"/>
<path d="M108.571 76.5413C108.514 76.5413 108.528 75.8194 108.29 74.7005C108.059 73.6032 107.496 72.044 106.196 70.8962C105.554 70.3259 104.818 69.9361 104.096 69.7628C103.374 69.5823 102.695 69.604 102.147 69.7123C101.028 69.9361 100.493 70.4703 100.457 70.4125C100.45 70.3981 100.566 70.2609 100.833 70.066C101.1 69.8711 101.526 69.6401 102.103 69.4957C102.674 69.3513 103.403 69.308 104.175 69.4813C104.947 69.6545 105.734 70.0588 106.413 70.6579C107.792 71.8707 108.333 73.5238 108.514 74.6572C108.607 75.2347 108.629 75.7039 108.622 76.0287C108.622 76.3536 108.593 76.5341 108.571 76.5341V76.5413Z" fill="#455A64"/>
<path d="M164.42 147.25L141.103 138.002C141.103 138.002 129.156 122.337 129.408 122.034L121.027 131.217L133.213 147.712L161.453 154.324L174.829 154.432C173.797 149.285 164.427 147.242 164.427 147.242L164.42 147.25Z" fill="#FFBE9D"/>
<path d="M113.594 102.565L110.418 101.338L96.7022 103.078V105.503L96.3123 105.554C96.3123 105.554 92.0532 106.326 87.9096 108.817C82.8925 111.827 80.2865 117.638 81.2178 123.413C81.7736 126.885 82.8564 131.101 84.9427 133.534C88.9275 138.197 92.5658 132.437 92.5658 132.437C92.5658 132.437 95.0635 138.139 94.9263 140.839C94.8036 143.099 93.8074 147.805 93.4826 149.278C93.4248 149.524 93.5908 149.762 93.8435 149.812L122.784 155.161L122.928 148.087L122.011 118.995L120.734 107.698C120.734 107.698 120.777 102.298 113.616 102.58L113.594 102.565Z" fill="#CFDFFA"/>
<path d="M120.273 105.799L131.311 121.745L122.425 132.566L120.273 105.799Z" fill="#CFDFFA"/>
<path d="M122.641 139.352C122.641 139.352 122.605 138.984 122.598 138.32C122.591 137.605 122.576 136.66 122.562 135.519C122.504 133.158 122.374 129.888 121.898 126.315C121.443 122.734 120.743 119.544 120.216 117.241C119.956 116.129 119.739 115.212 119.573 114.512C119.421 113.87 119.349 113.509 119.371 113.502C119.393 113.502 119.508 113.841 119.696 114.476C119.883 115.111 120.143 116.035 120.432 117.183C121.024 119.479 121.753 122.677 122.215 126.272C122.692 129.859 122.785 133.144 122.785 135.512C122.771 136.696 122.757 137.656 122.72 138.32C122.692 138.984 122.663 139.345 122.641 139.345V139.352Z" fill="#263238"/>
<path d="M95.4902 115.111C95.4902 115.162 94.6528 115.155 93.3101 115.227C91.9674 115.299 90.1122 115.48 88.1053 115.898C86.0985 116.317 84.3227 116.88 83.0666 117.349C81.8033 117.818 81.0453 118.158 81.0236 118.114C81.0164 118.093 81.1969 117.992 81.529 117.811C81.861 117.631 82.3591 117.4 82.9872 117.14C84.236 116.613 86.0191 116.007 88.0476 115.588C90.0761 115.169 91.9529 115.018 93.3101 115.003C93.9887 114.996 94.5373 115.003 94.9127 115.039C95.288 115.068 95.4974 115.09 95.4974 115.111H95.4902Z" fill="#455A64"/>
<path d="M121.043 122.41C121.043 122.453 120.524 122.576 119.664 122.706C118.805 122.836 117.607 122.965 116.286 123.009C114.958 123.052 113.759 123.009 112.893 122.937C112.027 122.864 111.5 122.771 111.5 122.734C111.5 122.691 112.041 122.698 112.9 122.713C113.767 122.727 114.958 122.734 116.272 122.691C117.585 122.648 118.777 122.554 119.636 122.482C120.495 122.41 121.029 122.359 121.036 122.402L121.043 122.41Z" fill="#455A64"/>
<path d="M126.112 115.191C126.17 115.249 125.188 116.223 123.744 117.104C122.301 117.992 120.987 118.418 120.958 118.338C120.922 118.252 122.163 117.703 123.578 116.837C125 115.97 126.047 115.119 126.112 115.191Z" fill="#455A64"/>
<path d="M121.65 107.806C121.707 107.856 120.401 109.033 118.437 109.856C116.474 110.693 114.734 110.816 114.727 110.737C114.712 110.643 116.394 110.383 118.314 109.56C120.235 108.759 121.592 107.719 121.65 107.799V107.806Z" fill="#455A64"/>
<path d="M122.256 134.754C122.256 134.754 122.062 134.877 121.686 135.057C121.311 135.238 120.755 135.461 120.055 135.721C118.661 136.234 116.669 136.811 114.424 137.158C112.172 137.504 110.107 137.548 108.62 137.483C107.877 137.447 107.277 137.396 106.866 137.338C106.454 137.288 106.223 137.244 106.231 137.223C106.231 137.172 107.147 137.244 108.627 137.259C110.107 137.273 112.15 137.187 114.381 136.847C116.611 136.501 118.582 135.967 119.99 135.512C121.397 135.057 122.249 134.711 122.271 134.761L122.256 134.754Z" fill="#455A64"/>
<path d="M122.481 142.976C122.481 142.976 122.394 143.034 122.221 143.12C122.011 143.222 121.759 143.337 121.456 143.481C120.791 143.799 119.802 144.21 118.561 144.673C117.326 145.142 115.825 145.625 114.143 146.087C112.454 146.535 110.577 146.954 108.584 147.264C106.592 147.567 104.672 147.741 102.925 147.827C101.178 147.899 99.6042 147.892 98.2831 147.82C96.9621 147.755 95.9009 147.661 95.1646 147.56C94.8325 147.517 94.551 147.473 94.32 147.445C94.1251 147.416 94.0312 147.394 94.0312 147.387C94.0312 147.372 94.1323 147.372 94.3272 147.387C94.5582 147.401 94.8398 147.423 95.1718 147.445C95.9081 147.509 96.9693 147.567 98.2831 147.603C99.597 147.647 101.163 147.632 102.903 147.546C104.636 147.445 106.541 147.264 108.527 146.961C110.505 146.65 112.374 146.239 114.063 145.813C115.745 145.366 117.24 144.911 118.481 144.47C119.723 144.037 120.719 143.662 121.398 143.38C121.715 143.258 121.975 143.157 122.185 143.07C122.365 143.005 122.466 142.969 122.466 142.983L122.481 142.976Z" fill="#455A64"/>
<path d="M69.2702 271.897L65.9928 286.717L60.0228 297.69C59.5897 298.484 59.9218 299.473 60.7375 299.849C61.1923 300.058 61.7265 300.036 62.1596 299.784C64.9389 298.181 75.1319 292.225 75.3051 291.121C75.5144 289.85 79.8024 275.723 79.8024 275.723L69.2702 271.904V271.897Z" fill="#A2B0CA"/>
<g opacity="0.6">
<path d="M60.7383 299.841L75.5513 290.125L75.3997 290.746C75.2698 291.287 74.9521 291.763 74.4974 292.088C73.2918 292.962 69.9134 295.286 62.2037 299.791C61.7561 300.051 61.2003 300.072 60.7383 299.841Z" fill="white"/>
</g>
<g opacity="0.6">
<path d="M73.6865 284.624C73.2534 284.79 72.9935 285.317 73.1451 285.757C73.2894 286.198 73.8309 286.465 74.264 286.306C74.6971 286.147 75.0292 285.526 74.8343 285.108C74.6394 284.689 73.9897 284.408 73.6071 284.667" fill="#171A37"/>
</g>
<path d="M65.6824 294.225C65.5885 294.247 65.4442 293.395 64.6717 292.76C63.9138 292.11 63.0475 292.117 63.0547 292.016C63.0547 291.98 63.2641 291.908 63.625 291.944C63.9787 291.98 64.4624 292.146 64.8883 292.5C65.307 292.853 65.5597 293.301 65.6607 293.648C65.7618 293.994 65.7257 294.218 65.6896 294.218L65.6824 294.225Z" fill="#263238"/>
<path d="M64.1508 295.943C64.0642 295.987 63.7105 295.395 63.003 294.99C62.3028 294.572 61.6098 294.55 61.6098 294.449C61.5882 294.362 62.375 294.225 63.1691 294.702C63.9776 295.171 64.2375 295.922 64.1508 295.943Z" fill="#263238"/>
<path d="M68.259 292.175C68.1724 292.225 67.631 291.309 66.5843 290.58C65.552 289.836 64.5052 289.634 64.5197 289.533C64.5197 289.446 65.6603 289.511 66.772 290.305C67.8909 291.085 68.3384 292.146 68.2518 292.168L68.259 292.175Z" fill="#263238"/>
<path d="M69.6328 287.757C69.5751 287.836 68.8387 287.295 67.792 286.999C66.7453 286.689 65.8429 286.746 65.8285 286.652C65.8068 286.573 66.7597 286.349 67.8859 286.681C69.012 287.006 69.6978 287.706 69.6328 287.764V287.757Z" fill="#263238"/>
<path d="M70.6976 283.433C70.6327 283.505 69.9324 282.812 68.7991 282.588C67.6729 282.343 66.7562 282.697 66.7273 282.603C66.7128 282.567 66.915 282.422 67.3048 282.307C67.6874 282.191 68.2649 282.141 68.8713 282.263C69.4777 282.393 69.983 282.668 70.2862 282.928C70.5966 283.187 70.7265 283.404 70.6976 283.433Z" fill="#263238"/>
<path d="M69.0323 281.773C69.0323 281.773 69.0323 281.563 69.1478 281.21C69.2705 280.863 69.5015 280.358 69.9491 279.86C70.1729 279.621 70.4256 279.311 70.8876 279.217C71.1186 279.167 71.4145 279.282 71.5373 279.52C71.6672 279.751 71.66 280.011 71.6094 280.242C71.364 281.173 70.3389 281.881 69.2561 281.758C68.1733 281.614 67.3648 280.776 67.141 279.867C67.0977 279.636 67.0977 279.362 67.2781 279.145C67.4514 278.921 67.7762 278.892 67.9784 278.986C68.3971 279.159 68.6136 279.477 68.823 279.73C69.2272 280.264 69.4366 280.769 69.5449 281.123C69.6531 281.477 69.6676 281.686 69.6459 281.686C69.5882 281.715 69.451 280.87 68.6353 279.874C68.4259 279.643 68.1877 279.354 67.8845 279.246C67.7329 279.195 67.5886 279.224 67.5019 279.333C67.4153 279.441 67.4009 279.629 67.4442 279.816C67.6391 280.567 68.3754 281.325 69.2994 281.433C70.2162 281.549 71.1113 280.921 71.3207 280.177C71.364 279.997 71.364 279.802 71.2918 279.672C71.2196 279.542 71.0825 279.477 70.9381 279.499C70.6205 279.542 70.3534 279.809 70.1368 280.026C69.2489 280.957 69.1117 281.809 69.0468 281.78L69.0323 281.773Z" fill="#263238"/>
<g opacity="0.3">
<path d="M68.8865 273.5L68.1719 276.9L78.9063 278.683L79.8014 275.716L69.2691 271.897L68.8865 273.5Z" fill="black"/>
</g>
<path d="M117.21 277.376L116.322 289.215C116.322 289.215 128.06 294.095 128.111 296.297L105.09 295.402L105.711 276.9L117.203 277.376H117.21Z" fill="#A2B0CA"/>
<g opacity="0.6">
<path d="M109.242 287.945C108.794 288.046 108.462 288.537 108.549 288.991C108.636 289.446 109.126 289.785 109.581 289.684C110.036 289.591 110.448 289.013 110.31 288.573C110.173 288.132 109.574 287.764 109.155 287.966" fill="#171A37"/>
</g>
<g opacity="0.6">
<path d="M105.09 295.409L105.227 293.547L127.244 295.099C127.244 295.099 128.255 295.582 128.111 296.304L105.09 295.409Z" fill="white"/>
</g>
<path d="M116.698 289.114C116.691 289.23 116.128 289.259 115.557 289.598C114.98 289.923 114.677 290.399 114.576 290.349C114.475 290.32 114.67 289.656 115.363 289.259C116.056 288.854 116.727 289.013 116.698 289.114Z" fill="#263238"/>
<path d="M119.079 290.204C119.101 290.313 118.61 290.486 118.206 290.948C117.794 291.395 117.679 291.908 117.563 291.901C117.455 291.915 117.405 291.251 117.91 290.688C118.415 290.118 119.079 290.096 119.072 290.204H119.079Z" fill="#263238"/>
<path d="M120.338 293.149C120.237 293.171 120.1 292.601 120.41 291.994C120.72 291.388 121.255 291.164 121.305 291.258C121.363 291.352 121.009 291.67 120.764 292.168C120.504 292.659 120.453 293.135 120.338 293.142V293.149Z" fill="#263238"/>
<path d="M116.605 286.393C116.555 286.494 116.042 286.32 115.407 286.335C114.772 286.335 114.266 286.537 114.209 286.436C114.144 286.349 114.649 285.952 115.4 285.945C116.151 285.931 116.663 286.306 116.605 286.393Z" fill="#263238"/>
<g opacity="0.3">
<path d="M117.03 279.722L116.878 281.83L105.566 281.289L105.646 278.849L117.03 279.722Z" fill="black"/>
</g>
<path d="M116.74 284.003C116.74 284.047 116.292 284.104 115.585 283.953C115.231 283.881 114.82 283.743 114.394 283.534C114.177 283.426 113.961 283.303 113.744 283.159C113.643 283.087 113.52 283.014 113.405 282.877C113.282 282.754 113.224 282.451 113.376 282.278C113.499 282.105 113.715 282.04 113.881 282.04C114.055 282.04 114.185 282.083 114.315 282.119C114.567 282.191 114.805 282.285 115.022 282.394C115.455 282.61 115.802 282.877 116.061 283.13C116.574 283.642 116.74 284.076 116.704 284.09C116.653 284.126 116.408 283.765 115.881 283.332C115.621 283.115 115.282 282.892 114.878 282.711C114.675 282.625 114.459 282.545 114.221 282.48C113.982 282.408 113.773 282.394 113.708 282.502C113.686 282.545 113.679 282.56 113.73 282.632C113.78 282.697 113.874 282.769 113.975 282.841C114.17 282.978 114.372 283.108 114.567 283.209C114.964 283.426 115.34 283.577 115.664 283.678C116.314 283.888 116.747 283.938 116.747 283.996L116.74 284.003Z" fill="#263238"/>
<path d="M116.584 284.155C116.541 284.169 116.339 283.758 116.324 283.029C116.324 282.668 116.375 282.227 116.534 281.773C116.613 281.542 116.721 281.311 116.851 281.087C116.996 280.863 117.169 280.567 117.609 280.531C117.84 280.531 118.021 280.719 118.078 280.87C118.151 281.029 118.158 281.166 118.179 281.296C118.208 281.563 118.194 281.83 118.151 282.076C118.057 282.56 117.84 282.964 117.609 283.245C117.133 283.823 116.664 283.938 116.656 283.902C116.62 283.844 117.024 283.642 117.385 283.079C117.566 282.805 117.732 282.437 117.79 282.011C117.819 281.802 117.826 281.571 117.79 281.347C117.761 281.101 117.681 280.899 117.588 280.921C117.472 280.921 117.27 281.094 117.169 281.282C117.046 281.484 116.938 281.693 116.858 281.895C116.7 282.307 116.62 282.704 116.591 283.036C116.534 283.707 116.635 284.133 116.577 284.148L116.584 284.155Z" fill="#263238"/>
<path d="M93.3746 149.711C93.3746 149.711 89.7219 149.87 87.3108 162.315C84.8997 174.761 66.3906 275.593 66.3906 275.593L79.796 275.716L105.091 179.85L103.409 278.676L117.031 279.715C117.031 279.715 127.253 170.379 127.346 164.019C127.469 156.086 122.914 148.065 122.914 148.065L93.3746 149.704V149.711Z" fill="#171A37"/>
<path d="M111.804 148.643C111.89 148.657 110.497 155.768 108.7 164.524C106.895 173.281 105.372 180.355 105.285 180.341C105.198 180.326 106.592 173.216 108.389 164.459C110.194 155.71 111.717 148.628 111.804 148.643Z" fill="#455A64"/>
<path d="M113.891 150.419C113.891 150.419 114.252 150.274 114.671 150.643C114.858 150.823 115.053 151.119 115.039 151.502C115.032 151.884 114.743 152.26 114.353 152.418C113.97 152.584 113.494 152.534 113.213 152.267C112.931 152.014 112.852 151.668 112.852 151.408C112.873 150.852 113.227 150.657 113.234 150.693C113.277 150.722 113.039 150.953 113.075 151.401C113.097 151.617 113.191 151.877 113.4 152.043C113.602 152.216 113.934 152.245 114.23 152.122C114.526 152 114.728 151.74 114.75 151.473C114.779 151.206 114.656 150.953 114.512 150.794C114.216 150.455 113.884 150.462 113.891 150.412V150.419Z" fill="#455A64"/>
<path d="M113.311 155.349C113.304 155.313 113.687 155.364 113.896 155.854C113.99 156.085 114.033 156.425 113.86 156.75C113.694 157.082 113.275 157.277 112.878 157.24C112.481 157.212 112.099 156.959 111.983 156.605C111.86 156.259 111.954 155.934 112.084 155.717C112.366 155.262 112.755 155.27 112.741 155.313C112.763 155.364 112.452 155.436 112.279 155.826C112.2 156.013 112.156 156.273 112.25 156.504C112.337 156.735 112.597 156.908 112.9 156.93C113.203 156.952 113.485 156.822 113.607 156.605C113.737 156.389 113.737 156.129 113.687 155.934C113.571 155.522 113.282 155.4 113.311 155.356V155.349Z" fill="#455A64"/>
<path d="M100.465 150.549C100.465 150.549 100.436 150.78 100.306 151.17C100.176 151.559 99.9527 152.123 99.599 152.772C98.906 154.079 97.621 155.761 95.708 157.017C93.795 158.273 91.7449 158.8 90.2722 158.915C89.5359 158.98 88.9295 158.966 88.5181 158.93C88.1066 158.894 87.8828 158.85 87.8828 158.829C87.8828 158.771 88.7996 158.872 90.2506 158.692C91.6944 158.518 93.6795 157.977 95.542 156.75C97.3972 155.523 98.6822 153.913 99.4113 152.657C100.148 151.393 100.415 150.52 100.472 150.534L100.465 150.549Z" fill="#455A64"/>
<path d="M126.552 159.392C126.552 159.392 126.4 159.32 126.148 159.146C125.895 158.98 125.563 158.692 125.173 158.316C124.401 157.558 123.491 156.331 122.892 154.779C122.293 153.227 122.149 151.704 122.214 150.621C122.242 150.079 122.3 149.646 122.372 149.35C122.437 149.054 122.488 148.896 122.51 148.903C122.567 148.91 122.437 149.567 122.437 150.628C122.437 151.689 122.611 153.155 123.188 154.671C123.773 156.179 124.625 157.392 125.339 158.172C126.054 158.959 126.588 159.356 126.552 159.399V159.392Z" fill="#455A64"/>
<path d="M88.0444 125.73L93.9999 126.062C94.3753 127.99 95.6819 130.942 95.6819 130.942C100.475 122.619 104.193 111.473 105.117 106.99C104.98 106.543 104.821 106.045 104.626 105.496C104.395 104.853 104.59 103.648 104.698 102.977C104.857 101.98 105.139 100.638 105.225 100.017C105.478 98.1255 105.788 97.8295 106.445 98.0389C107.34 98.3276 106.077 103.359 106.813 103.467C107.21 103.525 107.694 101.807 107.831 100.392C107.968 98.9773 108.611 94.6316 109.08 94.3428C109.766 93.9169 110.365 94.5883 110.192 95.9959C110.018 97.4181 109.795 101.67 110.545 101.728C111.282 101.785 111.895 94.5811 111.895 94.5811C111.895 94.5811 111.78 93.0146 112.646 93.0507C114.205 93.1156 112.985 100.717 112.855 101.432C112.762 101.93 113.57 102.024 113.642 101.482C113.715 100.926 114.09 94.2779 115.678 94.3284C116.898 94.3717 114.732 100.587 115.418 102.031C116.104 103.475 116.58 97.1365 117.743 97.2231C118.176 97.2592 118.493 97.3386 117.699 100.926C117.273 102.854 116.017 106.398 114.92 109.336C113.079 119.284 104.987 151.097 92.2963 145.272C85.2002 142.016 81.8867 125.875 81.8867 125.875L88.0516 125.738L88.0444 125.73Z" fill="#FFBE9D"/>
<path d="M114.911 109.329C114.911 109.329 114.926 109.25 114.969 109.113C115.027 108.954 115.092 108.744 115.178 108.485C115.373 107.914 115.655 107.106 116.009 106.081C116.362 105.034 116.796 103.756 117.229 102.255C117.452 101.504 117.626 100.695 117.799 99.822C117.878 99.3888 117.965 98.9413 118.016 98.4793C118.037 98.2483 118.059 98.0173 118.044 97.7863C118.03 97.548 117.994 97.3603 117.806 97.3531C117.611 97.3026 117.481 97.4614 117.351 97.6635C117.229 97.8657 117.135 98.0967 117.048 98.3349C116.875 98.8113 116.745 99.3239 116.615 99.8436C116.485 100.363 116.362 100.898 116.204 101.446C116.11 101.721 116.066 101.988 115.843 102.284C115.799 102.32 115.763 102.37 115.677 102.385C115.583 102.406 115.511 102.37 115.446 102.334C115.359 102.255 115.316 102.175 115.28 102.103C115.215 101.952 115.171 101.793 115.15 101.641C115.041 100.421 115.316 99.2445 115.511 98.0245C115.612 97.4181 115.727 96.7973 115.807 96.1765C115.843 95.866 115.879 95.5484 115.879 95.238C115.893 94.9493 115.843 94.5594 115.713 94.5089C115.561 94.4512 115.28 94.6244 115.128 94.8843C114.962 95.1369 114.839 95.4401 114.731 95.7433C114.522 96.3569 114.384 97.0211 114.262 97.6852C114.146 98.3493 114.052 99.0351 113.98 99.7209C113.944 100.067 113.915 100.414 113.879 100.76L113.836 101.287C113.821 101.432 113.821 101.728 113.598 101.901C113.388 102.06 113.107 102.074 112.883 101.93C112.767 101.858 112.681 101.721 112.666 101.583C112.652 101.511 112.666 101.453 112.666 101.388L112.688 101.259C112.739 100.905 112.796 100.551 112.847 100.197C112.948 99.4827 113.035 98.768 113.099 98.0389C113.164 97.3098 113.215 96.5807 113.229 95.8444C113.229 95.1153 113.229 94.3501 113.013 93.686C112.941 93.4838 112.832 93.2961 112.71 93.2456C112.58 93.2023 112.392 93.2456 112.298 93.3756C112.089 93.6715 112.053 94.1552 112.067 94.5522V94.5739V94.5883C111.937 96.0104 111.786 97.4109 111.576 98.7897C111.468 99.4755 111.36 100.161 111.186 100.833C111.143 100.999 111.093 101.172 111.035 101.338C110.955 101.504 110.934 101.677 110.688 101.865C110.479 101.966 110.327 101.85 110.241 101.764C110.154 101.67 110.118 101.576 110.075 101.49C110.003 101.309 109.967 101.136 109.938 100.97C109.743 99.6054 109.822 98.2844 109.902 96.9994C109.93 96.3497 110.082 95.7072 110.003 95.1369C109.959 94.8554 109.851 94.5739 109.663 94.4439C109.569 94.3862 109.468 94.3717 109.353 94.3934C109.295 94.4078 109.237 94.4295 109.187 94.4656C109.129 94.5089 109.144 94.4945 109.1 94.5739C108.862 95.072 108.747 95.6928 108.624 96.2631C108.501 96.8406 108.4 97.4181 108.313 97.9884C108.22 98.5587 108.14 99.1217 108.068 99.6776C107.996 100.226 107.952 100.782 107.844 101.323C107.743 101.865 107.613 102.392 107.418 102.89C107.368 103.013 107.31 103.143 107.245 103.265C107.158 103.381 107.115 103.525 106.877 103.597C106.747 103.634 106.631 103.547 106.566 103.467C106.516 103.388 106.494 103.316 106.473 103.244C106.444 103.107 106.429 102.969 106.422 102.839C106.408 101.807 106.559 100.861 106.617 99.9447C106.646 99.4899 106.668 99.0423 106.617 98.6309C106.588 98.436 106.53 98.2049 106.415 98.1616C106.256 98.0967 106.039 98.0606 105.924 98.1472C105.657 98.3421 105.563 98.7825 105.476 99.1362C105.39 99.5116 105.354 99.8797 105.281 100.241C105.029 101.677 104.762 102.904 104.632 103.915C104.574 104.42 104.545 104.875 104.61 105.251C104.697 105.619 104.819 105.944 104.892 106.196C104.964 106.434 105.022 106.629 105.065 106.781C105.101 106.911 105.115 106.983 105.115 106.983C105.115 106.983 105.079 106.918 105.036 106.788C104.986 106.637 104.913 106.449 104.827 106.211C104.74 105.951 104.617 105.655 104.509 105.258C104.43 104.861 104.444 104.399 104.495 103.886C104.603 102.861 104.848 101.641 105.079 100.197C105.144 99.8364 105.18 99.461 105.26 99.0712C105.303 98.8763 105.346 98.6814 105.419 98.4865C105.498 98.2916 105.577 98.075 105.801 97.9306C106.039 97.7863 106.299 97.8368 106.516 97.9234C106.797 98.0894 106.812 98.3565 106.862 98.5731C106.927 99.0279 106.906 99.4827 106.884 99.9447C106.841 100.869 106.696 101.836 106.718 102.811C106.718 102.933 106.74 103.049 106.761 103.157C106.79 103.273 106.848 103.323 106.834 103.294C106.855 103.294 106.949 103.193 107 103.099C107.057 102.998 107.108 102.883 107.151 102.767C107.332 102.298 107.454 101.778 107.548 101.251C107.649 100.724 107.685 100.183 107.758 99.6198C107.83 99.064 107.909 98.4937 107.996 97.9234C108.09 97.3531 108.183 96.7684 108.306 96.1837C108.443 95.5917 108.53 95.007 108.811 94.3934C108.826 94.3284 108.956 94.1913 109.021 94.1624C109.1 94.1191 109.187 94.083 109.274 94.0541C109.461 94.0036 109.685 94.0325 109.851 94.148C110.183 94.3862 110.291 94.7471 110.349 95.072C110.4 95.404 110.385 95.7433 110.349 96.061C110.313 96.3714 110.284 96.689 110.262 97.0066C110.19 98.2771 110.118 99.6054 110.306 100.89C110.335 101.049 110.371 101.208 110.421 101.338C110.45 101.403 110.479 101.468 110.515 101.497C110.53 101.518 110.537 101.518 110.544 101.518C110.537 101.663 110.544 101.547 110.544 101.576C110.544 101.547 110.537 101.554 110.522 101.526C110.551 101.497 110.652 101.331 110.696 101.194C110.746 101.042 110.797 100.883 110.84 100.724C111.006 100.075 111.114 99.4033 111.223 98.7175C111.425 97.3531 111.576 95.9527 111.706 94.5378V94.5667C111.706 94.0974 111.692 93.6138 112.017 93.1301C112.204 92.8919 112.544 92.762 112.861 92.8847C113.179 93.029 113.294 93.3178 113.381 93.5488C113.619 94.3212 113.612 95.0864 113.612 95.8372C113.598 96.5879 113.547 97.3315 113.482 98.0606C113.41 98.7969 113.323 99.5188 113.222 100.233C113.164 100.594 113.114 100.948 113.056 101.302C113.013 101.526 113.02 101.533 113.092 101.605C113.164 101.663 113.309 101.648 113.374 101.591C113.453 101.54 113.46 101.432 113.475 101.237L113.518 100.71C113.554 100.356 113.59 100.01 113.619 99.6631C113.699 98.9701 113.785 98.2771 113.908 97.6058C114.031 96.9272 114.175 96.2631 114.392 95.6134C114.507 95.2885 114.637 94.9709 114.832 94.6749C114.933 94.5306 115.049 94.379 115.222 94.2707C115.395 94.1696 115.59 94.0758 115.85 94.1768C116.103 94.314 116.139 94.545 116.182 94.711C116.211 94.8843 116.218 95.0575 116.211 95.2236C116.211 95.5556 116.167 95.8805 116.131 96.1981C116.045 96.8334 115.936 97.4542 115.828 98.0606C115.633 99.2661 115.359 100.472 115.453 101.576C115.467 101.713 115.503 101.836 115.547 101.944C115.576 102.002 115.604 102.045 115.626 102.067C115.626 102.067 115.626 102.053 115.612 102.096C115.612 102.146 115.612 102.089 115.612 102.096C115.59 102.06 115.612 102.067 115.612 102.053C115.742 101.894 115.828 101.591 115.908 101.338C116.066 100.811 116.189 100.277 116.326 99.7498C116.463 99.23 116.601 98.7175 116.781 98.2194C116.875 97.9739 116.969 97.7285 117.113 97.4975C117.193 97.382 117.265 97.2665 117.387 97.1799C117.445 97.1293 117.525 97.0932 117.604 97.0716C117.698 97.0572 117.777 97.0572 117.835 97.0716C117.979 97.0716 118.174 97.2015 118.218 97.3531C118.275 97.4975 118.29 97.6274 118.297 97.7574C118.311 98.01 118.283 98.2555 118.254 98.4865C118.196 98.9557 118.109 99.4105 118.023 99.8436C117.849 100.717 117.655 101.54 117.424 102.291C116.969 103.792 116.514 105.07 116.139 106.102C115.763 107.142 115.453 107.943 115.243 108.477C115.142 108.73 115.063 108.932 114.998 109.091C114.94 109.228 114.904 109.3 114.904 109.293L114.911 109.329Z" fill="#EB996E"/>
<path d="M81.8086 126.416C82.9636 130.48 85.2087 136.761 87.6342 143.388C87.9807 144.348 89.3162 144.406 89.7493 143.489L95.6832 130.942C95.6832 130.942 94.2539 120.634 94.3766 121.002C94.4993 121.363 82.1334 122.338 82.1334 122.338L81.8086 126.423V126.416Z" fill="#CFDFFA"/>
<path d="M95.1696 124.395C95.1841 124.445 94.4333 124.662 93.2567 125.11C92.08 125.557 90.4918 126.265 88.8532 127.254C87.2145 128.25 85.8501 129.333 84.9117 130.163C83.9732 131 83.4318 131.563 83.3957 131.527C83.3813 131.513 83.4968 131.354 83.7278 131.087C83.9516 130.812 84.3053 130.444 84.7601 129.997C85.6697 129.109 87.0268 127.99 88.6871 126.979C90.3475 125.976 91.9717 125.29 93.1772 124.893C93.7764 124.691 94.2745 124.554 94.621 124.482C94.9675 124.402 95.1624 124.366 95.1624 124.388L95.1696 124.395Z" fill="#455A64"/>
<path d="M97.524 127.521C97.524 127.521 97.0909 127.066 96.535 126.228C95.9792 125.391 95.2934 124.171 94.7015 122.749C94.1095 121.327 93.7341 119.977 93.532 118.988C93.3299 117.999 93.2793 117.378 93.3154 117.371C93.366 117.364 93.4959 117.97 93.7486 118.937C94.0084 119.905 94.4127 121.219 94.9902 122.626C95.5749 124.034 96.2174 125.247 96.7227 126.113C97.2208 126.979 97.5601 127.499 97.524 127.528V127.521Z" fill="#263238"/>
<path d="M101.482 71.9646C99.4105 75.3214 98.9629 79.6599 100.32 83.3704C100.926 85.0379 101.894 86.6838 101.72 88.4524C101.54 90.2643 100.168 91.9752 100.652 93.7294C100.941 94.7617 101.829 95.5341 102.168 96.5519C102.565 97.7503 102.154 99.0424 101.959 100.291C101.475 103.468 102.486 106.658 102.738 109.863C102.991 113.069 102.125 116.815 99.2661 118.216C98.3998 118.642 97.2592 118.764 96.5374 118.115C95.6206 117.292 95.8732 115.819 96.1259 114.599C98.638 102.457 90.8778 90.6325 92.6536 78.3605C92.9352 76.3898 94.0396 73.0547 95.4545 71.6759C96.8694 70.2971 100.789 70.4631 102.125 71.9213" fill="#263238"/>
<path d="M89.5424 107.149C89.5424 107.149 89.9033 106.709 90.452 105.85C90.9934 104.998 91.6791 103.662 92.0329 101.879C92.2061 100.992 92.2855 99.9953 92.2206 98.9269C92.1772 97.8585 92.0257 96.7107 92.0978 95.4835C92.1195 94.8699 92.2567 94.2419 92.4443 93.6283C92.6609 93.0219 92.9352 92.4228 93.2745 91.8453C93.9531 90.6975 94.8121 89.6291 95.599 88.4885C96.3858 87.3479 97.0355 86.1496 97.2521 84.8719C97.4614 83.6014 97.2376 82.3381 97.0427 81.1542C96.8334 79.9631 96.689 78.7936 96.7756 77.7108C96.8478 76.6207 97.0644 75.6246 97.3604 74.7511C97.9523 72.9969 98.833 71.748 99.5044 70.9756C99.8436 70.5858 100.125 70.3043 100.327 70.131C100.529 69.9506 100.638 69.8639 100.645 69.8711C100.667 69.8928 100.233 70.2682 99.5982 71.055C98.9629 71.8419 98.1328 73.0907 97.5697 74.8233C97.2954 75.6895 97.0933 76.6641 97.0355 77.7252C96.9633 78.7864 97.1077 79.9198 97.3315 81.1109C97.5336 82.2947 97.7791 83.5869 97.5625 84.9296C97.3459 86.2723 96.6601 87.5212 95.8661 88.6762C95.072 89.8312 94.213 90.8924 93.5488 92.0113C93.2168 92.5671 92.9424 93.1446 92.7331 93.7294C92.5454 94.3213 92.4155 94.9133 92.3866 95.5124C92.3072 96.7035 92.4443 97.8513 92.4804 98.9269C92.531 100.01 92.4443 101.028 92.2494 101.93C91.8596 103.742 91.1305 105.077 90.5458 105.922C90.257 106.348 90.0044 106.658 89.8239 106.86C89.6434 107.063 89.5424 107.164 89.5352 107.156L89.5424 107.149Z" fill="#455A64"/>
<path d="M83.7885 108.051C83.7885 108.051 83.8462 107.907 83.9762 107.647C84.1278 107.358 84.3227 106.983 84.5681 106.507C85.0734 105.518 85.8386 104.096 86.5822 102.255C87.3113 100.421 88.0404 98.1328 88.062 95.5124C88.062 94.8627 88.0187 94.1985 87.9104 93.52C87.8094 92.8486 87.6505 92.1556 87.5495 91.441C87.4556 90.7263 87.4051 89.9611 87.5928 89.2103C87.7805 88.4524 88.2569 87.781 88.8272 87.2613C89.9678 86.2217 91.3466 85.5432 92.0612 84.3304C92.7903 83.1321 92.9492 81.7316 93.1369 80.4395C93.2957 79.1329 93.5483 77.8768 93.9742 76.7723C94.3857 75.6606 94.9343 74.7005 95.5118 73.8775C96.6669 72.2317 97.959 71.1921 98.883 70.5713C99.3523 70.2609 99.7276 70.0516 99.9947 69.9216C100.262 69.7917 100.399 69.7267 100.406 69.7339C100.421 69.7628 99.8648 70.0299 98.9552 70.6652C98.0601 71.3076 96.8112 72.3544 95.6995 73.993C95.1437 74.8088 94.6167 75.7617 94.2197 76.8517C93.8082 77.9417 93.5772 79.1545 93.4256 80.4611C93.2451 81.7533 93.1008 83.1898 92.3283 84.4748C91.5559 85.7814 90.1266 86.4816 89.0438 87.4778C88.4951 87.9759 88.0765 88.5823 87.896 89.2753C87.7227 89.9611 87.7588 90.6902 87.8527 91.3832C87.9465 92.0834 88.1053 92.7692 88.2064 93.4622C88.3075 94.148 88.358 94.8338 88.3508 95.4979C88.3147 98.1689 87.5495 100.486 86.7843 102.32C86.0047 104.161 85.2106 105.568 84.6692 106.543C84.4021 107.005 84.1927 107.373 84.0267 107.654C83.8751 107.907 83.7957 108.037 83.7812 108.03L83.7885 108.051Z" fill="#455A64"/>
</g>
<defs>
<clipPath id="clip0_4016_5666">
<rect width="403.922" height="300" fill="white"/>
</clipPath>
</defs>
</svg>
