<svg width="400" height="400" viewBox="0 0 400 400" fill="none" xmlns="http://www.w3.org/2000/svg">
<g clip-path="url(#clip0_3013_5111)">
<path d="M350.771 81.3344H174.876C169.904 81.3344 165.874 77.3042 165.874 72.3322V59.0021C165.874 54.0302 161.843 50 156.871 50H50.0021C45.0302 50 41 54.0302 41 59.0021V340.998C41 345.97 45.0302 350 50.0021 350H350.771C355.743 350 359.773 345.97 359.773 340.998V90.3365C359.773 85.3646 355.743 81.3344 350.771 81.3344Z" fill="#353988"/>
<path d="M50.8594 109.442H349.904V331.421C349.904 336.386 345.874 340.423 340.902 340.423H59.8615C54.8965 340.423 50.8594 336.393 50.8594 331.421V109.442Z" fill="white"/>
<path d="M153.928 194.09C153.395 194.09 152.862 193.889 152.46 193.48L120.412 161.433C119.602 160.623 119.602 159.307 120.412 158.497C121.223 157.686 122.538 157.686 123.348 158.497L155.396 190.544C156.206 191.354 156.206 192.67 155.396 193.48C154.987 193.889 154.461 194.09 153.928 194.09Z" fill="#3744BC"/>
<path d="M121.88 194.09C121.347 194.09 120.814 193.889 120.412 193.48C119.602 192.67 119.602 191.354 120.412 190.544L152.46 158.497C153.27 157.686 154.586 157.686 155.396 158.497C156.206 159.307 156.206 160.623 155.396 161.433L123.348 193.48C122.94 193.889 122.414 194.09 121.88 194.09Z" fill="#3744BC"/>
<path d="M278.885 194.09C278.352 194.09 277.819 193.889 277.417 193.48L245.369 161.433C244.559 160.623 244.559 159.307 245.369 158.497C246.18 157.686 247.495 157.686 248.305 158.497L280.353 190.544C281.163 191.354 281.163 192.67 280.353 193.48C279.945 193.889 279.418 194.09 278.885 194.09Z" fill="#3744BC"/>
<path d="M246.837 194.09C246.304 194.09 245.771 193.889 245.369 193.48C244.559 192.67 244.559 191.354 245.369 190.544L277.417 158.497C278.227 157.686 279.543 157.686 280.353 158.497C281.163 159.307 281.163 160.623 280.353 161.433L248.305 193.48C247.897 193.889 247.371 194.09 246.837 194.09Z" fill="#3744BC"/>
<path d="M292.657 256.274C292.408 256.274 292.158 256.225 291.909 256.135C240.881 236.441 193.883 237.466 163.435 241.801C130.397 246.503 109.172 255.997 108.958 256.087C107.912 256.558 106.68 256.094 106.209 255.055C105.738 254.016 106.195 252.777 107.24 252.306C108.12 251.911 129.109 242.507 162.687 237.709C193.654 233.284 241.469 232.217 293.398 252.257C294.471 252.673 295.004 253.871 294.589 254.944C294.27 255.768 293.481 256.274 292.65 256.274H292.657Z" fill="#3744BC"/>
<path d="M279.176 249.418V264.21C279.176 278.391 267.674 289.893 253.492 289.893C239.311 289.893 227.809 278.391 227.809 264.21V238.526C246.429 241.427 263.429 245.118 279.176 249.418Z" fill="#D6D8E8"/>
<path d="M253.492 291.971C238.181 291.971 225.73 279.52 225.73 264.21V238.526C225.73 237.916 225.994 237.342 226.458 236.947C226.922 236.552 227.531 236.379 228.126 236.476C245.958 239.26 263.318 242.937 279.723 247.417C280.623 247.666 281.253 248.484 281.253 249.418V264.21C281.253 279.52 268.802 291.971 253.492 291.971ZM229.885 240.956V264.21C229.885 277.228 240.473 287.816 253.492 287.816C266.51 287.816 277.098 277.228 277.098 264.21V251.004C262.037 246.953 246.172 243.581 229.885 240.956Z" fill="#3744BC"/>
<path d="M253.491 276.446C252.342 276.446 251.414 275.518 251.414 274.368V243.221C251.414 242.071 252.342 241.143 253.491 241.143C254.641 241.143 255.569 242.071 255.569 243.221V274.368C255.569 275.518 254.641 276.446 253.491 276.446Z" fill="#3744BC"/>
</g>
<defs>
<clipPath id="clip0_3013_5111">
<rect width="318.773" height="300" fill="white" transform="translate(41 50)"/>
</clipPath>
</defs>
</svg>
