<svg width="64" height="64" viewBox="0 0 64 64" fill="none" xmlns="http://www.w3.org/2000/svg">
<rect width="64" height="64" rx="12" fill="#353988"/>
<g filter="url(#filter0_d_235_344)">
<path d="M22.4004 45.9747L22.401 45.9745C25.5908 45.0969 27.8835 44.1695 30.5253 42.697C33.6866 40.9349 36.1349 38.9691 38.3759 36.41C40.6185 33.8641 42.1273 31.3105 43.276 28.094C44.0328 25.9848 44.281 24.7742 44.1618 23.5955L44.1619 23.5955L44.1608 23.5864C44.1111 23.1703 44.0705 21.8246 44.057 20.6035C44.0436 18.737 44.0863 18.3254 44.3037 17.6116L44.3045 17.6092C44.4388 17.1601 44.6968 16.5846 44.9718 16.0916C45.1085 15.8465 45.2437 15.6322 45.3624 15.471C45.4397 15.3661 45.4959 15.3035 45.5292 15.2695C45.573 15.2648 45.631 15.2596 45.704 15.2544C45.8933 15.2408 46.1572 15.2282 46.4737 15.217C47.1053 15.1948 47.9291 15.1789 48.7478 15.1715C49.5666 15.164 50.3758 15.165 50.9784 15.1761C51.0263 15.177 51.0728 15.1779 51.1178 15.1789C51.0692 15.2471 51.0181 15.318 50.9652 15.3904C50.0726 16.6094 49.2098 18.1884 48.5414 19.7262C47.8761 21.2568 47.3833 22.7922 47.2612 23.9212L47.2609 23.924C47.2011 24.5074 47.2463 25.1191 47.394 25.7119L47.3949 25.7156C47.657 26.7346 47.8263 28.2683 47.8794 29.8315C47.9326 31.3938 47.8681 32.936 47.6824 33.9712C46.3085 41.5567 41.1162 46.9615 33.7085 48.5346C33.2239 48.6372 32.0988 48.7336 30.9149 48.788C29.7358 48.8422 28.5763 48.8513 28.0257 48.7959C26.3216 48.607 23.7804 47.9183 21.9953 47.1575C21.9951 47.1574 21.9949 47.1573 21.9946 47.1572L21.2919 46.8543V46.5398V46.278L22.4004 45.9747Z" fill="white" stroke="white"/>
<path d="M13.6921 29.8557L13.692 29.8557L13.6984 29.8603C15.994 31.479 19.0138 32.7132 22.4327 33.4421L22.4327 33.4421L22.4381 33.4432C23.1263 33.582 24.7816 33.6476 26.3551 33.6495C27.153 33.6504 27.9487 33.6349 28.617 33.6019C29.2684 33.5697 29.8426 33.5193 30.1712 33.4391C34.0573 32.4991 36.9388 31.1578 39.3134 29.1045C38.8592 30.0036 38.3184 30.9806 37.9471 31.5375C36.3414 33.9289 34.1278 36.2342 31.8427 37.8738L31.8427 37.8738L31.8391 37.8764C30.6208 38.7673 27.6089 40.4676 26.3738 40.9748L26.3737 40.9747L26.3627 40.9795C26.1409 41.0769 25.9097 41.1793 25.718 41.267C25.544 41.3467 25.3666 41.4303 25.2722 41.4879C25.2198 41.5184 25.0883 41.5589 24.8125 41.5232C24.5408 41.488 24.1836 41.3855 23.7359 41.2002C20.3573 39.784 16.8934 37.1154 14.3637 33.9577C13.9495 33.4381 13.4677 32.7371 13.0895 32.1267C12.9004 31.8216 12.7418 31.5464 12.6322 31.3332C12.578 31.2278 12.5396 31.1448 12.5158 31.0849C12.5288 31.0509 12.5465 31.0081 12.5694 30.9565C12.6326 30.8142 12.7232 30.6316 12.827 30.4372C12.9972 30.1184 13.1849 29.8021 13.3265 29.5971C13.417 29.6571 13.534 29.7405 13.6921 29.8557ZM12.4929 31.1523C12.4928 31.1523 12.4931 31.1511 12.4938 31.1485C12.4933 31.1509 12.4929 31.1522 12.4929 31.1523Z" fill="white" stroke="white"/>
<path d="M19.1064 29.1552L19.1064 29.1552C19.9759 29.5205 21.9265 29.9912 23.3401 30.1829C24.1245 30.2821 25.3995 30.3021 26.7186 30.2501C28.0371 30.1981 29.3563 30.076 30.2249 29.9039C33.9617 29.1583 37.6497 27.213 39.9995 24.7383C39.9996 24.7382 39.9997 24.7381 39.9998 24.738L40.6298 24.0714L40.5642 23.5276C40.5642 23.5274 40.5641 23.5272 40.5641 23.527C40.5572 23.471 40.5503 23.4162 40.5435 23.3631C40.5221 23.3745 40.5004 23.3861 40.4783 23.3979C40.4782 23.398 40.4782 23.398 40.4781 23.398L40.2416 22.9575C39.4899 23.3615 37.3423 24.1546 36.3624 24.394L19.1064 29.1552ZM19.1064 29.1552L19.0983 29.1519C18.5197 28.9207 18.2792 28.73 16.4002 26.6202L16.399 26.6189C15.2422 25.3292 14.1181 23.9247 13.8635 23.5059C13.7207 23.2708 13.576 23.0403 13.457 22.8608C13.3979 22.7716 13.342 22.6903 13.2941 22.6258C13.2704 22.5939 13.2449 22.5609 13.2192 22.5311L13.2183 22.53C13.2175 22.5291 13.2166 22.5281 13.2157 22.527C13.2274 22.5015 13.2406 22.4734 13.2553 22.4427C13.3333 22.2797 13.4427 22.0651 13.5643 21.8354C13.7223 21.5373 13.8938 21.2269 14.037 20.9813C14.0561 20.9898 14.0759 20.9986 14.0964 21.0079C14.3701 21.1314 14.7461 21.3115 15.1577 21.5187L15.1577 21.5187L15.1624 21.521C19.1148 23.4591 23.5841 24.8229 27.7098 25.339L27.7104 25.3391C30.302 25.6601 34.1352 25.464 36.4822 24.8794L19.1064 29.1552ZM41.0172 23.1296C41.0092 23.1315 40.9981 23.1337 40.9847 23.1356C40.9686 23.1378 40.9244 23.1431 40.8664 23.1355C40.8162 23.1289 40.6802 23.1029 40.5674 22.9772L41.0172 23.1296ZM41.0172 23.1296C41.0172 23.13 41.0173 23.1304 41.0173 23.1307L41.0172 23.1296Z" fill="white" stroke="white"/>
</g>
<defs>
<filter id="filter0_d_235_344" x="8" y="14.6667" width="47.9999" height="42.6667" filterUnits="userSpaceOnUse" color-interpolation-filters="sRGB">
<feFlood flood-opacity="0" result="BackgroundImageFix"/>
<feColorMatrix in="SourceAlpha" type="matrix" values="0 0 0 0 0 0 0 0 0 0 0 0 0 0 0 0 0 0 127 0" result="hardAlpha"/>
<feOffset dy="4"/>
<feGaussianBlur stdDeviation="2"/>
<feComposite in2="hardAlpha" operator="out"/>
<feColorMatrix type="matrix" values="0 0 0 0 0 0 0 0 0 0 0 0 0 0 0 0 0 0 0.25 0"/>
<feBlend mode="normal" in2="BackgroundImageFix" result="effect1_dropShadow_235_344"/>
<feBlend mode="normal" in="SourceGraphic" in2="effect1_dropShadow_235_344" result="shape"/>
</filter>
</defs>
</svg>
