<svg width="48" height="48" viewBox="0 0 48 48" fill="none" xmlns="http://www.w3.org/2000/svg">
<rect width="48" height="48" rx="8" fill="#353988"/>
<g filter="url(#filter0_d_236_419)">
<path d="M16.8333 34.6016L16.834 34.6014C19.2351 33.9407 20.964 33.2416 22.9548 32.132C25.3375 30.8039 27.185 29.3208 28.8756 27.3903C30.5682 25.4688 31.708 23.5397 32.5749 21.1122C33.1436 19.5269 33.338 18.5971 33.2458 17.6841L33.2458 17.6841L33.2448 17.675C33.2084 17.3711 33.1779 16.3699 33.1677 15.4519C33.1577 14.0526 33.1903 13.7607 33.3474 13.2452L33.3481 13.2427C33.4455 12.9171 33.6348 12.494 33.8381 12.1296C33.9389 11.9488 34.0374 11.7928 34.1225 11.6774C34.1583 11.6287 34.1864 11.5948 34.2065 11.5719C34.2294 11.5698 34.2562 11.5677 34.287 11.5655C34.4267 11.5554 34.6228 11.546 34.8597 11.5377C35.332 11.5211 35.9487 11.5092 36.562 11.5036C37.1163 11.4986 37.6642 11.4987 38.0969 11.5049C37.4301 12.4232 36.7889 13.6002 36.2914 14.7448C35.7906 15.8971 35.4152 17.0622 35.3217 17.9275L35.3214 17.9303C35.275 18.3827 35.3101 18.8561 35.4242 19.3142L35.4251 19.3178C35.6184 20.0694 35.7449 21.2093 35.7847 22.3779C35.8244 23.5459 35.7758 24.6929 35.6387 25.4569C34.6169 31.0967 30.7603 35.1097 25.2555 36.2787C24.9035 36.3532 24.0694 36.4253 23.1804 36.4662C22.2963 36.5068 21.4354 36.5131 21.0324 36.4726C19.7681 36.3324 17.8748 35.8196 16.5462 35.2534C16.5458 35.2533 16.5454 35.2531 16.545 35.253L16.0939 35.0585V34.9049V34.8039L16.8333 34.6016Z" fill="white" stroke="white"/>
<path d="M29.0924 22.3136C27.3855 23.6515 25.3339 24.5535 22.6578 25.2008C22.398 25.2641 21.9559 25.3022 21.4689 25.3262C20.965 25.3511 20.3661 25.3628 19.7662 25.3621C18.5887 25.3607 17.3344 25.3119 16.8039 25.2049L16.7984 25.2038L16.7984 25.2038C14.2218 24.6545 11.9404 23.7232 10.2018 22.4973L10.1954 22.4928L10.1954 22.4928C10.1307 22.4456 10.0759 22.406 10.0288 22.3728C9.9384 22.514 9.83118 22.6982 9.73047 22.8868C9.65353 23.0309 9.58708 23.165 9.54132 23.2681C9.53414 23.2843 9.52776 23.299 9.52212 23.3124C9.53775 23.3474 9.55864 23.3908 9.58534 23.4427C9.66544 23.5986 9.78254 23.8019 9.92335 24.0292C10.2051 24.4839 10.5636 25.0053 10.8704 25.3902C12.7558 27.7436 15.3373 29.7314 17.8501 30.7848C18.1803 30.9215 18.4367 30.994 18.6255 31.0184C18.8154 31.043 18.883 31.0123 18.8907 31.0081C18.891 31.008 18.8912 31.0079 18.8913 31.0078L19.1477 31.4371C19.2383 31.381 19.5906 31.2239 19.9228 31.078L29.0924 22.3136ZM29.0924 22.3136C28.8282 22.8097 28.5575 23.282 28.3561 23.584L29.0924 22.3136ZM9.4907 23.233C9.49077 23.2331 9.4913 23.2347 9.49206 23.2378C9.49102 23.2345 9.49063 23.233 9.4907 23.233ZM9.49148 23.3924C9.49032 23.3973 9.48947 23.4 9.48933 23.4001C9.4892 23.4003 9.48978 23.3978 9.49148 23.3924Z" fill="white" stroke="white"/>
<path d="M14.3782 21.7512L14.3782 21.7511L14.3701 21.7479C13.9693 21.5877 13.8094 21.4718 12.3935 19.882L12.3923 19.8807C11.524 18.9127 10.6885 17.8674 10.5045 17.5645C10.3969 17.3874 10.2874 17.213 10.1969 17.0765C10.1521 17.0089 10.1088 16.9458 10.0709 16.8948C10.0668 16.8893 10.0625 16.8836 10.0582 16.8778C10.1154 16.7587 10.195 16.6026 10.2837 16.4351C10.3818 16.2498 10.4863 16.0595 10.5795 15.8965C10.7764 15.9867 11.033 16.1102 11.3121 16.2507L11.3121 16.2507L11.3168 16.253C14.2927 17.7122 17.6579 18.7394 20.7668 19.1283L20.7674 19.1284C22.7248 19.3708 25.615 19.2234 27.3916 18.7809C27.7875 18.6841 28.3948 18.4827 28.9642 18.272C29.4685 18.0855 29.9777 17.8789 30.3057 17.7163L30.3413 18.0103L29.9092 18.4675C29.9091 18.4675 29.9091 18.4676 29.909 18.4677C28.1664 20.3028 25.4245 21.7507 22.6439 22.3054C22.0018 22.4326 21.0201 22.5238 20.034 22.5627C19.0472 22.6016 18.0994 22.5863 17.5214 22.5132C16.4668 22.3702 15.0162 22.0192 14.3782 21.7512Z" fill="white" stroke="white"/>
</g>
<defs>
<filter id="filter0_d_236_419" x="5" y="11" width="38" height="34" filterUnits="userSpaceOnUse" color-interpolation-filters="sRGB">
<feFlood flood-opacity="0" result="BackgroundImageFix"/>
<feColorMatrix in="SourceAlpha" type="matrix" values="0 0 0 0 0 0 0 0 0 0 0 0 0 0 0 0 0 0 127 0" result="hardAlpha"/>
<feOffset dy="4"/>
<feGaussianBlur stdDeviation="2"/>
<feComposite in2="hardAlpha" operator="out"/>
<feColorMatrix type="matrix" values="0 0 0 0 0 0 0 0 0 0 0 0 0 0 0 0 0 0 0.25 0"/>
<feBlend mode="normal" in2="BackgroundImageFix" result="effect1_dropShadow_236_419"/>
<feBlend mode="normal" in="SourceGraphic" in2="effect1_dropShadow_236_419" result="shape"/>
</filter>
</defs>
</svg>
