<svg width="126" height="97" viewBox="0 0 126 97" fill="none" xmlns="http://www.w3.org/2000/svg">
<path d="M25.5432 96.9996C39.6504 96.9996 51.0865 85.5635 51.0865 71.4563C51.0865 57.3492 39.6504 45.9131 25.5432 45.9131C11.4361 45.9131 0 57.3492 0 71.4563C0 85.5635 11.4361 96.9996 25.5432 96.9996Z" fill="#EDEEF4"/>
<path d="M106.732 83.9396H21.5614C20.5736 83.9396 19.7754 83.1414 19.7754 82.1536V24.372C19.7754 23.3842 20.5736 22.5859 21.5614 22.5859H106.732C107.72 22.5859 108.518 23.3842 108.518 24.372V82.1536C108.518 83.1414 107.72 83.9396 106.732 83.9396ZM23.3475 80.3775H104.946V26.158H23.3475V80.3775Z" fill="#0F1335"/>
<path d="M106.732 83.9396C106.273 83.9396 105.814 83.7599 105.475 83.4207L77.9461 55.8919C77.2476 55.1934 77.2476 54.0659 77.9461 53.3775C78.6445 52.679 79.772 52.679 80.4605 53.3775L104.956 77.873V27.7344L65.1545 54.7345C64.5558 55.1435 63.7576 55.1435 63.1589 54.7345L20.5636 25.8486C19.7454 25.2999 19.5359 24.1923 20.0847 23.3741C20.6334 22.556 21.741 22.3464 22.5592 22.8952L64.1368 51.1125L105.724 22.9052C106.273 22.536 106.972 22.4961 107.56 22.8054C108.139 23.1147 108.508 23.7234 108.508 24.3819V82.1635C108.508 82.8819 108.079 83.5305 107.411 83.8098C107.191 83.8996 106.962 83.9495 106.732 83.9495V83.9396Z" fill="#0F1335"/>
<path d="M21.5603 83.9399C21.1014 83.9399 20.6524 83.7703 20.3031 83.4211C19.6047 82.7226 19.6047 81.5951 20.3031 80.9066L47.9816 53.2182C48.6801 52.5197 49.8076 52.5197 50.496 53.2182C51.1945 53.9166 51.1945 55.0441 50.496 55.7326L22.8175 83.4211C22.4683 83.7703 22.0093 83.9399 21.5603 83.9399Z" fill="#0F1335"/>
<rect x="70" width="56" height="53" rx="26.5" fill="white"/>
<path d="M100.374 2C100.703 2.15215 101.065 2.14485 101.411 2.2178C106.294 3.25052 109.674 7.74927 109.296 12.7253C108.882 18.1734 104.265 22.2709 98.7978 21.9823C93.8909 21.7228 90.0844 18.0265 89.4363 13.4131C88.659 7.87953 92.4821 2.88058 97.9548 2.08754C98.035 2.07607 98.1455 2.12088 98.1872 2H100.374ZM99.3115 18.659C103.003 18.6559 105.995 15.6932 105.998 12.0396C106 8.29742 103.034 5.34202 99.274 5.34202C95.6374 5.34202 92.652 8.36515 92.6614 12.0396C92.6707 15.6776 95.6697 18.6622 99.3115 18.659Z" fill="#5EDDBF"/>
<path d="M113.892 41.9998C113.878 41.9164 113.801 41.9175 113.746 41.8935C113.005 41.5736 112.662 40.9973 112.661 40.2043C112.66 39.1371 112.672 38.069 112.658 37.0019C112.596 32.3239 109.001 28.7109 104.323 28.6661C100.99 28.6338 97.658 28.6348 94.3256 28.6661C90.17 28.7057 86.796 31.61 86.0999 35.6972C85.9551 36.5486 86.0051 37.4104 86.0009 38.2691C85.9988 38.8162 85.9707 39.3643 86.0072 39.9093C86.0749 40.9462 85.6716 41.6569 84.6723 41.9998H83.8908C83.8606 41.8883 83.7491 41.8966 83.6741 41.8612C83.0478 41.5715 82.6769 41.0744 82.6748 40.3981C82.6706 38.7339 82.5341 37.0613 82.7904 35.4064C83.4354 31.2443 85.6862 28.2482 89.4635 26.41C90.9432 25.6899 92.5271 25.3449 94.1766 25.3439C97.6913 25.3418 101.207 25.3043 104.721 25.3574C110.243 25.4419 115.057 29.7332 115.861 35.2095C115.891 35.4148 115.85 35.6451 116 35.8264V40.7482C115.738 41.3568 115.314 41.7935 114.671 41.9977H113.89L113.892 41.9998Z" fill="#5EDDBF"/>
<path d="M76.0001 19.891C76.0825 19.8764 76.0814 19.8003 76.1054 19.744C76.4253 19.0031 77.0015 18.6613 77.7945 18.6602C78.7573 18.6592 79.7201 18.6519 80.683 18.6655C80.932 18.6696 81.0112 18.6102 81.007 18.3487C80.9904 17.3733 80.9977 16.3968 81.0008 15.4214C81.005 14.4189 81.7062 13.6738 82.6493 13.6613C83.5798 13.6488 84.3207 14.3939 84.3363 15.388C84.3509 16.3374 84.354 17.2878 84.3321 18.2372C84.3248 18.5612 84.38 18.6821 84.7448 18.6696C85.7065 18.6384 86.6704 18.6467 87.6322 18.6634C88.5648 18.679 89.2442 19.3147 89.3307 20.2161C89.4078 21.0216 88.817 21.8043 87.9802 21.9647C87.7281 22.0137 87.4623 21.9971 87.2029 21.9981C86.3568 22.0012 85.5117 22.0127 84.6656 21.9918C84.3821 21.9845 84.3279 22.0752 84.3321 22.3389C84.3488 23.3143 84.3509 24.2907 84.3352 25.2661C84.3165 26.4708 83.2599 27.2649 82.1595 26.9189C81.4728 26.7032 81.007 26.0779 81.0008 25.3307C80.9924 24.3293 80.9862 23.3268 81.006 22.3253C81.0112 22.0419 80.9258 21.9856 80.66 21.9918C79.8535 22.0096 79.0439 21.9554 78.2405 22.0096C77.1943 22.0794 76.4138 21.7595 75.998 20.7486V19.8889L76.0001 19.891Z" fill="#5EDDBF"/>
</svg>
