<svg width="58" height="58" viewBox="0 0 58 58" fill="none" xmlns="http://www.w3.org/2000/svg">
<rect x="0.5" y="0.5" width="57" height="57" rx="28.5" fill="#EEF2FF"/>
<g clip-path="url(#clip0_5559_12516)">
<path d="M18.1667 39.8361V19.7945C18.1667 19.3774 18.3292 19.0036 18.6542 18.6678C18.9792 18.332 19.3584 18.1641 19.7917 18.1641H38.2084C38.6255 18.1641 38.9993 18.332 39.3351 18.6678C39.6709 19.0036 39.8388 19.3774 39.8388 19.7945V33.8778C39.8388 34.2949 39.6709 34.6686 39.3351 35.0045C38.9993 35.3403 38.6255 35.5082 38.2084 35.5082H22.5001L18.1667 39.8416V39.8361Z" fill="#7C3AED"/>
<path d="M29.1029 28.9974C30.2996 28.9974 31.2696 28.0273 31.2696 26.8307C31.2696 25.6341 30.2996 24.6641 29.1029 24.6641C27.9063 24.6641 26.9363 25.6341 26.9363 26.8307C26.9363 28.0273 27.9063 28.9974 29.1029 28.9974Z" fill="white"/>
</g>
<rect x="0.5" y="0.5" width="57" height="57" rx="28.5" stroke="#A5B4FC"/>
<defs>
<clipPath id="clip0_5559_12516">
<rect width="26" height="26" fill="white" transform="translate(16 16)"/>
</clipPath>
</defs>
</svg>
