<svg width="364" height="272" viewBox="0 0 364 272" fill="none" xmlns="http://www.w3.org/2000/svg">
<path d="M363.82 238.873H0.183594V239.054H363.82V238.873Z" fill="#EBEBEB"/>
<path d="M327.384 250.574H303.297V250.756H327.384V250.574Z" fill="#EBEBEB"/>
<path d="M241.07 252.552H234.75V252.734H241.07V252.552Z" fill="#EBEBEB"/>
<path d="M302.57 243.825H288.613V244.007H302.57V243.825Z" fill="#EBEBEB"/>
<path d="M69.7468 245.047H38.3359V245.229H69.7468V245.047Z" fill="#EBEBEB"/>
<path d="M80.8302 245.047H76.2266V245.229H80.8302V245.047Z" fill="#EBEBEB"/>
<path d="M163.928 248.116H95.7969V248.298H163.928V248.116Z" fill="#EBEBEB"/>
<path d="M172.554 206.436H32.1176C29.8267 206.436 27.9648 204.574 27.9648 202.283V4.87978C27.9648 2.58887 29.8267 0.727051 32.1176 0.727051H172.554C174.845 0.727051 176.707 2.58887 176.707 4.87978V202.283C176.707 204.574 174.845 206.436 172.554 206.436ZM32.1176 0.908869C29.9285 0.908869 28.1467 2.69069 28.1467 4.87978V202.283C28.1467 204.473 29.9285 206.254 32.1176 206.254H172.554C174.743 206.254 176.525 204.473 176.525 202.283V4.87978C176.525 2.69069 174.743 0.908869 172.554 0.908869H32.1176Z" fill="#EBEBEB"/>
<path d="M329.863 206.436H189.426C187.135 206.436 185.273 204.574 185.273 202.283V4.87978C185.273 2.58887 187.135 0.727051 189.426 0.727051H329.863C332.153 0.727051 334.015 2.58887 334.015 4.87978V202.283C334.015 204.574 332.153 206.436 329.863 206.436ZM189.426 0.908869C187.237 0.908869 185.455 2.69069 185.455 4.87978V202.283C185.455 204.473 187.237 206.254 189.426 206.254H329.863C332.052 206.254 333.833 204.473 333.833 202.283V4.87978C333.833 2.69069 332.052 0.908869 329.863 0.908869H189.426Z" fill="#EBEBEB"/>
<path d="M159.059 168.662H67.1172V175.149H159.059V168.662Z" fill="#EBEBEB"/>
<path d="M159.06 168.662H119.082V175.149H159.06V168.662Z" fill="#E0E0E0"/>
<path d="M80.7026 175.156H67.1172V238.873H80.7026V175.156Z" fill="#EBEBEB"/>
<path d="M80.7026 181.731L67.1172 177.105V175.156H80.7026V181.731Z" fill="#E0E0E0"/>
<path d="M159.058 175.156H145.473V238.873H159.058V175.156Z" fill="#E0E0E0"/>
<path d="M132.667 175.156H119.082V238.873H132.667V175.156Z" fill="#EBEBEB"/>
<path d="M132.66 181.731L119.082 177.105V175.156H132.66V181.731Z" fill="#E0E0E0"/>
<path d="M107.093 175.156H93.5078V238.873H107.093V175.156Z" fill="#E0E0E0"/>
<path d="M167.697 24.1523H51.8203V122.821H167.697V24.1523Z" fill="#EBEBEB"/>
<path d="M167.698 122.821H168.992V24.1522H167.698V122.821Z" fill="#E0E0E0"/>
<path d="M163.332 118.458V28.5161L56.1829 28.5161V118.458H163.332Z" fill="#F5F5F5"/>
<path d="M108.469 104.799C115 82.9593 116.832 50.7993 130.76 55.2429C144.687 59.6793 126.44 107.265 126.44 107.265L108.469 104.799Z" fill="white"/>
<path d="M119.711 105.89C113.049 74.2685 114.729 32.283 94.0312 33.2503C73.333 34.2103 94.0312 107.265 94.0312 107.265L119.711 105.89Z" fill="white"/>
<path d="M134.337 102.341H89.0282C87.0136 102.341 85.4864 103.818 85.3991 105.687C84.4755 126.559 87.8936 147.832 94.2573 168.661H128.955C135.319 147.832 138.737 126.559 137.814 105.687C137.734 103.818 136.206 102.341 134.33 102.341H134.337Z" fill="#EBEBEB"/>
<path d="M237.42 35.1636H234.867V238.873H237.42V35.1636Z" fill="#E0E0E0"/>
<path d="M297.412 35.1636H294.859V238.873H297.412V35.1636Z" fill="#E0E0E0"/>
<path d="M219.318 35.1636H216.766V238.873H219.318V35.1636Z" fill="#EBEBEB"/>
<path d="M279.311 35.1636H276.758V238.873H279.311V35.1636Z" fill="#EBEBEB"/>
<path d="M297.413 33.7671H216.766V36.5525H297.413V33.7671Z" fill="#EBEBEB"/>
<path d="M297.413 83.6509H216.766V86.4363H297.413V83.6509Z" fill="#EBEBEB"/>
<path d="M297.413 133.534H216.766V136.32H297.413V133.534Z" fill="#EBEBEB"/>
<path d="M297.413 183.418H216.766V186.203H297.413V183.418Z" fill="#EBEBEB"/>
<path d="M297.413 233.302H216.766V236.087H297.413V233.302Z" fill="#EBEBEB"/>
<path d="M297.414 33.7671H279.312V36.5525H297.414V33.7671Z" fill="#E0E0E0"/>
<path d="M297.414 83.6509H279.312V86.4363H297.414V83.6509Z" fill="#E0E0E0"/>
<path d="M297.414 133.534H279.312V136.32H297.414V133.534Z" fill="#E0E0E0"/>
<path d="M297.414 183.418H279.312V186.203H297.414V183.418Z" fill="#E0E0E0"/>
<path d="M297.414 233.302H279.312V236.087H297.414V233.302Z" fill="#E0E0E0"/>
<path d="M249.298 50.7344V46.8071H239.603V50.7344C239.603 53.3017 237.523 55.3817 234.956 55.3817C232.389 55.3817 230.309 57.4617 230.309 60.0289V83.658H258.585V60.0289C258.585 57.4617 256.505 55.3817 253.938 55.3817C251.37 55.3817 249.29 53.3017 249.29 50.7344H249.298Z" fill="#F0F0F0"/>
<path d="M269.362 117.309H226.875V133.535H269.362V117.309Z" fill="#F0F0F0"/>
<path d="M269.361 133.535H276.758V117.309H269.361V133.535Z" fill="#E6E6E6"/>
<path d="M269.361 126.312H276.758V124.523H269.361V126.312Z" fill="#EBEBEB"/>
<path d="M269.362 124.531H226.875V126.32H269.362V124.531Z" fill="#F5F5F5"/>
<path d="M257.978 204.618H224.793V233.302H257.978V204.618Z" fill="#F0F0F0"/>
<path d="M257.979 233.302H263.754V204.618H257.979V233.302Z" fill="#E6E6E6"/>
<path d="M257.979 220.538H263.754V217.374H257.979V220.538Z" fill="#EBEBEB"/>
<path d="M257.978 217.382H224.793V220.545H257.978V217.382Z" fill="#F5F5F5"/>
<path d="M257.979 215.164H263.754V214.036H257.979V215.164Z" fill="#EBEBEB"/>
<path d="M257.978 214.036H224.793V215.163H257.978V214.036Z" fill="#F5F5F5"/>
<path d="M232.882 154.254H226.875V183.418H232.882V154.254Z" fill="#F0F0F0"/>
<path d="M232.882 164.647H226.875V173.025H232.882V164.647Z" fill="#FAFAFA"/>
<path d="M232.88 183.418H253.316V154.254H232.88V183.418Z" fill="#E6E6E6"/>
<path d="M242.164 150.487H235.379V183.418H242.164V150.487Z" fill="#EBEBEB"/>
<path d="M242.164 160.953H235.379V166.022H242.164V160.953Z" fill="#FAFAFA"/>
<path d="M242.164 169.418H235.379V174.487H242.164V169.418Z" fill="#FAFAFA"/>
<path d="M242.174 183.411H265.25V150.48H242.174V183.411Z" fill="#E0E0E0"/>
<path d="M249.717 154.254H246.059V183.418H249.717V154.254Z" fill="#F0F0F0"/>
<path d="M249.084 157.949H246.684V179.724H249.084V157.949Z" fill="#FAFAFA"/>
<path d="M249.708 183.418H262.137V154.254H249.708V183.418Z" fill="#E6E6E6"/>
<path d="M259.486 152.713H255.355V183.411H259.486V152.713Z" fill="#EBEBEB"/>
<path d="M259.486 162.473H255.355V167.2H259.486V162.473Z" fill="#FAFAFA"/>
<path d="M259.486 170.364H255.355V175.091H259.486V170.364Z" fill="#FAFAFA"/>
<path d="M259.487 183.418H273.523V152.72H259.487V183.418Z" fill="#E0E0E0"/>
<path d="M257.61 114.663C261.143 111.129 261.143 105.401 257.61 101.868C254.077 98.3346 248.349 98.3346 244.815 101.868C241.282 105.401 241.282 111.129 244.815 114.663C248.349 118.196 254.077 118.196 257.61 114.663Z" fill="#F5F5F5"/>
<path d="M262.224 117.215C265.642 116.66 267.963 113.44 267.408 110.022C266.853 106.605 263.633 104.284 260.215 104.839C256.798 105.394 254.477 108.614 255.032 112.031C255.587 115.449 258.807 117.77 262.224 117.215Z" fill="#EBEBEB"/>
<path d="M182.003 271.716C259.881 271.716 323.014 268.031 323.014 263.484C323.014 258.937 259.881 255.251 182.003 255.251C104.125 255.251 40.9922 258.937 40.9922 263.484C40.9922 268.031 104.125 271.716 182.003 271.716Z" fill="#F5F5F5"/>
<path d="M91.8984 207.083H185.309V255.33C185.309 257.927 183.2 260.036 180.604 260.036H96.6039C94.0075 260.036 91.8984 257.927 91.8984 255.33V207.083Z" fill="#407BFF"/>
<path d="M91.8985 207.083H157.993L149.862 196.676C148.968 195.534 146.757 194.61 144.917 194.61H85.4766C83.6366 194.61 82.873 195.534 83.7603 196.676L91.8912 207.083H91.8985Z" fill="#407BFF"/>
<path opacity="0.2" d="M91.8985 207.083H157.993L149.862 196.676C148.968 195.534 146.757 194.61 144.917 194.61H85.4766C83.6366 194.61 82.873 195.534 83.7603 196.676L91.8912 207.083H91.8985Z" fill="black"/>
<path d="M185.309 207.083H119.215L127.346 200.298C128.24 199.556 130.451 198.952 132.291 198.952H191.731C193.571 198.952 194.335 199.556 193.448 200.298L185.317 207.083H185.309Z" fill="#407BFF"/>
<path opacity="0.2" d="M119.215 207.083H185.309V255.33C185.309 257.927 183.2 260.036 180.604 260.036H123.92C121.324 260.036 119.215 257.927 119.215 255.33V207.083Z" fill="white"/>
<path opacity="0.5" d="M100.102 207.083V240.159L102.385 238.356L103.992 240.159L105.389 238.152L106.822 240.159L108.814 238.647L111.011 240.159V207.083H100.102Z" fill="white"/>
</svg>
