<svg width="400" height="400" viewBox="0 0 400 400" fill="none" xmlns="http://www.w3.org/2000/svg">
<rect width="400" height="400" fill="#F9FAFB"/>
<path d="M381.82 302.873H18.1836V303.054H381.82V302.873Z" fill="#EBEBEB"/>
<path d="M345.384 314.574H321.297V314.756H345.384V314.574Z" fill="#EBEBEB"/>
<path d="M259.07 316.552H252.75V316.734H259.07V316.552Z" fill="#EBEBEB"/>
<path d="M320.57 307.825H306.613V308.007H320.57V307.825Z" fill="#EBEBEB"/>
<path d="M87.7468 309.047H56.3359V309.229H87.7468V309.047Z" fill="#EBEBEB"/>
<path d="M98.8302 309.047H94.2266V309.229H98.8302V309.047Z" fill="#EBEBEB"/>
<path d="M181.928 312.116H113.797V312.298H181.928V312.116Z" fill="#EBEBEB"/>
<path d="M190.554 270.436H50.1176C47.8267 270.436 45.9648 268.574 45.9648 266.283V68.8798C45.9648 66.5889 47.8267 64.7271 50.1176 64.7271H190.554C192.845 64.7271 194.707 66.5889 194.707 68.8798V266.283C194.707 268.574 192.845 270.436 190.554 270.436ZM50.1176 64.9089C47.9285 64.9089 46.1467 66.6907 46.1467 68.8798V266.283C46.1467 268.473 47.9285 270.254 50.1176 270.254H190.554C192.743 270.254 194.525 268.473 194.525 266.283V68.8798C194.525 66.6907 192.743 64.9089 190.554 64.9089H50.1176Z" fill="#EBEBEB"/>
<path d="M347.863 270.436H207.426C205.135 270.436 203.273 268.574 203.273 266.283V68.8798C203.273 66.5889 205.135 64.7271 207.426 64.7271H347.863C350.153 64.7271 352.015 66.5889 352.015 68.8798V266.283C352.015 268.574 350.153 270.436 347.863 270.436ZM207.426 64.9089C205.237 64.9089 203.455 66.6907 203.455 68.8798V266.283C203.455 268.473 205.237 270.254 207.426 270.254H347.863C350.052 270.254 351.833 268.473 351.833 266.283V68.8798C351.833 66.6907 350.052 64.9089 347.863 64.9089H207.426Z" fill="#EBEBEB"/>
<path d="M177.059 232.662H85.1172V239.149H177.059V232.662Z" fill="#EBEBEB"/>
<path d="M177.06 232.662H137.082V239.149H177.06V232.662Z" fill="#E0E0E0"/>
<path d="M98.7026 239.156H85.1172V302.873H98.7026V239.156Z" fill="#EBEBEB"/>
<path d="M98.7026 245.731L85.1172 241.105V239.156H98.7026V245.731Z" fill="#E0E0E0"/>
<path d="M177.058 239.156H163.473V302.873H177.058V239.156Z" fill="#E0E0E0"/>
<path d="M150.667 239.156H137.082V302.873H150.667V239.156Z" fill="#EBEBEB"/>
<path d="M150.66 245.731L137.082 241.105V239.156H150.66V245.731Z" fill="#E0E0E0"/>
<path d="M125.093 239.156H111.508V302.873H125.093V239.156Z" fill="#E0E0E0"/>
<path d="M185.697 88.1523H69.8203V186.821H185.697V88.1523Z" fill="#EBEBEB"/>
<path d="M185.698 186.821H186.992V88.1522H185.698V186.821Z" fill="#E0E0E0"/>
<path d="M181.332 182.458V92.5161H74.1829V182.458H181.332Z" fill="#F5F5F5"/>
<path d="M126.469 168.799C133 146.959 134.832 114.799 148.76 119.243C162.687 123.679 144.44 171.265 144.44 171.265L126.469 168.799Z" fill="white"/>
<path d="M137.711 169.89C131.049 138.268 132.729 96.283 112.031 97.2503C91.333 98.2103 112.031 171.265 112.031 171.265L137.711 169.89Z" fill="white"/>
<path d="M152.337 166.341H107.028C105.014 166.341 103.486 167.818 103.399 169.687C102.475 190.559 105.894 211.832 112.257 232.661H146.955C153.319 211.832 156.737 190.559 155.814 169.687C155.734 167.818 154.206 166.341 152.33 166.341H152.337Z" fill="#EBEBEB"/>
<path d="M255.42 99.1636H252.867V302.873H255.42V99.1636Z" fill="#E0E0E0"/>
<path d="M315.412 99.1636H312.859V302.873H315.412V99.1636Z" fill="#E0E0E0"/>
<path d="M237.318 99.1636H234.766V302.873H237.318V99.1636Z" fill="#EBEBEB"/>
<path d="M297.311 99.1636H294.758V302.873H297.311V99.1636Z" fill="#EBEBEB"/>
<path d="M315.413 97.7671H234.766V100.553H315.413V97.7671Z" fill="#EBEBEB"/>
<path d="M315.413 147.651H234.766V150.436H315.413V147.651Z" fill="#EBEBEB"/>
<path d="M315.413 197.534H234.766V200.32H315.413V197.534Z" fill="#EBEBEB"/>
<path d="M315.413 247.418H234.766V250.203H315.413V247.418Z" fill="#EBEBEB"/>
<path d="M315.413 297.302H234.766V300.087H315.413V297.302Z" fill="#EBEBEB"/>
<path d="M315.414 97.7671H297.312V100.553H315.414V97.7671Z" fill="#E0E0E0"/>
<path d="M315.414 147.651H297.312V150.436H315.414V147.651Z" fill="#E0E0E0"/>
<path d="M315.414 197.534H297.312V200.32H315.414V197.534Z" fill="#E0E0E0"/>
<path d="M315.414 247.418H297.312V250.203H315.414V247.418Z" fill="#E0E0E0"/>
<path d="M315.414 297.302H297.312V300.087H315.414V297.302Z" fill="#E0E0E0"/>
<path d="M267.298 114.734V110.807H257.603V114.734C257.603 117.302 255.523 119.382 252.956 119.382C250.389 119.382 248.309 121.462 248.309 124.029V147.658H276.585V124.029C276.585 121.462 274.505 119.382 271.938 119.382C269.37 119.382 267.29 117.302 267.29 114.734H267.298Z" fill="#F0F0F0"/>
<path d="M287.362 181.309H244.875V197.535H287.362V181.309Z" fill="#F0F0F0"/>
<path d="M287.361 197.535H294.758V181.309H287.361V197.535Z" fill="#E6E6E6"/>
<path d="M287.361 190.312H294.758V188.523H287.361V190.312Z" fill="#EBEBEB"/>
<path d="M287.362 188.531H244.875V190.32H287.362V188.531Z" fill="#F5F5F5"/>
<path d="M275.978 268.618H242.793V297.302H275.978V268.618Z" fill="#F0F0F0"/>
<path d="M275.979 297.302H281.754V268.618H275.979V297.302Z" fill="#E6E6E6"/>
<path d="M275.979 284.538H281.754V281.374H275.979V284.538Z" fill="#EBEBEB"/>
<path d="M275.978 281.382H242.793V284.545H275.978V281.382Z" fill="#F5F5F5"/>
<path d="M275.979 279.164H281.754V278.036H275.979V279.164Z" fill="#EBEBEB"/>
<path d="M275.978 278.036H242.793V279.163H275.978V278.036Z" fill="#F5F5F5"/>
<path d="M250.882 218.254H244.875V247.418H250.882V218.254Z" fill="#F0F0F0"/>
<path d="M250.882 228.647H244.875V237.025H250.882V228.647Z" fill="#FAFAFA"/>
<path d="M250.88 247.418H271.316V218.254H250.88V247.418Z" fill="#E6E6E6"/>
<path d="M260.164 214.487H253.379V247.418H260.164V214.487Z" fill="#EBEBEB"/>
<path d="M260.164 224.953H253.379V230.022H260.164V224.953Z" fill="#FAFAFA"/>
<path d="M260.164 233.418H253.379V238.487H260.164V233.418Z" fill="#FAFAFA"/>
<path d="M260.174 247.411H283.25V214.48H260.174V247.411Z" fill="#E0E0E0"/>
<path d="M267.717 218.254H264.059V247.418H267.717V218.254Z" fill="#F0F0F0"/>
<path d="M267.084 221.949H264.684V243.724H267.084V221.949Z" fill="#FAFAFA"/>
<path d="M267.708 247.418H280.137V218.254H267.708V247.418Z" fill="#E6E6E6"/>
<path d="M277.486 216.713H273.355V247.411H277.486V216.713Z" fill="#EBEBEB"/>
<path d="M277.486 226.473H273.355V231.2H277.486V226.473Z" fill="#FAFAFA"/>
<path d="M277.486 234.364H273.355V239.091H277.486V234.364Z" fill="#FAFAFA"/>
<path d="M277.487 247.418H291.523V216.72H277.487V247.418Z" fill="#E0E0E0"/>
<path d="M275.61 178.663C279.143 175.129 279.143 169.401 275.61 165.868C272.077 162.335 266.349 162.335 262.815 165.868C259.282 169.401 259.282 175.129 262.815 178.663C266.349 182.196 272.077 182.196 275.61 178.663Z" fill="#F5F5F5"/>
<path d="M280.224 181.215C283.642 180.66 285.963 177.44 285.408 174.022C284.853 170.605 281.633 168.284 278.215 168.839C274.798 169.394 272.477 172.614 273.032 176.031C273.587 179.449 276.807 181.77 280.224 181.215Z" fill="#EBEBEB"/>
<path d="M200.003 335.716C277.881 335.716 341.014 332.031 341.014 327.484C341.014 322.937 277.881 319.251 200.003 319.251C122.125 319.251 58.9922 322.937 58.9922 327.484C58.9922 332.031 122.125 335.716 200.003 335.716Z" fill="#F5F5F5"/>
<path d="M109.898 271.083H203.309V319.33C203.309 321.927 201.2 324.036 198.604 324.036H114.604C112.008 324.036 109.898 321.927 109.898 319.33V271.083Z" fill="#407BFF"/>
<path d="M109.898 271.083H175.993L167.862 260.676C166.968 259.534 164.757 258.61 162.917 258.61H103.477C101.637 258.61 100.873 259.534 101.76 260.676L109.891 271.083H109.898Z" fill="#407BFF"/>
<path opacity="0.2" d="M109.898 271.083H175.993L167.862 260.676C166.968 259.534 164.757 258.61 162.917 258.61H103.477C101.637 258.61 100.873 259.534 101.76 260.676L109.891 271.083H109.898Z" fill="black"/>
<path d="M203.309 271.083H137.215L145.346 264.298C146.24 263.556 148.451 262.952 150.291 262.952H209.731C211.571 262.952 212.335 263.556 211.448 264.298L203.317 271.083H203.309Z" fill="#407BFF"/>
<path opacity="0.2" d="M137.215 271.083H203.309V319.33C203.309 321.927 201.2 324.036 198.604 324.036H141.92C139.324 324.036 137.215 321.927 137.215 319.33V271.083Z" fill="white"/>
<path opacity="0.5" d="M118.102 271.083V304.159L120.385 302.356L121.992 304.159L123.389 302.152L124.822 304.159L126.814 302.647L129.011 304.159V271.083H118.102Z" fill="white"/>
</svg>
