<svg width="24" height="24" viewBox="0 0 24 24" fill="none" xmlns="http://www.w3.org/2000/svg">
<path d="M15.8 14.9984C16.4 14.5984 17 14.5984 17.8 14.5984C17.8 14.5984 18 14.5984 17.8 14.3984C17.2 13.7984 16.4 13.1984 15.4 12.9984C16.8 11.9984 17.8 10.1984 17.8 8.19844C17.8 4.99844 15.2 2.39844 12 2.39844C8.79995 2.39844 6.19995 4.99844 6.19995 8.19844C6.19995 10.1984 7.19995 11.7984 8.59995 12.9984C7.59995 13.3984 6.59995 13.9984 5.79995 14.7984C4.99995 15.5984 4.39995 16.5984 3.79995 17.5984C3.39995 18.5984 3.19995 19.7984 3.19995 20.7984C3.19995 20.9984 3.19995 20.9984 3.39995 20.9984H4.79995C4.99995 20.9984 4.99995 20.9984 4.99995 20.7984C4.99995 18.9984 5.79995 17.1984 6.99995 15.9984C8.39995 14.7984 10.2 13.9984 12 13.9984C13.4 13.9984 14.6 14.3984 15.8 14.9984ZM12 12.1984C11 12.1984 9.99995 11.7984 9.19995 10.9984C8.39995 10.1984 7.99995 9.19844 7.99995 8.19844C7.99995 7.19844 8.39995 6.19844 9.19995 5.39844C9.99995 4.59844 11 4.19844 12 4.19844C13 4.19844 14 4.59844 14.8 5.39844C15.6 5.99844 16 7.19844 16 8.19844C16 9.19844 15.6 10.1984 14.8 10.9984C14 11.7984 13 12.1984 12 12.1984Z" fill="black"/>
<path d="M18.0001 17.9992L18.2001 18.1992H20.8001C21.0001 18.1992 21.0001 17.9992 21.0001 17.9992V15.3992C21.0001 15.1992 21.0001 15.1992 20.8001 15.1992H20.6001L20.0001 15.9992C19.4001 15.3992 18.6001 15.1992 17.8001 15.1992C16.0001 15.1992 14.6001 16.5992 14.6001 18.3992C14.6001 20.1992 16.2001 21.5992 17.8001 21.5992C19.2001 21.5992 20.6001 20.5992 21.0001 19.1992V18.9992L20.8001 18.7992H20.0001C19.8001 18.7992 19.8001 18.7992 19.8001 18.9992C19.6001 19.5992 19.2001 19.9992 18.8001 20.1992C18.4001 20.3992 17.8001 20.3992 17.2001 20.1992C16.6001 19.9992 16.0001 19.5992 15.8001 18.9992C15.6001 18.5992 15.6001 17.9992 15.8001 17.5992C16.2001 16.7992 16.8001 16.3992 17.8001 16.3992C18.2001 16.3992 18.8001 16.5992 19.0001 16.7992L18.0001 17.7992V17.9992Z" fill="black"/>
</svg>
