<svg width="12" height="10" viewBox="0 0 12 10" fill="none" xmlns="http://www.w3.org/2000/svg">
<path fill-rule="evenodd" clip-rule="evenodd" d="M11.4421 0.885564C11.1879 0.632387 10.8438 0.490234 10.4851 0.490234C10.1263 0.490234 9.78223 0.632387 9.52808 0.885564L4.16888 6.24596L2.47208 4.54796C1.96088 4.03556 1.06808 4.03796 0.559283 4.54796C0.306471 4.80206 0.164551 5.14592 0.164551 5.50436C0.164551 5.86281 0.306471 6.20667 0.559283 6.46076L3.21368 9.11397C3.46808 9.36957 3.80888 9.50996 4.16888 9.50996C4.53128 9.50996 4.87088 9.36957 5.12528 9.11397L11.4421 2.79956C11.6953 2.54542 11.8374 2.2013 11.8374 1.84256C11.8374 1.48383 11.6953 1.13971 11.4421 0.885564Z" fill="white"/>
</svg>
