<svg width="58" height="58" viewBox="0 0 58 58" fill="none" xmlns="http://www.w3.org/2000/svg">
<rect x="0.5" y="0.5" width="57" height="57" rx="28.5" fill="#EFF6FF"/>
<path d="M28.9945 31.8117L30.5111 28.345L33.9778 26.8283L30.5111 25.3117L28.9945 21.845L27.4778 25.3117L24.0111 26.8283L27.4778 28.345L28.9945 31.8117ZM18.1611 39.8283V19.7867C18.1611 19.3696 18.3236 18.9958 18.6486 18.66C18.9736 18.3242 19.3528 18.1562 19.7861 18.1562H38.2028C38.6199 18.1562 38.9936 18.3242 39.3295 18.66C39.6653 18.9958 39.8332 19.3696 39.8332 19.7867V33.87C39.8332 34.2871 39.6653 34.6608 39.3295 34.9967C38.9936 35.3325 38.6199 35.5004 38.2028 35.5004H22.4945L18.1611 39.8337V39.8283Z" fill="#353988"/>
<rect x="0.5" y="0.5" width="57" height="57" rx="28.5" stroke="#93C5FD"/>
</svg>
